<svg width="292" height="72" viewBox="0 0 292 72" fill="none" xmlns="http://www.w3.org/2000/svg">
<rect width="36" height="31" transform="translate(216.5 20.5)" fill="white"/>
<rect x="217" y="21" width="35" height="15" fill="#FF6B6B"/>
<path d="M238.619 28.9432V31.5H237.591V27.1364H238.574V27.8778H238.625C238.725 27.6335 238.885 27.4394 239.105 27.2955C239.327 27.1515 239.6 27.0795 239.926 27.0795C240.227 27.0795 240.49 27.1439 240.713 27.2727C240.938 27.4015 241.113 27.5881 241.236 27.8324C241.361 28.0767 241.422 28.3731 241.42 28.7216V31.5H240.392V28.8807C240.392 28.589 240.316 28.3608 240.165 28.196C240.015 28.0312 239.808 27.9489 239.543 27.9489C239.363 27.9489 239.203 27.9886 239.062 28.0682C238.924 28.1458 238.815 28.2585 238.736 28.4062C238.658 28.554 238.619 28.733 238.619 28.9432ZM242.466 31.5V27.1364H243.463V27.8636H243.509C243.588 27.6117 243.724 27.4176 243.918 27.2812C244.113 27.143 244.335 27.0739 244.585 27.0739C244.642 27.0739 244.705 27.0767 244.776 27.0824C244.848 27.0862 244.907 27.0928 244.955 27.1023V28.0483C244.911 28.0331 244.842 28.0199 244.747 28.0085C244.654 27.9953 244.564 27.9886 244.477 27.9886C244.29 27.9886 244.121 28.0294 243.972 28.1108C243.824 28.1903 243.707 28.3011 243.622 28.4432C243.537 28.5852 243.494 28.7491 243.494 28.9347V31.5H242.466ZM249.087 28.2898L248.149 28.392C248.123 28.2973 248.076 28.2083 248.01 28.125C247.946 28.0417 247.858 27.9744 247.749 27.9233C247.639 27.8722 247.504 27.8466 247.345 27.8466C247.131 27.8466 246.951 27.893 246.805 27.9858C246.661 28.0786 246.59 28.1989 246.592 28.3466C246.59 28.4735 246.637 28.5767 246.732 28.6562C246.828 28.7358 246.987 28.8011 247.209 28.8523L247.953 29.0114C248.366 29.1004 248.673 29.2415 248.874 29.4347C249.076 29.6278 249.179 29.8807 249.18 30.1932C249.179 30.4678 249.098 30.7102 248.939 30.9205C248.782 31.1288 248.563 31.2917 248.283 31.4091C248.002 31.5265 247.68 31.5852 247.317 31.5852C246.783 31.5852 246.353 31.4735 246.027 31.25C245.701 31.0246 245.507 30.7112 245.445 30.3097L246.447 30.2131C246.493 30.41 246.589 30.5587 246.737 30.6591C246.885 30.7595 247.077 30.8097 247.314 30.8097C247.558 30.8097 247.754 30.7595 247.902 30.6591C248.052 30.5587 248.126 30.4347 248.126 30.2869C248.126 30.1619 248.078 30.0587 247.982 29.9773C247.887 29.8958 247.739 29.8333 247.538 29.7898L246.794 29.6335C246.375 29.5464 246.066 29.3996 245.865 29.1932C245.664 28.9848 245.565 28.7216 245.567 28.4034C245.565 28.1345 245.638 27.9015 245.786 27.7045C245.935 27.5057 246.143 27.3523 246.408 27.2443C246.675 27.1345 246.982 27.0795 247.331 27.0795C247.842 27.0795 248.245 27.1884 248.538 27.4062C248.834 27.6241 249.017 27.9186 249.087 28.2898Z" fill="#2F2F2F"/>
<rect x="217" y="21" width="35" height="15" stroke="white"/>
<rect x="217" y="36" width="35" height="15" fill="#FF6B6B" fill-opacity="0.5"/>
<path d="M246.974 46.5795C246.599 46.5795 246.265 46.5152 245.972 46.3864C245.68 46.2576 245.448 46.0786 245.276 45.8494C245.105 45.6184 245.012 45.3504 244.997 45.0455H245.713C245.728 45.233 245.793 45.3949 245.906 45.5312C246.02 45.6657 246.169 45.7699 246.352 45.8438C246.536 45.9176 246.74 45.9545 246.963 45.9545C247.213 45.9545 247.435 45.911 247.628 45.8239C247.821 45.7367 247.973 45.6155 248.082 45.4602C248.192 45.3049 248.247 45.125 248.247 44.9205C248.247 44.7064 248.194 44.518 248.088 44.3551C247.982 44.1903 247.827 44.0616 247.622 43.9688C247.418 43.8759 247.168 43.8295 246.872 43.8295H246.406V43.2045H246.872C247.103 43.2045 247.306 43.1629 247.48 43.0795C247.656 42.9962 247.794 42.8788 247.892 42.7273C247.992 42.5758 248.043 42.3977 248.043 42.1932C248.043 41.9962 247.999 41.8248 247.912 41.679C247.825 41.5331 247.702 41.4195 247.543 41.3381C247.385 41.2566 247.2 41.2159 246.986 41.2159C246.785 41.2159 246.596 41.2528 246.418 41.3267C246.241 41.3987 246.098 41.5038 245.986 41.642C245.874 41.7784 245.813 41.9432 245.804 42.1364H245.122C245.134 41.8314 245.225 41.5644 245.398 41.3352C245.57 41.1042 245.795 40.9242 246.074 40.7955C246.354 40.6667 246.662 40.6023 246.997 40.6023C247.357 40.6023 247.666 40.6752 247.923 40.821C248.181 40.965 248.379 41.1553 248.517 41.392C248.655 41.6288 248.724 41.8845 248.724 42.1591C248.724 42.4867 248.638 42.7661 248.466 42.9972C248.295 43.2282 248.063 43.3883 247.77 43.4773V43.5227C248.137 43.5833 248.424 43.7396 248.631 43.9915C248.837 44.2415 248.94 44.5511 248.94 44.9205C248.94 45.2367 248.854 45.5208 248.682 45.7727C248.511 46.0227 248.278 46.2197 247.983 46.3636C247.688 46.5076 247.351 46.5795 246.974 46.5795Z" fill="#2F2F2F"/>
<rect x="217" y="36" width="35" height="15" stroke="white"/>
<rect width="36" height="31" transform="translate(251.5 20.5)" fill="white"/>
<rect x="252" y="21" width="35" height="15" fill="#FFD93D"/>
<path d="M260.276 28.9432V31.5H259.247V27.1364H260.23V27.8778H260.281C260.382 27.6335 260.542 27.4394 260.761 27.2955C260.983 27.1515 261.257 27.0795 261.582 27.0795C261.884 27.0795 262.146 27.1439 262.369 27.2727C262.595 27.4015 262.769 27.5881 262.892 27.8324C263.017 28.0767 263.079 28.3731 263.077 28.7216V31.5H262.048V28.8807C262.048 28.589 261.973 28.3608 261.821 28.196C261.671 28.0312 261.464 27.9489 261.199 27.9489C261.019 27.9489 260.859 27.9886 260.719 28.0682C260.58 28.1458 260.472 28.2585 260.392 28.4062C260.314 28.554 260.276 28.733 260.276 28.9432ZM265.378 31.5881C265.101 31.5881 264.852 31.5388 264.631 31.4403C264.411 31.34 264.237 31.1922 264.108 30.9972C263.981 30.8021 263.918 30.5616 263.918 30.2756C263.918 30.0294 263.963 29.8258 264.054 29.6648C264.145 29.5038 264.269 29.375 264.426 29.2784C264.583 29.1818 264.76 29.1089 264.957 29.0597C265.156 29.0085 265.362 28.9716 265.574 28.9489C265.83 28.9223 266.037 28.8987 266.196 28.8778C266.355 28.8551 266.471 28.821 266.543 28.7756C266.616 28.7282 266.653 28.6553 266.653 28.5568V28.5398C266.653 28.3258 266.59 28.16 266.463 28.0426C266.336 27.9252 266.153 27.8665 265.915 27.8665C265.663 27.8665 265.463 27.9214 265.315 28.0312C265.17 28.1411 265.071 28.2708 265.02 28.4205L264.06 28.2841C264.135 28.0189 264.26 27.7973 264.435 27.6193C264.609 27.4394 264.822 27.3049 265.074 27.2159C265.326 27.125 265.604 27.0795 265.909 27.0795C266.119 27.0795 266.329 27.1042 266.537 27.1534C266.745 27.2027 266.936 27.2841 267.108 27.3977C267.28 27.5095 267.419 27.6619 267.523 27.8551C267.629 28.0483 267.682 28.2898 267.682 28.5795V31.5H266.693V30.9006H266.659C266.597 31.0218 266.509 31.1354 266.395 31.2415C266.283 31.3456 266.142 31.4299 265.972 31.4943C265.803 31.5568 265.605 31.5881 265.378 31.5881ZM265.645 30.8324C265.851 30.8324 266.03 30.7917 266.182 30.7102C266.333 30.6269 266.45 30.517 266.531 30.3807C266.615 30.2443 266.656 30.0956 266.656 29.9347V29.4205C266.624 29.447 266.569 29.4716 266.491 29.4943C266.416 29.517 266.33 29.5369 266.236 29.554C266.141 29.571 266.047 29.5862 265.955 29.5994C265.862 29.6127 265.781 29.6241 265.713 29.6335C265.56 29.6544 265.422 29.6884 265.301 29.7358C265.18 29.7831 265.084 29.8494 265.014 29.9347C264.944 30.018 264.909 30.1259 264.909 30.2585C264.909 30.4479 264.978 30.5909 265.116 30.6875C265.255 30.7841 265.431 30.8324 265.645 30.8324ZM268.716 31.5V27.1364H269.699V27.8778H269.75C269.841 27.6278 269.991 27.4328 270.202 27.2926C270.412 27.1506 270.663 27.0795 270.955 27.0795C271.25 27.0795 271.499 27.1515 271.702 27.2955C271.906 27.4375 272.05 27.6316 272.134 27.8778H272.179C272.276 27.6354 272.438 27.4422 272.668 27.2983C272.899 27.1525 273.172 27.0795 273.489 27.0795C273.89 27.0795 274.218 27.2064 274.472 27.4602C274.725 27.714 274.852 28.0843 274.852 28.571V31.5H273.821V28.7301C273.821 28.4593 273.749 28.2614 273.605 28.1364C273.461 28.0095 273.285 27.946 273.077 27.946C272.829 27.946 272.634 28.0237 272.494 28.179C272.356 28.3324 272.287 28.5322 272.287 28.7784V31.5H271.278V28.6875C271.278 28.4621 271.21 28.2822 271.074 28.1477C270.939 28.0133 270.763 27.946 270.545 27.946C270.398 27.946 270.263 27.9839 270.142 28.0597C270.021 28.1335 269.924 28.2386 269.852 28.375C269.78 28.5095 269.744 28.6667 269.744 28.8466V31.5H268.716ZM277.827 31.5852C277.39 31.5852 277.012 31.4943 276.694 31.3125C276.378 31.1288 276.134 30.8693 275.964 30.5341C275.793 30.197 275.708 29.8002 275.708 29.3438C275.708 28.8949 275.793 28.5009 275.964 28.1619C276.136 27.821 276.377 27.5559 276.685 27.3665C276.994 27.1752 277.357 27.0795 277.773 27.0795C278.042 27.0795 278.296 27.1231 278.535 27.2102C278.775 27.2955 278.987 27.428 279.171 27.608C279.357 27.7879 279.503 28.017 279.609 28.2955C279.715 28.572 279.768 28.9015 279.768 29.2841V29.5994H276.191V28.9062H278.782C278.78 28.7093 278.737 28.5341 278.654 28.3807C278.571 28.2254 278.454 28.1032 278.305 28.0142C278.157 27.9252 277.985 27.8807 277.788 27.8807C277.577 27.8807 277.393 27.9318 277.234 28.0341C277.075 28.1345 276.951 28.267 276.862 28.4318C276.774 28.5947 276.73 28.7737 276.728 28.9688V29.5739C276.728 29.8277 276.774 30.0455 276.867 30.2273C276.96 30.4072 277.09 30.5455 277.256 30.642C277.423 30.7367 277.618 30.7841 277.842 30.7841C277.991 30.7841 278.127 30.7633 278.248 30.7216C278.369 30.678 278.474 30.6146 278.563 30.5312C278.652 30.4479 278.719 30.3447 278.765 30.2216L279.725 30.3295C279.665 30.5833 279.549 30.8049 279.379 30.9943C279.21 31.1818 278.994 31.3277 278.731 31.4318C278.468 31.5341 278.166 31.5852 277.827 31.5852ZM284.087 28.2898L283.149 28.392C283.123 28.2973 283.076 28.2083 283.01 28.125C282.946 28.0417 282.858 27.9744 282.749 27.9233C282.639 27.8722 282.504 27.8466 282.345 27.8466C282.131 27.8466 281.951 27.893 281.805 27.9858C281.661 28.0786 281.59 28.1989 281.592 28.3466C281.59 28.4735 281.637 28.5767 281.732 28.6562C281.828 28.7358 281.987 28.8011 282.209 28.8523L282.953 29.0114C283.366 29.1004 283.673 29.2415 283.874 29.4347C284.076 29.6278 284.179 29.8807 284.18 30.1932C284.179 30.4678 284.098 30.7102 283.939 30.9205C283.782 31.1288 283.563 31.2917 283.283 31.4091C283.002 31.5265 282.68 31.5852 282.317 31.5852C281.783 31.5852 281.353 31.4735 281.027 31.25C280.701 31.0246 280.507 30.7112 280.445 30.3097L281.447 30.2131C281.493 30.41 281.589 30.5587 281.737 30.6591C281.885 30.7595 282.077 30.8097 282.314 30.8097C282.558 30.8097 282.754 30.7595 282.902 30.6591C283.052 30.5587 283.126 30.4347 283.126 30.2869C283.126 30.1619 283.078 30.0587 282.982 29.9773C282.887 29.8958 282.739 29.8333 282.538 29.7898L281.794 29.6335C281.375 29.5464 281.066 29.3996 280.865 29.1932C280.664 28.9848 280.565 28.7216 280.567 28.4034C280.565 28.1345 280.638 27.9015 280.786 27.7045C280.935 27.5057 281.143 27.3523 281.408 27.2443C281.675 27.1345 281.982 27.0795 282.331 27.0795C282.842 27.0795 283.245 27.1884 283.538 27.4062C283.834 27.6241 284.017 27.9186 284.087 28.2898Z" fill="#2F2F2F"/>
<rect x="252" y="21" width="35" height="15" stroke="white"/>
<rect x="252" y="36" width="35" height="15" fill="#FFD93D" fill-opacity="0.5"/>
<path d="M258.277 42.5V41.9886C258.277 41.8333 258.304 41.6686 258.359 41.4943C258.416 41.3182 258.498 41.1487 258.604 40.9858C258.712 40.821 258.841 40.678 258.993 40.5568L259.357 40.8523C259.237 41.0227 259.133 41.2008 259.044 41.3864C258.957 41.5701 258.913 41.767 258.913 41.9773V42.5H258.277ZM259.732 42.5V41.9886C259.732 41.8333 259.759 41.6686 259.814 41.4943C259.871 41.3182 259.952 41.1487 260.058 40.9858C260.166 40.821 260.296 40.678 260.447 40.5568L260.811 40.8523C260.692 41.0227 260.588 41.2008 260.499 41.3864C260.411 41.5701 260.368 41.767 260.368 41.9773V42.5H259.732ZM264.642 43.1136L264.04 43.2841C264.002 43.1837 263.946 43.0862 263.872 42.9915C263.8 42.8949 263.702 42.8153 263.577 42.7528C263.452 42.6903 263.292 42.6591 263.097 42.6591C262.83 42.6591 262.607 42.7206 262.429 42.8438C262.253 42.965 262.165 43.1193 262.165 43.3068C262.165 43.4735 262.225 43.6051 262.347 43.7017C262.468 43.7983 262.657 43.8788 262.915 43.9432L263.562 44.1023C263.953 44.197 264.243 44.3419 264.435 44.5369C264.626 44.7301 264.722 44.9792 264.722 45.2841C264.722 45.5341 264.65 45.7576 264.506 45.9545C264.364 46.1515 264.165 46.3068 263.909 46.4205C263.653 46.5341 263.356 46.5909 263.017 46.5909C262.572 46.5909 262.204 46.4943 261.912 46.3011C261.62 46.108 261.436 45.8258 261.358 45.4545L261.994 45.2955C262.055 45.5303 262.17 45.7064 262.338 45.8239C262.509 45.9413 262.731 46 263.006 46C263.318 46 263.566 45.9337 263.75 45.8011C263.936 45.6667 264.028 45.5057 264.028 45.3182C264.028 45.1667 263.975 45.0398 263.869 44.9375C263.763 44.8333 263.6 44.7557 263.381 44.7045L262.653 44.5341C262.254 44.4394 261.96 44.2926 261.773 44.0938C261.587 43.893 261.494 43.642 261.494 43.3409C261.494 43.0947 261.563 42.8769 261.702 42.6875C261.842 42.4981 262.032 42.3494 262.273 42.2415C262.515 42.1335 262.79 42.0795 263.097 42.0795C263.528 42.0795 263.867 42.1742 264.114 42.3636C264.362 42.553 264.538 42.803 264.642 43.1136ZM265.731 48.1364V42.1364H266.379V42.8295H266.458C266.507 42.7538 266.576 42.6572 266.663 42.5398C266.752 42.4205 266.879 42.3144 267.043 42.2216C267.21 42.1269 267.435 42.0795 267.719 42.0795C268.087 42.0795 268.411 42.1714 268.691 42.3551C268.971 42.5388 269.19 42.7992 269.347 43.1364C269.504 43.4735 269.583 43.8712 269.583 44.3295C269.583 44.7917 269.504 45.1922 269.347 45.5312C269.19 45.8684 268.972 46.1297 268.694 46.3153C268.415 46.4991 268.094 46.5909 267.731 46.5909C267.451 46.5909 267.226 46.5445 267.058 46.4517C266.889 46.357 266.759 46.25 266.668 46.1307C266.577 46.0095 266.507 45.9091 266.458 45.8295H266.401V48.1364H265.731ZM266.39 44.3182C266.39 44.6477 266.438 44.9384 266.535 45.1903C266.631 45.4403 266.772 45.6364 266.958 45.7784C267.144 45.9186 267.371 45.9886 267.64 45.9886C267.92 45.9886 268.154 45.9148 268.342 45.767C268.531 45.6174 268.673 45.4167 268.768 45.1648C268.864 44.911 268.913 44.6288 268.913 44.3182C268.913 44.0114 268.865 43.7348 268.771 43.4886C268.678 43.2405 268.537 43.0445 268.347 42.9006C268.16 42.7547 267.924 42.6818 267.64 42.6818C267.367 42.6818 267.138 42.7509 266.952 42.8892C266.767 43.0256 266.627 43.2169 266.532 43.4631C266.437 43.7074 266.39 43.9924 266.39 44.3182ZM271.89 46.6023C271.613 46.6023 271.362 46.5502 271.137 46.446C270.912 46.34 270.733 46.1875 270.6 45.9886C270.468 45.7879 270.401 45.5455 270.401 45.2614C270.401 45.0114 270.451 44.8087 270.549 44.6534C270.647 44.4962 270.779 44.3731 270.944 44.2841C271.109 44.1951 271.29 44.1288 271.489 44.0852C271.69 44.0398 271.892 44.0038 272.094 43.9773C272.36 43.9432 272.575 43.9176 272.739 43.9006C272.906 43.8816 273.027 43.8504 273.103 43.8068C273.181 43.7633 273.219 43.6875 273.219 43.5795V43.5568C273.219 43.2765 273.143 43.0587 272.989 42.9034C272.838 42.7481 272.608 42.6705 272.299 42.6705C271.979 42.6705 271.728 42.7405 271.546 42.8807C271.364 43.0208 271.237 43.1705 271.163 43.3295L270.526 43.1023C270.64 42.8371 270.791 42.6307 270.981 42.483C271.172 42.3333 271.38 42.2292 271.606 42.1705C271.833 42.1098 272.057 42.0795 272.276 42.0795C272.416 42.0795 272.577 42.0966 272.759 42.1307C272.943 42.1629 273.12 42.2301 273.29 42.3324C273.463 42.4347 273.606 42.589 273.719 42.7955C273.833 43.0019 273.89 43.2784 273.89 43.625V46.5H273.219V45.9091H273.185C273.14 46.0038 273.064 46.1051 272.958 46.2131C272.852 46.321 272.711 46.4129 272.535 46.4886C272.359 46.5644 272.144 46.6023 271.89 46.6023ZM271.992 46C272.257 46 272.481 45.9479 272.663 45.8438C272.846 45.7396 272.985 45.6051 273.077 45.4403C273.172 45.2756 273.219 45.1023 273.219 44.9205V44.3068C273.191 44.3409 273.129 44.3722 273.032 44.4006C272.937 44.4271 272.827 44.4508 272.702 44.4716C272.579 44.4905 272.459 44.5076 272.342 44.5227C272.226 44.536 272.132 44.5473 272.06 44.5568C271.886 44.5795 271.723 44.6165 271.572 44.6676C271.422 44.7169 271.301 44.7917 271.208 44.892C271.117 44.9905 271.072 45.125 271.072 45.2955C271.072 45.5284 271.158 45.7045 271.33 45.8239C271.504 45.9413 271.725 46 271.992 46ZM275.114 46.5V42.1364H275.761V42.8182H275.818C275.909 42.5852 276.056 42.4044 276.259 42.2756C276.461 42.1449 276.705 42.0795 276.989 42.0795C277.277 42.0795 277.516 42.1449 277.707 42.2756C277.901 42.4044 278.051 42.5852 278.159 42.8182H278.205C278.316 42.5928 278.484 42.4138 278.707 42.2812C278.931 42.1468 279.199 42.0795 279.511 42.0795C279.902 42.0795 280.221 42.2017 280.469 42.446C280.717 42.6884 280.841 43.0663 280.841 43.5795V46.5H280.17V43.5795C280.17 43.2576 280.082 43.0275 279.906 42.8892C279.73 42.7509 279.523 42.6818 279.284 42.6818C278.977 42.6818 278.74 42.7746 278.571 42.9602C278.402 43.1439 278.318 43.3769 278.318 43.6591V46.5H277.636V43.5114C277.636 43.2633 277.556 43.0634 277.395 42.9119C277.234 42.7585 277.027 42.6818 276.773 42.6818C276.598 42.6818 276.436 42.7282 276.284 42.821C276.134 42.9138 276.013 43.0426 275.92 43.2074C275.83 43.3703 275.784 43.5587 275.784 43.7727V46.5H275.114ZM282.658 40.6818V41.1932C282.658 41.3485 282.629 41.5142 282.572 41.6903C282.518 41.8646 282.436 42.0341 282.328 42.1989C282.222 42.3617 282.093 42.5038 281.942 42.625L281.578 42.3295C281.697 42.1591 281.801 41.982 281.888 41.7983C281.977 41.6127 282.021 41.4148 282.021 41.2045V40.6818H282.658ZM284.112 40.6818V41.1932C284.112 41.3485 284.084 41.5142 284.027 41.6903C283.972 41.8646 283.891 42.0341 283.783 42.1989C283.677 42.3617 283.548 42.5038 283.396 42.625L283.033 42.3295C283.152 42.1591 283.255 41.982 283.342 41.7983C283.431 41.6127 283.476 41.4148 283.476 41.2045V40.6818H284.112Z" fill="#2F2F2F"/>
<rect x="252" y="36" width="35" height="15" stroke="white"/>
<path d="M197.124 35.983V34.4489H205.874V35.983H197.124ZM197.124 40.1875V38.6534H205.874V40.1875H197.124Z" fill="black"/>
<rect width="36" height="61" transform="translate(108.5 5.5)" fill="white"/>
<rect x="109" y="6" width="35" height="15" fill="#FF6B6B"/>
<path d="M130.619 13.9432V16.5H129.591V12.1364H130.574V12.8778H130.625C130.725 12.6335 130.885 12.4394 131.105 12.2955C131.327 12.1515 131.6 12.0795 131.926 12.0795C132.227 12.0795 132.49 12.1439 132.713 12.2727C132.938 12.4015 133.113 12.5881 133.236 12.8324C133.361 13.0767 133.422 13.3731 133.42 13.7216V16.5H132.392V13.8807C132.392 13.589 132.316 13.3608 132.165 13.196C132.015 13.0312 131.808 12.9489 131.543 12.9489C131.363 12.9489 131.203 12.9886 131.062 13.0682C130.924 13.1458 130.815 13.2585 130.736 13.4062C130.658 13.554 130.619 13.733 130.619 13.9432ZM134.466 16.5V12.1364H135.463V12.8636H135.509C135.588 12.6117 135.724 12.4176 135.918 12.2812C136.113 12.143 136.335 12.0739 136.585 12.0739C136.642 12.0739 136.705 12.0767 136.776 12.0824C136.848 12.0862 136.907 12.0928 136.955 12.1023V13.0483C136.911 13.0331 136.842 13.0199 136.747 13.0085C136.654 12.9953 136.564 12.9886 136.477 12.9886C136.29 12.9886 136.121 13.0294 135.972 13.1108C135.824 13.1903 135.707 13.3011 135.622 13.4432C135.537 13.5852 135.494 13.7491 135.494 13.9347V16.5H134.466ZM141.087 13.2898L140.149 13.392C140.123 13.2973 140.076 13.2083 140.01 13.125C139.946 13.0417 139.858 12.9744 139.749 12.9233C139.639 12.8722 139.504 12.8466 139.345 12.8466C139.131 12.8466 138.951 12.893 138.805 12.9858C138.661 13.0786 138.59 13.1989 138.592 13.3466C138.59 13.4735 138.637 13.5767 138.732 13.6562C138.828 13.7358 138.987 13.8011 139.209 13.8523L139.953 14.0114C140.366 14.1004 140.673 14.2415 140.874 14.4347C141.076 14.6278 141.179 14.8807 141.18 15.1932C141.179 15.4678 141.098 15.7102 140.939 15.9205C140.782 16.1288 140.563 16.2917 140.283 16.4091C140.002 16.5265 139.68 16.5852 139.317 16.5852C138.783 16.5852 138.353 16.4735 138.027 16.25C137.701 16.0246 137.507 15.7112 137.445 15.3097L138.447 15.2131C138.493 15.41 138.589 15.5587 138.737 15.6591C138.885 15.7595 139.077 15.8097 139.314 15.8097C139.558 15.8097 139.754 15.7595 139.902 15.6591C140.052 15.5587 140.126 15.4347 140.126 15.2869C140.126 15.1619 140.078 15.0587 139.982 14.9773C139.887 14.8958 139.739 14.8333 139.538 14.7898L138.794 14.6335C138.375 14.5464 138.066 14.3996 137.865 14.1932C137.664 13.9848 137.565 13.7216 137.567 13.4034C137.565 13.1345 137.638 12.9015 137.786 12.7045C137.935 12.5057 138.143 12.3523 138.408 12.2443C138.675 12.1345 138.982 12.0795 139.331 12.0795C139.842 12.0795 140.245 12.1884 140.538 12.4062C140.834 12.6241 141.017 12.9186 141.087 13.2898Z" fill="#2F2F2F"/>
<rect x="109" y="6" width="35" height="15" stroke="white"/>
<rect x="109" y="21" width="35" height="15" fill="#FF6B6B" fill-opacity="0.5"/>
<path d="M140.429 25.6818V31.5H139.724V26.4205H139.69L138.27 27.3636V26.6477L139.724 25.6818H140.429Z" fill="#2F2F2F"/>
<rect x="109" y="21" width="35" height="15" stroke="white"/>
<rect x="109" y="36" width="35" height="15" fill="#FF6B6B" fill-opacity="0.5"/>
<path d="M137.259 46.5V45.9886L139.179 43.8864C139.404 43.6402 139.59 43.4261 139.736 43.2443C139.882 43.0606 139.99 42.8883 140.06 42.7273C140.132 42.5644 140.168 42.3939 140.168 42.2159C140.168 42.0114 140.118 41.8343 140.02 41.6847C139.923 41.535 139.791 41.4195 139.622 41.3381C139.454 41.2566 139.264 41.2159 139.054 41.2159C138.83 41.2159 138.635 41.2623 138.469 41.3551C138.304 41.446 138.176 41.5739 138.085 41.7386C137.996 41.9034 137.952 42.0966 137.952 42.3182H137.281C137.281 41.9773 137.36 41.678 137.517 41.4205C137.674 41.1629 137.888 40.9621 138.159 40.8182C138.432 40.6742 138.738 40.6023 139.077 40.6023C139.418 40.6023 139.72 40.6742 139.983 40.8182C140.246 40.9621 140.453 41.1562 140.602 41.4006C140.752 41.6449 140.827 41.9167 140.827 42.2159C140.827 42.4299 140.788 42.6392 140.71 42.8438C140.634 43.0464 140.502 43.2727 140.312 43.5227C140.125 43.7708 139.865 44.0739 139.531 44.4318L138.224 45.8295V45.875H140.929V46.5H137.259Z" fill="#2F2F2F"/>
<rect x="109" y="36" width="35" height="15" stroke="white"/>
<rect x="109" y="51" width="35" height="15" fill="#FF6B6B" fill-opacity="0.5"/>
<path d="M139.042 61.5795C138.803 61.5758 138.565 61.5303 138.326 61.4432C138.087 61.3561 137.87 61.2093 137.673 61.0028C137.476 60.7945 137.317 60.5133 137.198 60.1591C137.079 59.803 137.019 59.3561 137.019 58.8182C137.019 58.303 137.067 57.8466 137.164 57.4489C137.261 57.0492 137.401 56.7131 137.585 56.4403C137.768 56.1657 137.99 55.9574 138.249 55.8153C138.511 55.6733 138.805 55.6023 139.133 55.6023C139.459 55.6023 139.748 55.6676 140.002 55.7983C140.258 55.9271 140.466 56.107 140.627 56.3381C140.788 56.5691 140.892 56.8352 140.94 57.1364H140.246C140.182 56.875 140.057 56.6581 139.871 56.4858C139.686 56.3134 139.44 56.2273 139.133 56.2273C138.682 56.2273 138.327 56.4233 138.067 56.8153C137.81 57.2074 137.68 57.7576 137.678 58.4659H137.724C137.83 58.3049 137.956 58.1676 138.102 58.054C138.249 57.9384 138.412 57.8494 138.59 57.7869C138.768 57.7244 138.957 57.6932 139.156 57.6932C139.489 57.6932 139.794 57.7765 140.07 57.9432C140.347 58.108 140.568 58.3362 140.735 58.6278C140.902 58.9176 140.985 59.25 140.985 59.625C140.985 59.9848 140.905 60.3144 140.744 60.6136C140.583 60.911 140.356 61.1477 140.065 61.3239C139.775 61.4981 139.434 61.5833 139.042 61.5795ZM139.042 60.9545C139.281 60.9545 139.495 60.8949 139.684 60.7756C139.875 60.6562 140.026 60.4962 140.136 60.2955C140.247 60.0947 140.303 59.8712 140.303 59.625C140.303 59.3845 140.249 59.1657 140.141 58.9688C140.035 58.7699 139.888 58.6117 139.701 58.4943C139.515 58.3769 139.303 58.3182 139.065 58.3182C138.885 58.3182 138.717 58.3542 138.562 58.4261C138.406 58.4962 138.27 58.5928 138.153 58.7159C138.037 58.839 137.946 58.9801 137.88 59.1392C137.814 59.2964 137.781 59.4621 137.781 59.6364C137.781 59.8674 137.835 60.0833 137.942 60.2841C138.052 60.4848 138.202 60.6468 138.391 60.7699C138.583 60.893 138.799 60.9545 139.042 60.9545Z" fill="#2F2F2F"/>
<rect x="109" y="51" width="35" height="15" stroke="white"/>
<rect width="43" height="61" transform="translate(143.5 5.5)" fill="white"/>
<rect x="144" y="6" width="42" height="15" fill="#6BCB77"/>
<path d="M155.479 16.5881C155.203 16.5881 154.954 16.5388 154.732 16.4403C154.513 16.34 154.338 16.1922 154.21 15.9972C154.083 15.8021 154.019 15.5616 154.019 15.2756C154.019 15.0294 154.065 14.8258 154.156 14.6648C154.246 14.5038 154.371 14.375 154.528 14.2784C154.685 14.1818 154.862 14.1089 155.059 14.0597C155.258 14.0085 155.463 13.9716 155.675 13.9489C155.931 13.9223 156.138 13.8987 156.298 13.8778C156.457 13.8551 156.572 13.821 156.644 13.7756C156.718 13.7282 156.755 13.6553 156.755 13.5568V13.5398C156.755 13.3258 156.692 13.16 156.565 13.0426C156.438 12.9252 156.255 12.8665 156.016 12.8665C155.764 12.8665 155.565 12.9214 155.417 13.0312C155.271 13.1411 155.173 13.2708 155.121 13.4205L154.161 13.2841C154.237 13.0189 154.362 12.7973 154.536 12.6193C154.71 12.4394 154.924 12.3049 155.175 12.2159C155.427 12.125 155.706 12.0795 156.011 12.0795C156.221 12.0795 156.43 12.1042 156.638 12.1534C156.847 12.2027 157.037 12.2841 157.21 12.3977C157.382 12.5095 157.52 12.6619 157.624 12.8551C157.73 13.0483 157.783 13.2898 157.783 13.5795V16.5H156.795V15.9006H156.761C156.698 16.0218 156.61 16.1354 156.496 16.2415C156.385 16.3456 156.244 16.4299 156.073 16.4943C155.905 16.5568 155.707 16.5881 155.479 16.5881ZM155.746 15.8324C155.953 15.8324 156.132 15.7917 156.283 15.7102C156.435 15.6269 156.551 15.517 156.633 15.3807C156.716 15.2443 156.758 15.0956 156.758 14.9347V14.4205C156.726 14.447 156.671 14.4716 156.593 14.4943C156.517 14.517 156.432 14.5369 156.337 14.554C156.243 14.571 156.149 14.5862 156.056 14.5994C155.963 14.6127 155.883 14.6241 155.815 14.6335C155.661 14.6544 155.524 14.6884 155.403 14.7358C155.281 14.7831 155.186 14.8494 155.116 14.9347C155.046 15.018 155.011 15.1259 155.011 15.2585C155.011 15.4479 155.08 15.5909 155.218 15.6875C155.356 15.7841 155.532 15.8324 155.746 15.8324ZM159.846 13.9432V16.5H158.817V12.1364H159.8V12.8778H159.852C159.952 12.6335 160.112 12.4394 160.332 12.2955C160.553 12.1515 160.827 12.0795 161.153 12.0795C161.454 12.0795 161.716 12.1439 161.94 12.2727C162.165 12.4015 162.339 12.5881 162.462 12.8324C162.587 13.0767 162.649 13.3731 162.647 13.7216V16.5H161.619V13.8807C161.619 13.589 161.543 13.3608 161.391 13.196C161.242 13.0312 161.034 12.9489 160.769 12.9489C160.589 12.9489 160.429 12.9886 160.289 13.0682C160.151 13.1458 160.042 13.2585 159.962 13.4062C159.885 13.554 159.846 13.733 159.846 13.9432ZM163.692 16.5V12.1364H164.721V16.5H163.692ZM164.21 11.517C164.047 11.517 163.906 11.4631 163.789 11.3551C163.672 11.2453 163.613 11.1136 163.613 10.9602C163.613 10.8049 163.672 10.6733 163.789 10.5653C163.906 10.4555 164.047 10.4006 164.21 10.4006C164.374 10.4006 164.514 10.4555 164.63 10.5653C164.747 10.6733 164.806 10.8049 164.806 10.9602C164.806 11.1136 164.747 11.2453 164.63 11.3551C164.514 11.4631 164.374 11.517 164.21 11.517ZM165.778 16.5V12.1364H166.761V12.8778H166.812C166.903 12.6278 167.054 12.4328 167.264 12.2926C167.474 12.1506 167.725 12.0795 168.017 12.0795C168.312 12.0795 168.562 12.1515 168.764 12.2955C168.969 12.4375 169.113 12.6316 169.196 12.8778H169.241C169.338 12.6354 169.501 12.4422 169.73 12.2983C169.961 12.1525 170.235 12.0795 170.551 12.0795C170.953 12.0795 171.28 12.2064 171.534 12.4602C171.788 12.714 171.915 13.0843 171.915 13.571V16.5H170.884V13.7301C170.884 13.4593 170.812 13.2614 170.668 13.1364C170.524 13.0095 170.348 12.946 170.139 12.946C169.891 12.946 169.697 13.0237 169.557 13.179C169.419 13.3324 169.349 13.5322 169.349 13.7784V16.5H168.341V13.6875C168.341 13.4621 168.273 13.2822 168.136 13.1477C168.002 13.0133 167.826 12.946 167.608 12.946C167.46 12.946 167.326 12.9839 167.205 13.0597C167.083 13.1335 166.987 13.2386 166.915 13.375C166.843 13.5095 166.807 13.6667 166.807 13.8466V16.5H165.778ZM174.214 16.5881C173.937 16.5881 173.688 16.5388 173.467 16.4403C173.247 16.34 173.073 16.1922 172.944 15.9972C172.817 15.8021 172.754 15.5616 172.754 15.2756C172.754 15.0294 172.799 14.8258 172.89 14.6648C172.981 14.5038 173.105 14.375 173.262 14.2784C173.419 14.1818 173.596 14.1089 173.793 14.0597C173.992 14.0085 174.198 13.9716 174.41 13.9489C174.665 13.9223 174.873 13.8987 175.032 13.8778C175.191 13.8551 175.307 13.821 175.379 13.7756C175.452 13.7282 175.489 13.6553 175.489 13.5568V13.5398C175.489 13.3258 175.426 13.16 175.299 13.0426C175.172 12.9252 174.989 12.8665 174.751 12.8665C174.499 12.8665 174.299 12.9214 174.151 13.0312C174.005 13.1411 173.907 13.2708 173.856 13.4205L172.896 13.2841C172.971 13.0189 173.096 12.7973 173.271 12.6193C173.445 12.4394 173.658 12.3049 173.91 12.2159C174.162 12.125 174.44 12.0795 174.745 12.0795C174.955 12.0795 175.165 12.1042 175.373 12.1534C175.581 12.2027 175.772 12.2841 175.944 12.3977C176.116 12.5095 176.254 12.6619 176.359 12.8551C176.465 13.0483 176.518 13.2898 176.518 13.5795V16.5H175.529V15.9006H175.495C175.433 16.0218 175.344 16.1354 175.231 16.2415C175.119 16.3456 174.978 16.4299 174.808 16.4943C174.639 16.5568 174.441 16.5881 174.214 16.5881ZM174.481 15.8324C174.687 15.8324 174.866 15.7917 175.018 15.7102C175.169 15.6269 175.286 15.517 175.367 15.3807C175.451 15.2443 175.492 15.0956 175.492 14.9347V14.4205C175.46 14.447 175.405 14.4716 175.327 14.4943C175.252 14.517 175.166 14.5369 175.072 14.554C174.977 14.571 174.883 14.5862 174.79 14.5994C174.698 14.6127 174.617 14.6241 174.549 14.6335C174.396 14.6544 174.258 14.6884 174.137 14.7358C174.016 14.7831 173.92 14.8494 173.85 14.9347C173.78 15.018 173.745 15.1259 173.745 15.2585C173.745 15.4479 173.814 15.5909 173.952 15.6875C174.091 15.7841 174.267 15.8324 174.481 15.8324ZM178.58 10.6818V16.5H177.552V10.6818H178.58ZM183.087 13.2898L182.149 13.392C182.123 13.2973 182.076 13.2083 182.01 13.125C181.946 13.0417 181.858 12.9744 181.749 12.9233C181.639 12.8722 181.504 12.8466 181.345 12.8466C181.131 12.8466 180.951 12.893 180.805 12.9858C180.661 13.0786 180.59 13.1989 180.592 13.3466C180.59 13.4735 180.637 13.5767 180.732 13.6562C180.828 13.7358 180.987 13.8011 181.209 13.8523L181.953 14.0114C182.366 14.1004 182.673 14.2415 182.874 14.4347C183.076 14.6278 183.179 14.8807 183.18 15.1932C183.179 15.4678 183.098 15.7102 182.939 15.9205C182.782 16.1288 182.563 16.2917 182.283 16.4091C182.002 16.5265 181.68 16.5852 181.317 16.5852C180.783 16.5852 180.353 16.4735 180.027 16.25C179.701 16.0246 179.507 15.7112 179.445 15.3097L180.447 15.2131C180.493 15.41 180.589 15.5587 180.737 15.6591C180.885 15.7595 181.077 15.8097 181.314 15.8097C181.558 15.8097 181.754 15.7595 181.902 15.6591C182.052 15.5587 182.126 15.4347 182.126 15.2869C182.126 15.1619 182.078 15.0587 181.982 14.9773C181.887 14.8958 181.739 14.8333 181.538 14.7898L180.794 14.6335C180.375 14.5464 180.066 14.3996 179.865 14.1932C179.664 13.9848 179.565 13.7216 179.567 13.4034C179.565 13.1345 179.638 12.9015 179.786 12.7045C179.935 12.5057 180.143 12.3523 180.408 12.2443C180.675 12.1345 180.982 12.0795 181.331 12.0795C181.842 12.0795 182.245 12.1884 182.538 12.4062C182.834 12.6241 183.017 12.9186 183.087 13.2898Z" fill="#2F2F2F"/>
<rect x="144" y="6" width="42" height="15" stroke="white"/>
<rect x="144" y="21" width="42" height="15" fill="#6BCB77" fill-opacity="0.5"/>
<path d="M147.144 27.5V26.9886C147.144 26.8333 147.172 26.6686 147.227 26.4943C147.283 26.3182 147.365 26.1487 147.471 25.9858C147.579 25.821 147.709 25.678 147.86 25.5568L148.224 25.8523C148.104 26.0227 148 26.2008 147.911 26.3864C147.824 26.5701 147.781 26.767 147.781 26.9773V27.5H147.144ZM148.599 27.5V26.9886C148.599 26.8333 148.626 26.6686 148.681 26.4943C148.738 26.3182 148.819 26.1487 148.925 25.9858C149.033 25.821 149.163 25.678 149.315 25.5568L149.678 25.8523C149.559 26.0227 149.455 26.2008 149.366 26.3864C149.279 26.5701 149.235 26.767 149.235 26.9773V27.5H148.599ZM152.191 31.5909C151.782 31.5909 151.43 31.4943 151.134 31.3011C150.839 31.108 150.612 30.8419 150.452 30.5028C150.293 30.1638 150.214 29.7765 150.214 29.3409C150.214 28.8977 150.295 28.5066 150.458 28.1676C150.623 27.8267 150.852 27.5606 151.146 27.3693C151.441 27.1761 151.786 27.0795 152.18 27.0795C152.487 27.0795 152.763 27.1364 153.009 27.25C153.255 27.3636 153.457 27.5227 153.614 27.7273C153.772 27.9318 153.869 28.1705 153.907 28.4432H153.237C153.185 28.2443 153.072 28.0682 152.896 27.9148C152.721 27.7595 152.487 27.6818 152.191 27.6818C151.93 27.6818 151.701 27.75 151.504 27.8864C151.308 28.0208 151.156 28.2112 151.046 28.4574C150.938 28.7017 150.884 28.9886 150.884 29.3182C150.884 29.6553 150.937 29.9489 151.043 30.1989C151.151 30.4489 151.303 30.643 151.498 30.7812C151.695 30.9195 151.926 30.9886 152.191 30.9886C152.365 30.9886 152.523 30.9583 152.665 30.8977C152.808 30.8371 152.928 30.75 153.026 30.6364C153.125 30.5227 153.195 30.3864 153.237 30.2273H153.907C153.869 30.4848 153.775 30.7169 153.626 30.9233C153.478 31.1278 153.282 31.2907 153.038 31.4119C152.795 31.5312 152.513 31.5909 152.191 31.5909ZM155.558 28.875V31.5H154.887V25.6818H155.558V27.8182H155.614C155.717 27.5928 155.87 27.4138 156.075 27.2812C156.281 27.1468 156.556 27.0795 156.898 27.0795C157.196 27.0795 157.456 27.1392 157.68 27.2585C157.903 27.3759 158.076 27.5568 158.2 27.8011C158.325 28.0436 158.387 28.3523 158.387 28.7273V31.5H157.717V28.7727C157.717 28.4261 157.627 28.1581 157.447 27.9688C157.269 27.7775 157.022 27.6818 156.705 27.6818C156.486 27.6818 156.289 27.7282 156.114 27.821C155.942 27.9138 155.806 28.0492 155.705 28.2273C155.607 28.4053 155.558 28.6212 155.558 28.875ZM161.443 31.5909C161.023 31.5909 160.66 31.4981 160.355 31.3125C160.052 31.125 159.818 30.8636 159.653 30.5284C159.491 30.1913 159.409 29.7992 159.409 29.3523C159.409 28.9053 159.491 28.5114 159.653 28.1705C159.818 27.8277 160.047 27.5606 160.341 27.3693C160.636 27.1761 160.981 27.0795 161.375 27.0795C161.602 27.0795 161.827 27.1174 162.048 27.1932C162.27 27.2689 162.472 27.392 162.653 27.5625C162.835 27.7311 162.98 27.9545 163.088 28.233C163.196 28.5114 163.25 28.8542 163.25 29.2614V29.5455H159.886V28.9659H162.568C162.568 28.7197 162.519 28.5 162.42 28.3068C162.324 28.1136 162.186 27.9612 162.006 27.8494C161.828 27.7377 161.617 27.6818 161.375 27.6818C161.108 27.6818 160.877 27.7481 160.682 27.8807C160.489 28.0114 160.34 28.1818 160.236 28.392C160.132 28.6023 160.08 28.8277 160.08 29.0682V29.4545C160.08 29.7841 160.136 30.0634 160.25 30.2926C160.366 30.5199 160.526 30.6932 160.73 30.8125C160.935 30.9299 161.172 30.9886 161.443 30.9886C161.619 30.9886 161.778 30.964 161.92 30.9148C162.064 30.8636 162.188 30.7879 162.293 30.6875C162.397 30.5852 162.477 30.4583 162.534 30.3068L163.182 30.4886C163.114 30.7083 162.999 30.9015 162.838 31.0682C162.677 31.233 162.478 31.3617 162.241 31.4545C162.005 31.5455 161.739 31.5909 161.443 31.5909ZM166.099 31.5909C165.679 31.5909 165.316 31.4981 165.011 31.3125C164.708 31.125 164.474 30.8636 164.31 30.5284C164.147 30.1913 164.065 29.7992 164.065 29.3523C164.065 28.9053 164.147 28.5114 164.31 28.1705C164.474 27.8277 164.704 27.5606 164.997 27.3693C165.293 27.1761 165.637 27.0795 166.031 27.0795C166.259 27.0795 166.483 27.1174 166.705 27.1932C166.926 27.2689 167.128 27.392 167.31 27.5625C167.491 27.7311 167.636 27.9545 167.744 28.233C167.852 28.5114 167.906 28.8542 167.906 29.2614V29.5455H164.543V28.9659H167.224C167.224 28.7197 167.175 28.5 167.077 28.3068C166.98 28.1136 166.842 27.9612 166.662 27.8494C166.484 27.7377 166.274 27.6818 166.031 27.6818C165.764 27.6818 165.533 27.7481 165.338 27.8807C165.145 28.0114 164.996 28.1818 164.892 28.392C164.788 28.6023 164.736 28.8277 164.736 29.0682V29.4545C164.736 29.7841 164.793 30.0634 164.906 30.2926C165.022 30.5199 165.182 30.6932 165.386 30.8125C165.591 30.9299 165.829 30.9886 166.099 30.9886C166.276 30.9886 166.435 30.964 166.577 30.9148C166.721 30.8636 166.845 30.7879 166.949 30.6875C167.053 30.5852 167.134 30.4583 167.19 30.3068L167.838 30.4886C167.77 30.7083 167.655 30.9015 167.494 31.0682C167.333 31.233 167.134 31.3617 166.898 31.4545C166.661 31.5455 166.395 31.5909 166.099 31.5909ZM170.824 27.1364V27.7045H168.562V27.1364H170.824ZM169.222 26.0909H169.892V30.25C169.892 30.4394 169.92 30.5814 169.974 30.6761C170.031 30.7689 170.103 30.8314 170.19 30.8636C170.279 30.8939 170.373 30.9091 170.472 30.9091C170.545 30.9091 170.606 30.9053 170.653 30.8977C170.701 30.8883 170.739 30.8807 170.767 30.875L170.903 31.4773C170.858 31.4943 170.795 31.5114 170.713 31.5284C170.632 31.5473 170.528 31.5568 170.403 31.5568C170.214 31.5568 170.028 31.5161 169.847 31.4347C169.667 31.3532 169.517 31.2292 169.398 31.0625C169.28 30.8958 169.222 30.6856 169.222 30.4318V26.0909ZM173.116 31.6023C172.84 31.6023 172.589 31.5502 172.364 31.446C172.138 31.34 171.959 31.1875 171.827 30.9886C171.694 30.7879 171.628 30.5455 171.628 30.2614C171.628 30.0114 171.677 29.8087 171.776 29.6534C171.874 29.4962 172.006 29.3731 172.17 29.2841C172.335 29.1951 172.517 29.1288 172.716 29.0852C172.917 29.0398 173.118 29.0038 173.321 28.9773C173.586 28.9432 173.801 28.9176 173.966 28.9006C174.133 28.8816 174.254 28.8504 174.33 28.8068C174.407 28.7633 174.446 28.6875 174.446 28.5795V28.5568C174.446 28.2765 174.369 28.0587 174.216 27.9034C174.064 27.7481 173.834 27.6705 173.526 27.6705C173.205 27.6705 172.955 27.7405 172.773 27.8807C172.591 28.0208 172.463 28.1705 172.389 28.3295L171.753 28.1023C171.866 27.8371 172.018 27.6307 172.207 27.483C172.399 27.3333 172.607 27.2292 172.832 27.1705C173.06 27.1098 173.283 27.0795 173.503 27.0795C173.643 27.0795 173.804 27.0966 173.986 27.1307C174.17 27.1629 174.347 27.2301 174.517 27.3324C174.689 27.4347 174.832 27.589 174.946 27.7955C175.06 28.0019 175.116 28.2784 175.116 28.625V31.5H174.446V30.9091H174.412C174.366 31.0038 174.291 31.1051 174.185 31.2131C174.079 31.321 173.938 31.4129 173.761 31.4886C173.585 31.5644 173.37 31.6023 173.116 31.6023ZM173.219 31C173.484 31 173.707 30.9479 173.889 30.8438C174.073 30.7396 174.211 30.6051 174.304 30.4403C174.399 30.2756 174.446 30.1023 174.446 29.9205V29.3068C174.418 29.3409 174.355 29.3722 174.259 29.4006C174.164 29.4271 174.054 29.4508 173.929 29.4716C173.806 29.4905 173.686 29.5076 173.568 29.5227C173.453 29.536 173.359 29.5473 173.287 29.5568C173.113 29.5795 172.95 29.6165 172.798 29.6676C172.649 29.7169 172.527 29.7917 172.435 29.892C172.344 29.9905 172.298 30.125 172.298 30.2955C172.298 30.5284 172.384 30.7045 172.557 30.8239C172.731 30.9413 172.952 31 173.219 31ZM177.011 28.875V31.5H176.34V25.6818H177.011V27.8182H177.067C177.17 27.5928 177.323 27.4138 177.528 27.2812C177.734 27.1468 178.009 27.0795 178.352 27.0795C178.649 27.0795 178.909 27.1392 179.133 27.2585C179.356 27.3759 179.53 27.5568 179.653 27.8011C179.778 28.0436 179.84 28.3523 179.84 28.7273V31.5H179.17V28.7727C179.17 28.4261 179.08 28.1581 178.9 27.9688C178.722 27.7775 178.475 27.6818 178.158 27.6818C177.939 27.6818 177.742 27.7282 177.567 27.821C177.395 27.9138 177.259 28.0492 177.158 28.2273C177.06 28.4053 177.011 28.6212 177.011 28.875ZM181.658 25.6818V26.1932C181.658 26.3485 181.629 26.5142 181.572 26.6903C181.518 26.8646 181.436 27.0341 181.328 27.1989C181.222 27.3617 181.093 27.5038 180.942 27.625L180.578 27.3295C180.697 27.1591 180.801 26.982 180.888 26.7983C180.977 26.6127 181.021 26.4148 181.021 26.2045V25.6818H181.658ZM183.112 25.6818V26.1932C183.112 26.3485 183.084 26.5142 183.027 26.6903C182.972 26.8646 182.891 27.0341 182.783 27.1989C182.677 27.3617 182.548 27.5038 182.396 27.625L182.033 27.3295C182.152 27.1591 182.255 26.982 182.342 26.7983C182.431 26.6127 182.476 26.4148 182.476 26.2045V25.6818H183.112Z" fill="#2F2F2F"/>
<rect x="144" y="21" width="42" height="15" stroke="white"/>
<rect x="144" y="36" width="42" height="15" fill="#6BCB77" fill-opacity="0.5"/>
<path d="M164.543 42.5V41.9886C164.543 41.8333 164.57 41.6686 164.625 41.4943C164.682 41.3182 164.763 41.1487 164.869 40.9858C164.977 40.821 165.107 40.678 165.259 40.5568L165.622 40.8523C165.503 41.0227 165.399 41.2008 165.31 41.3864C165.223 41.5701 165.179 41.767 165.179 41.9773V42.5H164.543ZM165.997 42.5V41.9886C165.997 41.8333 166.025 41.6686 166.08 41.4943C166.136 41.3182 166.218 41.1487 166.324 40.9858C166.432 40.821 166.562 40.678 166.713 40.5568L167.077 40.8523C166.957 41.0227 166.853 41.2008 166.764 41.3864C166.677 41.5701 166.634 41.767 166.634 41.9773V42.5H165.997ZM168.487 40.6818V46.5H167.817V40.6818H168.487ZM169.715 46.5V42.1364H170.386V46.5H169.715ZM170.056 41.4091C169.925 41.4091 169.813 41.3646 169.718 41.2756C169.625 41.1866 169.579 41.0795 169.579 40.9545C169.579 40.8295 169.625 40.7225 169.718 40.6335C169.813 40.5445 169.925 40.5 170.056 40.5C170.187 40.5 170.299 40.5445 170.391 40.6335C170.486 40.7225 170.533 40.8295 170.533 40.9545C170.533 41.0795 170.486 41.1866 170.391 41.2756C170.299 41.3646 170.187 41.4091 170.056 41.4091ZM173.386 46.5909C172.992 46.5909 172.647 46.4972 172.349 46.3097C172.054 46.1222 171.823 45.8598 171.656 45.5227C171.491 45.1856 171.409 44.7917 171.409 44.3409C171.409 43.8864 171.491 43.4896 171.656 43.1506C171.823 42.8116 172.054 42.5483 172.349 42.3608C172.647 42.1733 172.992 42.0795 173.386 42.0795C173.78 42.0795 174.125 42.1733 174.42 42.3608C174.718 42.5483 174.949 42.8116 175.114 43.1506C175.28 43.4896 175.364 43.8864 175.364 44.3409C175.364 44.7917 175.28 45.1856 175.114 45.5227C174.949 45.8598 174.718 46.1222 174.42 46.3097C174.125 46.4972 173.78 46.5909 173.386 46.5909ZM173.386 45.9886C173.686 45.9886 173.932 45.9119 174.125 45.7585C174.318 45.6051 174.461 45.4034 174.554 45.1534C174.647 44.9034 174.693 44.6326 174.693 44.3409C174.693 44.0492 174.647 43.7775 174.554 43.5256C174.461 43.2737 174.318 43.0701 174.125 42.9148C173.932 42.7595 173.686 42.6818 173.386 42.6818C173.087 42.6818 172.841 42.7595 172.648 42.9148C172.455 43.0701 172.312 43.2737 172.219 43.5256C172.126 43.7775 172.08 44.0492 172.08 44.3409C172.08 44.6326 172.126 44.9034 172.219 45.1534C172.312 45.4034 172.455 45.6051 172.648 45.7585C172.841 45.9119 173.087 45.9886 173.386 45.9886ZM177.058 43.875V46.5H176.387V42.1364H177.035V42.8182H177.092C177.194 42.5966 177.349 42.4186 177.558 42.2841C177.766 42.1477 178.035 42.0795 178.364 42.0795C178.66 42.0795 178.918 42.1402 179.14 42.2614C179.362 42.3807 179.534 42.5625 179.657 42.8068C179.78 43.0492 179.842 43.3561 179.842 43.7273V46.5H179.171V43.7727C179.171 43.4299 179.082 43.1629 178.904 42.9716C178.726 42.7784 178.482 42.6818 178.171 42.6818C177.957 42.6818 177.766 42.7282 177.597 42.821C177.431 42.9138 177.299 43.0492 177.202 43.2273C177.106 43.4053 177.058 43.6212 177.058 43.875ZM181.658 40.6818V41.1932C181.658 41.3485 181.629 41.5142 181.572 41.6903C181.518 41.8646 181.436 42.0341 181.328 42.1989C181.222 42.3617 181.093 42.5038 180.942 42.625L180.578 42.3295C180.697 42.1591 180.801 41.982 180.888 41.7983C180.977 41.6127 181.021 41.4148 181.021 41.2045V40.6818H181.658ZM183.112 40.6818V41.1932C183.112 41.3485 183.084 41.5142 183.027 41.6903C182.972 41.8646 182.891 42.0341 182.783 42.1989C182.677 42.3617 182.548 42.5038 182.396 42.625L182.033 42.3295C182.152 42.1591 182.255 41.982 182.342 41.7983C182.431 41.6127 182.476 41.4148 182.476 41.2045V40.6818H183.112Z" fill="#2F2F2F"/>
<rect x="144" y="36" width="42" height="15" stroke="white"/>
<rect x="144" y="51" width="42" height="15" fill="#6BCB77" fill-opacity="0.5"/>
<path d="M160.347 57.5V56.9886C160.347 56.8333 160.375 56.6686 160.43 56.4943C160.487 56.3182 160.568 56.1487 160.674 55.9858C160.782 55.821 160.912 55.678 161.063 55.5568L161.427 55.8523C161.308 56.0227 161.203 56.2008 161.114 56.3864C161.027 56.5701 160.984 56.767 160.984 56.9773V57.5H160.347ZM161.802 57.5V56.9886C161.802 56.8333 161.829 56.6686 161.884 56.4943C161.941 56.3182 162.022 56.1487 162.129 55.9858C162.237 55.821 162.366 55.678 162.518 55.5568L162.881 55.8523C162.762 56.0227 162.658 56.2008 162.569 56.3864C162.482 56.5701 162.438 56.767 162.438 56.9773V57.5H161.802ZM165.519 57.1364V57.7045H163.258V57.1364H165.519ZM163.917 56.0909H164.587V60.25C164.587 60.4394 164.615 60.5814 164.67 60.6761C164.727 60.7689 164.799 60.8314 164.886 60.8636C164.975 60.8939 165.068 60.9091 165.167 60.9091C165.241 60.9091 165.301 60.9053 165.349 60.8977C165.396 60.8883 165.434 60.8807 165.462 60.875L165.599 61.4773C165.553 61.4943 165.49 61.5114 165.408 61.5284C165.327 61.5473 165.224 61.5568 165.099 61.5568C164.909 61.5568 164.724 61.5161 164.542 61.4347C164.362 61.3532 164.212 61.2292 164.093 61.0625C163.976 60.8958 163.917 60.6856 163.917 60.4318V56.0909ZM166.528 61.5V57.1364H167.198V61.5H166.528ZM166.869 56.4091C166.738 56.4091 166.625 56.3646 166.531 56.2756C166.438 56.1866 166.391 56.0795 166.391 55.9545C166.391 55.8295 166.438 55.7225 166.531 55.6335C166.625 55.5445 166.738 55.5 166.869 55.5C166.999 55.5 167.111 55.5445 167.204 55.6335C167.299 55.7225 167.346 55.8295 167.346 55.9545C167.346 56.0795 167.299 56.1866 167.204 56.2756C167.111 56.3646 166.999 56.4091 166.869 56.4091ZM170.188 63.2273C169.864 63.2273 169.585 63.1856 169.352 63.1023C169.119 63.0208 168.925 62.9129 168.77 62.7784C168.616 62.6458 168.494 62.5038 168.403 62.3523L168.938 61.9773C168.998 62.0568 169.075 62.1477 169.168 62.25C169.26 62.3542 169.387 62.4441 169.548 62.5199C169.711 62.5975 169.924 62.6364 170.188 62.6364C170.54 62.6364 170.83 62.5511 171.06 62.3807C171.289 62.2102 171.403 61.9432 171.403 61.5795V60.6932H171.347C171.297 60.7727 171.227 60.8712 171.136 60.9886C171.047 61.1042 170.919 61.2074 170.75 61.2983C170.583 61.3873 170.358 61.4318 170.074 61.4318C169.722 61.4318 169.405 61.3485 169.125 61.1818C168.847 61.0152 168.626 60.7727 168.463 60.4545C168.302 60.1364 168.222 59.75 168.222 59.2955C168.222 58.8485 168.3 58.4593 168.457 58.1278C168.615 57.7945 168.833 57.5369 169.114 57.3551C169.394 57.1714 169.718 57.0795 170.085 57.0795C170.369 57.0795 170.595 57.1269 170.761 57.2216C170.93 57.3144 171.059 57.4205 171.148 57.5398C171.239 57.6572 171.309 57.7538 171.358 57.8295H171.426V57.1364H172.074V61.625C172.074 62 171.989 62.3049 171.818 62.5398C171.65 62.7765 171.422 62.9498 171.136 63.0597C170.852 63.1714 170.536 63.2273 170.188 63.2273ZM170.165 60.8295C170.434 60.8295 170.661 60.768 170.847 60.6449C171.032 60.5218 171.173 60.3447 171.27 60.1136C171.366 59.8826 171.415 59.6061 171.415 59.2841C171.415 58.9697 171.367 58.6922 171.273 58.4517C171.178 58.2112 171.038 58.0227 170.852 57.8864C170.667 57.75 170.438 57.6818 170.165 57.6818C169.881 57.6818 169.644 57.7538 169.455 57.8977C169.267 58.0417 169.126 58.2348 169.031 58.4773C168.938 58.7197 168.892 58.9886 168.892 59.2841C168.892 59.5871 168.939 59.8551 169.034 60.0881C169.131 60.3191 169.273 60.5009 169.46 60.6335C169.65 60.7642 169.884 60.8295 170.165 60.8295ZM175.131 61.5909C174.71 61.5909 174.348 61.4981 174.043 61.3125C173.74 61.125 173.506 60.8636 173.341 60.5284C173.178 60.1913 173.097 59.7992 173.097 59.3523C173.097 58.9053 173.178 58.5114 173.341 58.1705C173.506 57.8277 173.735 57.5606 174.028 57.3693C174.324 57.1761 174.669 57.0795 175.062 57.0795C175.29 57.0795 175.514 57.1174 175.736 57.1932C175.957 57.2689 176.159 57.392 176.341 57.5625C176.523 57.7311 176.668 57.9545 176.776 58.233C176.884 58.5114 176.938 58.8542 176.938 59.2614V59.5455H173.574V58.9659H176.256C176.256 58.7197 176.206 58.5 176.108 58.3068C176.011 58.1136 175.873 57.9612 175.693 57.8494C175.515 57.7377 175.305 57.6818 175.062 57.6818C174.795 57.6818 174.564 57.7481 174.369 57.8807C174.176 58.0114 174.027 58.1818 173.923 58.392C173.819 58.6023 173.767 58.8277 173.767 59.0682V59.4545C173.767 59.7841 173.824 60.0634 173.938 60.2926C174.053 60.5199 174.213 60.6932 174.418 60.8125C174.622 60.9299 174.86 60.9886 175.131 60.9886C175.307 60.9886 175.466 60.964 175.608 60.9148C175.752 60.8636 175.876 60.7879 175.98 60.6875C176.084 60.5852 176.165 60.4583 176.222 60.3068L176.869 60.4886C176.801 60.7083 176.687 60.9015 176.526 61.0682C176.365 61.233 176.166 61.3617 175.929 61.4545C175.692 61.5455 175.426 61.5909 175.131 61.5909ZM177.957 61.5V57.1364H178.605V57.7955H178.651C178.73 57.5795 178.874 57.4044 179.082 57.2699C179.291 57.1354 179.526 57.0682 179.787 57.0682C179.836 57.0682 179.898 57.0691 179.972 57.071C180.045 57.0729 180.101 57.0758 180.139 57.0795V57.7614C180.116 57.7557 180.064 57.7472 179.983 57.7358C179.903 57.7225 179.819 57.7159 179.73 57.7159C179.518 57.7159 179.329 57.7604 179.162 57.8494C178.997 57.9366 178.866 58.0578 178.77 58.2131C178.675 58.3665 178.628 58.5417 178.628 58.7386V61.5H177.957ZM181.658 55.6818V56.1932C181.658 56.3485 181.629 56.5142 181.572 56.6903C181.518 56.8646 181.436 57.0341 181.328 57.1989C181.222 57.3617 181.093 57.5038 180.942 57.625L180.578 57.3295C180.697 57.1591 180.801 56.982 180.888 56.7983C180.977 56.6127 181.021 56.4148 181.021 56.2045V55.6818H181.658ZM183.112 55.6818V56.1932C183.112 56.3485 183.084 56.5142 183.027 56.6903C182.972 56.8646 182.891 57.0341 182.783 57.1989C182.677 57.3617 182.548 57.5038 182.396 57.625L182.033 57.3295C182.152 57.1591 182.255 56.982 182.342 56.7983C182.431 56.6127 182.476 56.4148 182.476 56.2045V55.6818H183.112Z" fill="#2F2F2F"/>
<rect x="144" y="51" width="42" height="15" stroke="white"/>
<rect width="36" height="61" transform="translate(4.5 5.5)" fill="white"/>
<rect x="5" y="6" width="35" height="15" fill="#FF6B6B"/>
<path d="M26.6193 13.9432V16.5H25.5909V12.1364H26.5739V12.8778H26.625C26.7254 12.6335 26.8854 12.4394 27.1051 12.2955C27.3267 12.1515 27.6004 12.0795 27.9261 12.0795C28.2273 12.0795 28.4896 12.1439 28.7131 12.2727C28.9384 12.4015 29.1127 12.5881 29.2358 12.8324C29.3608 13.0767 29.4223 13.3731 29.4205 13.7216V16.5H28.392V13.8807C28.392 13.589 28.3163 13.3608 28.1648 13.196C28.0152 13.0312 27.8078 12.9489 27.5426 12.9489C27.3627 12.9489 27.2027 12.9886 27.0625 13.0682C26.9242 13.1458 26.8153 13.2585 26.7358 13.4062C26.6581 13.554 26.6193 13.733 26.6193 13.9432ZM30.4659 16.5V12.1364H31.4631V12.8636H31.5085C31.5881 12.6117 31.7244 12.4176 31.9176 12.2812C32.1127 12.143 32.3352 12.0739 32.5852 12.0739C32.642 12.0739 32.7055 12.0767 32.7756 12.0824C32.8475 12.0862 32.9072 12.0928 32.9545 12.1023V13.0483C32.911 13.0331 32.8419 13.0199 32.7472 13.0085C32.6544 12.9953 32.5644 12.9886 32.4773 12.9886C32.2898 12.9886 32.1212 13.0294 31.9716 13.1108C31.8239 13.1903 31.7074 13.3011 31.6222 13.4432C31.5369 13.5852 31.4943 13.7491 31.4943 13.9347V16.5H30.4659ZM37.0866 13.2898L36.1491 13.392C36.1226 13.2973 36.0762 13.2083 36.0099 13.125C35.9455 13.0417 35.8584 12.9744 35.7486 12.9233C35.6387 12.8722 35.5043 12.8466 35.3452 12.8466C35.1312 12.8466 34.9512 12.893 34.8054 12.9858C34.6615 13.0786 34.5904 13.1989 34.5923 13.3466C34.5904 13.4735 34.6368 13.5767 34.7315 13.6562C34.8281 13.7358 34.9872 13.8011 35.2088 13.8523L35.9531 14.0114C36.366 14.1004 36.6728 14.2415 36.8736 14.4347C37.0762 14.6278 37.1785 14.8807 37.1804 15.1932C37.1785 15.4678 37.098 15.7102 36.9389 15.9205C36.7817 16.1288 36.563 16.2917 36.2827 16.4091C36.0024 16.5265 35.6804 16.5852 35.3168 16.5852C34.7827 16.5852 34.3527 16.4735 34.027 16.25C33.7012 16.0246 33.5071 15.7112 33.4446 15.3097L34.4474 15.2131C34.4929 15.41 34.5895 15.5587 34.7372 15.6591C34.8849 15.7595 35.0772 15.8097 35.3139 15.8097C35.5582 15.8097 35.7543 15.7595 35.902 15.6591C36.0516 15.5587 36.1264 15.4347 36.1264 15.2869C36.1264 15.1619 36.0781 15.0587 35.9815 14.9773C35.8868 14.8958 35.7391 14.8333 35.5384 14.7898L34.794 14.6335C34.3755 14.5464 34.0658 14.3996 33.8651 14.1932C33.6643 13.9848 33.5649 13.7216 33.5668 13.4034C33.5649 13.1345 33.6378 12.9015 33.7855 12.7045C33.9351 12.5057 34.1425 12.3523 34.4077 12.2443C34.6747 12.1345 34.9825 12.0795 35.331 12.0795C35.8423 12.0795 36.2448 12.1884 36.5384 12.4062C36.8338 12.6241 37.0166 12.9186 37.0866 13.2898Z" fill="#2F2F2F"/>
<rect x="5" y="6" width="35" height="15" stroke="white"/>
<rect x="5" y="21" width="35" height="15" fill="#FF6B6B" fill-opacity="0.5"/>
<path d="M36.429 25.6818V31.5H35.7244V26.4205H35.6903L34.2699 27.3636V26.6477L35.7244 25.6818H36.429Z" fill="#2F2F2F"/>
<rect x="5" y="21" width="35" height="15" stroke="white"/>
<rect x="5" y="36" width="35" height="15" fill="#FF6B6B" fill-opacity="0.5"/>
<path d="M33.2585 46.5V45.9886L35.179 43.8864C35.4044 43.6402 35.59 43.4261 35.7358 43.2443C35.8816 43.0606 35.9896 42.8883 36.0597 42.7273C36.1316 42.5644 36.1676 42.3939 36.1676 42.2159C36.1676 42.0114 36.1184 41.8343 36.0199 41.6847C35.9233 41.535 35.7907 41.4195 35.6222 41.3381C35.4536 41.2566 35.2642 41.2159 35.054 41.2159C34.8305 41.2159 34.6354 41.2623 34.4688 41.3551C34.304 41.446 34.1761 41.5739 34.0852 41.7386C33.9962 41.9034 33.9517 42.0966 33.9517 42.3182H33.2812C33.2812 41.9773 33.3598 41.678 33.517 41.4205C33.6742 41.1629 33.8883 40.9621 34.1591 40.8182C34.4318 40.6742 34.7377 40.6023 35.0767 40.6023C35.4176 40.6023 35.7197 40.6742 35.983 40.8182C36.2462 40.9621 36.4527 41.1562 36.6023 41.4006C36.7519 41.6449 36.8267 41.9167 36.8267 42.2159C36.8267 42.4299 36.7879 42.6392 36.7102 42.8438C36.6345 43.0464 36.5019 43.2727 36.3125 43.5227C36.125 43.7708 35.8646 44.0739 35.5312 44.4318L34.2244 45.8295V45.875H36.929V46.5H33.2585Z" fill="#2F2F2F"/>
<rect x="5" y="36" width="35" height="15" stroke="white"/>
<rect x="5" y="51" width="35" height="15" fill="#FF6B6B" fill-opacity="0.5"/>
<path d="M34.9744 61.5795C34.5994 61.5795 34.2652 61.5152 33.9716 61.3864C33.6799 61.2576 33.4479 61.0786 33.2756 60.8494C33.1051 60.6184 33.0123 60.3504 32.9972 60.0455H33.7131C33.7282 60.233 33.7926 60.3949 33.9062 60.5312C34.0199 60.6657 34.1686 60.7699 34.3523 60.8438C34.536 60.9176 34.7396 60.9545 34.9631 60.9545C35.2131 60.9545 35.4347 60.911 35.6278 60.8239C35.821 60.7367 35.9725 60.6155 36.0824 60.4602C36.1922 60.3049 36.2472 60.125 36.2472 59.9205C36.2472 59.7064 36.1941 59.518 36.0881 59.3551C35.982 59.1903 35.8267 59.0616 35.6222 58.9688C35.4176 58.8759 35.1676 58.8295 34.8722 58.8295H34.4062V58.2045H34.8722C35.1032 58.2045 35.3059 58.1629 35.4801 58.0795C35.6563 57.9962 35.7936 57.8788 35.892 57.7273C35.9924 57.5758 36.0426 57.3977 36.0426 57.1932C36.0426 56.9962 35.9991 56.8248 35.9119 56.679C35.8248 56.5331 35.7017 56.4195 35.5426 56.3381C35.3854 56.2566 35.1998 56.2159 34.9858 56.2159C34.785 56.2159 34.5956 56.2528 34.4176 56.3267C34.2415 56.3987 34.0975 56.5038 33.9858 56.642C33.8741 56.7784 33.8134 56.9432 33.804 57.1364H33.1222C33.1335 56.8314 33.2254 56.5644 33.3977 56.3352C33.5701 56.1042 33.7955 55.9242 34.0739 55.7955C34.3542 55.6667 34.6619 55.6023 34.9972 55.6023C35.357 55.6023 35.6657 55.6752 35.9233 55.821C36.1809 55.965 36.3788 56.1553 36.517 56.392C36.6553 56.6288 36.7244 56.8845 36.7244 57.1591C36.7244 57.4867 36.6383 57.7661 36.4659 57.9972C36.2955 58.2282 36.0634 58.3883 35.7699 58.4773V58.5227C36.1373 58.5833 36.4242 58.7396 36.6307 58.9915C36.8371 59.2415 36.9403 59.5511 36.9403 59.9205C36.9403 60.2367 36.8542 60.5208 36.6818 60.7727C36.5114 61.0227 36.2784 61.2197 35.983 61.3636C35.6875 61.5076 35.3513 61.5795 34.9744 61.5795Z" fill="#2F2F2F"/>
<rect x="5" y="51" width="35" height="15" stroke="white"/>
<rect width="36" height="61" transform="translate(39.5 5.5)" fill="white"/>
<rect x="40" y="6" width="35" height="15" fill="#FFD93D"/>
<path d="M48.2756 13.9432V16.5H47.2472V12.1364H48.2301V12.8778H48.2812C48.3816 12.6335 48.5417 12.4394 48.7614 12.2955C48.983 12.1515 49.2566 12.0795 49.5824 12.0795C49.8835 12.0795 50.1458 12.1439 50.3693 12.2727C50.5947 12.4015 50.7689 12.5881 50.892 12.8324C51.017 13.0767 51.0786 13.3731 51.0767 13.7216V16.5H50.0483V13.8807C50.0483 13.589 49.9725 13.3608 49.821 13.196C49.6714 13.0312 49.464 12.9489 49.1989 12.9489C49.0189 12.9489 48.8589 12.9886 48.7188 13.0682C48.5805 13.1458 48.4716 13.2585 48.392 13.4062C48.3144 13.554 48.2756 13.733 48.2756 13.9432ZM53.3778 16.5881C53.1013 16.5881 52.8523 16.5388 52.6307 16.4403C52.411 16.34 52.2367 16.1922 52.108 15.9972C51.9811 15.8021 51.9176 15.5616 51.9176 15.2756C51.9176 15.0294 51.9631 14.8258 52.054 14.6648C52.1449 14.5038 52.2689 14.375 52.4261 14.2784C52.5833 14.1818 52.7604 14.1089 52.9574 14.0597C53.1563 14.0085 53.3617 13.9716 53.5739 13.9489C53.8295 13.9223 54.0369 13.8987 54.196 13.8778C54.3551 13.8551 54.4706 13.821 54.5426 13.7756C54.6165 13.7282 54.6534 13.6553 54.6534 13.5568V13.5398C54.6534 13.3258 54.59 13.16 54.4631 13.0426C54.3362 12.9252 54.1534 12.8665 53.9148 12.8665C53.6629 12.8665 53.4631 12.9214 53.3153 13.0312C53.1695 13.1411 53.071 13.2708 53.0199 13.4205L52.0597 13.2841C52.1354 13.0189 52.2604 12.7973 52.4347 12.6193C52.6089 12.4394 52.822 12.3049 53.0739 12.2159C53.3258 12.125 53.6042 12.0795 53.9091 12.0795C54.1193 12.0795 54.3286 12.1042 54.5369 12.1534C54.7453 12.2027 54.9356 12.2841 55.108 12.3977C55.2803 12.5095 55.4186 12.6619 55.5227 12.8551C55.6288 13.0483 55.6818 13.2898 55.6818 13.5795V16.5H54.6932V15.9006H54.6591C54.5966 16.0218 54.5085 16.1354 54.3949 16.2415C54.2831 16.3456 54.142 16.4299 53.9716 16.4943C53.803 16.5568 53.6051 16.5881 53.3778 16.5881ZM53.6449 15.8324C53.8513 15.8324 54.0303 15.7917 54.1818 15.7102C54.3333 15.6269 54.4498 15.517 54.5312 15.3807C54.6146 15.2443 54.6562 15.0956 54.6562 14.9347V14.4205C54.6241 14.447 54.5691 14.4716 54.4915 14.4943C54.4157 14.517 54.3305 14.5369 54.2358 14.554C54.1411 14.571 54.0473 14.5862 53.9545 14.5994C53.8617 14.6127 53.7813 14.6241 53.7131 14.6335C53.5597 14.6544 53.4223 14.6884 53.3011 14.7358C53.1799 14.7831 53.0843 14.8494 53.0142 14.9347C52.9441 15.018 52.9091 15.1259 52.9091 15.2585C52.9091 15.4479 52.9782 15.5909 53.1165 15.6875C53.2547 15.7841 53.4309 15.8324 53.6449 15.8324ZM56.7159 16.5V12.1364H57.6989V12.8778H57.75C57.8409 12.6278 57.9915 12.4328 58.2017 12.2926C58.4119 12.1506 58.6629 12.0795 58.9545 12.0795C59.25 12.0795 59.4991 12.1515 59.7017 12.2955C59.9063 12.4375 60.0502 12.6316 60.1335 12.8778H60.179C60.2756 12.6354 60.4384 12.4422 60.6676 12.2983C60.8987 12.1525 61.1723 12.0795 61.4886 12.0795C61.8902 12.0795 62.2178 12.2064 62.4716 12.4602C62.7254 12.714 62.8523 13.0843 62.8523 13.571V16.5H61.821V13.7301C61.821 13.4593 61.7491 13.2614 61.6051 13.1364C61.4612 13.0095 61.285 12.946 61.0767 12.946C60.8286 12.946 60.6345 13.0237 60.4943 13.179C60.3561 13.3324 60.2869 13.5322 60.2869 13.7784V16.5H59.2784V13.6875C59.2784 13.4621 59.2102 13.2822 59.0739 13.1477C58.9394 13.0133 58.7633 12.946 58.5455 12.946C58.3977 12.946 58.2633 12.9839 58.142 13.0597C58.0208 13.1335 57.9242 13.2386 57.8523 13.375C57.7803 13.5095 57.7443 13.6667 57.7443 13.8466V16.5H56.7159ZM65.8274 16.5852C65.3899 16.5852 65.0121 16.4943 64.6939 16.3125C64.3776 16.1288 64.1342 15.8693 63.9638 15.5341C63.7933 15.197 63.7081 14.8002 63.7081 14.3438C63.7081 13.8949 63.7933 13.5009 63.9638 13.1619C64.1361 12.821 64.3767 12.5559 64.6854 12.3665C64.9941 12.1752 65.3568 12.0795 65.7734 12.0795C66.0424 12.0795 66.2962 12.1231 66.5348 12.2102C66.7753 12.2955 66.9875 12.428 67.1712 12.608C67.3568 12.7879 67.5026 13.017 67.6087 13.2955C67.7147 13.572 67.7678 13.9015 67.7678 14.2841V14.5994H64.1911V13.9062H66.782C66.7801 13.7093 66.7375 13.5341 66.6541 13.3807C66.5708 13.2254 66.4543 13.1032 66.3047 13.0142C66.157 12.9252 65.9846 12.8807 65.7876 12.8807C65.5774 12.8807 65.3928 12.9318 65.2337 13.0341C65.0746 13.1345 64.9505 13.267 64.8615 13.4318C64.7744 13.5947 64.7299 13.7737 64.728 13.9688V14.5739C64.728 14.8277 64.7744 15.0455 64.8672 15.2273C64.96 15.4072 65.0897 15.5455 65.2564 15.642C65.4231 15.7367 65.6181 15.7841 65.8416 15.7841C65.9912 15.7841 66.1267 15.7633 66.2479 15.7216C66.3691 15.678 66.4742 15.6146 66.5632 15.5312C66.6522 15.4479 66.7195 15.3447 66.7649 15.2216L67.7251 15.3295C67.6645 15.5833 67.549 15.8049 67.3786 15.9943C67.21 16.1818 66.9941 16.3277 66.7308 16.4318C66.4676 16.5341 66.1664 16.5852 65.8274 16.5852ZM72.0866 13.2898L71.1491 13.392C71.1226 13.2973 71.0762 13.2083 71.0099 13.125C70.9455 13.0417 70.8584 12.9744 70.7486 12.9233C70.6387 12.8722 70.5043 12.8466 70.3452 12.8466C70.1312 12.8466 69.9512 12.893 69.8054 12.9858C69.6615 13.0786 69.5904 13.1989 69.5923 13.3466C69.5904 13.4735 69.6368 13.5767 69.7315 13.6562C69.8281 13.7358 69.9872 13.8011 70.2088 13.8523L70.9531 14.0114C71.366 14.1004 71.6728 14.2415 71.8736 14.4347C72.0762 14.6278 72.1785 14.8807 72.1804 15.1932C72.1785 15.4678 72.098 15.7102 71.9389 15.9205C71.7817 16.1288 71.563 16.2917 71.2827 16.4091C71.0024 16.5265 70.6804 16.5852 70.3168 16.5852C69.7827 16.5852 69.3527 16.4735 69.027 16.25C68.7012 16.0246 68.5071 15.7112 68.4446 15.3097L69.4474 15.2131C69.4929 15.41 69.5895 15.5587 69.7372 15.6591C69.8849 15.7595 70.0772 15.8097 70.3139 15.8097C70.5582 15.8097 70.7543 15.7595 70.902 15.6591C71.0516 15.5587 71.1264 15.4347 71.1264 15.2869C71.1264 15.1619 71.0781 15.0587 70.9815 14.9773C70.8868 14.8958 70.7391 14.8333 70.5384 14.7898L69.794 14.6335C69.3755 14.5464 69.0658 14.3996 68.8651 14.1932C68.6643 13.9848 68.5649 13.7216 68.5668 13.4034C68.5649 13.1345 68.6378 12.9015 68.7855 12.7045C68.9351 12.5057 69.1425 12.3523 69.4077 12.2443C69.6747 12.1345 69.9825 12.0795 70.331 12.0795C70.8423 12.0795 71.2448 12.1884 71.5384 12.4062C71.8338 12.6241 72.0166 12.9186 72.0866 13.2898Z" fill="#2F2F2F"/>
<rect x="40" y="6" width="35" height="15" stroke="white"/>
<rect x="40" y="21" width="35" height="15" fill="#FFD93D" fill-opacity="0.5"/>
<path d="M54.5426 27.5V26.9886C54.5426 26.8333 54.5701 26.6686 54.625 26.4943C54.6818 26.3182 54.7633 26.1487 54.8693 25.9858C54.9773 25.821 55.107 25.678 55.2585 25.5568L55.6222 25.8523C55.5028 26.0227 55.3987 26.2008 55.3097 26.3864C55.2225 26.5701 55.179 26.767 55.179 26.9773V27.5H54.5426ZM55.9972 27.5V26.9886C55.9972 26.8333 56.0246 26.6686 56.0795 26.4943C56.1364 26.3182 56.2178 26.1487 56.3239 25.9858C56.4318 25.821 56.5616 25.678 56.7131 25.5568L57.0767 25.8523C56.9574 26.0227 56.8532 26.2008 56.7642 26.3864C56.6771 26.5701 56.6335 26.767 56.6335 26.9773V27.5H55.9972ZM59.7599 27.1364V27.7045H57.4077V27.1364H59.7599ZM58.1122 31.5V26.5341C58.1122 26.2841 58.1709 26.0758 58.2884 25.9091C58.4058 25.7424 58.5582 25.6174 58.7457 25.5341C58.9332 25.4508 59.1312 25.4091 59.3395 25.4091C59.5043 25.4091 59.6387 25.4223 59.7429 25.4489C59.8471 25.4754 59.9247 25.5 59.9759 25.5227L59.7827 26.1023C59.7486 26.0909 59.7012 26.0767 59.6406 26.0597C59.5819 26.0426 59.5043 26.0341 59.4077 26.0341C59.1861 26.0341 59.026 26.09 58.9276 26.2017C58.831 26.3134 58.7827 26.4773 58.7827 26.6932V31.5H58.1122ZM62.2926 31.5909C61.8987 31.5909 61.553 31.4972 61.2557 31.3097C60.9602 31.1222 60.7292 30.8598 60.5625 30.5227C60.3977 30.1856 60.3153 29.7917 60.3153 29.3409C60.3153 28.8864 60.3977 28.4896 60.5625 28.1506C60.7292 27.8116 60.9602 27.5483 61.2557 27.3608C61.553 27.1733 61.8987 27.0795 62.2926 27.0795C62.6866 27.0795 63.0313 27.1733 63.3267 27.3608C63.6241 27.5483 63.8551 27.8116 64.0199 28.1506C64.1866 28.4896 64.2699 28.8864 64.2699 29.3409C64.2699 29.7917 64.1866 30.1856 64.0199 30.5227C63.8551 30.8598 63.6241 31.1222 63.3267 31.3097C63.0313 31.4972 62.6866 31.5909 62.2926 31.5909ZM62.2926 30.9886C62.5919 30.9886 62.8381 30.9119 63.0312 30.7585C63.2244 30.6051 63.3674 30.4034 63.4602 30.1534C63.553 29.9034 63.5994 29.6326 63.5994 29.3409C63.5994 29.0492 63.553 28.7775 63.4602 28.5256C63.3674 28.2737 63.2244 28.0701 63.0312 27.9148C62.8381 27.7595 62.5919 27.6818 62.2926 27.6818C61.9934 27.6818 61.7472 27.7595 61.554 27.9148C61.3608 28.0701 61.2178 28.2737 61.125 28.5256C61.0322 28.7775 60.9858 29.0492 60.9858 29.3409C60.9858 29.6326 61.0322 29.9034 61.125 30.1534C61.2178 30.4034 61.3608 30.6051 61.554 30.7585C61.7472 30.9119 61.9934 30.9886 62.2926 30.9886ZM67.0661 31.5909C66.6721 31.5909 66.3265 31.4972 66.0291 31.3097C65.7337 31.1222 65.5026 30.8598 65.3359 30.5227C65.1712 30.1856 65.0888 29.7917 65.0888 29.3409C65.0888 28.8864 65.1712 28.4896 65.3359 28.1506C65.5026 27.8116 65.7337 27.5483 66.0291 27.3608C66.3265 27.1733 66.6721 27.0795 67.0661 27.0795C67.46 27.0795 67.8047 27.1733 68.1001 27.3608C68.3975 27.5483 68.6286 27.8116 68.7933 28.1506C68.96 28.4896 69.0433 28.8864 69.0433 29.3409C69.0433 29.7917 68.96 30.1856 68.7933 30.5227C68.6286 30.8598 68.3975 31.1222 68.1001 31.3097C67.8047 31.4972 67.46 31.5909 67.0661 31.5909ZM67.0661 30.9886C67.3653 30.9886 67.6115 30.9119 67.8047 30.7585C67.9979 30.6051 68.1409 30.4034 68.2337 30.1534C68.3265 29.9034 68.3729 29.6326 68.3729 29.3409C68.3729 29.0492 68.3265 28.7775 68.2337 28.5256C68.1409 28.2737 67.9979 28.0701 67.8047 27.9148C67.6115 27.7595 67.3653 27.6818 67.0661 27.6818C66.7668 27.6818 66.5206 27.7595 66.3274 27.9148C66.1342 28.0701 65.9912 28.2737 65.8984 28.5256C65.8056 28.7775 65.7592 29.0492 65.7592 29.3409C65.7592 29.6326 65.8056 29.9034 65.8984 30.1534C65.9912 30.4034 66.1342 30.6051 66.3274 30.7585C66.5206 30.9119 66.7668 30.9886 67.0661 30.9886ZM70.6577 25.6818V26.1932C70.6577 26.3485 70.6293 26.5142 70.5724 26.6903C70.5175 26.8646 70.4361 27.0341 70.3281 27.1989C70.2221 27.3617 70.0933 27.5038 69.9418 27.625L69.5781 27.3295C69.6974 27.1591 69.8007 26.982 69.8878 26.7983C69.9768 26.6127 70.0213 26.4148 70.0213 26.2045V25.6818H70.6577ZM72.1122 25.6818V26.1932C72.1122 26.3485 72.0838 26.5142 72.027 26.6903C71.9721 26.8646 71.8906 27.0341 71.7827 27.1989C71.6766 27.3617 71.5478 27.5038 71.3963 27.625L71.0327 27.3295C71.152 27.1591 71.2552 26.982 71.3423 26.7983C71.4313 26.6127 71.4759 26.4148 71.4759 26.2045V25.6818H72.1122Z" fill="#2F2F2F"/>
<rect x="40" y="21" width="35" height="15" stroke="white"/>
<rect x="40" y="36" width="35" height="15" fill="#FFD93D" fill-opacity="0.5"/>
<path d="M50.6051 42.5V41.9886C50.6051 41.8333 50.6326 41.6686 50.6875 41.4943C50.7443 41.3182 50.8258 41.1487 50.9318 40.9858C51.0398 40.821 51.1695 40.678 51.321 40.5568L51.6847 40.8523C51.5653 41.0227 51.4612 41.2008 51.3722 41.3864C51.285 41.5701 51.2415 41.767 51.2415 41.9773V42.5H50.6051ZM52.0597 42.5V41.9886C52.0597 41.8333 52.0871 41.6686 52.142 41.4943C52.1989 41.3182 52.2803 41.1487 52.3864 40.9858C52.4943 40.821 52.6241 40.678 52.7756 40.5568L53.1392 40.8523C53.0199 41.0227 52.9157 41.2008 52.8267 41.3864C52.7396 41.5701 52.696 41.767 52.696 41.9773V42.5H52.0597ZM54.5497 43.875V46.5H53.8793V40.6818H54.5497V42.8182H54.6065C54.7088 42.5928 54.8622 42.4138 55.0668 42.2812C55.2732 42.1468 55.5478 42.0795 55.8906 42.0795C56.188 42.0795 56.4484 42.1392 56.6719 42.2585C56.8954 42.3759 57.0687 42.5568 57.1918 42.8011C57.3168 43.0436 57.3793 43.3523 57.3793 43.7273V46.5H56.7088V43.7727C56.7088 43.4261 56.6188 43.1581 56.4389 42.9688C56.2609 42.7775 56.0137 42.6818 55.6974 42.6818C55.4777 42.6818 55.2808 42.7282 55.1065 42.821C54.9342 42.9138 54.7978 43.0492 54.6974 43.2273C54.599 43.4053 54.5497 43.6212 54.5497 43.875ZM59.8899 46.6023C59.6134 46.6023 59.3625 46.5502 59.1371 46.446C58.9117 46.34 58.7327 46.1875 58.6001 45.9886C58.4676 45.7879 58.4013 45.5455 58.4013 45.2614C58.4013 45.0114 58.4505 44.8087 58.549 44.6534C58.6475 44.4962 58.7791 44.3731 58.9439 44.2841C59.1087 44.1951 59.2905 44.1288 59.4893 44.0852C59.6901 44.0398 59.8918 44.0038 60.0945 43.9773C60.3596 43.9432 60.5746 43.9176 60.7393 43.9006C60.906 43.8816 61.0272 43.8504 61.103 43.8068C61.1806 43.7633 61.2195 43.6875 61.2195 43.5795V43.5568C61.2195 43.2765 61.1428 43.0587 60.9893 42.9034C60.8378 42.7481 60.6077 42.6705 60.299 42.6705C59.9789 42.6705 59.728 42.7405 59.5462 42.8807C59.3643 43.0208 59.2365 43.1705 59.1626 43.3295L58.5263 43.1023C58.6399 42.8371 58.7914 42.6307 58.9808 42.483C59.1721 42.3333 59.3804 42.2292 59.6058 42.1705C59.8331 42.1098 60.0566 42.0795 60.2763 42.0795C60.4164 42.0795 60.5774 42.0966 60.7592 42.1307C60.9429 42.1629 61.12 42.2301 61.2905 42.3324C61.4628 42.4347 61.6058 42.589 61.7195 42.7955C61.8331 43.0019 61.8899 43.2784 61.8899 43.625V46.5H61.2195V45.9091H61.1854C61.1399 46.0038 61.0642 46.1051 60.9581 46.2131C60.852 46.321 60.7109 46.4129 60.5348 46.4886C60.3587 46.5644 60.1437 46.6023 59.8899 46.6023ZM59.9922 46C60.2573 46 60.4808 45.9479 60.6626 45.8438C60.8464 45.7396 60.9846 45.6051 61.0774 45.4403C61.1721 45.2756 61.2195 45.1023 61.2195 44.9205V44.3068C61.1911 44.3409 61.1286 44.3722 61.032 44.4006C60.9373 44.4271 60.8274 44.4508 60.7024 44.4716C60.5793 44.4905 60.459 44.5076 60.3416 44.5227C60.2261 44.536 60.1323 44.5473 60.0604 44.5568C59.8861 44.5795 59.7232 44.6165 59.5717 44.6676C59.4221 44.7169 59.3009 44.7917 59.2081 44.892C59.1172 44.9905 59.0717 45.125 59.0717 45.2955C59.0717 45.5284 59.1579 45.7045 59.3303 45.8239C59.5045 45.9413 59.7251 46 59.9922 46ZM63.1136 46.5V42.1364H63.7614V42.8182H63.8182C63.9091 42.5852 64.0559 42.4044 64.2585 42.2756C64.4612 42.1449 64.7045 42.0795 64.9886 42.0795C65.2765 42.0795 65.5161 42.1449 65.7074 42.2756C65.9006 42.4044 66.0511 42.5852 66.1591 42.8182H66.2045C66.3163 42.5928 66.4839 42.4138 66.7074 42.2812C66.9309 42.1468 67.1989 42.0795 67.5114 42.0795C67.9015 42.0795 68.2206 42.2017 68.4688 42.446C68.7169 42.6884 68.8409 43.0663 68.8409 43.5795V46.5H68.1705V43.5795C68.1705 43.2576 68.0824 43.0275 67.9062 42.8892C67.7301 42.7509 67.5227 42.6818 67.2841 42.6818C66.9773 42.6818 66.7396 42.7746 66.571 42.9602C66.4025 43.1439 66.3182 43.3769 66.3182 43.6591V46.5H65.6364V43.5114C65.6364 43.2633 65.5559 43.0634 65.3949 42.9119C65.2339 42.7585 65.0265 42.6818 64.7727 42.6818C64.5985 42.6818 64.4356 42.7282 64.2841 42.821C64.1345 42.9138 64.0133 43.0426 63.9205 43.2074C63.8295 43.3703 63.7841 43.5587 63.7841 43.7727V46.5H63.1136ZM70.6577 40.6818V41.1932C70.6577 41.3485 70.6293 41.5142 70.5724 41.6903C70.5175 41.8646 70.4361 42.0341 70.3281 42.1989C70.2221 42.3617 70.0933 42.5038 69.9418 42.625L69.5781 42.3295C69.6974 42.1591 69.8007 41.982 69.8878 41.7983C69.9768 41.6127 70.0213 41.4148 70.0213 41.2045V40.6818H70.6577ZM72.1122 40.6818V41.1932C72.1122 41.3485 72.0838 41.5142 72.027 41.6903C71.9721 41.8646 71.8906 42.0341 71.7827 42.1989C71.6766 42.3617 71.5478 42.5038 71.3963 42.625L71.0327 42.3295C71.152 42.1591 71.2552 41.982 71.3423 41.7983C71.4313 41.6127 71.4759 41.4148 71.4759 41.2045V40.6818H72.1122Z" fill="#2F2F2F"/>
<rect x="40" y="36" width="35" height="15" stroke="white"/>
<rect x="40" y="51" width="35" height="15" fill="#FFD93D" fill-opacity="0.5"/>
<path d="M46.277 57.5V56.9886C46.277 56.8333 46.3045 56.6686 46.3594 56.4943C46.4162 56.3182 46.4976 56.1487 46.6037 55.9858C46.7116 55.821 46.8414 55.678 46.9929 55.5568L47.3565 55.8523C47.2372 56.0227 47.133 56.2008 47.044 56.3864C46.9569 56.5701 46.9134 56.767 46.9134 56.9773V57.5H46.277ZM47.7315 57.5V56.9886C47.7315 56.8333 47.759 56.6686 47.8139 56.4943C47.8707 56.3182 47.9522 56.1487 48.0582 55.9858C48.1662 55.821 48.2959 55.678 48.4474 55.5568L48.8111 55.8523C48.6918 56.0227 48.5876 56.2008 48.4986 56.3864C48.4115 56.5701 48.3679 56.767 48.3679 56.9773V57.5H47.7315ZM52.642 58.1136L52.0398 58.2841C52.0019 58.1837 51.946 58.0862 51.8722 57.9915C51.8002 57.8949 51.7017 57.8153 51.5767 57.7528C51.4517 57.6903 51.2917 57.6591 51.0966 57.6591C50.8295 57.6591 50.607 57.7206 50.429 57.8438C50.2528 57.965 50.1648 58.1193 50.1648 58.3068C50.1648 58.4735 50.2254 58.6051 50.3466 58.7017C50.4678 58.7983 50.6572 58.8788 50.9148 58.9432L51.5625 59.1023C51.9527 59.197 52.2434 59.3419 52.4347 59.5369C52.6259 59.7301 52.7216 59.9792 52.7216 60.2841C52.7216 60.5341 52.6496 60.7576 52.5057 60.9545C52.3636 61.1515 52.1648 61.3068 51.9091 61.4205C51.6534 61.5341 51.3561 61.5909 51.017 61.5909C50.572 61.5909 50.2036 61.4943 49.9119 61.3011C49.6203 61.108 49.4356 60.8258 49.358 60.4545L49.9943 60.2955C50.0549 60.5303 50.1695 60.7064 50.3381 60.8239C50.5085 60.9413 50.7311 61 51.0057 61C51.3182 61 51.5663 60.9337 51.75 60.8011C51.9356 60.6667 52.0284 60.5057 52.0284 60.3182C52.0284 60.1667 51.9754 60.0398 51.8693 59.9375C51.7633 59.8333 51.6004 59.7557 51.3807 59.7045L50.6534 59.5341C50.2538 59.4394 49.9602 59.2926 49.7727 59.0938C49.5871 58.893 49.4943 58.642 49.4943 58.3409C49.4943 58.0947 49.5634 57.8769 49.7017 57.6875C49.8419 57.4981 50.0322 57.3494 50.2727 57.2415C50.5152 57.1335 50.7898 57.0795 51.0966 57.0795C51.5284 57.0795 51.8674 57.1742 52.1136 57.3636C52.3617 57.553 52.5379 57.803 52.642 58.1136ZM53.7308 63.1364V57.1364H54.3786V57.8295H54.4581C54.5073 57.7538 54.5755 57.6572 54.6626 57.5398C54.7517 57.4205 54.8786 57.3144 55.0433 57.2216C55.21 57.1269 55.4354 57.0795 55.7195 57.0795C56.0869 57.0795 56.4107 57.1714 56.6911 57.3551C56.9714 57.5388 57.1901 57.7992 57.3473 58.1364C57.5045 58.4735 57.5831 58.8712 57.5831 59.3295C57.5831 59.7917 57.5045 60.1922 57.3473 60.5312C57.1901 60.8684 56.9723 61.1297 56.6939 61.3153C56.4155 61.4991 56.0945 61.5909 55.7308 61.5909C55.4505 61.5909 55.2261 61.5445 55.0575 61.4517C54.889 61.357 54.7592 61.25 54.6683 61.1307C54.5774 61.0095 54.5073 60.9091 54.4581 60.8295H54.4013V63.1364H53.7308ZM54.3899 59.3182C54.3899 59.6477 54.4382 59.9384 54.5348 60.1903C54.6314 60.4403 54.7725 60.6364 54.9581 60.7784C55.1437 60.9186 55.371 60.9886 55.6399 60.9886C55.9202 60.9886 56.1541 60.9148 56.3416 60.767C56.531 60.6174 56.6731 60.4167 56.7678 60.1648C56.8643 59.911 56.9126 59.6288 56.9126 59.3182C56.9126 59.0114 56.8653 58.7348 56.7706 58.4886C56.6778 58.2405 56.5367 58.0445 56.3473 57.9006C56.1598 57.7547 55.924 57.6818 55.6399 57.6818C55.3672 57.6818 55.138 57.7509 54.9524 57.8892C54.7668 58.0256 54.6267 58.2169 54.532 58.4631C54.4373 58.7074 54.3899 58.9924 54.3899 59.3182ZM59.8899 61.6023C59.6134 61.6023 59.3625 61.5502 59.1371 61.446C58.9117 61.34 58.7327 61.1875 58.6001 60.9886C58.4676 60.7879 58.4013 60.5455 58.4013 60.2614C58.4013 60.0114 58.4505 59.8087 58.549 59.6534C58.6475 59.4962 58.7791 59.3731 58.9439 59.2841C59.1087 59.1951 59.2905 59.1288 59.4893 59.0852C59.6901 59.0398 59.8918 59.0038 60.0945 58.9773C60.3596 58.9432 60.5746 58.9176 60.7393 58.9006C60.906 58.8816 61.0272 58.8504 61.103 58.8068C61.1806 58.7633 61.2195 58.6875 61.2195 58.5795V58.5568C61.2195 58.2765 61.1428 58.0587 60.9893 57.9034C60.8378 57.7481 60.6077 57.6705 60.299 57.6705C59.9789 57.6705 59.728 57.7405 59.5462 57.8807C59.3643 58.0208 59.2365 58.1705 59.1626 58.3295L58.5263 58.1023C58.6399 57.8371 58.7914 57.6307 58.9808 57.483C59.1721 57.3333 59.3804 57.2292 59.6058 57.1705C59.8331 57.1098 60.0566 57.0795 60.2763 57.0795C60.4164 57.0795 60.5774 57.0966 60.7592 57.1307C60.9429 57.1629 61.12 57.2301 61.2905 57.3324C61.4628 57.4347 61.6058 57.589 61.7195 57.7955C61.8331 58.0019 61.8899 58.2784 61.8899 58.625V61.5H61.2195V60.9091H61.1854C61.1399 61.0038 61.0642 61.1051 60.9581 61.2131C60.852 61.321 60.7109 61.4129 60.5348 61.4886C60.3587 61.5644 60.1437 61.6023 59.8899 61.6023ZM59.9922 61C60.2573 61 60.4808 60.9479 60.6626 60.8438C60.8464 60.7396 60.9846 60.6051 61.0774 60.4403C61.1721 60.2756 61.2195 60.1023 61.2195 59.9205V59.3068C61.1911 59.3409 61.1286 59.3722 61.032 59.4006C60.9373 59.4271 60.8274 59.4508 60.7024 59.4716C60.5793 59.4905 60.459 59.5076 60.3416 59.5227C60.2261 59.536 60.1323 59.5473 60.0604 59.5568C59.8861 59.5795 59.7232 59.6165 59.5717 59.6676C59.4221 59.7169 59.3009 59.7917 59.2081 59.892C59.1172 59.9905 59.0717 60.125 59.0717 60.2955C59.0717 60.5284 59.1579 60.7045 59.3303 60.8239C59.5045 60.9413 59.7251 61 59.9922 61ZM63.1136 61.5V57.1364H63.7614V57.8182H63.8182C63.9091 57.5852 64.0559 57.4044 64.2585 57.2756C64.4612 57.1449 64.7045 57.0795 64.9886 57.0795C65.2765 57.0795 65.5161 57.1449 65.7074 57.2756C65.9006 57.4044 66.0511 57.5852 66.1591 57.8182H66.2045C66.3163 57.5928 66.4839 57.4138 66.7074 57.2812C66.9309 57.1468 67.1989 57.0795 67.5114 57.0795C67.9015 57.0795 68.2206 57.2017 68.4688 57.446C68.7169 57.6884 68.8409 58.0663 68.8409 58.5795V61.5H68.1705V58.5795C68.1705 58.2576 68.0824 58.0275 67.9062 57.8892C67.7301 57.7509 67.5227 57.6818 67.2841 57.6818C66.9773 57.6818 66.7396 57.7746 66.571 57.9602C66.4025 58.1439 66.3182 58.3769 66.3182 58.6591V61.5H65.6364V58.5114C65.6364 58.2633 65.5559 58.0634 65.3949 57.9119C65.2339 57.7585 65.0265 57.6818 64.7727 57.6818C64.5985 57.6818 64.4356 57.7282 64.2841 57.821C64.1345 57.9138 64.0133 58.0426 63.9205 58.2074C63.8295 58.3703 63.7841 58.5587 63.7841 58.7727V61.5H63.1136ZM70.6577 55.6818V56.1932C70.6577 56.3485 70.6293 56.5142 70.5724 56.6903C70.5175 56.8646 70.4361 57.0341 70.3281 57.1989C70.2221 57.3617 70.0933 57.5038 69.9418 57.625L69.5781 57.3295C69.6974 57.1591 69.8007 56.982 69.8878 56.7983C69.9768 56.6127 70.0213 56.4148 70.0213 56.2045V55.6818H70.6577ZM72.1122 55.6818V56.1932C72.1122 56.3485 72.0838 56.5142 72.027 56.6903C71.9721 56.8646 71.8906 57.0341 71.7827 57.1989C71.6766 57.3617 71.5478 57.5038 71.3963 57.625L71.0327 57.3295C71.152 57.1591 71.2552 56.982 71.3423 56.7983C71.4313 56.6127 71.4759 56.4148 71.4759 56.2045V55.6818H72.1122Z" fill="#2F2F2F"/>
<rect x="40" y="51" width="35" height="15" stroke="white"/>
<path fill-rule="evenodd" clip-rule="evenodd" d="M87.5 43H88.3602V42.9875L88.3723 43L93.9566 37.2414L93.9568 37.2417L95.1607 36.0003L88.3723 29L88.3602 29.0125V29H87.5V30.7556H87.509V41.2444H87.5V43ZM92.7528 36L89.2114 32.3481V39.6519L92.7528 36Z" fill="black"/>
</svg>
