<svg width="151" height="99" viewBox="0 0 151 99" fill="none" xmlns="http://www.w3.org/2000/svg">
<rect width="36" height="91" transform="translate(5 4)" fill="white"/>
<rect x="5.5" y="4.5" width="35" height="15" fill="#FF6B6B"/>
<path d="M27.1193 12.4432V15H26.0909V10.6364H27.0739V11.3778H27.125C27.2254 11.1335 27.3854 10.9394 27.6051 10.7955C27.8267 10.6515 28.1004 10.5795 28.4261 10.5795C28.7273 10.5795 28.9896 10.6439 29.2131 10.7727C29.4384 10.9015 29.6127 11.0881 29.7358 11.3324C29.8608 11.5767 29.9223 11.8731 29.9205 12.2216V15H28.892V12.3807C28.892 12.089 28.8163 11.8608 28.6648 11.696C28.5152 11.5312 28.3078 11.4489 28.0426 11.4489C27.8627 11.4489 27.7027 11.4886 27.5625 11.5682C27.4242 11.6458 27.3153 11.7585 27.2358 11.9062C27.1581 12.054 27.1193 12.233 27.1193 12.4432ZM30.9659 15V10.6364H31.9631V11.3636H32.0085C32.0881 11.1117 32.2244 10.9176 32.4176 10.7812C32.6127 10.643 32.8352 10.5739 33.0852 10.5739C33.142 10.5739 33.2055 10.5767 33.2756 10.5824C33.3475 10.5862 33.4072 10.5928 33.4545 10.6023V11.5483C33.411 11.5331 33.3419 11.5199 33.2472 11.5085C33.1544 11.4953 33.0644 11.4886 32.9773 11.4886C32.7898 11.4886 32.6212 11.5294 32.4716 11.6108C32.3239 11.6903 32.2074 11.8011 32.1222 11.9432C32.0369 12.0852 31.9943 12.2491 31.9943 12.4347V15H30.9659ZM37.5866 11.7898L36.6491 11.892C36.6226 11.7973 36.5762 11.7083 36.5099 11.625C36.4455 11.5417 36.3584 11.4744 36.2486 11.4233C36.1387 11.3722 36.0043 11.3466 35.8452 11.3466C35.6312 11.3466 35.4512 11.393 35.3054 11.4858C35.1615 11.5786 35.0904 11.6989 35.0923 11.8466C35.0904 11.9735 35.1368 12.0767 35.2315 12.1562C35.3281 12.2358 35.4872 12.3011 35.7088 12.3523L36.4531 12.5114C36.866 12.6004 37.1728 12.7415 37.3736 12.9347C37.5762 13.1278 37.6785 13.3807 37.6804 13.6932C37.6785 13.9678 37.598 14.2102 37.4389 14.4205C37.2817 14.6288 37.063 14.7917 36.7827 14.9091C36.5024 15.0265 36.1804 15.0852 35.8168 15.0852C35.2827 15.0852 34.8527 14.9735 34.527 14.75C34.2012 14.5246 34.0071 14.2112 33.9446 13.8097L34.9474 13.7131C34.9929 13.91 35.0895 14.0587 35.2372 14.1591C35.3849 14.2595 35.5772 14.3097 35.8139 14.3097C36.0582 14.3097 36.2543 14.2595 36.402 14.1591C36.5516 14.0587 36.6264 13.9347 36.6264 13.7869C36.6264 13.6619 36.5781 13.5587 36.4815 13.4773C36.3868 13.3958 36.2391 13.3333 36.0384 13.2898L35.294 13.1335C34.8755 13.0464 34.5658 12.8996 34.3651 12.6932C34.1643 12.4848 34.0649 12.2216 34.0668 11.9034C34.0649 11.6345 34.1378 11.4015 34.2855 11.2045C34.4351 11.0057 34.6425 10.8523 34.9077 10.7443C35.1747 10.6345 35.4825 10.5795 35.831 10.5795C36.3423 10.5795 36.7448 10.6884 37.0384 10.9062C37.3338 11.1241 37.5166 11.4186 37.5866 11.7898Z" fill="#2F2F2F"/>
<rect x="5.5" y="4.5" width="35" height="15" stroke="white"/>
<rect x="5.5" y="19.5" width="35" height="15" fill="#FF6B6B" fill-opacity="0.5"/>
<path d="M36.929 24.1818V30H36.2244V24.9205H36.1903L34.7699 25.8636V25.1477L36.2244 24.1818H36.929Z" fill="#2F2F2F"/>
<rect x="5.5" y="19.5" width="35" height="15" stroke="white"/>
<rect x="5.5" y="34.5" width="35" height="15" fill="#FF6B6B" fill-opacity="0.5"/>
<path d="M33.7585 45V44.4886L35.679 42.3864C35.9044 42.1402 36.09 41.9261 36.2358 41.7443C36.3816 41.5606 36.4896 41.3883 36.5597 41.2273C36.6316 41.0644 36.6676 40.8939 36.6676 40.7159C36.6676 40.5114 36.6184 40.3343 36.5199 40.1847C36.4233 40.035 36.2907 39.9195 36.1222 39.8381C35.9536 39.7566 35.7642 39.7159 35.554 39.7159C35.3305 39.7159 35.1354 39.7623 34.9688 39.8551C34.804 39.946 34.6761 40.0739 34.5852 40.2386C34.4962 40.4034 34.4517 40.5966 34.4517 40.8182H33.7812C33.7812 40.4773 33.8598 40.178 34.017 39.9205C34.1742 39.6629 34.3883 39.4621 34.6591 39.3182C34.9318 39.1742 35.2377 39.1023 35.5767 39.1023C35.9176 39.1023 36.2197 39.1742 36.483 39.3182C36.7462 39.4621 36.9527 39.6562 37.1023 39.9006C37.2519 40.1449 37.3267 40.4167 37.3267 40.7159C37.3267 40.9299 37.2879 41.1392 37.2102 41.3438C37.1345 41.5464 37.0019 41.7727 36.8125 42.0227C36.625 42.2708 36.3646 42.5739 36.0312 42.9318L34.7244 44.3295V44.375H37.429V45H33.7585Z" fill="#2F2F2F"/>
<rect x="5.5" y="34.5" width="35" height="15" stroke="white"/>
<rect x="5.5" y="49.5" width="35" height="15" fill="#FF6B6B" fill-opacity="0.5"/>
<path d="M35.4744 60.0795C35.0994 60.0795 34.7652 60.0152 34.4716 59.8864C34.1799 59.7576 33.9479 59.5786 33.7756 59.3494C33.6051 59.1184 33.5123 58.8504 33.4972 58.5455H34.2131C34.2282 58.733 34.2926 58.8949 34.4062 59.0312C34.5199 59.1657 34.6686 59.2699 34.8523 59.3438C35.036 59.4176 35.2396 59.4545 35.4631 59.4545C35.7131 59.4545 35.9347 59.411 36.1278 59.3239C36.321 59.2367 36.4725 59.1155 36.5824 58.9602C36.6922 58.8049 36.7472 58.625 36.7472 58.4205C36.7472 58.2064 36.6941 58.018 36.5881 57.8551C36.482 57.6903 36.3267 57.5616 36.1222 57.4688C35.9176 57.3759 35.6676 57.3295 35.3722 57.3295H34.9062V56.7045H35.3722C35.6032 56.7045 35.8059 56.6629 35.9801 56.5795C36.1563 56.4962 36.2936 56.3788 36.392 56.2273C36.4924 56.0758 36.5426 55.8977 36.5426 55.6932C36.5426 55.4962 36.4991 55.3248 36.4119 55.179C36.3248 55.0331 36.2017 54.9195 36.0426 54.8381C35.8854 54.7566 35.6998 54.7159 35.4858 54.7159C35.285 54.7159 35.0956 54.7528 34.9176 54.8267C34.7415 54.8987 34.5975 55.0038 34.4858 55.142C34.3741 55.2784 34.3134 55.4432 34.304 55.6364H33.6222C33.6335 55.3314 33.7254 55.0644 33.8977 54.8352C34.0701 54.6042 34.2955 54.4242 34.5739 54.2955C34.8542 54.1667 35.1619 54.1023 35.4972 54.1023C35.857 54.1023 36.1657 54.1752 36.4233 54.321C36.6809 54.465 36.8788 54.6553 37.017 54.892C37.1553 55.1288 37.2244 55.3845 37.2244 55.6591C37.2244 55.9867 37.1383 56.2661 36.9659 56.4972C36.7955 56.7282 36.5634 56.8883 36.2699 56.9773V57.0227C36.6373 57.0833 36.9242 57.2396 37.1307 57.4915C37.3371 57.7415 37.4403 58.0511 37.4403 58.4205C37.4403 58.7367 37.3542 59.0208 37.1818 59.2727C37.0114 59.5227 36.7784 59.7197 36.483 59.8636C36.1875 60.0076 35.8513 60.0795 35.4744 60.0795Z" fill="#2F2F2F"/>
<rect x="5.5" y="49.5" width="35" height="15" stroke="white"/>
<rect x="5.5" y="64.5" width="35" height="15" fill="#FF6B6B" fill-opacity="0.5"/>
<path d="M26.1591 72.375V75H25.4886V70.6364H26.1364V71.3182H26.1932C26.2955 71.0966 26.4508 70.9186 26.6591 70.7841C26.8674 70.6477 27.1364 70.5795 27.4659 70.5795C27.7614 70.5795 28.0199 70.6402 28.2415 70.7614C28.4631 70.8807 28.6354 71.0625 28.7585 71.3068C28.8816 71.5492 28.9432 71.8561 28.9432 72.2273V75H28.2727V72.2727C28.2727 71.9299 28.1837 71.6629 28.0057 71.4716C27.8277 71.2784 27.5833 71.1818 27.2727 71.1818C27.0587 71.1818 26.8674 71.2282 26.6989 71.321C26.5322 71.4138 26.4006 71.5492 26.304 71.7273C26.2074 71.9053 26.1591 72.1212 26.1591 72.375ZM32.9183 73.2159V70.6364H33.5888V75H32.9183V74.2614H32.8729C32.7706 74.483 32.6115 74.6714 32.3956 74.8267C32.1797 74.9801 31.907 75.0568 31.5774 75.0568C31.3047 75.0568 31.0623 74.9972 30.8501 74.8778C30.638 74.7566 30.4714 74.5748 30.3501 74.3324C30.2289 74.0881 30.1683 73.7803 30.1683 73.4091V70.6364H30.8388V73.3636C30.8388 73.6818 30.9278 73.9356 31.1058 74.125C31.2857 74.3144 31.5149 74.4091 31.7933 74.4091C31.96 74.4091 32.1295 74.3665 32.3018 74.2812C32.4761 74.196 32.6219 74.0653 32.7393 73.8892C32.8587 73.7131 32.9183 73.4886 32.9183 73.2159ZM35.4872 69.1818V75H34.8168V69.1818H35.4872ZM37.3857 69.1818V75H36.7152V69.1818H37.3857Z" fill="#2F2F2F"/>
<rect x="5.5" y="64.5" width="35" height="15" stroke="white"/>
<rect x="5.5" y="79.5" width="35" height="15" fill="#FF6B6B" fill-opacity="0.5"/>
<path d="M35.5533 90.0795C35.2199 90.0795 34.9197 90.0133 34.6527 89.8807C34.3857 89.7481 34.1716 89.5663 34.0107 89.3352C33.8497 89.1042 33.7616 88.8409 33.7464 88.5455H34.4283C34.4548 88.8087 34.5741 89.0265 34.7862 89.1989C35.0002 89.3693 35.2559 89.4545 35.5533 89.4545C35.7919 89.4545 36.004 89.3987 36.1896 89.2869C36.3771 89.1752 36.5239 89.0218 36.63 88.8267C36.7379 88.6297 36.7919 88.4072 36.7919 88.1591C36.7919 87.9053 36.736 87.679 36.6243 87.4801C36.5144 87.2794 36.3629 87.1212 36.1697 87.0057C35.9766 86.8902 35.7559 86.8314 35.5078 86.8295C35.3298 86.8277 35.147 86.8551 34.9595 86.9119C34.772 86.9669 34.6177 87.0379 34.4964 87.125L33.8374 87.0455L34.1896 84.1818H37.2124V84.8068H34.7805L34.576 86.5227H34.6101C34.7294 86.428 34.879 86.3494 35.0589 86.2869C35.2389 86.2244 35.4264 86.1932 35.6214 86.1932C35.9775 86.1932 36.2947 86.2784 36.5732 86.4489C36.8535 86.6174 37.0732 86.8485 37.2322 87.142C37.3932 87.4356 37.4737 87.7708 37.4737 88.1477C37.4737 88.5189 37.3904 88.8504 37.2237 89.142C37.0589 89.4318 36.8317 89.661 36.5419 89.8295C36.2521 89.9962 35.9226 90.0795 35.5533 90.0795Z" fill="#2F2F2F"/>
<rect x="5.5" y="79.5" width="35" height="15" stroke="white"/>
<rect width="36" height="91" transform="translate(40 4)" fill="white"/>
<rect x="40.5" y="4.5" width="35" height="15" fill="#FFD93D"/>
<path d="M48.7756 12.4432V15H47.7472V10.6364H48.7301V11.3778H48.7812C48.8816 11.1335 49.0417 10.9394 49.2614 10.7955C49.483 10.6515 49.7566 10.5795 50.0824 10.5795C50.3835 10.5795 50.6458 10.6439 50.8693 10.7727C51.0947 10.9015 51.2689 11.0881 51.392 11.3324C51.517 11.5767 51.5786 11.8731 51.5767 12.2216V15H50.5483V12.3807C50.5483 12.089 50.4725 11.8608 50.321 11.696C50.1714 11.5312 49.964 11.4489 49.6989 11.4489C49.5189 11.4489 49.3589 11.4886 49.2188 11.5682C49.0805 11.6458 48.9716 11.7585 48.892 11.9062C48.8144 12.054 48.7756 12.233 48.7756 12.4432ZM53.8778 15.0881C53.6013 15.0881 53.3523 15.0388 53.1307 14.9403C52.911 14.84 52.7367 14.6922 52.608 14.4972C52.4811 14.3021 52.4176 14.0616 52.4176 13.7756C52.4176 13.5294 52.4631 13.3258 52.554 13.1648C52.6449 13.0038 52.7689 12.875 52.9261 12.7784C53.0833 12.6818 53.2604 12.6089 53.4574 12.5597C53.6563 12.5085 53.8617 12.4716 54.0739 12.4489C54.3295 12.4223 54.5369 12.3987 54.696 12.3778C54.8551 12.3551 54.9706 12.321 55.0426 12.2756C55.1165 12.2282 55.1534 12.1553 55.1534 12.0568V12.0398C55.1534 11.8258 55.09 11.66 54.9631 11.5426C54.8362 11.4252 54.6534 11.3665 54.4148 11.3665C54.1629 11.3665 53.9631 11.4214 53.8153 11.5312C53.6695 11.6411 53.571 11.7708 53.5199 11.9205L52.5597 11.7841C52.6354 11.5189 52.7604 11.2973 52.9347 11.1193C53.1089 10.9394 53.322 10.8049 53.5739 10.7159C53.8258 10.625 54.1042 10.5795 54.4091 10.5795C54.6193 10.5795 54.8286 10.6042 55.0369 10.6534C55.2453 10.7027 55.4356 10.7841 55.608 10.8977C55.7803 11.0095 55.9186 11.1619 56.0227 11.3551C56.1288 11.5483 56.1818 11.7898 56.1818 12.0795V15H55.1932V14.4006H55.1591C55.0966 14.5218 55.0085 14.6354 54.8949 14.7415C54.7831 14.8456 54.642 14.9299 54.4716 14.9943C54.303 15.0568 54.1051 15.0881 53.8778 15.0881ZM54.1449 14.3324C54.3513 14.3324 54.5303 14.2917 54.6818 14.2102C54.8333 14.1269 54.9498 14.017 55.0312 13.8807C55.1146 13.7443 55.1562 13.5956 55.1562 13.4347V12.9205C55.1241 12.947 55.0691 12.9716 54.9915 12.9943C54.9157 13.017 54.8305 13.0369 54.7358 13.054C54.6411 13.071 54.5473 13.0862 54.4545 13.0994C54.3617 13.1127 54.2813 13.1241 54.2131 13.1335C54.0597 13.1544 53.9223 13.1884 53.8011 13.2358C53.6799 13.2831 53.5843 13.3494 53.5142 13.4347C53.4441 13.518 53.4091 13.6259 53.4091 13.7585C53.4091 13.9479 53.4782 14.0909 53.6165 14.1875C53.7547 14.2841 53.9309 14.3324 54.1449 14.3324ZM57.2159 15V10.6364H58.1989V11.3778H58.25C58.3409 11.1278 58.4915 10.9328 58.7017 10.7926C58.9119 10.6506 59.1629 10.5795 59.4545 10.5795C59.75 10.5795 59.9991 10.6515 60.2017 10.7955C60.4063 10.9375 60.5502 11.1316 60.6335 11.3778H60.679C60.7756 11.1354 60.9384 10.9422 61.1676 10.7983C61.3987 10.6525 61.6723 10.5795 61.9886 10.5795C62.3902 10.5795 62.7178 10.7064 62.9716 10.9602C63.2254 11.214 63.3523 11.5843 63.3523 12.071V15H62.321V12.2301C62.321 11.9593 62.2491 11.7614 62.1051 11.6364C61.9612 11.5095 61.785 11.446 61.5767 11.446C61.3286 11.446 61.1345 11.5237 60.9943 11.679C60.8561 11.8324 60.7869 12.0322 60.7869 12.2784V15H59.7784V12.1875C59.7784 11.9621 59.7102 11.7822 59.5739 11.6477C59.4394 11.5133 59.2633 11.446 59.0455 11.446C58.8977 11.446 58.7633 11.4839 58.642 11.5597C58.5208 11.6335 58.4242 11.7386 58.3523 11.875C58.2803 12.0095 58.2443 12.1667 58.2443 12.3466V15H57.2159ZM66.3274 15.0852C65.8899 15.0852 65.5121 14.9943 65.1939 14.8125C64.8776 14.6288 64.6342 14.3693 64.4638 14.0341C64.2933 13.697 64.2081 13.3002 64.2081 12.8438C64.2081 12.3949 64.2933 12.0009 64.4638 11.6619C64.6361 11.321 64.8767 11.0559 65.1854 10.8665C65.4941 10.6752 65.8568 10.5795 66.2734 10.5795C66.5424 10.5795 66.7962 10.6231 67.0348 10.7102C67.2753 10.7955 67.4875 10.928 67.6712 11.108C67.8568 11.2879 68.0026 11.517 68.1087 11.7955C68.2147 12.072 68.2678 12.4015 68.2678 12.7841V13.0994H64.6911V12.4062H67.282C67.2801 12.2093 67.2375 12.0341 67.1541 11.8807C67.0708 11.7254 66.9543 11.6032 66.8047 11.5142C66.657 11.4252 66.4846 11.3807 66.2876 11.3807C66.0774 11.3807 65.8928 11.4318 65.7337 11.5341C65.5746 11.6345 65.4505 11.767 65.3615 11.9318C65.2744 12.0947 65.2299 12.2737 65.228 12.4688V13.0739C65.228 13.3277 65.2744 13.5455 65.3672 13.7273C65.46 13.9072 65.5897 14.0455 65.7564 14.142C65.9231 14.2367 66.1181 14.2841 66.3416 14.2841C66.4912 14.2841 66.6267 14.2633 66.7479 14.2216C66.8691 14.178 66.9742 14.1146 67.0632 14.0312C67.1522 13.9479 67.2195 13.8447 67.2649 13.7216L68.2251 13.8295C68.1645 14.0833 68.049 14.3049 67.8786 14.4943C67.71 14.6818 67.4941 14.8277 67.2308 14.9318C66.9676 15.0341 66.6664 15.0852 66.3274 15.0852ZM72.5866 11.7898L71.6491 11.892C71.6226 11.7973 71.5762 11.7083 71.5099 11.625C71.4455 11.5417 71.3584 11.4744 71.2486 11.4233C71.1387 11.3722 71.0043 11.3466 70.8452 11.3466C70.6312 11.3466 70.4512 11.393 70.3054 11.4858C70.1615 11.5786 70.0904 11.6989 70.0923 11.8466C70.0904 11.9735 70.1368 12.0767 70.2315 12.1562C70.3281 12.2358 70.4872 12.3011 70.7088 12.3523L71.4531 12.5114C71.866 12.6004 72.1728 12.7415 72.3736 12.9347C72.5762 13.1278 72.6785 13.3807 72.6804 13.6932C72.6785 13.9678 72.598 14.2102 72.4389 14.4205C72.2817 14.6288 72.063 14.7917 71.7827 14.9091C71.5024 15.0265 71.1804 15.0852 70.8168 15.0852C70.2827 15.0852 69.8527 14.9735 69.527 14.75C69.2012 14.5246 69.0071 14.2112 68.9446 13.8097L69.9474 13.7131C69.9929 13.91 70.0895 14.0587 70.2372 14.1591C70.3849 14.2595 70.5772 14.3097 70.8139 14.3097C71.0582 14.3097 71.2543 14.2595 71.402 14.1591C71.5516 14.0587 71.6264 13.9347 71.6264 13.7869C71.6264 13.6619 71.5781 13.5587 71.4815 13.4773C71.3868 13.3958 71.2391 13.3333 71.0384 13.2898L70.294 13.1335C69.8755 13.0464 69.5658 12.8996 69.3651 12.6932C69.1643 12.4848 69.0649 12.2216 69.0668 11.9034C69.0649 11.6345 69.1378 11.4015 69.2855 11.2045C69.4351 11.0057 69.6425 10.8523 69.9077 10.7443C70.1747 10.6345 70.4825 10.5795 70.831 10.5795C71.3423 10.5795 71.7448 10.6884 72.0384 10.9062C72.3338 11.1241 72.5166 11.4186 72.5866 11.7898Z" fill="#2F2F2F"/>
<rect x="40.5" y="4.5" width="35" height="15" stroke="white"/>
<rect x="40.5" y="19.5" width="35" height="15" fill="#FFD93D" fill-opacity="0.5"/>
<path d="M55.0426 26V25.4886C55.0426 25.3333 55.0701 25.1686 55.125 24.9943C55.1818 24.8182 55.2633 24.6487 55.3693 24.4858C55.4773 24.321 55.607 24.178 55.7585 24.0568L56.1222 24.3523C56.0028 24.5227 55.8987 24.7008 55.8097 24.8864C55.7225 25.0701 55.679 25.267 55.679 25.4773V26H55.0426ZM56.4972 26V25.4886C56.4972 25.3333 56.5246 25.1686 56.5795 24.9943C56.6364 24.8182 56.7178 24.6487 56.8239 24.4858C56.9318 24.321 57.0616 24.178 57.2131 24.0568L57.5767 24.3523C57.4574 24.5227 57.3532 24.7008 57.2642 24.8864C57.1771 25.0701 57.1335 25.267 57.1335 25.4773V26H56.4972ZM60.2599 25.6364V26.2045H57.9077V25.6364H60.2599ZM58.6122 30V25.0341C58.6122 24.7841 58.6709 24.5758 58.7884 24.4091C58.9058 24.2424 59.0582 24.1174 59.2457 24.0341C59.4332 23.9508 59.6312 23.9091 59.8395 23.9091C60.0043 23.9091 60.1387 23.9223 60.2429 23.9489C60.3471 23.9754 60.4247 24 60.4759 24.0227L60.2827 24.6023C60.2486 24.5909 60.2012 24.5767 60.1406 24.5597C60.0819 24.5426 60.0043 24.5341 59.9077 24.5341C59.6861 24.5341 59.526 24.59 59.4276 24.7017C59.331 24.8134 59.2827 24.9773 59.2827 25.1932V30H58.6122ZM62.7926 30.0909C62.3987 30.0909 62.053 29.9972 61.7557 29.8097C61.4602 29.6222 61.2292 29.3598 61.0625 29.0227C60.8977 28.6856 60.8153 28.2917 60.8153 27.8409C60.8153 27.3864 60.8977 26.9896 61.0625 26.6506C61.2292 26.3116 61.4602 26.0483 61.7557 25.8608C62.053 25.6733 62.3987 25.5795 62.7926 25.5795C63.1866 25.5795 63.5313 25.6733 63.8267 25.8608C64.1241 26.0483 64.3551 26.3116 64.5199 26.6506C64.6866 26.9896 64.7699 27.3864 64.7699 27.8409C64.7699 28.2917 64.6866 28.6856 64.5199 29.0227C64.3551 29.3598 64.1241 29.6222 63.8267 29.8097C63.5313 29.9972 63.1866 30.0909 62.7926 30.0909ZM62.7926 29.4886C63.0919 29.4886 63.3381 29.4119 63.5312 29.2585C63.7244 29.1051 63.8674 28.9034 63.9602 28.6534C64.053 28.4034 64.0994 28.1326 64.0994 27.8409C64.0994 27.5492 64.053 27.2775 63.9602 27.0256C63.8674 26.7737 63.7244 26.5701 63.5312 26.4148C63.3381 26.2595 63.0919 26.1818 62.7926 26.1818C62.4934 26.1818 62.2472 26.2595 62.054 26.4148C61.8608 26.5701 61.7178 26.7737 61.625 27.0256C61.5322 27.2775 61.4858 27.5492 61.4858 27.8409C61.4858 28.1326 61.5322 28.4034 61.625 28.6534C61.7178 28.9034 61.8608 29.1051 62.054 29.2585C62.2472 29.4119 62.4934 29.4886 62.7926 29.4886ZM67.5661 30.0909C67.1721 30.0909 66.8265 29.9972 66.5291 29.8097C66.2337 29.6222 66.0026 29.3598 65.8359 29.0227C65.6712 28.6856 65.5888 28.2917 65.5888 27.8409C65.5888 27.3864 65.6712 26.9896 65.8359 26.6506C66.0026 26.3116 66.2337 26.0483 66.5291 25.8608C66.8265 25.6733 67.1721 25.5795 67.5661 25.5795C67.96 25.5795 68.3047 25.6733 68.6001 25.8608C68.8975 26.0483 69.1286 26.3116 69.2933 26.6506C69.46 26.9896 69.5433 27.3864 69.5433 27.8409C69.5433 28.2917 69.46 28.6856 69.2933 29.0227C69.1286 29.3598 68.8975 29.6222 68.6001 29.8097C68.3047 29.9972 67.96 30.0909 67.5661 30.0909ZM67.5661 29.4886C67.8653 29.4886 68.1115 29.4119 68.3047 29.2585C68.4979 29.1051 68.6409 28.9034 68.7337 28.6534C68.8265 28.4034 68.8729 28.1326 68.8729 27.8409C68.8729 27.5492 68.8265 27.2775 68.7337 27.0256C68.6409 26.7737 68.4979 26.5701 68.3047 26.4148C68.1115 26.2595 67.8653 26.1818 67.5661 26.1818C67.2668 26.1818 67.0206 26.2595 66.8274 26.4148C66.6342 26.5701 66.4912 26.7737 66.3984 27.0256C66.3056 27.2775 66.2592 27.5492 66.2592 27.8409C66.2592 28.1326 66.3056 28.4034 66.3984 28.6534C66.4912 28.9034 66.6342 29.1051 66.8274 29.2585C67.0206 29.4119 67.2668 29.4886 67.5661 29.4886ZM71.1577 24.1818V24.6932C71.1577 24.8485 71.1293 25.0142 71.0724 25.1903C71.0175 25.3646 70.9361 25.5341 70.8281 25.6989C70.7221 25.8617 70.5933 26.0038 70.4418 26.125L70.0781 25.8295C70.1974 25.6591 70.3007 25.482 70.3878 25.2983C70.4768 25.1127 70.5213 24.9148 70.5213 24.7045V24.1818H71.1577ZM72.6122 24.1818V24.6932C72.6122 24.8485 72.5838 25.0142 72.527 25.1903C72.4721 25.3646 72.3906 25.5341 72.2827 25.6989C72.1766 25.8617 72.0478 26.0038 71.8963 26.125L71.5327 25.8295C71.652 25.6591 71.7552 25.482 71.8423 25.2983C71.9313 25.1127 71.9759 24.9148 71.9759 24.7045V24.1818H72.6122Z" fill="#2F2F2F"/>
<rect x="40.5" y="19.5" width="35" height="15" stroke="white"/>
<rect x="40.5" y="34.5" width="35" height="15" fill="#FFD93D" fill-opacity="0.5"/>
<path d="M51.1051 41V40.4886C51.1051 40.3333 51.1326 40.1686 51.1875 39.9943C51.2443 39.8182 51.3258 39.6487 51.4318 39.4858C51.5398 39.321 51.6695 39.178 51.821 39.0568L52.1847 39.3523C52.0653 39.5227 51.9612 39.7008 51.8722 39.8864C51.785 40.0701 51.7415 40.267 51.7415 40.4773V41H51.1051ZM52.5597 41V40.4886C52.5597 40.3333 52.5871 40.1686 52.642 39.9943C52.6989 39.8182 52.7803 39.6487 52.8864 39.4858C52.9943 39.321 53.1241 39.178 53.2756 39.0568L53.6392 39.3523C53.5199 39.5227 53.4157 39.7008 53.3267 39.8864C53.2396 40.0701 53.196 40.267 53.196 40.4773V41H52.5597ZM55.0497 42.375V45H54.3793V39.1818H55.0497V41.3182H55.1065C55.2088 41.0928 55.3622 40.9138 55.5668 40.7812C55.7732 40.6468 56.0478 40.5795 56.3906 40.5795C56.688 40.5795 56.9484 40.6392 57.1719 40.7585C57.3954 40.8759 57.5687 41.0568 57.6918 41.3011C57.8168 41.5436 57.8793 41.8523 57.8793 42.2273V45H57.2088V42.2727C57.2088 41.9261 57.1188 41.6581 56.9389 41.4688C56.7609 41.2775 56.5137 41.1818 56.1974 41.1818C55.9777 41.1818 55.7808 41.2282 55.6065 41.321C55.4342 41.4138 55.2978 41.5492 55.1974 41.7273C55.099 41.9053 55.0497 42.1212 55.0497 42.375ZM60.3899 45.1023C60.1134 45.1023 59.8625 45.0502 59.6371 44.946C59.4117 44.84 59.2327 44.6875 59.1001 44.4886C58.9676 44.2879 58.9013 44.0455 58.9013 43.7614C58.9013 43.5114 58.9505 43.3087 59.049 43.1534C59.1475 42.9962 59.2791 42.8731 59.4439 42.7841C59.6087 42.6951 59.7905 42.6288 59.9893 42.5852C60.1901 42.5398 60.3918 42.5038 60.5945 42.4773C60.8596 42.4432 61.0746 42.4176 61.2393 42.4006C61.406 42.3816 61.5272 42.3504 61.603 42.3068C61.6806 42.2633 61.7195 42.1875 61.7195 42.0795V42.0568C61.7195 41.7765 61.6428 41.5587 61.4893 41.4034C61.3378 41.2481 61.1077 41.1705 60.799 41.1705C60.4789 41.1705 60.228 41.2405 60.0462 41.3807C59.8643 41.5208 59.7365 41.6705 59.6626 41.8295L59.0263 41.6023C59.1399 41.3371 59.2914 41.1307 59.4808 40.983C59.6721 40.8333 59.8804 40.7292 60.1058 40.6705C60.3331 40.6098 60.5566 40.5795 60.7763 40.5795C60.9164 40.5795 61.0774 40.5966 61.2592 40.6307C61.4429 40.6629 61.62 40.7301 61.7905 40.8324C61.9628 40.9347 62.1058 41.089 62.2195 41.2955C62.3331 41.5019 62.3899 41.7784 62.3899 42.125V45H61.7195V44.4091H61.6854C61.6399 44.5038 61.5642 44.6051 61.4581 44.7131C61.352 44.821 61.2109 44.9129 61.0348 44.9886C60.8587 45.0644 60.6437 45.1023 60.3899 45.1023ZM60.4922 44.5C60.7573 44.5 60.9808 44.4479 61.1626 44.3438C61.3464 44.2396 61.4846 44.1051 61.5774 43.9403C61.6721 43.7756 61.7195 43.6023 61.7195 43.4205V42.8068C61.6911 42.8409 61.6286 42.8722 61.532 42.9006C61.4373 42.9271 61.3274 42.9508 61.2024 42.9716C61.0793 42.9905 60.959 43.0076 60.8416 43.0227C60.7261 43.036 60.6323 43.0473 60.5604 43.0568C60.3861 43.0795 60.2232 43.1165 60.0717 43.1676C59.9221 43.2169 59.8009 43.2917 59.7081 43.392C59.6172 43.4905 59.5717 43.625 59.5717 43.7955C59.5717 44.0284 59.6579 44.2045 59.8303 44.3239C60.0045 44.4413 60.2251 44.5 60.4922 44.5ZM63.6136 45V40.6364H64.2614V41.3182H64.3182C64.4091 41.0852 64.5559 40.9044 64.7585 40.7756C64.9612 40.6449 65.2045 40.5795 65.4886 40.5795C65.7765 40.5795 66.0161 40.6449 66.2074 40.7756C66.4006 40.9044 66.5511 41.0852 66.6591 41.3182H66.7045C66.8163 41.0928 66.9839 40.9138 67.2074 40.7812C67.4309 40.6468 67.6989 40.5795 68.0114 40.5795C68.4015 40.5795 68.7206 40.7017 68.9688 40.946C69.2169 41.1884 69.3409 41.5663 69.3409 42.0795V45H68.6705V42.0795C68.6705 41.7576 68.5824 41.5275 68.4062 41.3892C68.2301 41.2509 68.0227 41.1818 67.7841 41.1818C67.4773 41.1818 67.2396 41.2746 67.071 41.4602C66.9025 41.6439 66.8182 41.8769 66.8182 42.1591V45H66.1364V42.0114C66.1364 41.7633 66.0559 41.5634 65.8949 41.4119C65.7339 41.2585 65.5265 41.1818 65.2727 41.1818C65.0985 41.1818 64.9356 41.2282 64.7841 41.321C64.6345 41.4138 64.5133 41.5426 64.4205 41.7074C64.3295 41.8703 64.2841 42.0587 64.2841 42.2727V45H63.6136ZM71.1577 39.1818V39.6932C71.1577 39.8485 71.1293 40.0142 71.0724 40.1903C71.0175 40.3646 70.9361 40.5341 70.8281 40.6989C70.7221 40.8617 70.5933 41.0038 70.4418 41.125L70.0781 40.8295C70.1974 40.6591 70.3007 40.482 70.3878 40.2983C70.4768 40.1127 70.5213 39.9148 70.5213 39.7045V39.1818H71.1577ZM72.6122 39.1818V39.6932C72.6122 39.8485 72.5838 40.0142 72.527 40.1903C72.4721 40.3646 72.3906 40.5341 72.2827 40.6989C72.1766 40.8617 72.0478 41.0038 71.8963 41.125L71.5327 40.8295C71.652 40.6591 71.7552 40.482 71.8423 40.2983C71.9313 40.1127 71.9759 39.9148 71.9759 39.7045V39.1818H72.6122Z" fill="#2F2F2F"/>
<rect x="40.5" y="34.5" width="35" height="15" stroke="white"/>
<rect x="40.5" y="49.5" width="35" height="15" fill="#FFD93D" fill-opacity="0.5"/>
<path d="M46.777 56V55.4886C46.777 55.3333 46.8045 55.1686 46.8594 54.9943C46.9162 54.8182 46.9976 54.6487 47.1037 54.4858C47.2116 54.321 47.3414 54.178 47.4929 54.0568L47.8565 54.3523C47.7372 54.5227 47.633 54.7008 47.544 54.8864C47.4569 55.0701 47.4134 55.267 47.4134 55.4773V56H46.777ZM48.2315 56V55.4886C48.2315 55.3333 48.259 55.1686 48.3139 54.9943C48.3707 54.8182 48.4522 54.6487 48.5582 54.4858C48.6662 54.321 48.7959 54.178 48.9474 54.0568L49.3111 54.3523C49.1918 54.5227 49.0876 54.7008 48.9986 54.8864C48.9115 55.0701 48.8679 55.267 48.8679 55.4773V56H48.2315ZM53.142 56.6136L52.5398 56.7841C52.5019 56.6837 52.446 56.5862 52.3722 56.4915C52.3002 56.3949 52.2017 56.3153 52.0767 56.2528C51.9517 56.1903 51.7917 56.1591 51.5966 56.1591C51.3295 56.1591 51.107 56.2206 50.929 56.3438C50.7528 56.465 50.6648 56.6193 50.6648 56.8068C50.6648 56.9735 50.7254 57.1051 50.8466 57.2017C50.9678 57.2983 51.1572 57.3788 51.4148 57.4432L52.0625 57.6023C52.4527 57.697 52.7434 57.8419 52.9347 58.0369C53.1259 58.2301 53.2216 58.4792 53.2216 58.7841C53.2216 59.0341 53.1496 59.2576 53.0057 59.4545C52.8636 59.6515 52.6648 59.8068 52.4091 59.9205C52.1534 60.0341 51.8561 60.0909 51.517 60.0909C51.072 60.0909 50.7036 59.9943 50.4119 59.8011C50.1203 59.608 49.9356 59.3258 49.858 58.9545L50.4943 58.7955C50.5549 59.0303 50.6695 59.2064 50.8381 59.3239C51.0085 59.4413 51.2311 59.5 51.5057 59.5C51.8182 59.5 52.0663 59.4337 52.25 59.3011C52.4356 59.1667 52.5284 59.0057 52.5284 58.8182C52.5284 58.6667 52.4754 58.5398 52.3693 58.4375C52.2633 58.3333 52.1004 58.2557 51.8807 58.2045L51.1534 58.0341C50.7538 57.9394 50.4602 57.7926 50.2727 57.5938C50.0871 57.393 49.9943 57.142 49.9943 56.8409C49.9943 56.5947 50.0634 56.3769 50.2017 56.1875C50.3419 55.9981 50.5322 55.8494 50.7727 55.7415C51.0152 55.6335 51.2898 55.5795 51.5966 55.5795C52.0284 55.5795 52.3674 55.6742 52.6136 55.8636C52.8617 56.053 53.0379 56.303 53.142 56.6136ZM54.2308 61.6364V55.6364H54.8786V56.3295H54.9581C55.0073 56.2538 55.0755 56.1572 55.1626 56.0398C55.2517 55.9205 55.3786 55.8144 55.5433 55.7216C55.71 55.6269 55.9354 55.5795 56.2195 55.5795C56.5869 55.5795 56.9107 55.6714 57.1911 55.8551C57.4714 56.0388 57.6901 56.2992 57.8473 56.6364C58.0045 56.9735 58.0831 57.3712 58.0831 57.8295C58.0831 58.2917 58.0045 58.6922 57.8473 59.0312C57.6901 59.3684 57.4723 59.6297 57.1939 59.8153C56.9155 59.9991 56.5945 60.0909 56.2308 60.0909C55.9505 60.0909 55.7261 60.0445 55.5575 59.9517C55.389 59.857 55.2592 59.75 55.1683 59.6307C55.0774 59.5095 55.0073 59.4091 54.9581 59.3295H54.9013V61.6364H54.2308ZM54.8899 57.8182C54.8899 58.1477 54.9382 58.4384 55.0348 58.6903C55.1314 58.9403 55.2725 59.1364 55.4581 59.2784C55.6437 59.4186 55.871 59.4886 56.1399 59.4886C56.4202 59.4886 56.6541 59.4148 56.8416 59.267C57.031 59.1174 57.1731 58.9167 57.2678 58.6648C57.3643 58.411 57.4126 58.1288 57.4126 57.8182C57.4126 57.5114 57.3653 57.2348 57.2706 56.9886C57.1778 56.7405 57.0367 56.5445 56.8473 56.4006C56.6598 56.2547 56.424 56.1818 56.1399 56.1818C55.8672 56.1818 55.638 56.2509 55.4524 56.3892C55.2668 56.5256 55.1267 56.7169 55.032 56.9631C54.9373 57.2074 54.8899 57.4924 54.8899 57.8182ZM60.3899 60.1023C60.1134 60.1023 59.8625 60.0502 59.6371 59.946C59.4117 59.84 59.2327 59.6875 59.1001 59.4886C58.9676 59.2879 58.9013 59.0455 58.9013 58.7614C58.9013 58.5114 58.9505 58.3087 59.049 58.1534C59.1475 57.9962 59.2791 57.8731 59.4439 57.7841C59.6087 57.6951 59.7905 57.6288 59.9893 57.5852C60.1901 57.5398 60.3918 57.5038 60.5945 57.4773C60.8596 57.4432 61.0746 57.4176 61.2393 57.4006C61.406 57.3816 61.5272 57.3504 61.603 57.3068C61.6806 57.2633 61.7195 57.1875 61.7195 57.0795V57.0568C61.7195 56.7765 61.6428 56.5587 61.4893 56.4034C61.3378 56.2481 61.1077 56.1705 60.799 56.1705C60.4789 56.1705 60.228 56.2405 60.0462 56.3807C59.8643 56.5208 59.7365 56.6705 59.6626 56.8295L59.0263 56.6023C59.1399 56.3371 59.2914 56.1307 59.4808 55.983C59.6721 55.8333 59.8804 55.7292 60.1058 55.6705C60.3331 55.6098 60.5566 55.5795 60.7763 55.5795C60.9164 55.5795 61.0774 55.5966 61.2592 55.6307C61.4429 55.6629 61.62 55.7301 61.7905 55.8324C61.9628 55.9347 62.1058 56.089 62.2195 56.2955C62.3331 56.5019 62.3899 56.7784 62.3899 57.125V60H61.7195V59.4091H61.6854C61.6399 59.5038 61.5642 59.6051 61.4581 59.7131C61.352 59.821 61.2109 59.9129 61.0348 59.9886C60.8587 60.0644 60.6437 60.1023 60.3899 60.1023ZM60.4922 59.5C60.7573 59.5 60.9808 59.4479 61.1626 59.3438C61.3464 59.2396 61.4846 59.1051 61.5774 58.9403C61.6721 58.7756 61.7195 58.6023 61.7195 58.4205V57.8068C61.6911 57.8409 61.6286 57.8722 61.532 57.9006C61.4373 57.9271 61.3274 57.9508 61.2024 57.9716C61.0793 57.9905 60.959 58.0076 60.8416 58.0227C60.7261 58.036 60.6323 58.0473 60.5604 58.0568C60.3861 58.0795 60.2232 58.1165 60.0717 58.1676C59.9221 58.2169 59.8009 58.2917 59.7081 58.392C59.6172 58.4905 59.5717 58.625 59.5717 58.7955C59.5717 59.0284 59.6579 59.2045 59.8303 59.3239C60.0045 59.4413 60.2251 59.5 60.4922 59.5ZM63.6136 60V55.6364H64.2614V56.3182H64.3182C64.4091 56.0852 64.5559 55.9044 64.7585 55.7756C64.9612 55.6449 65.2045 55.5795 65.4886 55.5795C65.7765 55.5795 66.0161 55.6449 66.2074 55.7756C66.4006 55.9044 66.5511 56.0852 66.6591 56.3182H66.7045C66.8163 56.0928 66.9839 55.9138 67.2074 55.7812C67.4309 55.6468 67.6989 55.5795 68.0114 55.5795C68.4015 55.5795 68.7206 55.7017 68.9688 55.946C69.2169 56.1884 69.3409 56.5663 69.3409 57.0795V60H68.6705V57.0795C68.6705 56.7576 68.5824 56.5275 68.4062 56.3892C68.2301 56.2509 68.0227 56.1818 67.7841 56.1818C67.4773 56.1818 67.2396 56.2746 67.071 56.4602C66.9025 56.6439 66.8182 56.8769 66.8182 57.1591V60H66.1364V57.0114C66.1364 56.7633 66.0559 56.5634 65.8949 56.4119C65.7339 56.2585 65.5265 56.1818 65.2727 56.1818C65.0985 56.1818 64.9356 56.2282 64.7841 56.321C64.6345 56.4138 64.5133 56.5426 64.4205 56.7074C64.3295 56.8703 64.2841 57.0587 64.2841 57.2727V60H63.6136ZM71.1577 54.1818V54.6932C71.1577 54.8485 71.1293 55.0142 71.0724 55.1903C71.0175 55.3646 70.9361 55.5341 70.8281 55.6989C70.7221 55.8617 70.5933 56.0038 70.4418 56.125L70.0781 55.8295C70.1974 55.6591 70.3007 55.482 70.3878 55.2983C70.4768 55.1127 70.5213 54.9148 70.5213 54.7045V54.1818H71.1577ZM72.6122 54.1818V54.6932C72.6122 54.8485 72.5838 55.0142 72.527 55.1903C72.4721 55.3646 72.3906 55.5341 72.2827 55.6989C72.1766 55.8617 72.0478 56.0038 71.8963 56.125L71.5327 55.8295C71.652 55.6591 71.7552 55.482 71.8423 55.2983C71.9313 55.1127 71.9759 54.9148 71.9759 54.7045V54.1818H72.6122Z" fill="#2F2F2F"/>
<rect x="40.5" y="49.5" width="35" height="15" stroke="white"/>
<rect x="40.5" y="64.5" width="35" height="15" fill="#FFD93D" fill-opacity="0.5"/>
<path d="M52.8864 71V70.4886C52.8864 70.3333 52.9138 70.1686 52.9688 69.9943C53.0256 69.8182 53.107 69.6487 53.2131 69.4858C53.321 69.321 53.4508 69.178 53.6023 69.0568L53.9659 69.3523C53.8466 69.5227 53.7424 69.7008 53.6534 69.8864C53.5663 70.0701 53.5227 70.267 53.5227 70.4773V71H52.8864ZM54.3409 71V70.4886C54.3409 70.3333 54.3684 70.1686 54.4233 69.9943C54.4801 69.8182 54.5616 69.6487 54.6676 69.4858C54.7756 69.321 54.9053 69.178 55.0568 69.0568L55.4205 69.3523C55.3011 69.5227 55.197 69.7008 55.108 69.8864C55.0208 70.0701 54.9773 70.267 54.9773 70.4773V71H54.3409ZM57.9901 75.0909C57.5696 75.0909 57.2069 74.9981 56.902 74.8125C56.599 74.625 56.3651 74.3636 56.2003 74.0284C56.0374 73.6913 55.956 73.2992 55.956 72.8523C55.956 72.4053 56.0374 72.0114 56.2003 71.6705C56.3651 71.3277 56.5942 71.0606 56.8878 70.8693C57.1832 70.6761 57.5279 70.5795 57.9219 70.5795C58.1491 70.5795 58.3736 70.6174 58.5952 70.6932C58.8168 70.7689 59.0185 70.892 59.2003 71.0625C59.3821 71.2311 59.527 71.4545 59.6349 71.733C59.7429 72.0114 59.7969 72.3542 59.7969 72.7614V73.0455H56.4332V72.4659H59.1151C59.1151 72.2197 59.0658 72 58.9673 71.8068C58.8707 71.6136 58.7325 71.4612 58.5526 71.3494C58.3745 71.2377 58.1643 71.1818 57.9219 71.1818C57.6548 71.1818 57.4238 71.2481 57.2287 71.3807C57.0355 71.5114 56.8868 71.6818 56.7827 71.892C56.6785 72.1023 56.6264 72.3277 56.6264 72.5682V72.9545C56.6264 73.2841 56.6832 73.5634 56.7969 73.7926C56.9124 74.0199 57.0724 74.1932 57.277 74.3125C57.4815 74.4299 57.7192 74.4886 57.9901 74.4886C58.1662 74.4886 58.3253 74.464 58.4673 74.4148C58.6113 74.3636 58.7353 74.2879 58.8395 74.1875C58.9437 74.0852 59.0241 73.9583 59.081 73.8068L59.7287 73.9886C59.6605 74.2083 59.5459 74.4015 59.3849 74.5682C59.224 74.733 59.0251 74.8617 58.7884 74.9545C58.5516 75.0455 58.2855 75.0909 57.9901 75.0909ZM62.5781 76.7273C62.2543 76.7273 61.9759 76.6856 61.7429 76.6023C61.5099 76.5208 61.3158 76.4129 61.1605 76.2784C61.0071 76.1458 60.8849 76.0038 60.794 75.8523L61.3281 75.4773C61.3887 75.5568 61.4654 75.6477 61.5582 75.75C61.651 75.8542 61.7779 75.9441 61.9389 76.0199C62.1018 76.0975 62.3149 76.1364 62.5781 76.1364C62.9304 76.1364 63.2211 76.0511 63.4503 75.8807C63.6795 75.7102 63.794 75.4432 63.794 75.0795V74.1932H63.7372C63.688 74.2727 63.6179 74.3712 63.527 74.4886C63.438 74.6042 63.3092 74.7074 63.1406 74.7983C62.974 74.8873 62.7486 74.9318 62.4645 74.9318C62.1122 74.9318 61.7959 74.8485 61.5156 74.6818C61.2372 74.5152 61.0166 74.2727 60.8537 73.9545C60.6927 73.6364 60.6122 73.25 60.6122 72.7955C60.6122 72.3485 60.6908 71.9593 60.848 71.6278C61.0052 71.2945 61.224 71.0369 61.5043 70.8551C61.7846 70.6714 62.1084 70.5795 62.4759 70.5795C62.7599 70.5795 62.9853 70.6269 63.152 70.7216C63.3205 70.8144 63.4493 70.9205 63.5384 71.0398C63.6293 71.1572 63.6993 71.2538 63.7486 71.3295H63.8168V70.6364H64.4645V75.125C64.4645 75.5 64.3793 75.8049 64.2088 76.0398C64.0402 76.2765 63.813 76.4498 63.527 76.5597C63.2429 76.6714 62.9266 76.7273 62.5781 76.7273ZM62.5554 74.3295C62.8243 74.3295 63.0516 74.268 63.2372 74.1449C63.4228 74.0218 63.5639 73.8447 63.6605 73.6136C63.7571 73.3826 63.8054 73.1061 63.8054 72.7841C63.8054 72.4697 63.758 72.1922 63.6634 71.9517C63.5687 71.7112 63.4285 71.5227 63.2429 71.3864C63.0573 71.25 62.8281 71.1818 62.5554 71.1818C62.2713 71.1818 62.0346 71.2538 61.8452 71.3977C61.6577 71.5417 61.5166 71.7348 61.4219 71.9773C61.3291 72.2197 61.2827 72.4886 61.2827 72.7841C61.2827 73.0871 61.33 73.3551 61.4247 73.5881C61.5213 73.8191 61.6634 74.0009 61.8509 74.1335C62.0402 74.2642 62.2751 74.3295 62.5554 74.3295ZM67.4531 76.7273C67.1293 76.7273 66.8509 76.6856 66.6179 76.6023C66.3849 76.5208 66.1908 76.4129 66.0355 76.2784C65.8821 76.1458 65.7599 76.0038 65.669 75.8523L66.2031 75.4773C66.2637 75.5568 66.3404 75.6477 66.4332 75.75C66.526 75.8542 66.6529 75.9441 66.8139 76.0199C66.9768 76.0975 67.1899 76.1364 67.4531 76.1364C67.8054 76.1364 68.0961 76.0511 68.3253 75.8807C68.5545 75.7102 68.669 75.4432 68.669 75.0795V74.1932H68.6122C68.563 74.2727 68.4929 74.3712 68.402 74.4886C68.313 74.6042 68.1842 74.7074 68.0156 74.7983C67.849 74.8873 67.6236 74.9318 67.3395 74.9318C66.9872 74.9318 66.6709 74.8485 66.3906 74.6818C66.1122 74.5152 65.8916 74.2727 65.7287 73.9545C65.5677 73.6364 65.4872 73.25 65.4872 72.7955C65.4872 72.3485 65.5658 71.9593 65.723 71.6278C65.8802 71.2945 66.099 71.0369 66.3793 70.8551C66.6596 70.6714 66.9834 70.5795 67.3509 70.5795C67.6349 70.5795 67.8603 70.6269 68.027 70.7216C68.1955 70.8144 68.3243 70.9205 68.4134 71.0398C68.5043 71.1572 68.5743 71.2538 68.6236 71.3295H68.6918V70.6364H69.3395V75.125C69.3395 75.5 69.2543 75.8049 69.0838 76.0398C68.9152 76.2765 68.688 76.4498 68.402 76.5597C68.1179 76.6714 67.8016 76.7273 67.4531 76.7273ZM67.4304 74.3295C67.6993 74.3295 67.9266 74.268 68.1122 74.1449C68.2978 74.0218 68.4389 73.8447 68.5355 73.6136C68.6321 73.3826 68.6804 73.1061 68.6804 72.7841C68.6804 72.4697 68.633 72.1922 68.5384 71.9517C68.4437 71.7112 68.3035 71.5227 68.1179 71.3864C67.9323 71.25 67.7031 71.1818 67.4304 71.1818C67.1463 71.1818 66.9096 71.2538 66.7202 71.3977C66.5327 71.5417 66.3916 71.7348 66.2969 71.9773C66.2041 72.2197 66.1577 72.4886 66.1577 72.7841C66.1577 73.0871 66.205 73.3551 66.2997 73.5881C66.3963 73.8191 66.5384 74.0009 66.7259 74.1335C66.9152 74.2642 67.1501 74.3295 67.4304 74.3295ZM71.1577 69.1818V69.6932C71.1577 69.8485 71.1293 70.0142 71.0724 70.1903C71.0175 70.3646 70.9361 70.5341 70.8281 70.6989C70.7221 70.8617 70.5933 71.0038 70.4418 71.125L70.0781 70.8295C70.1974 70.6591 70.3007 70.482 70.3878 70.2983C70.4768 70.1127 70.5213 69.9148 70.5213 69.7045V69.1818H71.1577ZM72.6122 69.1818V69.6932C72.6122 69.8485 72.5838 70.0142 72.527 70.1903C72.4721 70.3646 72.3906 70.5341 72.2827 70.6989C72.1766 70.8617 72.0478 71.0038 71.8963 71.125L71.5327 70.8295C71.652 70.6591 71.7552 70.482 71.8423 70.2983C71.9313 70.1127 71.9759 69.9148 71.9759 69.7045V69.1818H72.6122Z" fill="#2F2F2F"/>
<rect x="40.5" y="64.5" width="35" height="15" stroke="white"/>
<rect x="40.5" y="79.5" width="35" height="15" fill="#FFD93D" fill-opacity="0.5"/>
<path d="M61.1591 87.375V90H60.4886V85.6364H61.1364V86.3182H61.1932C61.2955 86.0966 61.4508 85.9186 61.6591 85.7841C61.8674 85.6477 62.1364 85.5795 62.4659 85.5795C62.7614 85.5795 63.0199 85.6402 63.2415 85.7614C63.4631 85.8807 63.6354 86.0625 63.7585 86.3068C63.8816 86.5492 63.9432 86.8561 63.9432 87.2273V90H63.2727V87.2727C63.2727 86.9299 63.1837 86.6629 63.0057 86.4716C62.8277 86.2784 62.5833 86.1818 62.2727 86.1818C62.0587 86.1818 61.8674 86.2282 61.6989 86.321C61.5322 86.4138 61.4006 86.5492 61.304 86.7273C61.2074 86.9053 61.1591 87.1212 61.1591 87.375ZM67.9183 88.2159V85.6364H68.5888V90H67.9183V89.2614H67.8729C67.7706 89.483 67.6115 89.6714 67.3956 89.8267C67.1797 89.9801 66.907 90.0568 66.5774 90.0568C66.3047 90.0568 66.0623 89.9972 65.8501 89.8778C65.638 89.7566 65.4714 89.5748 65.3501 89.3324C65.2289 89.0881 65.1683 88.7803 65.1683 88.4091V85.6364H65.8388V88.3636C65.8388 88.6818 65.9278 88.9356 66.1058 89.125C66.2857 89.3144 66.5149 89.4091 66.7933 89.4091C66.96 89.4091 67.1295 89.3665 67.3018 89.2812C67.4761 89.196 67.6219 89.0653 67.7393 88.8892C67.8587 88.7131 67.9183 88.4886 67.9183 88.2159ZM70.4872 84.1818V90H69.8168V84.1818H70.4872ZM72.3857 84.1818V90H71.7152V84.1818H72.3857Z" fill="#2F2F2F"/>
<rect x="40.5" y="79.5" width="35" height="15" stroke="white"/>
<rect width="36" height="91" transform="translate(75 4)" fill="white"/>
<rect x="75.5" y="4.5" width="35" height="15" fill="#6BCB77"/>
<path d="M78.88 15V10.6364H79.8771V11.3636H79.9226C80.0021 11.1117 80.1385 10.9176 80.3317 10.7812C80.5268 10.643 80.7493 10.5739 80.9993 10.5739C81.0561 10.5739 81.1196 10.5767 81.1896 10.5824C81.2616 10.5862 81.3213 10.5928 81.3686 10.6023V11.5483C81.325 11.5331 81.2559 11.5199 81.1612 11.5085C81.0684 11.4953 80.9785 11.4886 80.8913 11.4886C80.7038 11.4886 80.5353 11.5294 80.3857 11.6108C80.2379 11.6903 80.1214 11.8011 80.0362 11.9432C79.951 12.0852 79.9084 12.2491 79.9084 12.4347V15H78.88ZM83.2294 15.0881C82.9529 15.0881 82.7038 15.0388 82.4822 14.9403C82.2625 14.84 82.0883 14.6922 81.9595 14.4972C81.8326 14.3021 81.7692 14.0616 81.7692 13.7756C81.7692 13.5294 81.8146 13.3258 81.9055 13.1648C81.9964 13.0038 82.1205 12.875 82.2777 12.7784C82.4349 12.6818 82.612 12.6089 82.8089 12.5597C83.0078 12.5085 83.2133 12.4716 83.4254 12.4489C83.6811 12.4223 83.8885 12.3987 84.0476 12.3778C84.2067 12.3551 84.3222 12.321 84.3942 12.2756C84.468 12.2282 84.505 12.1553 84.505 12.0568V12.0398C84.505 11.8258 84.4415 11.66 84.3146 11.5426C84.1877 11.4252 84.005 11.3665 83.7663 11.3665C83.5144 11.3665 83.3146 11.4214 83.1669 11.5312C83.0211 11.6411 82.9226 11.7708 82.8714 11.9205L81.9112 11.7841C81.987 11.5189 82.112 11.2973 82.2862 11.1193C82.4605 10.9394 82.6735 10.8049 82.9254 10.7159C83.1773 10.625 83.4557 10.5795 83.7607 10.5795C83.9709 10.5795 84.1802 10.6042 84.3885 10.6534C84.5968 10.7027 84.7872 10.7841 84.9595 10.8977C85.1319 11.0095 85.2701 11.1619 85.3743 11.3551C85.4804 11.5483 85.5334 11.7898 85.5334 12.0795V15H84.5447V14.4006H84.5107C84.4482 14.5218 84.3601 14.6354 84.2464 14.7415C84.1347 14.8456 83.9936 14.9299 83.8232 14.9943C83.6546 15.0568 83.4567 15.0881 83.2294 15.0881ZM83.4964 14.3324C83.7029 14.3324 83.8819 14.2917 84.0334 14.2102C84.1849 14.1269 84.3014 14.017 84.3828 13.8807C84.4661 13.7443 84.5078 13.5956 84.5078 13.4347V12.9205C84.4756 12.947 84.4207 12.9716 84.343 12.9943C84.2673 13.017 84.1821 13.0369 84.0874 13.054C83.9927 13.071 83.8989 13.0862 83.8061 13.0994C83.7133 13.1127 83.6328 13.1241 83.5646 13.1335C83.4112 13.1544 83.2739 13.1884 83.1527 13.2358C83.0315 13.2831 82.9358 13.3494 82.8658 13.4347C82.7957 13.518 82.7607 13.6259 82.7607 13.7585C82.7607 13.9479 82.8298 14.0909 82.968 14.1875C83.1063 14.2841 83.2824 14.3324 83.4964 14.3324ZM87.5959 12.4432V15H86.5675V10.6364H87.5504V11.3778H87.6016C87.7019 11.1335 87.862 10.9394 88.0817 10.7955C88.3033 10.6515 88.5769 10.5795 88.9027 10.5795C89.2038 10.5795 89.4661 10.6439 89.6896 10.7727C89.915 10.9015 90.0893 11.0881 90.2124 11.3324C90.3374 11.5767 90.3989 11.8731 90.397 12.2216V15H89.3686V12.3807C89.3686 12.089 89.2929 11.8608 89.1413 11.696C88.9917 11.5312 88.7843 11.4489 88.5192 11.4489C88.3393 11.4489 88.1792 11.4886 88.0391 11.5682C87.9008 11.6458 87.7919 11.7585 87.7124 11.9062C87.6347 12.054 87.5959 12.233 87.5959 12.4432ZM93.0618 15.0767C92.719 15.0767 92.4122 14.9886 92.1413 14.8125C91.8705 14.6364 91.6565 14.3807 91.4993 14.0455C91.3421 13.7102 91.2635 13.303 91.2635 12.8239C91.2635 12.339 91.343 11.9299 91.5021 11.5966C91.6631 11.2614 91.88 11.0085 92.1527 10.8381C92.4254 10.6657 92.7294 10.5795 93.0646 10.5795C93.3203 10.5795 93.5305 10.6231 93.6953 10.7102C93.8601 10.7955 93.9908 10.8987 94.0874 11.0199C94.1839 11.1392 94.2588 11.2519 94.3118 11.358H94.3544V9.18182H95.3857V15H94.3743V14.3125H94.3118C94.2588 14.4186 94.1821 14.5312 94.0817 14.6506C93.9813 14.768 93.8487 14.8684 93.6839 14.9517C93.5192 15.035 93.3118 15.0767 93.0618 15.0767ZM93.3487 14.233C93.5665 14.233 93.7521 14.1742 93.9055 14.0568C94.0589 13.9375 94.1754 13.7718 94.255 13.5597C94.3345 13.3475 94.3743 13.1004 94.3743 12.8182C94.3743 12.536 94.3345 12.2907 94.255 12.0824C94.1773 11.8741 94.0618 11.7121 93.9084 11.5966C93.7569 11.4811 93.5703 11.4233 93.3487 11.4233C93.1196 11.4233 92.9283 11.483 92.7749 11.6023C92.6214 11.7216 92.5059 11.8864 92.4283 12.0966C92.3506 12.3068 92.3118 12.5473 92.3118 12.8182C92.3118 13.0909 92.3506 13.3343 92.4283 13.5483C92.5078 13.7604 92.6243 13.928 92.7777 14.0511C92.933 14.1723 93.1233 14.233 93.3487 14.233ZM98.3849 15.0852C97.9588 15.0852 97.5895 14.9915 97.277 14.804C96.9645 14.6165 96.7221 14.3542 96.5497 14.017C96.3793 13.6799 96.294 13.286 96.294 12.8352C96.294 12.3845 96.3793 11.9896 96.5497 11.6506C96.7221 11.3116 96.9645 11.0483 97.277 10.8608C97.5895 10.6733 97.9588 10.5795 98.3849 10.5795C98.8111 10.5795 99.1804 10.6733 99.4929 10.8608C99.8054 11.0483 100.047 11.3116 100.217 11.6506C100.39 11.9896 100.476 12.3845 100.476 12.8352C100.476 13.286 100.39 13.6799 100.217 14.017C100.047 14.3542 99.8054 14.6165 99.4929 14.804C99.1804 14.9915 98.8111 15.0852 98.3849 15.0852ZM98.3906 14.2614C98.6217 14.2614 98.8149 14.1979 98.9702 14.071C99.1255 13.9422 99.241 13.7699 99.3168 13.554C99.3944 13.3381 99.4332 13.0975 99.4332 12.8324C99.4332 12.5653 99.3944 12.3239 99.3168 12.108C99.241 11.8902 99.1255 11.7169 98.9702 11.5881C98.8149 11.4593 98.6217 11.3949 98.3906 11.3949C98.1539 11.3949 97.9569 11.4593 97.7997 11.5881C97.6444 11.7169 97.5279 11.8902 97.4503 12.108C97.3745 12.3239 97.3366 12.5653 97.3366 12.8324C97.3366 13.0975 97.3745 13.3381 97.4503 13.554C97.5279 13.7699 97.6444 13.9422 97.7997 14.071C97.9569 14.1979 98.1539 14.2614 98.3906 14.2614ZM101.349 15V10.6364H102.332V11.3778H102.383C102.474 11.1278 102.624 10.9328 102.835 10.7926C103.045 10.6506 103.296 10.5795 103.587 10.5795C103.883 10.5795 104.132 10.6515 104.335 10.7955C104.539 10.9375 104.683 11.1316 104.766 11.3778H104.812C104.908 11.1354 105.071 10.9422 105.3 10.7983C105.531 10.6525 105.805 10.5795 106.121 10.5795C106.523 10.5795 106.851 10.7064 107.104 10.9602C107.358 11.214 107.485 11.5843 107.485 12.071V15H106.454V12.2301C106.454 11.9593 106.382 11.7614 106.238 11.6364C106.094 11.5095 105.918 11.446 105.71 11.446C105.461 11.446 105.267 11.5237 105.127 11.679C104.989 11.8324 104.92 12.0322 104.92 12.2784V15H103.911V12.1875C103.911 11.9621 103.843 11.7822 103.707 11.6477C103.572 11.5133 103.396 11.446 103.178 11.446C103.031 11.446 102.896 11.4839 102.775 11.5597C102.654 11.6335 102.557 11.7386 102.485 11.875C102.413 12.0095 102.377 12.1667 102.377 12.3466V15H101.349Z" fill="#2F2F2F"/>
<rect x="75.5" y="4.5" width="35" height="15" stroke="white"/>
<rect x="75.5" y="19.5" width="35" height="15" fill="#6BCB77" fill-opacity="0.5"/>
<path d="M98.625 30.0795C98.197 30.0795 97.8324 29.9631 97.5312 29.7301C97.2301 29.4953 97 29.1553 96.8409 28.7102C96.6818 28.2633 96.6023 27.7235 96.6023 27.0909C96.6023 26.4621 96.6818 25.9252 96.8409 25.4801C97.0019 25.0331 97.233 24.6922 97.5341 24.4574C97.8371 24.2206 98.2008 24.1023 98.625 24.1023C99.0492 24.1023 99.4119 24.2206 99.7131 24.4574C100.016 24.6922 100.247 25.0331 100.406 25.4801C100.567 25.9252 100.648 26.4621 100.648 27.0909C100.648 27.7235 100.568 28.2633 100.409 28.7102C100.25 29.1553 100.02 29.4953 99.7188 29.7301C99.4176 29.9631 99.053 30.0795 98.625 30.0795ZM98.625 29.4545C99.0492 29.4545 99.3788 29.25 99.6136 28.8409C99.8485 28.4318 99.9659 27.8485 99.9659 27.0909C99.9659 26.5871 99.9119 26.1581 99.804 25.804C99.6979 25.4498 99.5445 25.1799 99.3438 24.9943C99.1449 24.8087 98.9053 24.7159 98.625 24.7159C98.2045 24.7159 97.8759 24.9233 97.6392 25.3381C97.4025 25.7509 97.2841 26.3352 97.2841 27.0909C97.2841 27.5947 97.3371 28.0227 97.4432 28.375C97.5492 28.7273 97.7017 28.9953 97.9006 29.179C98.1013 29.3627 98.3428 29.4545 98.625 29.4545ZM102.024 30.0455C101.884 30.0455 101.764 29.9953 101.663 29.8949C101.563 29.7945 101.513 29.6742 101.513 29.5341C101.513 29.3939 101.563 29.2737 101.663 29.1733C101.764 29.0729 101.884 29.0227 102.024 29.0227C102.164 29.0227 102.285 29.0729 102.385 29.1733C102.485 29.2737 102.536 29.3939 102.536 29.5341C102.536 29.6269 102.512 29.7121 102.464 29.7898C102.419 29.8674 102.357 29.9299 102.28 29.9773C102.204 30.0227 102.119 30.0455 102.024 30.0455ZM105.474 30.0795C105.099 30.0795 104.765 30.0152 104.472 29.8864C104.18 29.7576 103.948 29.5786 103.776 29.3494C103.605 29.1184 103.512 28.8504 103.497 28.5455H104.213C104.228 28.733 104.293 28.8949 104.406 29.0312C104.52 29.1657 104.669 29.2699 104.852 29.3438C105.036 29.4176 105.24 29.4545 105.463 29.4545C105.713 29.4545 105.935 29.411 106.128 29.3239C106.321 29.2367 106.473 29.1155 106.582 28.9602C106.692 28.8049 106.747 28.625 106.747 28.4205C106.747 28.2064 106.694 28.018 106.588 27.8551C106.482 27.6903 106.327 27.5616 106.122 27.4688C105.918 27.3759 105.668 27.3295 105.372 27.3295H104.906V26.7045H105.372C105.603 26.7045 105.806 26.6629 105.98 26.5795C106.156 26.4962 106.294 26.3788 106.392 26.2273C106.492 26.0758 106.543 25.8977 106.543 25.6932C106.543 25.4962 106.499 25.3248 106.412 25.179C106.325 25.0331 106.202 24.9195 106.043 24.8381C105.885 24.7566 105.7 24.7159 105.486 24.7159C105.285 24.7159 105.096 24.7528 104.918 24.8267C104.741 24.8987 104.598 25.0038 104.486 25.142C104.374 25.2784 104.313 25.4432 104.304 25.6364H103.622C103.634 25.3314 103.725 25.0644 103.898 24.8352C104.07 24.6042 104.295 24.4242 104.574 24.2955C104.854 24.1667 105.162 24.1023 105.497 24.1023C105.857 24.1023 106.166 24.1752 106.423 24.321C106.681 24.465 106.879 24.6553 107.017 24.892C107.155 25.1288 107.224 25.3845 107.224 25.6591C107.224 25.9867 107.138 26.2661 106.966 26.4972C106.795 26.7282 106.563 26.8883 106.27 26.9773V27.0227C106.637 27.0833 106.924 27.2396 107.131 27.4915C107.337 27.7415 107.44 28.0511 107.44 28.4205C107.44 28.7367 107.354 29.0208 107.182 29.2727C107.011 29.5227 106.778 29.7197 106.483 29.8636C106.188 30.0076 105.851 30.0795 105.474 30.0795Z" fill="#2F2F2F"/>
<rect x="75.5" y="19.5" width="35" height="15" stroke="white"/>
<rect x="75.5" y="34.5" width="35" height="15" fill="#6BCB77" fill-opacity="0.5"/>
<path d="M99.0469 45.0795C98.6188 45.0795 98.2543 44.9631 97.9531 44.7301C97.652 44.4953 97.4219 44.1553 97.2628 43.7102C97.1037 43.2633 97.0241 42.7235 97.0241 42.0909C97.0241 41.4621 97.1037 40.9252 97.2628 40.4801C97.4238 40.0331 97.6548 39.6922 97.956 39.4574C98.259 39.2206 98.6226 39.1023 99.0469 39.1023C99.4711 39.1023 99.8338 39.2206 100.135 39.4574C100.438 39.6922 100.669 40.0331 100.828 40.4801C100.989 40.9252 101.07 41.4621 101.07 42.0909C101.07 42.7235 100.99 43.2633 100.831 43.7102C100.672 44.1553 100.442 44.4953 100.141 44.7301C99.8395 44.9631 99.4749 45.0795 99.0469 45.0795ZM99.0469 44.4545C99.4711 44.4545 99.8007 44.25 100.036 43.8409C100.27 43.4318 100.388 42.8485 100.388 42.0909C100.388 41.5871 100.334 41.1581 100.226 40.804C100.12 40.4498 99.9664 40.1799 99.7656 39.9943C99.5668 39.8087 99.3272 39.7159 99.0469 39.7159C98.6264 39.7159 98.2978 39.9233 98.0611 40.3381C97.8243 40.7509 97.706 41.3352 97.706 42.0909C97.706 42.5947 97.759 43.0227 97.8651 43.375C97.9711 43.7273 98.1236 43.9953 98.3224 44.179C98.5232 44.3627 98.7647 44.4545 99.0469 44.4545ZM102.446 45.0455C102.306 45.0455 102.186 44.9953 102.085 44.8949C101.985 44.7945 101.935 44.6742 101.935 44.5341C101.935 44.3939 101.985 44.2737 102.085 44.1733C102.186 44.0729 102.306 44.0227 102.446 44.0227C102.586 44.0227 102.706 44.0729 102.807 44.1733C102.907 44.2737 102.957 44.3939 102.957 44.5341C102.957 44.6269 102.934 44.7121 102.886 44.7898C102.841 44.8674 102.779 44.9299 102.702 44.9773C102.626 45.0227 102.541 45.0455 102.446 45.0455ZM104.214 45L106.816 39.8523V39.8068H103.816V39.1818H107.543V39.8409L104.952 45H104.214Z" fill="#2F2F2F"/>
<rect x="75.5" y="34.5" width="35" height="15" stroke="white"/>
<rect x="75.5" y="49.5" width="35" height="15" fill="#6BCB77" fill-opacity="0.5"/>
<path d="M100.477 60.0795C100.049 60.0795 99.6839 59.9631 99.3828 59.7301C99.0817 59.4953 98.8516 59.1553 98.6925 58.7102C98.5334 58.2633 98.4538 57.7235 98.4538 57.0909C98.4538 56.4621 98.5334 55.9252 98.6925 55.4801C98.8535 55.0331 99.0845 54.6922 99.3857 54.4574C99.6887 54.2206 100.052 54.1023 100.477 54.1023C100.901 54.1023 101.263 54.2206 101.565 54.4574C101.868 54.6922 102.099 55.0331 102.258 55.4801C102.419 55.9252 102.499 56.4621 102.499 57.0909C102.499 57.7235 102.42 58.2633 102.261 58.7102C102.102 59.1553 101.871 59.4953 101.57 59.7301C101.269 59.9631 100.905 60.0795 100.477 60.0795ZM100.477 59.4545C100.901 59.4545 101.23 59.25 101.465 58.8409C101.7 58.4318 101.817 57.8485 101.817 57.0909C101.817 56.5871 101.763 56.1581 101.656 55.804C101.549 55.4498 101.396 55.1799 101.195 54.9943C100.996 54.8087 100.757 54.7159 100.477 54.7159C100.056 54.7159 99.7275 54.9233 99.4908 55.3381C99.254 55.7509 99.1357 56.3352 99.1357 57.0909C99.1357 57.5947 99.1887 58.0227 99.2947 58.375C99.4008 58.7273 99.5533 58.9953 99.7521 59.179C99.9529 59.3627 100.194 59.4545 100.477 59.4545ZM103.876 60.0455C103.736 60.0455 103.615 59.9953 103.515 59.8949C103.415 59.7945 103.364 59.6742 103.364 59.5341C103.364 59.3939 103.415 59.2737 103.515 59.1733C103.615 59.0729 103.736 59.0227 103.876 59.0227C104.016 59.0227 104.136 59.0729 104.237 59.1733C104.337 59.2737 104.387 59.3939 104.387 59.5341C104.387 59.6269 104.363 59.7121 104.316 59.7898C104.271 59.8674 104.209 59.9299 104.131 59.9773C104.056 60.0227 103.97 60.0455 103.876 60.0455ZM106.929 54.1818V60H106.224V54.9205H106.19L104.77 55.8636V55.1477L106.224 54.1818H106.929Z" fill="#2F2F2F"/>
<rect x="75.5" y="49.5" width="35" height="15" stroke="white"/>
<rect x="75.5" y="64.5" width="35" height="15" fill="#6BCB77" fill-opacity="0.5"/>
<path d="M98.5625 75.0795C98.1345 75.0795 97.7699 74.9631 97.4688 74.7301C97.1676 74.4953 96.9375 74.1553 96.7784 73.7102C96.6193 73.2633 96.5398 72.7235 96.5398 72.0909C96.5398 71.4621 96.6193 70.9252 96.7784 70.4801C96.9394 70.0331 97.1705 69.6922 97.4716 69.4574C97.7746 69.2206 98.1383 69.1023 98.5625 69.1023C98.9867 69.1023 99.3494 69.2206 99.6506 69.4574C99.9536 69.6922 100.185 70.0331 100.344 70.4801C100.505 70.9252 100.585 71.4621 100.585 72.0909C100.585 72.7235 100.506 73.2633 100.347 73.7102C100.188 74.1553 99.9574 74.4953 99.6562 74.7301C99.3551 74.9631 98.9905 75.0795 98.5625 75.0795ZM98.5625 74.4545C98.9867 74.4545 99.3163 74.25 99.5511 73.8409C99.786 73.4318 99.9034 72.8485 99.9034 72.0909C99.9034 71.5871 99.8494 71.1581 99.7415 70.804C99.6354 70.4498 99.482 70.1799 99.2812 69.9943C99.0824 69.8087 98.8428 69.7159 98.5625 69.7159C98.142 69.7159 97.8134 69.9233 97.5767 70.3381C97.34 70.7509 97.2216 71.3352 97.2216 72.0909C97.2216 72.5947 97.2746 73.0227 97.3807 73.375C97.4867 73.7273 97.6392 73.9953 97.8381 74.179C98.0388 74.3627 98.2803 74.4545 98.5625 74.4545ZM101.962 75.0455C101.821 75.0455 101.701 74.9953 101.601 74.8949C101.5 74.7945 101.45 74.6742 101.45 74.5341C101.45 74.3939 101.5 74.2737 101.601 74.1733C101.701 74.0729 101.821 74.0227 101.962 74.0227C102.102 74.0227 102.222 74.0729 102.322 74.1733C102.423 74.2737 102.473 74.3939 102.473 74.5341C102.473 74.6269 102.449 74.7121 102.402 74.7898C102.357 74.8674 102.295 74.9299 102.217 74.9773C102.142 75.0227 102.056 75.0455 101.962 75.0455ZM105.462 69.1023C105.701 69.1042 105.94 69.1496 106.178 69.2386C106.417 69.3277 106.635 69.4754 106.832 69.6818C107.029 69.8864 107.187 70.1657 107.306 70.5199C107.425 70.8741 107.485 71.3182 107.485 71.8523C107.485 72.3693 107.436 72.8286 107.337 73.2301C107.241 73.6297 107.101 73.9669 106.917 74.2415C106.735 74.5161 106.513 74.7244 106.252 74.8665C105.993 75.0085 105.699 75.0795 105.371 75.0795C105.046 75.0795 104.755 75.0152 104.499 74.8864C104.246 74.7557 104.037 74.5748 103.874 74.3438C103.713 74.1108 103.61 73.8409 103.565 73.5341H104.258C104.32 73.8011 104.444 74.0218 104.63 74.196C104.817 74.3684 105.065 74.4545 105.371 74.4545C105.82 74.4545 106.174 74.2585 106.434 73.8665C106.695 73.4744 106.826 72.9205 106.826 72.2045H106.781C106.674 72.3636 106.549 72.5009 106.403 72.6165C106.257 72.732 106.095 72.821 105.917 72.8835C105.739 72.946 105.549 72.9773 105.349 72.9773C105.015 72.9773 104.71 72.8949 104.431 72.7301C104.155 72.5634 103.933 72.3352 103.766 72.0455C103.602 71.7538 103.519 71.4205 103.519 71.0455C103.519 70.6894 103.599 70.3636 103.758 70.0682C103.919 69.7708 104.144 69.5341 104.434 69.358C104.726 69.1818 105.068 69.0966 105.462 69.1023ZM105.462 69.7273C105.224 69.7273 105.009 69.7869 104.817 69.9062C104.628 70.0237 104.478 70.1828 104.366 70.3835C104.256 70.5824 104.201 70.803 104.201 71.0455C104.201 71.2879 104.254 71.5085 104.36 71.7074C104.468 71.9044 104.615 72.0616 104.8 72.179C104.988 72.2945 105.201 72.3523 105.44 72.3523C105.62 72.3523 105.787 72.3172 105.942 72.2472C106.098 72.1752 106.233 72.0777 106.349 71.9545C106.466 71.8295 106.558 71.6884 106.624 71.5312C106.691 71.3722 106.724 71.2064 106.724 71.0341C106.724 70.8068 106.669 70.5937 106.559 70.3949C106.451 70.196 106.301 70.035 106.11 69.9119C105.921 69.7888 105.705 69.7273 105.462 69.7273Z" fill="#2F2F2F"/>
<rect x="75.5" y="64.5" width="35" height="15" stroke="white"/>
<rect x="75.5" y="79.5" width="35" height="15" fill="#6BCB77" fill-opacity="0.5"/>
<path d="M98.7109 90.0795C98.2829 90.0795 97.9183 89.9631 97.6172 89.7301C97.3161 89.4953 97.0859 89.1553 96.9268 88.7102C96.7678 88.2633 96.6882 87.7235 96.6882 87.0909C96.6882 86.4621 96.7678 85.9252 96.9268 85.4801C97.0878 85.0331 97.3189 84.6922 97.62 84.4574C97.9231 84.2206 98.2867 84.1023 98.7109 84.1023C99.1352 84.1023 99.4979 84.2206 99.799 84.4574C100.102 84.6922 100.333 85.0331 100.492 85.4801C100.653 85.9252 100.734 86.4621 100.734 87.0909C100.734 87.7235 100.654 88.2633 100.495 88.7102C100.336 89.1553 100.106 89.4953 99.8047 89.7301C99.5036 89.9631 99.139 90.0795 98.7109 90.0795ZM98.7109 89.4545C99.1352 89.4545 99.4647 89.25 99.6996 88.8409C99.9344 88.4318 100.052 87.8485 100.052 87.0909C100.052 86.5871 99.9979 86.1581 99.8899 85.804C99.7839 85.4498 99.6304 85.1799 99.4297 84.9943C99.2308 84.8087 98.9912 84.7159 98.7109 84.7159C98.2905 84.7159 97.9619 84.9233 97.7251 85.3381C97.4884 85.7509 97.37 86.3352 97.37 87.0909C97.37 87.5947 97.4231 88.0227 97.5291 88.375C97.6352 88.7273 97.7876 88.9953 97.9865 89.179C98.1873 89.3627 98.4287 89.4545 98.7109 89.4545ZM102.11 90.0455C101.97 90.0455 101.85 89.9953 101.749 89.8949C101.649 89.7945 101.599 89.6742 101.599 89.5341C101.599 89.3939 101.649 89.2737 101.749 89.1733C101.85 89.0729 101.97 89.0227 102.11 89.0227C102.25 89.0227 102.371 89.0729 102.471 89.1733C102.571 89.2737 102.621 89.3939 102.621 89.5341C102.621 89.6269 102.598 89.7121 102.55 89.7898C102.505 89.8674 102.443 89.9299 102.366 89.9773C102.29 90.0227 102.205 90.0455 102.11 90.0455ZM105.542 90.0795C105.303 90.0758 105.065 90.0303 104.826 89.9432C104.587 89.8561 104.37 89.7093 104.173 89.5028C103.976 89.2945 103.817 89.0133 103.698 88.6591C103.579 88.303 103.519 87.8561 103.519 87.3182C103.519 86.803 103.567 86.3466 103.664 85.9489C103.761 85.5492 103.901 85.2131 104.085 84.9403C104.268 84.6657 104.49 84.4574 104.749 84.3153C105.011 84.1733 105.305 84.1023 105.633 84.1023C105.959 84.1023 106.248 84.1676 106.502 84.2983C106.758 84.4271 106.966 84.607 107.127 84.8381C107.288 85.0691 107.392 85.3352 107.44 85.6364H106.746C106.682 85.375 106.557 85.1581 106.371 84.9858C106.186 84.8134 105.94 84.7273 105.633 84.7273C105.182 84.7273 104.827 84.9233 104.567 85.3153C104.31 85.7074 104.18 86.2576 104.178 86.9659H104.224C104.33 86.8049 104.456 86.6676 104.602 86.554C104.749 86.4384 104.912 86.3494 105.09 86.2869C105.268 86.2244 105.457 86.1932 105.656 86.1932C105.989 86.1932 106.294 86.2765 106.57 86.4432C106.847 86.608 107.068 86.8362 107.235 87.1278C107.402 87.4176 107.485 87.75 107.485 88.125C107.485 88.4848 107.405 88.8144 107.244 89.1136C107.083 89.411 106.856 89.6477 106.565 89.8239C106.275 89.9981 105.934 90.0833 105.542 90.0795ZM105.542 89.4545C105.781 89.4545 105.995 89.3949 106.184 89.2756C106.375 89.1562 106.526 88.9962 106.636 88.7955C106.747 88.5947 106.803 88.3712 106.803 88.125C106.803 87.8845 106.749 87.6657 106.641 87.4688C106.535 87.2699 106.388 87.1117 106.201 86.9943C106.015 86.8769 105.803 86.8182 105.565 86.8182C105.385 86.8182 105.217 86.8542 105.062 86.9261C104.906 86.9962 104.77 87.0928 104.653 87.2159C104.537 87.339 104.446 87.4801 104.38 87.6392C104.314 87.7964 104.281 87.9621 104.281 88.1364C104.281 88.3674 104.335 88.5833 104.442 88.7841C104.552 88.9848 104.702 89.1468 104.891 89.2699C105.083 89.393 105.299 89.4545 105.542 89.4545Z" fill="#2F2F2F"/>
<rect x="75.5" y="79.5" width="35" height="15" stroke="white"/>
<rect width="36" height="91" transform="translate(110 4)" fill="white"/>
<rect x="110.5" y="4.5" width="35" height="15" fill="#4D96FF"/>
<path d="M118.309 16.7273C117.94 16.7273 117.622 16.6771 117.357 16.5767C117.092 16.4782 116.879 16.3456 116.718 16.179C116.557 16.0123 116.445 15.8277 116.383 15.625L117.309 15.4006C117.351 15.4858 117.411 15.5701 117.491 15.6534C117.57 15.7386 117.677 15.8087 117.812 15.8636C117.948 15.9205 118.12 15.9489 118.326 15.9489C118.618 15.9489 118.859 15.8778 119.05 15.7358C119.242 15.5956 119.337 15.3646 119.337 15.0426V14.2159H119.286C119.233 14.322 119.156 14.4309 119.053 14.5426C118.953 14.6544 118.819 14.7481 118.653 14.8239C118.488 14.8996 118.281 14.9375 118.031 14.9375C117.695 14.9375 117.391 14.8589 117.119 14.7017C116.848 14.5426 116.632 14.3059 116.471 13.9915C116.312 13.6752 116.232 13.2794 116.232 12.804C116.232 12.3248 116.312 11.9205 116.471 11.5909C116.632 11.2595 116.849 11.0085 117.121 10.8381C117.394 10.6657 117.698 10.5795 118.033 10.5795C118.289 10.5795 118.499 10.6231 118.664 10.7102C118.831 10.7955 118.963 10.8987 119.062 11.0199C119.16 11.1392 119.235 11.2519 119.286 11.358H119.343V10.6364H120.357V15.071C120.357 15.4441 120.268 15.7528 120.09 15.9972C119.912 16.2415 119.669 16.4242 119.36 16.5455C119.051 16.6667 118.701 16.7273 118.309 16.7273ZM118.317 14.1307C118.535 14.1307 118.721 14.0777 118.874 13.9716C119.028 13.8655 119.144 13.7131 119.224 13.5142C119.303 13.3153 119.343 13.0767 119.343 12.7983C119.343 12.5237 119.303 12.2831 119.224 12.0767C119.146 11.8703 119.031 11.7102 118.877 11.5966C118.726 11.4811 118.539 11.4233 118.317 11.4233C118.088 11.4233 117.897 11.483 117.744 11.6023C117.59 11.7216 117.475 11.8854 117.397 12.0938C117.319 12.3002 117.281 12.535 117.281 12.7983C117.281 13.0653 117.319 13.2992 117.397 13.5C117.477 13.6989 117.593 13.8542 117.746 13.9659C117.902 14.0758 118.092 14.1307 118.317 14.1307ZM121.411 15V10.6364H122.408V11.3636H122.454C122.533 11.1117 122.67 10.9176 122.863 10.7812C123.058 10.643 123.281 10.5739 123.531 10.5739C123.587 10.5739 123.651 10.5767 123.721 10.5824C123.793 10.5862 123.853 10.5928 123.9 10.6023V11.5483C123.856 11.5331 123.787 11.5199 123.692 11.5085C123.6 11.4953 123.51 11.4886 123.423 11.4886C123.235 11.4886 123.067 11.5294 122.917 11.6108C122.769 11.6903 122.653 11.8011 122.567 11.9432C122.482 12.0852 122.44 12.2491 122.44 12.4347V15H121.411ZM126.307 15.0852C125.881 15.0852 125.511 14.9915 125.199 14.804C124.886 14.6165 124.644 14.3542 124.472 14.017C124.301 13.6799 124.216 13.286 124.216 12.8352C124.216 12.3845 124.301 11.9896 124.472 11.6506C124.644 11.3116 124.886 11.0483 125.199 10.8608C125.511 10.6733 125.881 10.5795 126.307 10.5795C126.733 10.5795 127.102 10.6733 127.415 10.8608C127.727 11.0483 127.969 11.3116 128.139 11.6506C128.312 11.9896 128.398 12.3845 128.398 12.8352C128.398 13.286 128.312 13.6799 128.139 14.017C127.969 14.3542 127.727 14.6165 127.415 14.804C127.102 14.9915 126.733 15.0852 126.307 15.0852ZM126.312 14.2614C126.544 14.2614 126.737 14.1979 126.892 14.071C127.047 13.9422 127.163 13.7699 127.239 13.554C127.316 13.3381 127.355 13.0975 127.355 12.8324C127.355 12.5653 127.316 12.3239 127.239 12.108C127.163 11.8902 127.047 11.7169 126.892 11.5881C126.737 11.4593 126.544 11.3949 126.312 11.3949C126.076 11.3949 125.879 11.4593 125.722 11.5881C125.566 11.7169 125.45 11.8902 125.372 12.108C125.296 12.3239 125.259 12.5653 125.259 12.8324C125.259 13.0975 125.296 13.3381 125.372 13.554C125.45 13.7699 125.566 13.9422 125.722 14.071C125.879 14.1979 126.076 14.2614 126.312 14.2614ZM132.052 13.1648V10.6364H133.08V15H132.083V14.2244H132.038C131.939 14.4687 131.777 14.6686 131.552 14.8239C131.328 14.9792 131.053 15.0568 130.725 15.0568C130.439 15.0568 130.186 14.9934 129.967 14.8665C129.749 14.7377 129.578 14.5511 129.455 14.3068C129.332 14.0606 129.271 13.7633 129.271 13.4148V10.6364H130.299V13.2557C130.299 13.5322 130.375 13.7519 130.526 13.9148C130.678 14.0777 130.877 14.1591 131.123 14.1591C131.274 14.1591 131.421 14.1222 131.563 14.0483C131.705 13.9744 131.822 13.8646 131.913 13.7188C132.005 13.571 132.052 13.3864 132.052 13.1648ZM134.138 16.6364V10.6364H135.149V11.358H135.209C135.262 11.2519 135.337 11.1392 135.433 11.0199C135.53 10.8987 135.661 10.7955 135.825 10.7102C135.99 10.6231 136.2 10.5795 136.456 10.5795C136.793 10.5795 137.097 10.6657 137.368 10.8381C137.641 11.0085 137.857 11.2614 138.016 11.5966C138.177 11.9299 138.257 12.339 138.257 12.8239C138.257 13.303 138.179 13.7102 138.021 14.0455C137.864 14.3807 137.65 14.6364 137.379 14.8125C137.108 14.9886 136.802 15.0767 136.459 15.0767C136.209 15.0767 136.001 15.035 135.837 14.9517C135.672 14.8684 135.539 14.768 135.439 14.6506C135.34 14.5312 135.264 14.4186 135.209 14.3125H135.166V16.6364H134.138ZM135.146 12.8182C135.146 13.1004 135.186 13.3475 135.266 13.5597C135.347 13.7718 135.464 13.9375 135.615 14.0568C135.768 14.1742 135.954 14.233 136.172 14.233C136.399 14.233 136.589 14.1723 136.743 14.0511C136.896 13.928 137.012 13.7604 137.089 13.5483C137.169 13.3343 137.209 13.0909 137.209 12.8182C137.209 12.5473 137.17 12.3068 137.092 12.0966C137.015 11.8864 136.899 11.7216 136.746 11.6023C136.592 11.483 136.401 11.4233 136.172 11.4233C135.952 11.4233 135.766 11.4811 135.612 11.5966C135.459 11.7121 135.342 11.8741 135.263 12.0824C135.185 12.2907 135.146 12.536 135.146 12.8182ZM142.587 11.7898L141.649 11.892C141.623 11.7973 141.576 11.7083 141.51 11.625C141.446 11.5417 141.358 11.4744 141.249 11.4233C141.139 11.3722 141.004 11.3466 140.845 11.3466C140.631 11.3466 140.451 11.393 140.305 11.4858C140.161 11.5786 140.09 11.6989 140.092 11.8466C140.09 11.9735 140.137 12.0767 140.232 12.1562C140.328 12.2358 140.487 12.3011 140.709 12.3523L141.453 12.5114C141.866 12.6004 142.173 12.7415 142.374 12.9347C142.576 13.1278 142.679 13.3807 142.68 13.6932C142.679 13.9678 142.598 14.2102 142.439 14.4205C142.282 14.6288 142.063 14.7917 141.783 14.9091C141.502 15.0265 141.18 15.0852 140.817 15.0852C140.283 15.0852 139.853 14.9735 139.527 14.75C139.201 14.5246 139.007 14.2112 138.945 13.8097L139.947 13.7131C139.993 13.91 140.089 14.0587 140.237 14.1591C140.385 14.2595 140.577 14.3097 140.814 14.3097C141.058 14.3097 141.254 14.2595 141.402 14.1591C141.552 14.0587 141.626 13.9347 141.626 13.7869C141.626 13.6619 141.578 13.5587 141.482 13.4773C141.387 13.3958 141.239 13.3333 141.038 13.2898L140.294 13.1335C139.875 13.0464 139.566 12.8996 139.365 12.6932C139.164 12.4848 139.065 12.2216 139.067 11.9034C139.065 11.6345 139.138 11.4015 139.286 11.2045C139.435 11.0057 139.643 10.8523 139.908 10.7443C140.175 10.6345 140.482 10.5795 140.831 10.5795C141.342 10.5795 141.745 10.6884 142.038 10.9062C142.334 11.1241 142.517 11.4186 142.587 11.7898Z" fill="#2F2F2F"/>
<rect x="110.5" y="4.5" width="35" height="15" stroke="white"/>
<rect x="110.5" y="19.5" width="35" height="15" fill="#4D96FF" fill-opacity="0.5"/>
<path d="M133.48 26V25.4886C133.48 25.3333 133.508 25.1686 133.562 24.9943C133.619 24.8182 133.701 24.6487 133.807 24.4858C133.915 24.321 134.045 24.178 134.196 24.0568L134.56 24.3523C134.44 24.5227 134.336 24.7008 134.247 24.8864C134.16 25.0701 134.116 25.267 134.116 25.4773V26H133.48ZM134.935 26V25.4886C134.935 25.3333 134.962 25.1686 135.017 24.9943C135.074 24.8182 135.155 24.6487 135.261 24.4858C135.369 24.321 135.499 24.178 135.651 24.0568L136.014 24.3523C135.895 24.5227 135.791 24.7008 135.702 24.8864C135.615 25.0701 135.571 25.267 135.571 25.4773V26H134.935ZM136.31 30H135.572L137.708 24.1818H138.435L140.572 30H139.833L138.094 25.1023H138.049L136.31 30ZM136.583 27.7273H139.56V28.3523H136.583V27.7273ZM141.158 24.1818V24.6932C141.158 24.8485 141.129 25.0142 141.072 25.1903C141.018 25.3646 140.936 25.5341 140.828 25.6989C140.722 25.8617 140.593 26.0038 140.442 26.125L140.078 25.8295C140.197 25.6591 140.301 25.482 140.388 25.2983C140.477 25.1127 140.521 24.9148 140.521 24.7045V24.1818H141.158ZM142.612 24.1818V24.6932C142.612 24.8485 142.584 25.0142 142.527 25.1903C142.472 25.3646 142.391 25.5341 142.283 25.6989C142.177 25.8617 142.048 26.0038 141.896 26.125L141.533 25.8295C141.652 25.6591 141.755 25.482 141.842 25.2983C141.931 25.1127 141.976 24.9148 141.976 24.7045V24.1818H142.612Z" fill="#2F2F2F"/>
<rect x="110.5" y="19.5" width="35" height="15" stroke="white"/>
<rect x="110.5" y="34.5" width="35" height="15" fill="#4D96FF" fill-opacity="0.5"/>
<path d="M133.48 41V40.4886C133.48 40.3333 133.508 40.1686 133.562 39.9943C133.619 39.8182 133.701 39.6487 133.807 39.4858C133.915 39.321 134.045 39.178 134.196 39.0568L134.56 39.3523C134.44 39.5227 134.336 39.7008 134.247 39.8864C134.16 40.0701 134.116 40.267 134.116 40.4773V41H133.48ZM134.935 41V40.4886C134.935 40.3333 134.962 40.1686 135.017 39.9943C135.074 39.8182 135.155 39.6487 135.261 39.4858C135.369 39.321 135.499 39.178 135.651 39.0568L136.014 39.3523C135.895 39.5227 135.791 39.7008 135.702 39.8864C135.615 40.0701 135.571 40.267 135.571 40.4773V41H134.935ZM136.31 45H135.572L137.708 39.1818H138.435L140.572 45H139.833L138.094 40.1023H138.049L136.31 45ZM136.583 42.7273H139.56V43.3523H136.583V42.7273ZM141.158 39.1818V39.6932C141.158 39.8485 141.129 40.0142 141.072 40.1903C141.018 40.3646 140.936 40.5341 140.828 40.6989C140.722 40.8617 140.593 41.0038 140.442 41.125L140.078 40.8295C140.197 40.6591 140.301 40.482 140.388 40.2983C140.477 40.1127 140.521 39.9148 140.521 39.7045V39.1818H141.158ZM142.612 39.1818V39.6932C142.612 39.8485 142.584 40.0142 142.527 40.1903C142.472 40.3646 142.391 40.5341 142.283 40.6989C142.177 40.8617 142.048 41.0038 141.896 41.125L141.533 40.8295C141.652 40.6591 141.755 40.482 141.842 40.2983C141.931 40.1127 141.976 39.9148 141.976 39.7045V39.1818H142.612Z" fill="#2F2F2F"/>
<rect x="110.5" y="34.5" width="35" height="15" stroke="white"/>
<rect x="110.5" y="49.5" width="35" height="15" fill="#4D96FF" fill-opacity="0.5"/>
<path d="M132.089 56V55.4886C132.089 55.3333 132.117 55.1686 132.172 54.9943C132.229 54.8182 132.31 54.6487 132.416 54.4858C132.524 54.321 132.654 54.178 132.805 54.0568L133.169 54.3523C133.05 54.5227 132.946 54.7008 132.857 54.8864C132.769 55.0701 132.726 55.267 132.726 55.4773V56H132.089ZM133.544 56V55.4886C133.544 55.3333 133.571 55.1686 133.626 54.9943C133.683 54.8182 133.765 54.6487 133.871 54.4858C133.979 54.321 134.108 54.178 134.26 54.0568L134.624 54.3523C134.504 54.5227 134.4 54.7008 134.311 54.8864C134.224 55.0701 134.18 55.267 134.18 55.4773V56H133.544ZM135.455 60V54.1818H137.489C137.894 54.1818 138.228 54.2519 138.491 54.392C138.755 54.5303 138.951 54.7169 139.08 54.9517C139.208 55.1847 139.273 55.4432 139.273 55.7273C139.273 55.9773 139.228 56.1837 139.139 56.3466C139.052 56.5095 138.937 56.6383 138.793 56.733C138.651 56.8277 138.496 56.8977 138.33 56.9432V57C138.508 57.0114 138.687 57.0739 138.866 57.1875C139.046 57.3011 139.197 57.464 139.318 57.6761C139.439 57.8883 139.5 58.1477 139.5 58.4545C139.5 58.7462 139.434 59.0085 139.301 59.2415C139.169 59.4744 138.959 59.6591 138.673 59.7955C138.387 59.9318 138.015 60 137.557 60H135.455ZM136.159 59.375H137.557C138.017 59.375 138.344 59.286 138.537 59.108C138.732 58.928 138.83 58.7102 138.83 58.4545C138.83 58.2576 138.779 58.0758 138.679 57.9091C138.579 57.7405 138.436 57.6061 138.25 57.5057C138.064 57.4034 137.845 57.3523 137.591 57.3523H136.159V59.375ZM136.159 56.7386H137.466C137.678 56.7386 137.869 56.697 138.04 56.6136C138.212 56.5303 138.348 56.4129 138.449 56.2614C138.551 56.1098 138.602 55.9318 138.602 55.7273C138.602 55.4716 138.513 55.2547 138.335 55.0767C138.157 54.8968 137.875 54.8068 137.489 54.8068H136.159V56.7386ZM141.158 54.1818V54.6932C141.158 54.8485 141.129 55.0142 141.072 55.1903C141.018 55.3646 140.936 55.5341 140.828 55.6989C140.722 55.8617 140.593 56.0038 140.442 56.125L140.078 55.8295C140.197 55.6591 140.301 55.482 140.388 55.2983C140.477 55.1127 140.521 54.9148 140.521 54.7045V54.1818H141.158ZM142.612 54.1818V54.6932C142.612 54.8485 142.584 55.0142 142.527 55.1903C142.472 55.3646 142.391 55.5341 142.283 55.6989C142.177 55.8617 142.048 56.0038 141.896 56.125L141.533 55.8295C141.652 55.6591 141.755 55.482 141.842 55.2983C141.931 55.1127 141.976 54.9148 141.976 54.7045V54.1818H142.612Z" fill="#2F2F2F"/>
<rect x="110.5" y="49.5" width="35" height="15" stroke="white"/>
<rect x="110.5" y="64.5" width="35" height="15" fill="#4D96FF" fill-opacity="0.5"/>
<path d="M131.472 71V70.4886C131.472 70.3333 131.5 70.1686 131.555 69.9943C131.612 69.8182 131.693 69.6487 131.799 69.4858C131.907 69.321 132.037 69.178 132.188 69.0568L132.552 69.3523C132.433 69.5227 132.328 69.7008 132.239 69.8864C132.152 70.0701 132.109 70.267 132.109 70.4773V71H131.472ZM132.927 71V70.4886C132.927 70.3333 132.954 70.1686 133.009 69.9943C133.066 69.8182 133.147 69.6487 133.254 69.4858C133.362 69.321 133.491 69.178 133.643 69.0568L134.006 69.3523C133.887 69.5227 133.783 69.7008 133.694 69.8864C133.607 70.0701 133.563 70.267 133.563 70.4773V71H132.927ZM139.519 71H138.815C138.773 70.7973 138.7 70.6193 138.596 70.4659C138.494 70.3125 138.369 70.1837 138.221 70.0795C138.075 69.9735 137.913 69.8939 137.735 69.8409C137.557 69.7879 137.371 69.7614 137.178 69.7614C136.826 69.7614 136.507 69.8504 136.221 70.0284C135.937 70.2064 135.71 70.4688 135.542 70.8153C135.375 71.1619 135.292 71.5871 135.292 72.0909C135.292 72.5947 135.375 73.0199 135.542 73.3665C135.71 73.7131 135.937 73.9754 136.221 74.1534C136.507 74.3314 136.826 74.4205 137.178 74.4205C137.371 74.4205 137.557 74.3939 137.735 74.3409C137.913 74.2879 138.075 74.2093 138.221 74.1051C138.369 73.9991 138.494 73.8693 138.596 73.7159C138.7 73.5606 138.773 73.3826 138.815 73.1818H139.519C139.466 73.4792 139.37 73.7453 139.229 73.9801C139.089 74.215 138.915 74.4148 138.707 74.5795C138.498 74.7424 138.264 74.8665 138.005 74.9517C137.747 75.0369 137.472 75.0795 137.178 75.0795C136.682 75.0795 136.241 74.9583 135.854 74.7159C135.468 74.4735 135.164 74.1288 134.942 73.6818C134.721 73.2348 134.61 72.7045 134.61 72.0909C134.61 71.4773 134.721 70.947 134.942 70.5C135.164 70.053 135.468 69.7083 135.854 69.4659C136.241 69.2235 136.682 69.1023 137.178 69.1023C137.472 69.1023 137.747 69.1449 138.005 69.2301C138.264 69.3153 138.498 69.4403 138.707 69.6051C138.915 69.768 139.089 69.9669 139.229 70.2017C139.37 70.4347 139.466 70.7008 139.519 71ZM141.158 69.1818V69.6932C141.158 69.8485 141.129 70.0142 141.072 70.1903C141.018 70.3646 140.936 70.5341 140.828 70.6989C140.722 70.8617 140.593 71.0038 140.442 71.125L140.078 70.8295C140.197 70.6591 140.301 70.482 140.388 70.2983C140.477 70.1127 140.521 69.9148 140.521 69.7045V69.1818H141.158ZM142.612 69.1818V69.6932C142.612 69.8485 142.584 70.0142 142.527 70.1903C142.472 70.3646 142.391 70.5341 142.283 70.6989C142.177 70.8617 142.048 71.0038 141.896 71.125L141.533 70.8295C141.652 70.6591 141.755 70.482 141.842 70.2983C141.931 70.1127 141.976 69.9148 141.976 69.7045V69.1818H142.612Z" fill="#2F2F2F"/>
<rect x="110.5" y="64.5" width="35" height="15" stroke="white"/>
<rect x="110.5" y="79.5" width="35" height="15" fill="#4D96FF" fill-opacity="0.5"/>
<path d="M132.089 86V85.4886C132.089 85.3333 132.117 85.1686 132.172 84.9943C132.229 84.8182 132.31 84.6487 132.416 84.4858C132.524 84.321 132.654 84.178 132.805 84.0568L133.169 84.3523C133.05 84.5227 132.946 84.7008 132.857 84.8864C132.769 85.0701 132.726 85.267 132.726 85.4773V86H132.089ZM133.544 86V85.4886C133.544 85.3333 133.571 85.1686 133.626 84.9943C133.683 84.8182 133.765 84.6487 133.871 84.4858C133.979 84.321 134.108 84.178 134.26 84.0568L134.624 84.3523C134.504 84.5227 134.4 84.7008 134.311 84.8864C134.224 85.0701 134.18 85.267 134.18 85.4773V86H133.544ZM135.455 90V84.1818H137.489C137.894 84.1818 138.228 84.2519 138.491 84.392C138.755 84.5303 138.951 84.7169 139.08 84.9517C139.208 85.1847 139.273 85.4432 139.273 85.7273C139.273 85.9773 139.228 86.1837 139.139 86.3466C139.052 86.5095 138.937 86.6383 138.793 86.733C138.651 86.8277 138.496 86.8977 138.33 86.9432V87C138.508 87.0114 138.687 87.0739 138.866 87.1875C139.046 87.3011 139.197 87.464 139.318 87.6761C139.439 87.8883 139.5 88.1477 139.5 88.4545C139.5 88.7462 139.434 89.0085 139.301 89.2415C139.169 89.4744 138.959 89.6591 138.673 89.7955C138.387 89.9318 138.015 90 137.557 90H135.455ZM136.159 89.375H137.557C138.017 89.375 138.344 89.286 138.537 89.108C138.732 88.928 138.83 88.7102 138.83 88.4545C138.83 88.2576 138.779 88.0758 138.679 87.9091C138.579 87.7405 138.436 87.6061 138.25 87.5057C138.064 87.4034 137.845 87.3523 137.591 87.3523H136.159V89.375ZM136.159 86.7386H137.466C137.678 86.7386 137.869 86.697 138.04 86.6136C138.212 86.5303 138.348 86.4129 138.449 86.2614C138.551 86.1098 138.602 85.9318 138.602 85.7273C138.602 85.4716 138.513 85.2547 138.335 85.0767C138.157 84.8968 137.875 84.8068 137.489 84.8068H136.159V86.7386ZM141.158 84.1818V84.6932C141.158 84.8485 141.129 85.0142 141.072 85.1903C141.018 85.3646 140.936 85.5341 140.828 85.6989C140.722 85.8617 140.593 86.0038 140.442 86.125L140.078 85.8295C140.197 85.6591 140.301 85.482 140.388 85.2983C140.477 85.1127 140.521 84.9148 140.521 84.7045V84.1818H141.158ZM142.612 84.1818V84.6932C142.612 84.8485 142.584 85.0142 142.527 85.1903C142.472 85.3646 142.391 85.5341 142.283 85.6989C142.177 85.8617 142.048 86.0038 141.896 86.125L141.533 85.8295C141.652 85.6591 141.755 85.482 141.842 85.2983C141.931 85.1127 141.976 84.9148 141.976 84.7045V84.1818H142.612Z" fill="#2F2F2F"/>
<rect x="110.5" y="79.5" width="35" height="15" stroke="white"/>
</svg>
