<svg width="325" height="109" viewBox="0 0 325 109" fill="none" xmlns="http://www.w3.org/2000/svg">
<g clip-path="url(#clip0_62_300)">
<rect x="173" y="26" width="28" height="115" fill="#A5A5A5"/>
<rect x="173.5" y="83.5" width="27" height="19" fill="white" fill-opacity="0.5" stroke="white"/>
<rect x="173.5" y="64.5" width="27" height="19" fill="white" fill-opacity="0.5" stroke="white"/>
<rect x="173.5" y="45.5" width="27" height="19" fill="white" fill-opacity="0.5" stroke="white"/>
<rect x="173.5" y="26.5" width="27" height="19" stroke="white"/>
<rect x="200" y="26" width="30" height="115" fill="#FF6B6B"/>
<rect x="200.5" y="83.5" width="29" height="19" fill="white" fill-opacity="0.5" stroke="white"/>
<rect x="200.5" y="64.5" width="29" height="19" fill="white" fill-opacity="0.5" stroke="white"/>
<rect x="200.5" y="45.5" width="29" height="19" fill="white" fill-opacity="0.5" stroke="white"/>
<rect x="200.5" y="26.5" width="29" height="19" stroke="white"/>
<rect x="229" y="26" width="30" height="115" fill="#FFD93D"/>
<rect x="229.5" y="83.5" width="29" height="19" fill="white" fill-opacity="0.5" stroke="white"/>
<rect x="229.5" y="64.5" width="29" height="19" fill="white" fill-opacity="0.5" stroke="white"/>
<rect x="229.5" y="45.5" width="29" height="19" fill="white" fill-opacity="0.5" stroke="white"/>
<rect x="229.5" y="26.5" width="29" height="19" stroke="white"/>
<rect x="258" y="26" width="30" height="115" fill="#6BCB77"/>
<rect x="258.5" y="83.5" width="29" height="19" fill="white" fill-opacity="0.5" stroke="white"/>
<rect x="258.5" y="64.5" width="29" height="19" fill="white" fill-opacity="0.5" stroke="white"/>
<rect x="258.5" y="45.5" width="29" height="19" fill="white" fill-opacity="0.5" stroke="white"/>
<rect x="258.5" y="26.5" width="29" height="19" stroke="white"/>
<rect x="287" y="26" width="30" height="115" fill="#4D96FF"/>
<rect x="287.5" y="83.5" width="29" height="19" fill="white" fill-opacity="0.5" stroke="white"/>
<rect x="287.5" y="64.5" width="29" height="19" fill="white" fill-opacity="0.5" stroke="white"/>
<rect x="287.5" y="45.5" width="29" height="19" fill="white" fill-opacity="0.5" stroke="white"/>
<rect x="287.5" y="26.5" width="29" height="19" stroke="white"/>
<g opacity="0.5" clip-path="url(#clip1_62_300)">
<line x1="121.586" y1="103.586" x2="180.586" y2="44.5858" stroke="white" stroke-width="4"/>
<line x1="132.586" y1="103.586" x2="191.586" y2="44.5858" stroke="white" stroke-width="4"/>
<line x1="143.586" y1="103.586" x2="202.586" y2="44.5858" stroke="white" stroke-width="4"/>
<line x1="165.586" y1="103.586" x2="224.586" y2="44.5858" stroke="white" stroke-width="4"/>
<line x1="176.586" y1="103.586" x2="235.586" y2="44.5858" stroke="white" stroke-width="4"/>
<line x1="187.586" y1="103.586" x2="246.586" y2="44.5858" stroke="white" stroke-width="4"/>
<line x1="209.586" y1="103.586" x2="268.586" y2="44.5858" stroke="white" stroke-width="4"/>
<line x1="231.586" y1="103.586" x2="290.586" y2="44.5858" stroke="white" stroke-width="4"/>
<line x1="242.586" y1="103.586" x2="301.586" y2="44.5858" stroke="white" stroke-width="4"/>
<line x1="253.586" y1="103.586" x2="312.586" y2="44.5858" stroke="white" stroke-width="4"/>
<line x1="264.586" y1="103.586" x2="323.586" y2="44.5858" stroke="white" stroke-width="4"/>
<line x1="275.586" y1="103.586" x2="334.586" y2="44.5858" stroke="white" stroke-width="4"/>
<line x1="286.586" y1="103.586" x2="345.586" y2="44.5858" stroke="white" stroke-width="4"/>
<line x1="220.586" y1="103.586" x2="279.586" y2="44.5858" stroke="white" stroke-width="4"/>
<line x1="198.586" y1="103.586" x2="257.586" y2="44.5858" stroke="white" stroke-width="4"/>
<line x1="154.586" y1="103.586" x2="213.586" y2="44.5858" stroke="white" stroke-width="4"/>
</g>
</g>
<g clip-path="url(#clip2_62_300)">
<rect x="8" y="7" width="30" height="115" fill="#FF6B6B"/>
<rect x="8.5" y="83.5" width="29" height="19" fill="white" fill-opacity="0.5" stroke="white"/>
<rect x="8.5" y="102.5" width="29" height="19" fill="white" fill-opacity="0.5" stroke="white"/>
<rect x="8.5" y="64.5" width="29" height="19" fill="white" fill-opacity="0.5" stroke="white"/>
<rect x="8.5" y="45.5" width="29" height="19" fill="white" fill-opacity="0.5" stroke="white"/>
<rect x="8.5" y="26.5" width="29" height="19" fill="white" fill-opacity="0.5" stroke="white"/>
<rect x="8.5" y="7.5" width="29" height="19" stroke="white"/>
<rect x="37" y="7" width="30" height="115" fill="#FFD93D"/>
<rect x="37.5" y="83.5" width="29" height="19" fill="white" fill-opacity="0.5" stroke="white"/>
<rect x="37.5" y="102.5" width="29" height="19" fill="white" fill-opacity="0.5" stroke="white"/>
<rect x="37.5" y="64.5" width="29" height="19" fill="white" fill-opacity="0.5" stroke="white"/>
<rect x="37.5" y="45.5" width="29" height="19" fill="white" fill-opacity="0.5" stroke="white"/>
<rect x="37.5" y="26.5" width="29" height="19" fill="white" fill-opacity="0.5" stroke="white"/>
<rect x="37.5" y="7.5" width="29" height="19" stroke="white"/>
<rect x="66" y="7" width="30" height="115" fill="#6BCB77"/>
<rect x="66.5" y="83.5" width="29" height="19" fill="white" fill-opacity="0.5" stroke="white"/>
<rect x="66.5" y="102.5" width="29" height="19" fill="white" fill-opacity="0.5" stroke="white"/>
<rect x="66.5" y="64.5" width="29" height="19" fill="white" fill-opacity="0.5" stroke="white"/>
<rect x="66.5" y="45.5" width="29" height="19" fill="white" fill-opacity="0.5" stroke="white"/>
<rect x="66.5" y="26.5" width="29" height="19" fill="white" fill-opacity="0.5" stroke="white"/>
<rect x="66.5" y="7.5" width="29" height="19" stroke="white"/>
<rect x="95" y="7" width="30" height="115" fill="#4D96FF"/>
<rect x="95.5" y="83.5" width="29" height="19" fill="white" fill-opacity="0.5" stroke="white"/>
<rect x="95.5" y="102.5" width="29" height="19" fill="white" fill-opacity="0.5" stroke="white"/>
<rect x="95.5" y="64.5" width="29" height="19" fill="white" fill-opacity="0.5" stroke="white"/>
<rect x="95.5" y="45.5" width="29" height="19" fill="white" fill-opacity="0.5" stroke="white"/>
<rect x="95.5" y="26.5" width="29" height="19" fill="white" fill-opacity="0.5" stroke="white"/>
<rect x="95.5" y="7.5" width="29" height="19" stroke="white"/>
</g>
<path d="M135 53.5C134.172 53.5 133.5 54.1716 133.5 55C133.5 55.8284 134.172 56.5 135 56.5V53.5ZM165.061 56.0607C165.646 55.4749 165.646 54.5251 165.061 53.9393L155.515 44.3934C154.929 43.8076 153.979 43.8076 153.393 44.3934C152.808 44.9792 152.808 45.9289 153.393 46.5147L161.879 55L153.393 63.4853C152.808 64.0711 152.808 65.0208 153.393 65.6066C153.979 66.1924 154.929 66.1924 155.515 65.6066L165.061 56.0607ZM135 56.5H164V53.5H135V56.5Z" fill="black"/>
<defs>
<clipPath id="clip0_62_300">
<rect width="144" height="58" fill="white" transform="translate(173 26)"/>
</clipPath>
<clipPath id="clip1_62_300">
<rect width="144" height="38" fill="white" transform="translate(173 46)"/>
</clipPath>
<clipPath id="clip2_62_300">
<rect width="118" height="96" fill="white" transform="translate(8 7)"/>
</clipPath>
</defs>
</svg>
