<svg width="293" height="108" viewBox="0 0 293 108" fill="none" xmlns="http://www.w3.org/2000/svg">
<g clip-path="url(#clip0_103_4298)">
<rect x="170" y="6" width="30" height="115" fill="#FF6B6B"/>
<rect x="170.5" y="82.5" width="29" height="19" fill="white" fill-opacity="0.5" stroke="white"/>
<rect x="170.5" y="101.5" width="29" height="19" fill="white" fill-opacity="0.5" stroke="white"/>
<rect x="170.5" y="63.5" width="29" height="19" fill="white" fill-opacity="0.5" stroke="white"/>
<rect x="170.5" y="44.5" width="29" height="19" fill="white" fill-opacity="0.5" stroke="white"/>
<rect x="170.5" y="25.5" width="29" height="19" fill="white" fill-opacity="0.5" stroke="white"/>
<rect x="170.5" y="6.5" width="29" height="19" stroke="white"/>
<rect x="199" y="6" width="30" height="115" fill="#FFD93D"/>
<rect x="199.5" y="82.5" width="29" height="19" fill="white" fill-opacity="0.5" stroke="white"/>
<rect x="199.5" y="101.5" width="29" height="19" fill="white" fill-opacity="0.5" stroke="white"/>
<rect x="199.5" y="63.5" width="29" height="19" fill="white" fill-opacity="0.5" stroke="white"/>
<rect x="199.5" y="44.5" width="29" height="19" fill="white" fill-opacity="0.5" stroke="white"/>
<rect x="199.5" y="25.5" width="29" height="19" fill="white" fill-opacity="0.5" stroke="white"/>
<rect x="199.5" y="6.5" width="29" height="19" stroke="white"/>
<rect x="228" y="6" width="30" height="115" fill="#6BCB77"/>
<rect x="228.5" y="82.5" width="29" height="19" fill="white" fill-opacity="0.5" stroke="white"/>
<rect x="228.5" y="101.5" width="29" height="19" fill="white" fill-opacity="0.5" stroke="white"/>
<rect x="228.5" y="63.5" width="29" height="19" fill="white" fill-opacity="0.5" stroke="white"/>
<rect x="228.5" y="44.5" width="29" height="19" fill="white" fill-opacity="0.5" stroke="white"/>
<rect x="228.5" y="25.5" width="29" height="19" fill="white" fill-opacity="0.5" stroke="white"/>
<rect x="228.5" y="6.5" width="29" height="19" stroke="white"/>
<rect x="257" y="6" width="30" height="115" fill="#4D96FF"/>
<rect x="257.5" y="82.5" width="29" height="19" fill="white" fill-opacity="0.5" stroke="white"/>
<rect x="257.5" y="101.5" width="29" height="19" fill="white" fill-opacity="0.5" stroke="white"/>
<rect x="257.5" y="63.5" width="29" height="19" fill="white" fill-opacity="0.5" stroke="white"/>
<rect x="257.5" y="44.5" width="29" height="19" fill="white" fill-opacity="0.5" stroke="white"/>
<rect x="257.5" y="25.5" width="29" height="19" fill="white" fill-opacity="0.5" stroke="white"/>
<rect x="257.5" y="6.5" width="29" height="19" stroke="white"/>
<path d="M207.937 71.0909L206.122 76H205.355L203.539 71.0909H204.357L205.713 75.0028H205.764L207.119 71.0909H207.937ZM210.228 76.1151C209.917 76.1151 209.634 76.0565 209.381 75.9393C209.127 75.82 208.926 75.6484 208.777 75.4247C208.628 75.1989 208.553 74.9261 208.553 74.6065C208.553 74.3253 208.608 74.0973 208.719 73.9226C208.83 73.7457 208.978 73.6072 209.163 73.5071C209.349 73.407 209.553 73.3324 209.777 73.2834C210.003 73.2322 210.23 73.1918 210.458 73.1619C210.756 73.1236 210.998 73.0948 211.183 73.0756C211.371 73.0543 211.507 73.0192 211.592 72.9702C211.68 72.9212 211.723 72.8359 211.723 72.7145V72.6889C211.723 72.3736 211.637 72.1286 211.465 71.9538C211.294 71.7791 211.035 71.6918 210.688 71.6918C210.328 71.6918 210.046 71.7706 209.841 71.9283C209.636 72.0859 209.493 72.2543 209.41 72.4332L208.694 72.1776C208.821 71.8793 208.992 71.647 209.205 71.4808C209.42 71.3125 209.655 71.1953 209.908 71.1293C210.164 71.0611 210.415 71.027 210.662 71.027C210.82 71.027 211.001 71.0462 211.206 71.0845C211.412 71.1207 211.612 71.1964 211.803 71.3114C211.997 71.4265 212.158 71.6001 212.286 71.8324C212.414 72.0646 212.478 72.3757 212.478 72.7656V76H211.723V75.3352H211.685C211.634 75.4418 211.549 75.5558 211.429 75.6772C211.31 75.7987 211.151 75.902 210.953 75.9872C210.755 76.0724 210.513 76.1151 210.228 76.1151ZM210.343 75.4375C210.641 75.4375 210.892 75.3789 211.097 75.2617C211.304 75.1445 211.459 74.9933 211.564 74.8079C211.67 74.6225 211.723 74.4276 211.723 74.223V73.5327C211.691 73.571 211.621 73.6062 211.513 73.6381C211.406 73.668 211.282 73.6946 211.142 73.718C211.003 73.7393 210.868 73.7585 210.736 73.7756C210.606 73.7905 210.5 73.8033 210.419 73.8139C210.223 73.8395 210.04 73.881 209.87 73.9386C209.701 73.994 209.565 74.0781 209.461 74.1911C209.358 74.3018 209.307 74.4531 209.307 74.6449C209.307 74.907 209.404 75.1051 209.598 75.2393C209.794 75.3714 210.042 75.4375 210.343 75.4375ZM214.609 69.4545V76H213.854V69.4545H214.609ZM219.084 73.9929V71.0909H219.838V76H219.084V75.169H219.033C218.918 75.4183 218.739 75.6303 218.496 75.805C218.253 75.9776 217.946 76.0639 217.575 76.0639C217.269 76.0639 216.996 75.9968 216.757 75.8626C216.519 75.7262 216.331 75.5217 216.195 75.2489C216.058 74.9741 215.99 74.6278 215.99 74.2102V71.0909H216.744V74.1591C216.744 74.517 216.845 74.8026 217.045 75.0156C217.247 75.2287 217.505 75.3352 217.818 75.3352C218.006 75.3352 218.196 75.2873 218.39 75.1914C218.586 75.0955 218.75 74.9485 218.883 74.7504C219.017 74.5522 219.084 74.2997 219.084 73.9929ZM223.278 76.1023C222.805 76.1023 222.397 75.9979 222.054 75.7891C221.713 75.5781 221.45 75.2841 221.264 74.907C221.081 74.5277 220.99 74.0866 220.99 73.5838C220.99 73.081 221.081 72.6378 221.264 72.2543C221.45 71.8686 221.708 71.5682 222.038 71.353C222.37 71.1357 222.758 71.027 223.201 71.027C223.457 71.027 223.709 71.0696 223.959 71.1548C224.208 71.2401 224.435 71.3786 224.639 71.5703C224.844 71.7599 225.007 72.0114 225.128 72.3246C225.25 72.6378 225.311 73.0234 225.311 73.4815V73.8011H221.526V73.1491H224.544C224.544 72.8722 224.488 72.625 224.377 72.4077C224.269 72.1903 224.113 72.0188 223.911 71.8931C223.71 71.7674 223.474 71.7045 223.201 71.7045C222.901 71.7045 222.641 71.7791 222.421 71.9283C222.204 72.0753 222.037 72.267 221.92 72.5036C221.802 72.7401 221.744 72.9936 221.744 73.2642V73.6989C221.744 74.0696 221.808 74.3839 221.936 74.6417C222.066 74.8974 222.246 75.0923 222.476 75.2266C222.706 75.3587 222.973 75.4247 223.278 75.4247C223.476 75.4247 223.655 75.397 223.815 75.3416C223.977 75.2841 224.116 75.1989 224.233 75.0859C224.351 74.9709 224.441 74.8281 224.505 74.6577L225.234 74.8622C225.157 75.1094 225.028 75.3267 224.847 75.5142C224.666 75.6996 224.442 75.8445 224.176 75.9489C223.91 76.0511 223.61 76.1023 223.278 76.1023Z" fill="#2F2F2F"/>
<path d="M265.937 33.0909L264.122 38H263.355L261.539 33.0909H262.357L263.713 37.0028H263.764L265.119 33.0909H265.937ZM268.228 38.1151C267.917 38.1151 267.634 38.0565 267.381 37.9393C267.127 37.82 266.926 37.6484 266.777 37.4247C266.628 37.1989 266.553 36.9261 266.553 36.6065C266.553 36.3253 266.608 36.0973 266.719 35.9226C266.83 35.7457 266.978 35.6072 267.163 35.5071C267.349 35.407 267.553 35.3324 267.777 35.2834C268.003 35.2322 268.23 35.1918 268.458 35.1619C268.756 35.1236 268.998 35.0948 269.183 35.0756C269.371 35.0543 269.507 35.0192 269.592 34.9702C269.68 34.9212 269.723 34.8359 269.723 34.7145V34.6889C269.723 34.3736 269.637 34.1286 269.465 33.9538C269.294 33.7791 269.035 33.6918 268.688 33.6918C268.328 33.6918 268.046 33.7706 267.841 33.9283C267.636 34.0859 267.493 34.2543 267.41 34.4332L266.694 34.1776C266.821 33.8793 266.992 33.647 267.205 33.4808C267.42 33.3125 267.655 33.1953 267.908 33.1293C268.164 33.0611 268.415 33.027 268.662 33.027C268.82 33.027 269.001 33.0462 269.206 33.0845C269.412 33.1207 269.612 33.1964 269.803 33.3114C269.997 33.4265 270.158 33.6001 270.286 33.8324C270.414 34.0646 270.478 34.3757 270.478 34.7656V38H269.723V37.3352H269.685C269.634 37.4418 269.549 37.5558 269.429 37.6772C269.31 37.7987 269.151 37.902 268.953 37.9872C268.755 38.0724 268.513 38.1151 268.228 38.1151ZM268.343 37.4375C268.641 37.4375 268.892 37.3789 269.097 37.2617C269.304 37.1445 269.459 36.9933 269.564 36.8079C269.67 36.6225 269.723 36.4276 269.723 36.223V35.5327C269.691 35.571 269.621 35.6062 269.513 35.6381C269.406 35.668 269.282 35.6946 269.142 35.718C269.003 35.7393 268.868 35.7585 268.736 35.7756C268.606 35.7905 268.5 35.8033 268.419 35.8139C268.223 35.8395 268.04 35.881 267.87 35.9386C267.701 35.994 267.565 36.0781 267.461 36.1911C267.358 36.3018 267.307 36.4531 267.307 36.6449C267.307 36.907 267.404 37.1051 267.598 37.2393C267.794 37.3714 268.042 37.4375 268.343 37.4375ZM272.609 31.4545V38H271.854V31.4545H272.609ZM277.084 35.9929V33.0909H277.838V38H277.084V37.169H277.033C276.918 37.4183 276.739 37.6303 276.496 37.805C276.253 37.9776 275.946 38.0639 275.575 38.0639C275.269 38.0639 274.996 37.9968 274.757 37.8626C274.519 37.7262 274.331 37.5217 274.195 37.2489C274.058 36.9741 273.99 36.6278 273.99 36.2102V33.0909H274.744V36.1591C274.744 36.517 274.845 36.8026 275.045 37.0156C275.247 37.2287 275.505 37.3352 275.818 37.3352C276.006 37.3352 276.196 37.2873 276.39 37.1914C276.586 37.0955 276.75 36.9485 276.883 36.7504C277.017 36.5522 277.084 36.2997 277.084 35.9929ZM281.278 38.1023C280.805 38.1023 280.397 37.9979 280.054 37.7891C279.713 37.5781 279.45 37.2841 279.264 36.907C279.081 36.5277 278.99 36.0866 278.99 35.5838C278.99 35.081 279.081 34.6378 279.264 34.2543C279.45 33.8686 279.708 33.5682 280.038 33.353C280.37 33.1357 280.758 33.027 281.201 33.027C281.457 33.027 281.709 33.0696 281.959 33.1548C282.208 33.2401 282.435 33.3786 282.639 33.5703C282.844 33.7599 283.007 34.0114 283.128 34.3246C283.25 34.6378 283.311 35.0234 283.311 35.4815V35.8011H279.526V35.1491H282.544C282.544 34.8722 282.488 34.625 282.377 34.4077C282.269 34.1903 282.113 34.0188 281.911 33.8931C281.71 33.7674 281.474 33.7045 281.201 33.7045C280.901 33.7045 280.641 33.7791 280.421 33.9283C280.204 34.0753 280.037 34.267 279.92 34.5036C279.802 34.7401 279.744 34.9936 279.744 35.2642V35.6989C279.744 36.0696 279.808 36.3839 279.936 36.6417C280.066 36.8974 280.246 37.0923 280.476 37.2266C280.706 37.3587 280.973 37.4247 281.278 37.4247C281.476 37.4247 281.655 37.397 281.815 37.3416C281.977 37.2841 282.116 37.1989 282.233 37.0859C282.351 36.9709 282.441 36.8281 282.505 36.6577L283.234 36.8622C283.157 37.1094 283.028 37.3267 282.847 37.5142C282.666 37.6996 282.442 37.8445 282.176 37.9489C281.91 38.0511 281.61 38.1023 281.278 38.1023Z" fill="#2F2F2F"/>
</g>
<path d="M132 52.5C131.172 52.5 130.5 53.1716 130.5 54C130.5 54.8284 131.172 55.5 132 55.5V52.5ZM162.061 55.0607C162.646 54.4749 162.646 53.5251 162.061 52.9393L152.515 43.3934C151.929 42.8076 150.979 42.8076 150.393 43.3934C149.808 43.9792 149.808 44.9289 150.393 45.5147L158.879 54L150.393 62.4853C149.808 63.0711 149.808 64.0208 150.393 64.6066C150.979 65.1924 151.929 65.1924 152.515 64.6066L162.061 55.0607ZM132 55.5H161V52.5H132V55.5Z" fill="black"/>
<g clip-path="url(#clip1_103_4298)">
<rect x="6" y="6" width="30" height="115" fill="#FF6B6B"/>
<rect x="6.5" y="82.5" width="29" height="19" fill="white" fill-opacity="0.5" stroke="white"/>
<rect x="6.5" y="101.5" width="29" height="19" fill="white" fill-opacity="0.5" stroke="white"/>
<rect x="6.5" y="63.5" width="29" height="19" fill="white" fill-opacity="0.5" stroke="white"/>
<rect x="6.5" y="44.5" width="29" height="19" fill="white" fill-opacity="0.5" stroke="white"/>
<rect x="6.5" y="25.5" width="29" height="19" fill="white" fill-opacity="0.5" stroke="white"/>
<rect x="6.5" y="6.5" width="29" height="19" stroke="white"/>
<rect x="35" y="6" width="30" height="115" fill="#FFD93D"/>
<rect x="35.5" y="82.5" width="29" height="19" fill="white" fill-opacity="0.5" stroke="white"/>
<rect x="35.5" y="101.5" width="29" height="19" fill="white" fill-opacity="0.5" stroke="white"/>
<rect x="35.5" y="63.5" width="29" height="19" fill="white" fill-opacity="0.5" stroke="white"/>
<rect x="35.5" y="44.5" width="29" height="19" fill="white" fill-opacity="0.5" stroke="white"/>
<rect x="35.5" y="25.5" width="29" height="19" fill="white" fill-opacity="0.5" stroke="white"/>
<rect x="35.5" y="6.5" width="29" height="19" stroke="white"/>
<rect x="64" y="6" width="30" height="115" fill="#6BCB77"/>
<rect x="64.5" y="82.5" width="29" height="19" fill="white" fill-opacity="0.5" stroke="white"/>
<rect x="64.5" y="101.5" width="29" height="19" fill="white" fill-opacity="0.5" stroke="white"/>
<rect x="64.5" y="63.5" width="29" height="19" fill="white" fill-opacity="0.5" stroke="white"/>
<rect x="64.5" y="44.5" width="29" height="19" fill="white" fill-opacity="0.5" stroke="white"/>
<rect x="64.5" y="25.5" width="29" height="19" fill="white" fill-opacity="0.5" stroke="white"/>
<rect x="64.5" y="6.5" width="29" height="19" stroke="white"/>
<rect x="93" y="6" width="30" height="115" fill="#4D96FF"/>
<rect x="93.5" y="82.5" width="29" height="19" fill="white" fill-opacity="0.5" stroke="white"/>
<rect x="93.5" y="101.5" width="29" height="19" fill="white" fill-opacity="0.5" stroke="white"/>
<rect x="93.5" y="63.5" width="29" height="19" fill="white" fill-opacity="0.5" stroke="white"/>
<rect x="93.5" y="44.5" width="29" height="19" fill="white" fill-opacity="0.5" stroke="white"/>
<rect x="93.5" y="25.5" width="29" height="19" fill="white" fill-opacity="0.5" stroke="white"/>
<rect x="93.5" y="6.5" width="29" height="19" stroke="white"/>
<g opacity="0.5" clip-path="url(#clip2_103_4298)">
<rect x="36" y="64" width="28" height="19" fill="white"/>
<line x1="35.3551" y1="83.9086" x2="63.9086" y2="63.6449" stroke="black" stroke-width="3" stroke-linecap="round"/>
</g>
<g opacity="0.5" clip-path="url(#clip3_103_4298)">
<rect x="94" y="26" width="28" height="19" fill="white"/>
<line x1="93.3551" y1="45.9086" x2="121.909" y2="25.6449" stroke="black" stroke-width="3" stroke-linecap="round"/>
</g>
</g>
<defs>
<clipPath id="clip0_103_4298">
<rect width="117" height="96" fill="white" transform="translate(170 6)"/>
</clipPath>
<clipPath id="clip1_103_4298">
<rect width="117" height="96" fill="white" transform="translate(6 6)"/>
</clipPath>
<clipPath id="clip2_103_4298">
<rect width="28" height="18" fill="white" transform="translate(36 64)"/>
</clipPath>
<clipPath id="clip3_103_4298">
<rect width="28" height="18" fill="white" transform="translate(94 26)"/>
</clipPath>
</defs>
</svg>
