<svg width="293" height="108" viewBox="0 0 293 108" fill="none" xmlns="http://www.w3.org/2000/svg">
<g clip-path="url(#clip0_103_4298)">
<rect x="170" y="6" width="30" height="115" fill="#FF6B6B"/>
<rect x="170.5" y="82.5" width="29" height="19" fill="white" fill-opacity="0.5" stroke="white"/>
<rect x="170.5" y="101.5" width="29" height="19" fill="white" fill-opacity="0.5" stroke="white"/>
<rect x="170.5" y="63.5" width="29" height="19" fill="white" fill-opacity="0.5" stroke="white"/>
<rect x="170.5" y="44.5" width="29" height="19" fill="white" fill-opacity="0.5" stroke="white"/>
<rect x="170.5" y="25.5" width="29" height="19" fill="white" fill-opacity="0.5" stroke="white"/>
<rect x="170.5" y="6.5" width="29" height="19" stroke="white"/>
<rect x="199" y="6" width="30" height="115" fill="#FFD93D"/>
<rect x="199.5" y="82.5" width="29" height="19" fill="white" fill-opacity="0.5" stroke="white"/>
<rect x="199.5" y="101.5" width="29" height="19" fill="white" fill-opacity="0.5" stroke="white"/>
<rect x="199.5" y="63.5" width="29" height="19" fill="white" fill-opacity="0.5" stroke="white"/>
<rect x="199.5" y="44.5" width="29" height="19" fill="white" fill-opacity="0.5" stroke="white"/>
<rect x="199.5" y="25.5" width="29" height="19" fill="white" fill-opacity="0.5" stroke="white"/>
<rect x="199.5" y="6.5" width="29" height="19" stroke="white"/>
<rect x="228" y="6" width="30" height="115" fill="#6BCB77"/>
<rect x="228.5" y="82.5" width="29" height="19" fill="white" fill-opacity="0.5" stroke="white"/>
<rect x="228.5" y="101.5" width="29" height="19" fill="white" fill-opacity="0.5" stroke="white"/>
<rect x="228.5" y="63.5" width="29" height="19" fill="white" fill-opacity="0.5" stroke="white"/>
<rect x="228.5" y="44.5" width="29" height="19" fill="white" fill-opacity="0.5" stroke="white"/>
<rect x="228.5" y="25.5" width="29" height="19" fill="white" fill-opacity="0.5" stroke="white"/>
<rect x="228.5" y="6.5" width="29" height="19" stroke="white"/>
<rect x="257" y="6" width="30" height="115" fill="#4D96FF"/>
<rect x="257.5" y="82.5" width="29" height="19" fill="white" fill-opacity="0.5" stroke="white"/>
<rect x="257.5" y="101.5" width="29" height="19" fill="white" fill-opacity="0.5" stroke="white"/>
<rect x="257.5" y="63.5" width="29" height="19" fill="white" fill-opacity="0.5" stroke="white"/>
<rect x="257.5" y="44.5" width="29" height="19" fill="white" fill-opacity="0.5" stroke="white"/>
<rect x="257.5" y="25.5" width="29" height="19" fill="white" fill-opacity="0.5" stroke="white"/>
<rect x="257.5" y="6.5" width="29" height="19" stroke="white"/>
<g opacity="0.5" clip-path="url(#clip1_103_4298)">
<rect x="258" y="26" width="28" height="19" fill="white"/>
<line x1="257.355" y1="45.9086" x2="285.909" y2="25.6449" stroke="black" stroke-width="3" stroke-linecap="round"/>
</g>
<path d="M215 54C215 53.4477 214.552 53 214 53C213.448 53 213 53.4477 213 54L215 54ZM213.293 73.7071C213.683 74.0976 214.317 74.0976 214.707 73.7071L221.071 67.3431C221.462 66.9526 221.462 66.3195 221.071 65.9289C220.681 65.5384 220.047 65.5384 219.657 65.9289L214 71.5858L208.343 65.9289C207.953 65.5384 207.319 65.5384 206.929 65.9289C206.538 66.3195 206.538 66.9526 206.929 67.3431L213.293 73.7071ZM213 54L213 73L215 73L215 54L213 54Z" fill="#A5A5A5"/>
</g>
<path d="M132 52.5C131.172 52.5 130.5 53.1716 130.5 54C130.5 54.8284 131.172 55.5 132 55.5V52.5ZM162.061 55.0607C162.646 54.4749 162.646 53.5251 162.061 52.9393L152.515 43.3934C151.929 42.8076 150.979 42.8076 150.393 43.3934C149.808 43.9792 149.808 44.9289 150.393 45.5147L158.879 54L150.393 62.4853C149.808 63.0711 149.808 64.0208 150.393 64.6066C150.979 65.1924 151.929 65.1924 152.515 64.6066L162.061 55.0607ZM132 55.5H161V52.5H132V55.5Z" fill="black"/>
<g clip-path="url(#clip2_103_4298)">
<rect x="6" y="6" width="30" height="115" fill="#FF6B6B"/>
<rect x="6.5" y="82.5" width="29" height="19" fill="white" fill-opacity="0.5" stroke="white"/>
<rect x="6.5" y="101.5" width="29" height="19" fill="white" fill-opacity="0.5" stroke="white"/>
<rect x="6.5" y="63.5" width="29" height="19" fill="white" fill-opacity="0.5" stroke="white"/>
<rect x="6.5" y="44.5" width="29" height="19" fill="white" fill-opacity="0.5" stroke="white"/>
<rect x="6.5" y="25.5" width="29" height="19" fill="white" fill-opacity="0.5" stroke="white"/>
<rect x="6.5" y="6.5" width="29" height="19" stroke="white"/>
<rect x="35" y="6" width="30" height="115" fill="#FFD93D"/>
<rect x="35.5" y="82.5" width="29" height="19" fill="white" fill-opacity="0.5" stroke="white"/>
<rect x="35.5" y="101.5" width="29" height="19" fill="white" fill-opacity="0.5" stroke="white"/>
<rect x="35.5" y="63.5" width="29" height="19" fill="white" fill-opacity="0.5" stroke="white"/>
<rect x="35.5" y="44.5" width="29" height="19" fill="white" fill-opacity="0.5" stroke="white"/>
<rect x="35.5" y="25.5" width="29" height="19" fill="white" fill-opacity="0.5" stroke="white"/>
<rect x="35.5" y="6.5" width="29" height="19" stroke="white"/>
<rect x="64" y="6" width="30" height="115" fill="#6BCB77"/>
<rect x="64.5" y="82.5" width="29" height="19" fill="white" fill-opacity="0.5" stroke="white"/>
<rect x="64.5" y="101.5" width="29" height="19" fill="white" fill-opacity="0.5" stroke="white"/>
<rect x="64.5" y="63.5" width="29" height="19" fill="white" fill-opacity="0.5" stroke="white"/>
<rect x="64.5" y="44.5" width="29" height="19" fill="white" fill-opacity="0.5" stroke="white"/>
<rect x="64.5" y="25.5" width="29" height="19" fill="white" fill-opacity="0.5" stroke="white"/>
<rect x="64.5" y="6.5" width="29" height="19" stroke="white"/>
<rect x="93" y="6" width="30" height="115" fill="#4D96FF"/>
<rect x="93.5" y="82.5" width="29" height="19" fill="white" fill-opacity="0.5" stroke="white"/>
<rect x="93.5" y="101.5" width="29" height="19" fill="white" fill-opacity="0.5" stroke="white"/>
<rect x="93.5" y="63.5" width="29" height="19" fill="white" fill-opacity="0.5" stroke="white"/>
<rect x="93.5" y="44.5" width="29" height="19" fill="white" fill-opacity="0.5" stroke="white"/>
<rect x="93.5" y="25.5" width="29" height="19" fill="white" fill-opacity="0.5" stroke="white"/>
<rect x="93.5" y="6.5" width="29" height="19" stroke="white"/>
<g opacity="0.5" clip-path="url(#clip3_103_4298)">
<rect x="36" y="64" width="28" height="19" fill="white"/>
<line x1="35.3551" y1="83.9086" x2="63.9086" y2="63.6449" stroke="black" stroke-width="3" stroke-linecap="round"/>
</g>
<g opacity="0.5" clip-path="url(#clip4_103_4298)">
<rect x="94" y="26" width="28" height="19" fill="white"/>
<line x1="93.3551" y1="45.9086" x2="121.909" y2="25.6449" stroke="black" stroke-width="3" stroke-linecap="round"/>
</g>
</g>
<defs>
<clipPath id="clip0_103_4298">
<rect width="117" height="96" fill="white" transform="translate(170 6)"/>
</clipPath>
<clipPath id="clip1_103_4298">
<rect width="28" height="18" fill="white" transform="translate(258 26)"/>
</clipPath>
<clipPath id="clip2_103_4298">
<rect width="117" height="96" fill="white" transform="translate(6 6)"/>
</clipPath>
<clipPath id="clip3_103_4298">
<rect width="28" height="18" fill="white" transform="translate(36 64)"/>
</clipPath>
<clipPath id="clip4_103_4298">
<rect width="28" height="18" fill="white" transform="translate(94 26)"/>
</clipPath>
</defs>
</svg>
