<svg width="250" height="145" viewBox="0 0 250 145" fill="none" xmlns="http://www.w3.org/2000/svg">
<g clip-path="url(#clip0_85_749)">
<g clip-path="url(#clip1_85_749)">
<g clip-path="url(#clip2_85_749)">
<rect x="153" y="26" width="30" height="115" fill="#A5A5A5"/>
<rect x="153.5" y="45.5" width="29" height="19" fill="white" fill-opacity="0.5" stroke="white"/>
<rect x="153.5" y="26.5" width="29" height="19" stroke="white"/>
</g>
</g>
<rect x="182" y="26" width="30" height="115" fill="#A5A5A5"/>
<rect x="182.5" y="102.5" width="29" height="19" fill="white" fill-opacity="0.5" stroke="white"/>
<rect x="182.5" y="121.5" width="29" height="19" fill="white" fill-opacity="0.5" stroke="white"/>
<rect x="182.5" y="83.5" width="29" height="19" fill="white" fill-opacity="0.5" stroke="white"/>
<rect x="182.5" y="64.5" width="29" height="19" fill="white" fill-opacity="0.5" stroke="white"/>
<rect x="182.5" y="45.5" width="29" height="19" fill="white" fill-opacity="0.5" stroke="white"/>
<rect x="182.5" y="26.5" width="29" height="19" stroke="white"/>
<rect x="211" y="26" width="30" height="115" fill="#555555"/>
<rect x="211.5" y="102.5" width="29" height="19" fill="white" fill-opacity="0.5" stroke="white"/>
<rect x="211.5" y="121.5" width="29" height="19" fill="white" fill-opacity="0.5" stroke="white"/>
<rect x="211.5" y="83.5" width="29" height="19" fill="white" fill-opacity="0.5" stroke="white"/>
<rect x="211.5" y="64.5" width="29" height="19" fill="white" fill-opacity="0.5" stroke="white"/>
<rect x="211.5" y="45.5" width="29" height="19" fill="white" fill-opacity="0.5" stroke="white"/>
<rect x="211.5" y="26.5" width="29" height="19" stroke="white"/>
<g clip-path="url(#clip3_85_749)">
<rect x="153" y="7" width="30" height="115" fill="#FF6B6B"/>
<rect x="153.5" y="64.5" width="29" height="19" fill="white" fill-opacity="0.5" stroke="white"/>
<rect x="153.5" y="45.5" width="29" height="19" fill="white" fill-opacity="0.5" stroke="white"/>
<rect x="153.5" y="26.5" width="29" height="19" fill="white" fill-opacity="0.5" stroke="white"/>
</g>
<g clip-path="url(#clip4_85_749)">
<rect x="153" y="45" width="30" height="115" fill="#6BCB77"/>
<rect x="153.5" y="102.5" width="29" height="19" fill="white" fill-opacity="0.5" stroke="white"/>
<rect x="153.5" y="83.5" width="29" height="19" fill="white" fill-opacity="0.5" stroke="white"/>
<rect x="153.5" y="64.5" width="29" height="19" fill="white" fill-opacity="0.5" stroke="white"/>
</g>
<g clip-path="url(#clip5_85_749)">
<rect x="153" y="64" width="30" height="115" fill="#4D96FF"/>
<rect x="153.5" y="121.5" width="29" height="19" fill="white" fill-opacity="0.5" stroke="white"/>
<rect x="153.5" y="102.5" width="29" height="19" fill="white" fill-opacity="0.5" stroke="white"/>
<rect x="153.5" y="83.5" width="29" height="19" fill="white" fill-opacity="0.5" stroke="white"/>
</g>
<g clip-path="url(#clip6_85_749)">
<rect x="153" y="26" width="30" height="115" fill="#FFD93D"/>
<rect x="153.5" y="83.5" width="29" height="19" fill="white" fill-opacity="0.5" stroke="white"/>
<rect x="153.5" y="64.5" width="29" height="19" fill="white" fill-opacity="0.5" stroke="white"/>
<rect x="153.5" y="45.5" width="29" height="19" fill="white" fill-opacity="0.5" stroke="white"/>
</g>
</g>
<path d="M110 72.5C109.172 72.5 108.5 73.1716 108.5 74C108.5 74.8284 109.172 75.5 110 75.5V72.5ZM140.061 75.0607C140.646 74.4749 140.646 73.5251 140.061 72.9393L130.515 63.3934C129.929 62.8076 128.979 62.8076 128.393 63.3934C127.808 63.9792 127.808 64.9289 128.393 65.5147L136.879 74L128.393 82.4853C127.808 83.0711 127.808 84.0208 128.393 84.6066C128.979 85.1924 129.929 85.1924 130.515 84.6066L140.061 75.0607ZM110 75.5H139V72.5H110V75.5Z" fill="black"/>
<g clip-path="url(#clip7_85_749)">
<g clip-path="url(#clip8_85_749)">
<g clip-path="url(#clip9_85_749)">
<rect x="8" y="7" width="30" height="115" fill="#A5A5A5"/>
<rect x="8.5" y="26.5" width="29" height="19" fill="white" fill-opacity="0.5" stroke="white"/>
<rect x="8.5" y="7.5" width="29" height="19" stroke="white"/>
</g>
</g>
<rect x="37" y="7" width="30" height="115" fill="#A5A5A5"/>
<rect x="37.5" y="83.5" width="29" height="19" fill="white" fill-opacity="0.5" stroke="white"/>
<rect x="37.5" y="102.5" width="29" height="19" fill="white" fill-opacity="0.5" stroke="white"/>
<rect x="37.5" y="64.5" width="29" height="19" fill="white" fill-opacity="0.5" stroke="white"/>
<rect x="37.5" y="45.5" width="29" height="19" fill="white" fill-opacity="0.5" stroke="white"/>
<rect x="37.5" y="26.5" width="29" height="19" fill="white" fill-opacity="0.5" stroke="white"/>
<rect x="37.5" y="7.5" width="29" height="19" stroke="white"/>
<rect x="66" y="7" width="30" height="115" fill="#555555"/>
<rect x="66.5" y="83.5" width="29" height="19" fill="white" fill-opacity="0.5" stroke="white"/>
<rect x="66.5" y="102.5" width="29" height="19" fill="white" fill-opacity="0.5" stroke="white"/>
<rect x="66.5" y="64.5" width="29" height="19" fill="white" fill-opacity="0.5" stroke="white"/>
<rect x="66.5" y="45.5" width="29" height="19" fill="white" fill-opacity="0.5" stroke="white"/>
<rect x="66.5" y="26.5" width="29" height="19" fill="white" fill-opacity="0.5" stroke="white"/>
<rect x="66.5" y="7.5" width="29" height="19" stroke="white"/>
<g clip-path="url(#clip10_85_749)">
<rect x="8" y="-12" width="30" height="115" fill="#FF6B6B"/>
<rect x="8.5" y="45.5" width="29" height="19" fill="white" fill-opacity="0.5" stroke="white"/>
<rect x="8.5" y="26.5" width="29" height="19" fill="white" fill-opacity="0.5" stroke="white"/>
<rect x="8.5" y="7.5" width="29" height="19" fill="white" fill-opacity="0.5" stroke="white"/>
</g>
<g clip-path="url(#clip11_85_749)">
<rect x="8" y="45" width="30" height="115" fill="#6BCB77"/>
<rect x="8.5" y="102.5" width="29" height="19" fill="white" fill-opacity="0.5" stroke="white"/>
<rect x="8.5" y="83.5" width="29" height="19" fill="white" fill-opacity="0.5" stroke="white"/>
<rect x="8.5" y="64.5" width="29" height="19" fill="white" fill-opacity="0.5" stroke="white"/>
</g>
<g clip-path="url(#clip12_85_749)">
<rect x="8" y="83" width="30" height="115" fill="#FFD93D"/>
<rect x="8.5" y="140.5" width="29" height="19" fill="white" fill-opacity="0.5" stroke="white"/>
<rect x="8.5" y="121.5" width="29" height="19" fill="white" fill-opacity="0.5" stroke="white"/>
<rect x="8.5" y="102.5" width="29" height="19" fill="white" fill-opacity="0.5" stroke="white"/>
</g>
<g clip-path="url(#clip13_85_749)">
<rect x="37" y="83" width="30" height="115" fill="#A5A5A5"/>
<rect x="37.5" y="140.5" width="29" height="19" fill="white" fill-opacity="0.5" stroke="white"/>
<rect x="37.5" y="121.5" width="29" height="19" fill="white" fill-opacity="0.5" stroke="white"/>
<rect x="37.5" y="102.5" width="29" height="19" fill="white" fill-opacity="0.5" stroke="white"/>
</g>
<g clip-path="url(#clip14_85_749)">
<rect x="66" y="83" width="30" height="115" fill="#555555"/>
<rect x="66.5" y="140.5" width="29" height="19" fill="white" fill-opacity="0.5" stroke="white"/>
<rect x="66.5" y="121.5" width="29" height="19" fill="white" fill-opacity="0.5" stroke="white"/>
<rect x="66.5" y="102.5" width="29" height="19" fill="white" fill-opacity="0.5" stroke="white"/>
</g>
<g clip-path="url(#clip15_85_749)">
<rect x="8" y="64" width="30" height="115" fill="#4D96FF"/>
<rect x="8.5" y="121.5" width="29" height="19" fill="white" fill-opacity="0.5" stroke="white"/>
<rect x="8.5" y="102.5" width="29" height="19" fill="white" fill-opacity="0.5" stroke="white"/>
<rect x="8.5" y="83.5" width="29" height="19" fill="white" fill-opacity="0.5" stroke="white"/>
</g>
<g clip-path="url(#clip16_85_749)">
<rect x="8" y="26" width="30" height="115" fill="#FF6B6B"/>
<rect x="8.5" y="83.5" width="29" height="19" fill="white" fill-opacity="0.5" stroke="white"/>
<rect x="8.5" y="64.5" width="29" height="19" fill="white" fill-opacity="0.5" stroke="white"/>
<rect x="8.5" y="45.5" width="29" height="19" fill="white" fill-opacity="0.5" stroke="white"/>
</g>
<g clip-path="url(#clip17_85_749)">
<rect x="8" y="7" width="30" height="115" fill="#FFD93D"/>
<rect x="8.5" y="64.5" width="29" height="19" fill="white" fill-opacity="0.5" stroke="white"/>
<rect x="8.5" y="45.5" width="29" height="19" fill="white" fill-opacity="0.5" stroke="white"/>
<rect x="8.5" y="26.5" width="29" height="19" fill="white" fill-opacity="0.5" stroke="white"/>
</g>
</g>
<defs>
<clipPath id="clip0_85_749">
<rect width="88" height="96" fill="white" transform="translate(153 26)"/>
</clipPath>
<clipPath id="clip1_85_749">
<rect width="30" height="20" fill="white" transform="translate(153 26)"/>
</clipPath>
<clipPath id="clip2_85_749">
<rect width="30" height="115" fill="white" transform="translate(153 26)"/>
</clipPath>
<clipPath id="clip3_85_749">
<rect width="30" height="20" fill="white" transform="translate(153 45)"/>
</clipPath>
<clipPath id="clip4_85_749">
<rect width="30" height="20" fill="white" transform="translate(153 83)"/>
</clipPath>
<clipPath id="clip5_85_749">
<rect width="30" height="20" fill="white" transform="translate(153 102)"/>
</clipPath>
<clipPath id="clip6_85_749">
<rect width="30" height="20" fill="white" transform="translate(153 64)"/>
</clipPath>
<clipPath id="clip7_85_749">
<rect width="88" height="134" fill="white" transform="translate(8 7)"/>
</clipPath>
<clipPath id="clip8_85_749">
<rect width="30" height="20" fill="white" transform="translate(8 7)"/>
</clipPath>
<clipPath id="clip9_85_749">
<rect width="30" height="115" fill="white" transform="translate(8 7)"/>
</clipPath>
<clipPath id="clip10_85_749">
<rect width="30" height="20" fill="white" transform="translate(8 26)"/>
</clipPath>
<clipPath id="clip11_85_749">
<rect width="30" height="20" fill="white" transform="translate(8 83)"/>
</clipPath>
<clipPath id="clip12_85_749">
<rect width="30" height="20" fill="white" transform="translate(8 121)"/>
</clipPath>
<clipPath id="clip13_85_749">
<rect width="30" height="20" fill="white" transform="translate(37 121)"/>
</clipPath>
<clipPath id="clip14_85_749">
<rect width="30" height="20" fill="white" transform="translate(66 121)"/>
</clipPath>
<clipPath id="clip15_85_749">
<rect width="30" height="20" fill="white" transform="translate(8 102)"/>
</clipPath>
<clipPath id="clip16_85_749">
<rect width="30" height="20" fill="white" transform="translate(8 64)"/>
</clipPath>
<clipPath id="clip17_85_749">
<rect width="30" height="20" fill="white" transform="translate(8 45)"/>
</clipPath>
</defs>
</svg>
