<svg width="334" height="69" viewBox="0 0 334 69" fill="none" xmlns="http://www.w3.org/2000/svg">
<rect width="36" height="46" transform="translate(216 11)" fill="white"/>
<rect x="216.5" y="11.5" width="35" height="15" fill="#FF6B6B"/>
<path d="M238.119 19.4432V22H237.091V17.6364H238.074V18.3778H238.125C238.225 18.1335 238.385 17.9394 238.605 17.7955C238.827 17.6515 239.1 17.5795 239.426 17.5795C239.727 17.5795 239.99 17.6439 240.213 17.7727C240.438 17.9015 240.613 18.0881 240.736 18.3324C240.861 18.5767 240.922 18.8731 240.92 19.2216V22H239.892V19.3807C239.892 19.089 239.816 18.8608 239.665 18.696C239.515 18.5312 239.308 18.4489 239.043 18.4489C238.863 18.4489 238.703 18.4886 238.562 18.5682C238.424 18.6458 238.315 18.7585 238.236 18.9062C238.158 19.054 238.119 19.233 238.119 19.4432ZM241.966 22V17.6364H242.963V18.3636H243.009C243.088 18.1117 243.224 17.9176 243.418 17.7812C243.613 17.643 243.835 17.5739 244.085 17.5739C244.142 17.5739 244.205 17.5767 244.276 17.5824C244.348 17.5862 244.407 17.5928 244.455 17.6023V18.5483C244.411 18.5331 244.342 18.5199 244.247 18.5085C244.154 18.4953 244.064 18.4886 243.977 18.4886C243.79 18.4886 243.621 18.5294 243.472 18.6108C243.324 18.6903 243.207 18.8011 243.122 18.9432C243.037 19.0852 242.994 19.2491 242.994 19.4347V22H241.966ZM248.587 18.7898L247.649 18.892C247.623 18.7973 247.576 18.7083 247.51 18.625C247.446 18.5417 247.358 18.4744 247.249 18.4233C247.139 18.3722 247.004 18.3466 246.845 18.3466C246.631 18.3466 246.451 18.393 246.305 18.4858C246.161 18.5786 246.09 18.6989 246.092 18.8466C246.09 18.9735 246.137 19.0767 246.232 19.1562C246.328 19.2358 246.487 19.3011 246.709 19.3523L247.453 19.5114C247.866 19.6004 248.173 19.7415 248.374 19.9347C248.576 20.1278 248.679 20.3807 248.68 20.6932C248.679 20.9678 248.598 21.2102 248.439 21.4205C248.282 21.6288 248.063 21.7917 247.783 21.9091C247.502 22.0265 247.18 22.0852 246.817 22.0852C246.283 22.0852 245.853 21.9735 245.527 21.75C245.201 21.5246 245.007 21.2112 244.945 20.8097L245.947 20.7131C245.993 20.91 246.089 21.0587 246.237 21.1591C246.385 21.2595 246.577 21.3097 246.814 21.3097C247.058 21.3097 247.254 21.2595 247.402 21.1591C247.552 21.0587 247.626 20.9347 247.626 20.7869C247.626 20.6619 247.578 20.5587 247.482 20.4773C247.387 20.3958 247.239 20.3333 247.038 20.2898L246.294 20.1335C245.875 20.0464 245.566 19.8996 245.365 19.6932C245.164 19.4848 245.065 19.2216 245.067 18.9034C245.065 18.6345 245.138 18.4015 245.286 18.2045C245.435 18.0057 245.643 17.8523 245.908 17.7443C246.175 17.6345 246.482 17.5795 246.831 17.5795C247.342 17.5795 247.745 17.6884 248.038 17.9062C248.334 18.1241 248.517 18.4186 248.587 18.7898Z" fill="#2F2F2F"/>
<rect x="216.5" y="11.5" width="35" height="15" stroke="white"/>
<rect x="216.5" y="26.5" width="35" height="15" fill="#FF6B6B" fill-opacity="0.5"/>
<path d="M247.929 31.1818V37H247.224V31.9205H247.19L245.77 32.8636V32.1477L247.224 31.1818H247.929Z" fill="#2F2F2F"/>
<rect x="216.5" y="26.5" width="35" height="15" stroke="white"/>
<rect x="216.5" y="41.5" width="35" height="15" fill="#FF6B6B" fill-opacity="0.5"/>
<path d="M244.759 52V51.4886L246.679 49.3864C246.904 49.1402 247.09 48.9261 247.236 48.7443C247.382 48.5606 247.49 48.3883 247.56 48.2273C247.632 48.0644 247.668 47.8939 247.668 47.7159C247.668 47.5114 247.618 47.3343 247.52 47.1847C247.423 47.035 247.291 46.9195 247.122 46.8381C246.954 46.7566 246.764 46.7159 246.554 46.7159C246.33 46.7159 246.135 46.7623 245.969 46.8551C245.804 46.946 245.676 47.0739 245.585 47.2386C245.496 47.4034 245.452 47.5966 245.452 47.8182H244.781C244.781 47.4773 244.86 47.178 245.017 46.9205C245.174 46.6629 245.388 46.4621 245.659 46.3182C245.932 46.1742 246.238 46.1023 246.577 46.1023C246.918 46.1023 247.22 46.1742 247.483 46.3182C247.746 46.4621 247.953 46.6562 248.102 46.9006C248.252 47.1449 248.327 47.4167 248.327 47.7159C248.327 47.9299 248.288 48.1392 248.21 48.3438C248.134 48.5464 248.002 48.7727 247.812 49.0227C247.625 49.2708 247.365 49.5739 247.031 49.9318L245.724 51.3295V51.375H248.429V52H244.759Z" fill="#2F2F2F"/>
<rect x="216.5" y="41.5" width="35" height="15" stroke="white"/>
<rect width="36" height="46" transform="translate(251 11)" fill="white"/>
<rect x="251.5" y="11.5" width="35" height="15" fill="#FFD93D"/>
<path d="M259.776 19.4432V22H258.747V17.6364H259.73V18.3778H259.781C259.882 18.1335 260.042 17.9394 260.261 17.7955C260.483 17.6515 260.757 17.5795 261.082 17.5795C261.384 17.5795 261.646 17.6439 261.869 17.7727C262.095 17.9015 262.269 18.0881 262.392 18.3324C262.517 18.5767 262.579 18.8731 262.577 19.2216V22H261.548V19.3807C261.548 19.089 261.473 18.8608 261.321 18.696C261.171 18.5312 260.964 18.4489 260.699 18.4489C260.519 18.4489 260.359 18.4886 260.219 18.5682C260.08 18.6458 259.972 18.7585 259.892 18.9062C259.814 19.054 259.776 19.233 259.776 19.4432ZM264.878 22.0881C264.601 22.0881 264.352 22.0388 264.131 21.9403C263.911 21.84 263.737 21.6922 263.608 21.4972C263.481 21.3021 263.418 21.0616 263.418 20.7756C263.418 20.5294 263.463 20.3258 263.554 20.1648C263.645 20.0038 263.769 19.875 263.926 19.7784C264.083 19.6818 264.26 19.6089 264.457 19.5597C264.656 19.5085 264.862 19.4716 265.074 19.4489C265.33 19.4223 265.537 19.3987 265.696 19.3778C265.855 19.3551 265.971 19.321 266.043 19.2756C266.116 19.2282 266.153 19.1553 266.153 19.0568V19.0398C266.153 18.8258 266.09 18.66 265.963 18.5426C265.836 18.4252 265.653 18.3665 265.415 18.3665C265.163 18.3665 264.963 18.4214 264.815 18.5312C264.67 18.6411 264.571 18.7708 264.52 18.9205L263.56 18.7841C263.635 18.5189 263.76 18.2973 263.935 18.1193C264.109 17.9394 264.322 17.8049 264.574 17.7159C264.826 17.625 265.104 17.5795 265.409 17.5795C265.619 17.5795 265.829 17.6042 266.037 17.6534C266.245 17.7027 266.436 17.7841 266.608 17.8977C266.78 18.0095 266.919 18.1619 267.023 18.3551C267.129 18.5483 267.182 18.7898 267.182 19.0795V22H266.193V21.4006H266.159C266.097 21.5218 266.009 21.6354 265.895 21.7415C265.783 21.8456 265.642 21.9299 265.472 21.9943C265.303 22.0568 265.105 22.0881 264.878 22.0881ZM265.145 21.3324C265.351 21.3324 265.53 21.2917 265.682 21.2102C265.833 21.1269 265.95 21.017 266.031 20.8807C266.115 20.7443 266.156 20.5956 266.156 20.4347V19.9205C266.124 19.947 266.069 19.9716 265.991 19.9943C265.916 20.017 265.83 20.0369 265.736 20.054C265.641 20.071 265.547 20.0862 265.455 20.0994C265.362 20.1127 265.281 20.1241 265.213 20.1335C265.06 20.1544 264.922 20.1884 264.801 20.2358C264.68 20.2831 264.584 20.3494 264.514 20.4347C264.444 20.518 264.409 20.6259 264.409 20.7585C264.409 20.9479 264.478 21.0909 264.616 21.1875C264.755 21.2841 264.931 21.3324 265.145 21.3324ZM268.216 22V17.6364H269.199V18.3778H269.25C269.341 18.1278 269.491 17.9328 269.702 17.7926C269.912 17.6506 270.163 17.5795 270.455 17.5795C270.75 17.5795 270.999 17.6515 271.202 17.7955C271.406 17.9375 271.55 18.1316 271.634 18.3778H271.679C271.776 18.1354 271.938 17.9422 272.168 17.7983C272.399 17.6525 272.672 17.5795 272.989 17.5795C273.39 17.5795 273.718 17.7064 273.972 17.9602C274.225 18.214 274.352 18.5843 274.352 19.071V22H273.321V19.2301C273.321 18.9593 273.249 18.7614 273.105 18.6364C272.961 18.5095 272.785 18.446 272.577 18.446C272.329 18.446 272.134 18.5237 271.994 18.679C271.856 18.8324 271.787 19.0322 271.787 19.2784V22H270.778V19.1875C270.778 18.9621 270.71 18.7822 270.574 18.6477C270.439 18.5133 270.263 18.446 270.045 18.446C269.898 18.446 269.763 18.4839 269.642 18.5597C269.521 18.6335 269.424 18.7386 269.352 18.875C269.28 19.0095 269.244 19.1667 269.244 19.3466V22H268.216ZM277.327 22.0852C276.89 22.0852 276.512 21.9943 276.194 21.8125C275.878 21.6288 275.634 21.3693 275.464 21.0341C275.293 20.697 275.208 20.3002 275.208 19.8438C275.208 19.3949 275.293 19.0009 275.464 18.6619C275.636 18.321 275.877 18.0559 276.185 17.8665C276.494 17.6752 276.857 17.5795 277.273 17.5795C277.542 17.5795 277.796 17.6231 278.035 17.7102C278.275 17.7955 278.487 17.928 278.671 18.108C278.857 18.2879 279.003 18.517 279.109 18.7955C279.215 19.072 279.268 19.4015 279.268 19.7841V20.0994H275.691V19.4062H278.282C278.28 19.2093 278.237 19.0341 278.154 18.8807C278.071 18.7254 277.954 18.6032 277.805 18.5142C277.657 18.4252 277.485 18.3807 277.288 18.3807C277.077 18.3807 276.893 18.4318 276.734 18.5341C276.575 18.6345 276.451 18.767 276.362 18.9318C276.274 19.0947 276.23 19.2737 276.228 19.4688V20.0739C276.228 20.3277 276.274 20.5455 276.367 20.7273C276.46 20.9072 276.59 21.0455 276.756 21.142C276.923 21.2367 277.118 21.2841 277.342 21.2841C277.491 21.2841 277.627 21.2633 277.748 21.2216C277.869 21.178 277.974 21.1146 278.063 21.0312C278.152 20.9479 278.219 20.8447 278.265 20.7216L279.225 20.8295C279.165 21.0833 279.049 21.3049 278.879 21.4943C278.71 21.6818 278.494 21.8277 278.231 21.9318C277.968 22.0341 277.666 22.0852 277.327 22.0852ZM283.587 18.7898L282.649 18.892C282.623 18.7973 282.576 18.7083 282.51 18.625C282.446 18.5417 282.358 18.4744 282.249 18.4233C282.139 18.3722 282.004 18.3466 281.845 18.3466C281.631 18.3466 281.451 18.393 281.305 18.4858C281.161 18.5786 281.09 18.6989 281.092 18.8466C281.09 18.9735 281.137 19.0767 281.232 19.1562C281.328 19.2358 281.487 19.3011 281.709 19.3523L282.453 19.5114C282.866 19.6004 283.173 19.7415 283.374 19.9347C283.576 20.1278 283.679 20.3807 283.68 20.6932C283.679 20.9678 283.598 21.2102 283.439 21.4205C283.282 21.6288 283.063 21.7917 282.783 21.9091C282.502 22.0265 282.18 22.0852 281.817 22.0852C281.283 22.0852 280.853 21.9735 280.527 21.75C280.201 21.5246 280.007 21.2112 279.945 20.8097L280.947 20.7131C280.993 20.91 281.089 21.0587 281.237 21.1591C281.385 21.2595 281.577 21.3097 281.814 21.3097C282.058 21.3097 282.254 21.2595 282.402 21.1591C282.552 21.0587 282.626 20.9347 282.626 20.7869C282.626 20.6619 282.578 20.5587 282.482 20.4773C282.387 20.3958 282.239 20.3333 282.038 20.2898L281.294 20.1335C280.875 20.0464 280.566 19.8996 280.365 19.6932C280.164 19.4848 280.065 19.2216 280.067 18.9034C280.065 18.6345 280.138 18.4015 280.286 18.2045C280.435 18.0057 280.643 17.8523 280.908 17.7443C281.175 17.6345 281.482 17.5795 281.831 17.5795C282.342 17.5795 282.745 17.6884 283.038 17.9062C283.334 18.1241 283.517 18.4186 283.587 18.7898Z" fill="#2F2F2F"/>
<rect x="251.5" y="11.5" width="35" height="15" stroke="white"/>
<rect x="251.5" y="26.5" width="35" height="15" fill="#FFD93D" fill-opacity="0.5"/>
<path d="M266.043 33V32.4886C266.043 32.3333 266.07 32.1686 266.125 31.9943C266.182 31.8182 266.263 31.6487 266.369 31.4858C266.477 31.321 266.607 31.178 266.759 31.0568L267.122 31.3523C267.003 31.5227 266.899 31.7008 266.81 31.8864C266.723 32.0701 266.679 32.267 266.679 32.4773V33H266.043ZM267.497 33V32.4886C267.497 32.3333 267.525 32.1686 267.58 31.9943C267.636 31.8182 267.718 31.6487 267.824 31.4858C267.932 31.321 268.062 31.178 268.213 31.0568L268.577 31.3523C268.457 31.5227 268.353 31.7008 268.264 31.8864C268.177 32.0701 268.134 32.267 268.134 32.4773V33H267.497ZM271.26 32.6364V33.2045H268.908V32.6364H271.26ZM269.612 37V32.0341C269.612 31.7841 269.671 31.5758 269.788 31.4091C269.906 31.2424 270.058 31.1174 270.246 31.0341C270.433 30.9508 270.631 30.9091 270.839 30.9091C271.004 30.9091 271.139 30.9223 271.243 30.9489C271.347 30.9754 271.425 31 271.476 31.0227L271.283 31.6023C271.249 31.5909 271.201 31.5767 271.141 31.5597C271.082 31.5426 271.004 31.5341 270.908 31.5341C270.686 31.5341 270.526 31.59 270.428 31.7017C270.331 31.8134 270.283 31.9773 270.283 32.1932V37H269.612ZM273.793 37.0909C273.399 37.0909 273.053 36.9972 272.756 36.8097C272.46 36.6222 272.229 36.3598 272.062 36.0227C271.898 35.6856 271.815 35.2917 271.815 34.8409C271.815 34.3864 271.898 33.9896 272.062 33.6506C272.229 33.3116 272.46 33.0483 272.756 32.8608C273.053 32.6733 273.399 32.5795 273.793 32.5795C274.187 32.5795 274.531 32.6733 274.827 32.8608C275.124 33.0483 275.355 33.3116 275.52 33.6506C275.687 33.9896 275.77 34.3864 275.77 34.8409C275.77 35.2917 275.687 35.6856 275.52 36.0227C275.355 36.3598 275.124 36.6222 274.827 36.8097C274.531 36.9972 274.187 37.0909 273.793 37.0909ZM273.793 36.4886C274.092 36.4886 274.338 36.4119 274.531 36.2585C274.724 36.1051 274.867 35.9034 274.96 35.6534C275.053 35.4034 275.099 35.1326 275.099 34.8409C275.099 34.5492 275.053 34.2775 274.96 34.0256C274.867 33.7737 274.724 33.5701 274.531 33.4148C274.338 33.2595 274.092 33.1818 273.793 33.1818C273.493 33.1818 273.247 33.2595 273.054 33.4148C272.861 33.5701 272.718 33.7737 272.625 34.0256C272.532 34.2775 272.486 34.5492 272.486 34.8409C272.486 35.1326 272.532 35.4034 272.625 35.6534C272.718 35.9034 272.861 36.1051 273.054 36.2585C273.247 36.4119 273.493 36.4886 273.793 36.4886ZM278.566 37.0909C278.172 37.0909 277.826 36.9972 277.529 36.8097C277.234 36.6222 277.003 36.3598 276.836 36.0227C276.671 35.6856 276.589 35.2917 276.589 34.8409C276.589 34.3864 276.671 33.9896 276.836 33.6506C277.003 33.3116 277.234 33.0483 277.529 32.8608C277.826 32.6733 278.172 32.5795 278.566 32.5795C278.96 32.5795 279.305 32.6733 279.6 32.8608C279.897 33.0483 280.129 33.3116 280.293 33.6506C280.46 33.9896 280.543 34.3864 280.543 34.8409C280.543 35.2917 280.46 35.6856 280.293 36.0227C280.129 36.3598 279.897 36.6222 279.6 36.8097C279.305 36.9972 278.96 37.0909 278.566 37.0909ZM278.566 36.4886C278.865 36.4886 279.112 36.4119 279.305 36.2585C279.498 36.1051 279.641 35.9034 279.734 35.6534C279.826 35.4034 279.873 35.1326 279.873 34.8409C279.873 34.5492 279.826 34.2775 279.734 34.0256C279.641 33.7737 279.498 33.5701 279.305 33.4148C279.112 33.2595 278.865 33.1818 278.566 33.1818C278.267 33.1818 278.021 33.2595 277.827 33.4148C277.634 33.5701 277.491 33.7737 277.398 34.0256C277.306 34.2775 277.259 34.5492 277.259 34.8409C277.259 35.1326 277.306 35.4034 277.398 35.6534C277.491 35.9034 277.634 36.1051 277.827 36.2585C278.021 36.4119 278.267 36.4886 278.566 36.4886ZM282.158 31.1818V31.6932C282.158 31.8485 282.129 32.0142 282.072 32.1903C282.018 32.3646 281.936 32.5341 281.828 32.6989C281.722 32.8617 281.593 33.0038 281.442 33.125L281.078 32.8295C281.197 32.6591 281.301 32.482 281.388 32.2983C281.477 32.1127 281.521 31.9148 281.521 31.7045V31.1818H282.158ZM283.612 31.1818V31.6932C283.612 31.8485 283.584 32.0142 283.527 32.1903C283.472 32.3646 283.391 32.5341 283.283 32.6989C283.177 32.8617 283.048 33.0038 282.896 33.125L282.533 32.8295C282.652 32.6591 282.755 32.482 282.842 32.2983C282.931 32.1127 282.976 31.9148 282.976 31.7045V31.1818H283.612Z" fill="#2F2F2F"/>
<rect x="251.5" y="26.5" width="35" height="15" stroke="white"/>
<rect x="251.5" y="41.5" width="35" height="15" fill="#FFD93D" fill-opacity="0.5"/>
<path d="M262.105 48V47.4886C262.105 47.3333 262.133 47.1686 262.188 46.9943C262.244 46.8182 262.326 46.6487 262.432 46.4858C262.54 46.321 262.67 46.178 262.821 46.0568L263.185 46.3523C263.065 46.5227 262.961 46.7008 262.872 46.8864C262.785 47.0701 262.741 47.267 262.741 47.4773V48H262.105ZM263.56 48V47.4886C263.56 47.3333 263.587 47.1686 263.642 46.9943C263.699 46.8182 263.78 46.6487 263.886 46.4858C263.994 46.321 264.124 46.178 264.276 46.0568L264.639 46.3523C264.52 46.5227 264.416 46.7008 264.327 46.8864C264.24 47.0701 264.196 47.267 264.196 47.4773V48H263.56ZM266.05 49.375V52H265.379V46.1818H266.05V48.3182H266.107C266.209 48.0928 266.362 47.9138 266.567 47.7812C266.773 47.6468 267.048 47.5795 267.391 47.5795C267.688 47.5795 267.948 47.6392 268.172 47.7585C268.395 47.8759 268.569 48.0568 268.692 48.3011C268.817 48.5436 268.879 48.8523 268.879 49.2273V52H268.209V49.2727C268.209 48.9261 268.119 48.6581 267.939 48.4688C267.761 48.2775 267.514 48.1818 267.197 48.1818C266.978 48.1818 266.781 48.2282 266.607 48.321C266.434 48.4138 266.298 48.5492 266.197 48.7273C266.099 48.9053 266.05 49.1212 266.05 49.375ZM271.39 52.1023C271.113 52.1023 270.862 52.0502 270.637 51.946C270.412 51.84 270.233 51.6875 270.1 51.4886C269.968 51.2879 269.901 51.0455 269.901 50.7614C269.901 50.5114 269.951 50.3087 270.049 50.1534C270.147 49.9962 270.279 49.8731 270.444 49.7841C270.609 49.6951 270.79 49.6288 270.989 49.5852C271.19 49.5398 271.392 49.5038 271.594 49.4773C271.86 49.4432 272.075 49.4176 272.239 49.4006C272.406 49.3816 272.527 49.3504 272.603 49.3068C272.681 49.2633 272.719 49.1875 272.719 49.0795V49.0568C272.719 48.7765 272.643 48.5587 272.489 48.4034C272.338 48.2481 272.108 48.1705 271.799 48.1705C271.479 48.1705 271.228 48.2405 271.046 48.3807C270.864 48.5208 270.737 48.6705 270.663 48.8295L270.026 48.6023C270.14 48.3371 270.291 48.1307 270.481 47.983C270.672 47.8333 270.88 47.7292 271.106 47.6705C271.333 47.6098 271.557 47.5795 271.776 47.5795C271.916 47.5795 272.077 47.5966 272.259 47.6307C272.443 47.6629 272.62 47.7301 272.79 47.8324C272.963 47.9347 273.106 48.089 273.219 48.2955C273.333 48.5019 273.39 48.7784 273.39 49.125V52H272.719V51.4091H272.685C272.64 51.5038 272.564 51.6051 272.458 51.7131C272.352 51.821 272.211 51.9129 272.035 51.9886C271.859 52.0644 271.644 52.1023 271.39 52.1023ZM271.492 51.5C271.757 51.5 271.981 51.4479 272.163 51.3438C272.346 51.2396 272.485 51.1051 272.577 50.9403C272.672 50.7756 272.719 50.6023 272.719 50.4205V49.8068C272.691 49.8409 272.629 49.8722 272.532 49.9006C272.437 49.9271 272.327 49.9508 272.202 49.9716C272.079 49.9905 271.959 50.0076 271.842 50.0227C271.726 50.036 271.632 50.0473 271.56 50.0568C271.386 50.0795 271.223 50.1165 271.072 50.1676C270.922 50.2169 270.801 50.2917 270.708 50.392C270.617 50.4905 270.572 50.625 270.572 50.7955C270.572 51.0284 270.658 51.2045 270.83 51.3239C271.004 51.4413 271.225 51.5 271.492 51.5ZM274.614 52V47.6364H275.261V48.3182H275.318C275.409 48.0852 275.556 47.9044 275.759 47.7756C275.961 47.6449 276.205 47.5795 276.489 47.5795C276.777 47.5795 277.016 47.6449 277.207 47.7756C277.401 47.9044 277.551 48.0852 277.659 48.3182H277.705C277.816 48.0928 277.984 47.9138 278.207 47.7812C278.431 47.6468 278.699 47.5795 279.011 47.5795C279.402 47.5795 279.721 47.7017 279.969 47.946C280.217 48.1884 280.341 48.5663 280.341 49.0795V52H279.67V49.0795C279.67 48.7576 279.582 48.5275 279.406 48.3892C279.23 48.2509 279.023 48.1818 278.784 48.1818C278.477 48.1818 278.24 48.2746 278.071 48.4602C277.902 48.6439 277.818 48.8769 277.818 49.1591V52H277.136V49.0114C277.136 48.7633 277.056 48.5634 276.895 48.4119C276.734 48.2585 276.527 48.1818 276.273 48.1818C276.098 48.1818 275.936 48.2282 275.784 48.321C275.634 48.4138 275.513 48.5426 275.42 48.7074C275.33 48.8703 275.284 49.0587 275.284 49.2727V52H274.614ZM282.158 46.1818V46.6932C282.158 46.8485 282.129 47.0142 282.072 47.1903C282.018 47.3646 281.936 47.5341 281.828 47.6989C281.722 47.8617 281.593 48.0038 281.442 48.125L281.078 47.8295C281.197 47.6591 281.301 47.482 281.388 47.2983C281.477 47.1127 281.521 46.9148 281.521 46.7045V46.1818H282.158ZM283.612 46.1818V46.6932C283.612 46.8485 283.584 47.0142 283.527 47.1903C283.472 47.3646 283.391 47.5341 283.283 47.6989C283.177 47.8617 283.048 48.0038 282.896 48.125L282.533 47.8295C282.652 47.6591 282.755 47.482 282.842 47.2983C282.931 47.1127 282.976 46.9148 282.976 46.7045V46.1818H283.612Z" fill="#2F2F2F"/>
<rect x="251.5" y="41.5" width="35" height="15" stroke="white"/>
<rect width="43" height="46" transform="translate(286 11)" fill="white"/>
<rect x="286.5" y="11.5" width="42" height="15" fill="#6BCB77"/>
<path d="M297.979 22.0881C297.703 22.0881 297.454 22.0388 297.232 21.9403C297.013 21.84 296.838 21.6922 296.71 21.4972C296.583 21.3021 296.519 21.0616 296.519 20.7756C296.519 20.5294 296.565 20.3258 296.656 20.1648C296.746 20.0038 296.871 19.875 297.028 19.7784C297.185 19.6818 297.362 19.6089 297.559 19.5597C297.758 19.5085 297.963 19.4716 298.175 19.4489C298.431 19.4223 298.638 19.3987 298.798 19.3778C298.957 19.3551 299.072 19.321 299.144 19.2756C299.218 19.2282 299.255 19.1553 299.255 19.0568V19.0398C299.255 18.8258 299.192 18.66 299.065 18.5426C298.938 18.4252 298.755 18.3665 298.516 18.3665C298.264 18.3665 298.065 18.4214 297.917 18.5312C297.771 18.6411 297.673 18.7708 297.621 18.9205L296.661 18.7841C296.737 18.5189 296.862 18.2973 297.036 18.1193C297.21 17.9394 297.424 17.8049 297.675 17.7159C297.927 17.625 298.206 17.5795 298.511 17.5795C298.721 17.5795 298.93 17.6042 299.138 17.6534C299.347 17.7027 299.537 17.7841 299.71 17.8977C299.882 18.0095 300.02 18.1619 300.124 18.3551C300.23 18.5483 300.283 18.7898 300.283 19.0795V22H299.295V21.4006H299.261C299.198 21.5218 299.11 21.6354 298.996 21.7415C298.885 21.8456 298.744 21.9299 298.573 21.9943C298.405 22.0568 298.207 22.0881 297.979 22.0881ZM298.246 21.3324C298.453 21.3324 298.632 21.2917 298.783 21.2102C298.935 21.1269 299.051 21.017 299.133 20.8807C299.216 20.7443 299.258 20.5956 299.258 20.4347V19.9205C299.226 19.947 299.171 19.9716 299.093 19.9943C299.017 20.017 298.932 20.0369 298.837 20.054C298.743 20.071 298.649 20.0862 298.556 20.0994C298.463 20.1127 298.383 20.1241 298.315 20.1335C298.161 20.1544 298.024 20.1884 297.903 20.2358C297.781 20.2831 297.686 20.3494 297.616 20.4347C297.546 20.518 297.511 20.6259 297.511 20.7585C297.511 20.9479 297.58 21.0909 297.718 21.1875C297.856 21.2841 298.032 21.3324 298.246 21.3324ZM302.346 19.4432V22H301.317V17.6364H302.3V18.3778H302.352C302.452 18.1335 302.612 17.9394 302.832 17.7955C303.053 17.6515 303.327 17.5795 303.653 17.5795C303.954 17.5795 304.216 17.6439 304.44 17.7727C304.665 17.9015 304.839 18.0881 304.962 18.3324C305.087 18.5767 305.149 18.8731 305.147 19.2216V22H304.119V19.3807C304.119 19.089 304.043 18.8608 303.891 18.696C303.742 18.5312 303.534 18.4489 303.269 18.4489C303.089 18.4489 302.929 18.4886 302.789 18.5682C302.651 18.6458 302.542 18.7585 302.462 18.9062C302.385 19.054 302.346 19.233 302.346 19.4432ZM306.192 22V17.6364H307.221V22H306.192ZM306.71 17.017C306.547 17.017 306.406 16.9631 306.289 16.8551C306.172 16.7453 306.113 16.6136 306.113 16.4602C306.113 16.3049 306.172 16.1733 306.289 16.0653C306.406 15.9555 306.547 15.9006 306.71 15.9006C306.874 15.9006 307.014 15.9555 307.13 16.0653C307.247 16.1733 307.306 16.3049 307.306 16.4602C307.306 16.6136 307.247 16.7453 307.13 16.8551C307.014 16.9631 306.874 17.017 306.71 17.017ZM308.278 22V17.6364H309.261V18.3778H309.312C309.403 18.1278 309.554 17.9328 309.764 17.7926C309.974 17.6506 310.225 17.5795 310.517 17.5795C310.812 17.5795 311.062 17.6515 311.264 17.7955C311.469 17.9375 311.613 18.1316 311.696 18.3778H311.741C311.838 18.1354 312.001 17.9422 312.23 17.7983C312.461 17.6525 312.735 17.5795 313.051 17.5795C313.453 17.5795 313.78 17.7064 314.034 17.9602C314.288 18.214 314.415 18.5843 314.415 19.071V22H313.384V19.2301C313.384 18.9593 313.312 18.7614 313.168 18.6364C313.024 18.5095 312.848 18.446 312.639 18.446C312.391 18.446 312.197 18.5237 312.057 18.679C311.919 18.8324 311.849 19.0322 311.849 19.2784V22H310.841V19.1875C310.841 18.9621 310.773 18.7822 310.636 18.6477C310.502 18.5133 310.326 18.446 310.108 18.446C309.96 18.446 309.826 18.4839 309.705 18.5597C309.583 18.6335 309.487 18.7386 309.415 18.875C309.343 19.0095 309.307 19.1667 309.307 19.3466V22H308.278ZM316.714 22.0881C316.437 22.0881 316.188 22.0388 315.967 21.9403C315.747 21.84 315.573 21.6922 315.444 21.4972C315.317 21.3021 315.254 21.0616 315.254 20.7756C315.254 20.5294 315.299 20.3258 315.39 20.1648C315.481 20.0038 315.605 19.875 315.762 19.7784C315.919 19.6818 316.096 19.6089 316.293 19.5597C316.492 19.5085 316.698 19.4716 316.91 19.4489C317.165 19.4223 317.373 19.3987 317.532 19.3778C317.691 19.3551 317.807 19.321 317.879 19.2756C317.952 19.2282 317.989 19.1553 317.989 19.0568V19.0398C317.989 18.8258 317.926 18.66 317.799 18.5426C317.672 18.4252 317.489 18.3665 317.251 18.3665C316.999 18.3665 316.799 18.4214 316.651 18.5312C316.505 18.6411 316.407 18.7708 316.356 18.9205L315.396 18.7841C315.471 18.5189 315.596 18.2973 315.771 18.1193C315.945 17.9394 316.158 17.8049 316.41 17.7159C316.662 17.625 316.94 17.5795 317.245 17.5795C317.455 17.5795 317.665 17.6042 317.873 17.6534C318.081 17.7027 318.272 17.7841 318.444 17.8977C318.616 18.0095 318.754 18.1619 318.859 18.3551C318.965 18.5483 319.018 18.7898 319.018 19.0795V22H318.029V21.4006H317.995C317.933 21.5218 317.844 21.6354 317.731 21.7415C317.619 21.8456 317.478 21.9299 317.308 21.9943C317.139 22.0568 316.941 22.0881 316.714 22.0881ZM316.981 21.3324C317.187 21.3324 317.366 21.2917 317.518 21.2102C317.669 21.1269 317.786 21.017 317.867 20.8807C317.951 20.7443 317.992 20.5956 317.992 20.4347V19.9205C317.96 19.947 317.905 19.9716 317.827 19.9943C317.752 20.017 317.666 20.0369 317.572 20.054C317.477 20.071 317.383 20.0862 317.29 20.0994C317.198 20.1127 317.117 20.1241 317.049 20.1335C316.896 20.1544 316.758 20.1884 316.637 20.2358C316.516 20.2831 316.42 20.3494 316.35 20.4347C316.28 20.518 316.245 20.6259 316.245 20.7585C316.245 20.9479 316.314 21.0909 316.452 21.1875C316.591 21.2841 316.767 21.3324 316.981 21.3324ZM321.08 16.1818V22H320.052V16.1818H321.08ZM325.587 18.7898L324.649 18.892C324.623 18.7973 324.576 18.7083 324.51 18.625C324.446 18.5417 324.358 18.4744 324.249 18.4233C324.139 18.3722 324.004 18.3466 323.845 18.3466C323.631 18.3466 323.451 18.393 323.305 18.4858C323.161 18.5786 323.09 18.6989 323.092 18.8466C323.09 18.9735 323.137 19.0767 323.232 19.1562C323.328 19.2358 323.487 19.3011 323.709 19.3523L324.453 19.5114C324.866 19.6004 325.173 19.7415 325.374 19.9347C325.576 20.1278 325.679 20.3807 325.68 20.6932C325.679 20.9678 325.598 21.2102 325.439 21.4205C325.282 21.6288 325.063 21.7917 324.783 21.9091C324.502 22.0265 324.18 22.0852 323.817 22.0852C323.283 22.0852 322.853 21.9735 322.527 21.75C322.201 21.5246 322.007 21.2112 321.945 20.8097L322.947 20.7131C322.993 20.91 323.089 21.0587 323.237 21.1591C323.385 21.2595 323.577 21.3097 323.814 21.3097C324.058 21.3097 324.254 21.2595 324.402 21.1591C324.552 21.0587 324.626 20.9347 324.626 20.7869C324.626 20.6619 324.578 20.5587 324.482 20.4773C324.387 20.3958 324.239 20.3333 324.038 20.2898L323.294 20.1335C322.875 20.0464 322.566 19.8996 322.365 19.6932C322.164 19.4848 322.065 19.2216 322.067 18.9034C322.065 18.6345 322.138 18.4015 322.286 18.2045C322.435 18.0057 322.643 17.8523 322.908 17.7443C323.175 17.6345 323.482 17.5795 323.831 17.5795C324.342 17.5795 324.745 17.6884 325.038 17.9062C325.334 18.1241 325.517 18.4186 325.587 18.7898Z" fill="#2F2F2F"/>
<rect x="286.5" y="11.5" width="42" height="15" stroke="white"/>
<rect x="286.5" y="26.5" width="42" height="15" fill="#6BCB77" fill-opacity="0.5"/>
<path d="M289.644 33V32.4886C289.644 32.3333 289.672 32.1686 289.727 31.9943C289.783 31.8182 289.865 31.6487 289.971 31.4858C290.079 31.321 290.209 31.178 290.36 31.0568L290.724 31.3523C290.604 31.5227 290.5 31.7008 290.411 31.8864C290.324 32.0701 290.281 32.267 290.281 32.4773V33H289.644ZM291.099 33V32.4886C291.099 32.3333 291.126 32.1686 291.181 31.9943C291.238 31.8182 291.319 31.6487 291.425 31.4858C291.533 31.321 291.663 31.178 291.815 31.0568L292.178 31.3523C292.059 31.5227 291.955 31.7008 291.866 31.8864C291.779 32.0701 291.735 32.267 291.735 32.4773V33H291.099ZM294.691 37.0909C294.282 37.0909 293.93 36.9943 293.634 36.8011C293.339 36.608 293.112 36.3419 292.952 36.0028C292.793 35.6638 292.714 35.2765 292.714 34.8409C292.714 34.3977 292.795 34.0066 292.958 33.6676C293.123 33.3267 293.352 33.0606 293.646 32.8693C293.941 32.6761 294.286 32.5795 294.68 32.5795C294.987 32.5795 295.263 32.6364 295.509 32.75C295.755 32.8636 295.957 33.0227 296.114 33.2273C296.272 33.4318 296.369 33.6705 296.407 33.9432H295.737C295.685 33.7443 295.572 33.5682 295.396 33.4148C295.221 33.2595 294.987 33.1818 294.691 33.1818C294.43 33.1818 294.201 33.25 294.004 33.3864C293.808 33.5208 293.656 33.7112 293.546 33.9574C293.438 34.2017 293.384 34.4886 293.384 34.8182C293.384 35.1553 293.437 35.4489 293.543 35.6989C293.651 35.9489 293.803 36.143 293.998 36.2812C294.195 36.4195 294.426 36.4886 294.691 36.4886C294.865 36.4886 295.023 36.4583 295.165 36.3977C295.308 36.3371 295.428 36.25 295.526 36.1364C295.625 36.0227 295.695 35.8864 295.737 35.7273H296.407C296.369 35.9848 296.275 36.2169 296.126 36.4233C295.978 36.6278 295.782 36.7907 295.538 36.9119C295.295 37.0312 295.013 37.0909 294.691 37.0909ZM298.058 34.375V37H297.387V31.1818H298.058V33.3182H298.114C298.217 33.0928 298.37 32.9138 298.575 32.7812C298.781 32.6468 299.056 32.5795 299.398 32.5795C299.696 32.5795 299.956 32.6392 300.18 32.7585C300.403 32.8759 300.576 33.0568 300.7 33.3011C300.825 33.5436 300.887 33.8523 300.887 34.2273V37H300.217V34.2727C300.217 33.9261 300.127 33.6581 299.947 33.4688C299.769 33.2775 299.522 33.1818 299.205 33.1818C298.986 33.1818 298.789 33.2282 298.614 33.321C298.442 33.4138 298.306 33.5492 298.205 33.7273C298.107 33.9053 298.058 34.1212 298.058 34.375ZM303.943 37.0909C303.523 37.0909 303.16 36.9981 302.855 36.8125C302.552 36.625 302.318 36.3636 302.153 36.0284C301.991 35.6913 301.909 35.2992 301.909 34.8523C301.909 34.4053 301.991 34.0114 302.153 33.6705C302.318 33.3277 302.547 33.0606 302.841 32.8693C303.136 32.6761 303.481 32.5795 303.875 32.5795C304.102 32.5795 304.327 32.6174 304.548 32.6932C304.77 32.7689 304.972 32.892 305.153 33.0625C305.335 33.2311 305.48 33.4545 305.588 33.733C305.696 34.0114 305.75 34.3542 305.75 34.7614V35.0455H302.386V34.4659H305.068C305.068 34.2197 305.019 34 304.92 33.8068C304.824 33.6136 304.686 33.4612 304.506 33.3494C304.328 33.2377 304.117 33.1818 303.875 33.1818C303.608 33.1818 303.377 33.2481 303.182 33.3807C302.989 33.5114 302.84 33.6818 302.736 33.892C302.632 34.1023 302.58 34.3277 302.58 34.5682V34.9545C302.58 35.2841 302.636 35.5634 302.75 35.7926C302.866 36.0199 303.026 36.1932 303.23 36.3125C303.435 36.4299 303.672 36.4886 303.943 36.4886C304.119 36.4886 304.278 36.464 304.42 36.4148C304.564 36.3636 304.688 36.2879 304.793 36.1875C304.897 36.0852 304.977 35.9583 305.034 35.8068L305.682 35.9886C305.614 36.2083 305.499 36.4015 305.338 36.5682C305.177 36.733 304.978 36.8617 304.741 36.9545C304.505 37.0455 304.239 37.0909 303.943 37.0909ZM308.599 37.0909C308.179 37.0909 307.816 36.9981 307.511 36.8125C307.208 36.625 306.974 36.3636 306.81 36.0284C306.647 35.6913 306.565 35.2992 306.565 34.8523C306.565 34.4053 306.647 34.0114 306.81 33.6705C306.974 33.3277 307.204 33.0606 307.497 32.8693C307.793 32.6761 308.137 32.5795 308.531 32.5795C308.759 32.5795 308.983 32.6174 309.205 32.6932C309.426 32.7689 309.628 32.892 309.81 33.0625C309.991 33.2311 310.136 33.4545 310.244 33.733C310.352 34.0114 310.406 34.3542 310.406 34.7614V35.0455H307.043V34.4659H309.724C309.724 34.2197 309.675 34 309.577 33.8068C309.48 33.6136 309.342 33.4612 309.162 33.3494C308.984 33.2377 308.774 33.1818 308.531 33.1818C308.264 33.1818 308.033 33.2481 307.838 33.3807C307.645 33.5114 307.496 33.6818 307.392 33.892C307.288 34.1023 307.236 34.3277 307.236 34.5682V34.9545C307.236 35.2841 307.293 35.5634 307.406 35.7926C307.522 36.0199 307.682 36.1932 307.886 36.3125C308.091 36.4299 308.329 36.4886 308.599 36.4886C308.776 36.4886 308.935 36.464 309.077 36.4148C309.221 36.3636 309.345 36.2879 309.449 36.1875C309.553 36.0852 309.634 35.9583 309.69 35.8068L310.338 35.9886C310.27 36.2083 310.155 36.4015 309.994 36.5682C309.833 36.733 309.634 36.8617 309.398 36.9545C309.161 37.0455 308.895 37.0909 308.599 37.0909ZM313.324 32.6364V33.2045H311.062V32.6364H313.324ZM311.722 31.5909H312.392V35.75C312.392 35.9394 312.42 36.0814 312.474 36.1761C312.531 36.2689 312.603 36.3314 312.69 36.3636C312.779 36.3939 312.873 36.4091 312.972 36.4091C313.045 36.4091 313.106 36.4053 313.153 36.3977C313.201 36.3883 313.239 36.3807 313.267 36.375L313.403 36.9773C313.358 36.9943 313.295 37.0114 313.213 37.0284C313.132 37.0473 313.028 37.0568 312.903 37.0568C312.714 37.0568 312.528 37.0161 312.347 36.9347C312.167 36.8532 312.017 36.7292 311.898 36.5625C311.78 36.3958 311.722 36.1856 311.722 35.9318V31.5909ZM315.616 37.1023C315.34 37.1023 315.089 37.0502 314.864 36.946C314.638 36.84 314.459 36.6875 314.327 36.4886C314.194 36.2879 314.128 36.0455 314.128 35.7614C314.128 35.5114 314.177 35.3087 314.276 35.1534C314.374 34.9962 314.506 34.8731 314.67 34.7841C314.835 34.6951 315.017 34.6288 315.216 34.5852C315.417 34.5398 315.618 34.5038 315.821 34.4773C316.086 34.4432 316.301 34.4176 316.466 34.4006C316.633 34.3816 316.754 34.3504 316.83 34.3068C316.907 34.2633 316.946 34.1875 316.946 34.0795V34.0568C316.946 33.7765 316.869 33.5587 316.716 33.4034C316.564 33.2481 316.334 33.1705 316.026 33.1705C315.705 33.1705 315.455 33.2405 315.273 33.3807C315.091 33.5208 314.963 33.6705 314.889 33.8295L314.253 33.6023C314.366 33.3371 314.518 33.1307 314.707 32.983C314.899 32.8333 315.107 32.7292 315.332 32.6705C315.56 32.6098 315.783 32.5795 316.003 32.5795C316.143 32.5795 316.304 32.5966 316.486 32.6307C316.67 32.6629 316.847 32.7301 317.017 32.8324C317.189 32.9347 317.332 33.089 317.446 33.2955C317.56 33.5019 317.616 33.7784 317.616 34.125V37H316.946V36.4091H316.912C316.866 36.5038 316.791 36.6051 316.685 36.7131C316.579 36.821 316.438 36.9129 316.261 36.9886C316.085 37.0644 315.87 37.1023 315.616 37.1023ZM315.719 36.5C315.984 36.5 316.207 36.4479 316.389 36.3438C316.573 36.2396 316.711 36.1051 316.804 35.9403C316.899 35.7756 316.946 35.6023 316.946 35.4205V34.8068C316.918 34.8409 316.855 34.8722 316.759 34.9006C316.664 34.9271 316.554 34.9508 316.429 34.9716C316.306 34.9905 316.186 35.0076 316.068 35.0227C315.953 35.036 315.859 35.0473 315.787 35.0568C315.613 35.0795 315.45 35.1165 315.298 35.1676C315.149 35.2169 315.027 35.2917 314.935 35.392C314.844 35.4905 314.798 35.625 314.798 35.7955C314.798 36.0284 314.884 36.2045 315.057 36.3239C315.231 36.4413 315.452 36.5 315.719 36.5ZM319.511 34.375V37H318.84V31.1818H319.511V33.3182H319.567C319.67 33.0928 319.823 32.9138 320.028 32.7812C320.234 32.6468 320.509 32.5795 320.852 32.5795C321.149 32.5795 321.409 32.6392 321.633 32.7585C321.856 32.8759 322.03 33.0568 322.153 33.3011C322.278 33.5436 322.34 33.8523 322.34 34.2273V37H321.67V34.2727C321.67 33.9261 321.58 33.6581 321.4 33.4688C321.222 33.2775 320.975 33.1818 320.658 33.1818C320.439 33.1818 320.242 33.2282 320.067 33.321C319.895 33.4138 319.759 33.5492 319.658 33.7273C319.56 33.9053 319.511 34.1212 319.511 34.375ZM324.158 31.1818V31.6932C324.158 31.8485 324.129 32.0142 324.072 32.1903C324.018 32.3646 323.936 32.5341 323.828 32.6989C323.722 32.8617 323.593 33.0038 323.442 33.125L323.078 32.8295C323.197 32.6591 323.301 32.482 323.388 32.2983C323.477 32.1127 323.521 31.9148 323.521 31.7045V31.1818H324.158ZM325.612 31.1818V31.6932C325.612 31.8485 325.584 32.0142 325.527 32.1903C325.472 32.3646 325.391 32.5341 325.283 32.6989C325.177 32.8617 325.048 33.0038 324.896 33.125L324.533 32.8295C324.652 32.6591 324.755 32.482 324.842 32.2983C324.931 32.1127 324.976 31.9148 324.976 31.7045V31.1818H325.612Z" fill="#2F2F2F"/>
<rect x="286.5" y="26.5" width="42" height="15" stroke="white"/>
<rect x="286.5" y="41.5" width="42" height="15" fill="#6BCB77" fill-opacity="0.5"/>
<path d="M307.043 48V47.4886C307.043 47.3333 307.07 47.1686 307.125 46.9943C307.182 46.8182 307.263 46.6487 307.369 46.4858C307.477 46.321 307.607 46.178 307.759 46.0568L308.122 46.3523C308.003 46.5227 307.899 46.7008 307.81 46.8864C307.723 47.0701 307.679 47.267 307.679 47.4773V48H307.043ZM308.497 48V47.4886C308.497 47.3333 308.525 47.1686 308.58 46.9943C308.636 46.8182 308.718 46.6487 308.824 46.4858C308.932 46.321 309.062 46.178 309.213 46.0568L309.577 46.3523C309.457 46.5227 309.353 46.7008 309.264 46.8864C309.177 47.0701 309.134 47.267 309.134 47.4773V48H308.497ZM310.987 46.1818V52H310.317V46.1818H310.987ZM312.215 52V47.6364H312.886V52H312.215ZM312.556 46.9091C312.425 46.9091 312.313 46.8646 312.218 46.7756C312.125 46.6866 312.079 46.5795 312.079 46.4545C312.079 46.3295 312.125 46.2225 312.218 46.1335C312.313 46.0445 312.425 46 312.556 46C312.687 46 312.799 46.0445 312.891 46.1335C312.986 46.2225 313.033 46.3295 313.033 46.4545C313.033 46.5795 312.986 46.6866 312.891 46.7756C312.799 46.8646 312.687 46.9091 312.556 46.9091ZM315.886 52.0909C315.492 52.0909 315.147 51.9972 314.849 51.8097C314.554 51.6222 314.323 51.3598 314.156 51.0227C313.991 50.6856 313.909 50.2917 313.909 49.8409C313.909 49.3864 313.991 48.9896 314.156 48.6506C314.323 48.3116 314.554 48.0483 314.849 47.8608C315.147 47.6733 315.492 47.5795 315.886 47.5795C316.28 47.5795 316.625 47.6733 316.92 47.8608C317.218 48.0483 317.449 48.3116 317.614 48.6506C317.78 48.9896 317.864 49.3864 317.864 49.8409C317.864 50.2917 317.78 50.6856 317.614 51.0227C317.449 51.3598 317.218 51.6222 316.92 51.8097C316.625 51.9972 316.28 52.0909 315.886 52.0909ZM315.886 51.4886C316.186 51.4886 316.432 51.4119 316.625 51.2585C316.818 51.1051 316.961 50.9034 317.054 50.6534C317.147 50.4034 317.193 50.1326 317.193 49.8409C317.193 49.5492 317.147 49.2775 317.054 49.0256C316.961 48.7737 316.818 48.5701 316.625 48.4148C316.432 48.2595 316.186 48.1818 315.886 48.1818C315.587 48.1818 315.341 48.2595 315.148 48.4148C314.955 48.5701 314.812 48.7737 314.719 49.0256C314.626 49.2775 314.58 49.5492 314.58 49.8409C314.58 50.1326 314.626 50.4034 314.719 50.6534C314.812 50.9034 314.955 51.1051 315.148 51.2585C315.341 51.4119 315.587 51.4886 315.886 51.4886ZM319.558 49.375V52H318.887V47.6364H319.535V48.3182H319.592C319.694 48.0966 319.849 47.9186 320.058 47.7841C320.266 47.6477 320.535 47.5795 320.864 47.5795C321.16 47.5795 321.418 47.6402 321.64 47.7614C321.862 47.8807 322.034 48.0625 322.157 48.3068C322.28 48.5492 322.342 48.8561 322.342 49.2273V52H321.671V49.2727C321.671 48.9299 321.582 48.6629 321.404 48.4716C321.226 48.2784 320.982 48.1818 320.671 48.1818C320.457 48.1818 320.266 48.2282 320.097 48.321C319.931 48.4138 319.799 48.5492 319.702 48.7273C319.606 48.9053 319.558 49.1212 319.558 49.375ZM324.158 46.1818V46.6932C324.158 46.8485 324.129 47.0142 324.072 47.1903C324.018 47.3646 323.936 47.5341 323.828 47.6989C323.722 47.8617 323.593 48.0038 323.442 48.125L323.078 47.8295C323.197 47.6591 323.301 47.482 323.388 47.2983C323.477 47.1127 323.521 46.9148 323.521 46.7045V46.1818H324.158ZM325.612 46.1818V46.6932C325.612 46.8485 325.584 47.0142 325.527 47.1903C325.472 47.3646 325.391 47.5341 325.283 47.6989C325.177 47.8617 325.048 48.0038 324.896 48.125L324.533 47.8295C324.652 47.6591 324.755 47.482 324.842 47.2983C324.931 47.1127 324.976 46.9148 324.976 46.7045V46.1818H325.612Z" fill="#2F2F2F"/>
<rect x="286.5" y="41.5" width="42" height="15" stroke="white"/>
<path d="M196.624 33.983V32.4489H205.374V33.983H196.624ZM196.624 38.1875V36.6534H205.374V38.1875H196.624Z" fill="black"/>
<rect width="36" height="61" transform="translate(108 3)" fill="white"/>
<rect x="108.5" y="3.5" width="35" height="15" fill="#FF6B6B"/>
<path d="M130.119 11.4432V14H129.091V9.63636H130.074V10.3778H130.125C130.225 10.1335 130.385 9.93939 130.605 9.79545C130.827 9.65152 131.1 9.57955 131.426 9.57955C131.727 9.57955 131.99 9.64394 132.213 9.77273C132.438 9.90152 132.613 10.0881 132.736 10.3324C132.861 10.5767 132.922 10.8731 132.92 11.2216V14H131.892V11.3807C131.892 11.089 131.816 10.8608 131.665 10.696C131.515 10.5312 131.308 10.4489 131.043 10.4489C130.863 10.4489 130.703 10.4886 130.562 10.5682C130.424 10.6458 130.315 10.7585 130.236 10.9062C130.158 11.054 130.119 11.233 130.119 11.4432ZM133.966 14V9.63636H134.963V10.3636H135.009C135.088 10.1117 135.224 9.91761 135.418 9.78125C135.613 9.64299 135.835 9.57386 136.085 9.57386C136.142 9.57386 136.205 9.5767 136.276 9.58239C136.348 9.58617 136.407 9.5928 136.455 9.60227V10.5483C136.411 10.5331 136.342 10.5199 136.247 10.5085C136.154 10.4953 136.064 10.4886 135.977 10.4886C135.79 10.4886 135.621 10.5294 135.472 10.6108C135.324 10.6903 135.207 10.8011 135.122 10.9432C135.037 11.0852 134.994 11.2491 134.994 11.4347V14H133.966ZM140.587 10.7898L139.649 10.892C139.623 10.7973 139.576 10.7083 139.51 10.625C139.446 10.5417 139.358 10.4744 139.249 10.4233C139.139 10.3722 139.004 10.3466 138.845 10.3466C138.631 10.3466 138.451 10.393 138.305 10.4858C138.161 10.5786 138.09 10.6989 138.092 10.8466C138.09 10.9735 138.137 11.0767 138.232 11.1562C138.328 11.2358 138.487 11.3011 138.709 11.3523L139.453 11.5114C139.866 11.6004 140.173 11.7415 140.374 11.9347C140.576 12.1278 140.679 12.3807 140.68 12.6932C140.679 12.9678 140.598 13.2102 140.439 13.4205C140.282 13.6288 140.063 13.7917 139.783 13.9091C139.502 14.0265 139.18 14.0852 138.817 14.0852C138.283 14.0852 137.853 13.9735 137.527 13.75C137.201 13.5246 137.007 13.2112 136.945 12.8097L137.947 12.7131C137.993 12.91 138.089 13.0587 138.237 13.1591C138.385 13.2595 138.577 13.3097 138.814 13.3097C139.058 13.3097 139.254 13.2595 139.402 13.1591C139.552 13.0587 139.626 12.9347 139.626 12.7869C139.626 12.6619 139.578 12.5587 139.482 12.4773C139.387 12.3958 139.239 12.3333 139.038 12.2898L138.294 12.1335C137.875 12.0464 137.566 11.8996 137.365 11.6932C137.164 11.4848 137.065 11.2216 137.067 10.9034C137.065 10.6345 137.138 10.4015 137.286 10.2045C137.435 10.0057 137.643 9.85227 137.908 9.74432C138.175 9.63447 138.482 9.57955 138.831 9.57955C139.342 9.57955 139.745 9.68845 140.038 9.90625C140.334 10.1241 140.517 10.4186 140.587 10.7898Z" fill="#2F2F2F"/>
<rect x="108.5" y="3.5" width="35" height="15" stroke="white"/>
<rect x="108.5" y="18.5" width="35" height="15" fill="#FF6B6B" fill-opacity="0.5"/>
<path d="M139.929 23.1818V29H139.224V23.9205H139.19L137.77 24.8636V24.1477L139.224 23.1818H139.929Z" fill="#2F2F2F"/>
<rect x="108.5" y="18.5" width="35" height="15" stroke="white"/>
<rect x="108.5" y="33.5" width="35" height="15" fill="#FF6B6B" fill-opacity="0.5"/>
<path d="M136.759 44V43.4886L138.679 41.3864C138.904 41.1402 139.09 40.9261 139.236 40.7443C139.382 40.5606 139.49 40.3883 139.56 40.2273C139.632 40.0644 139.668 39.8939 139.668 39.7159C139.668 39.5114 139.618 39.3343 139.52 39.1847C139.423 39.035 139.291 38.9195 139.122 38.8381C138.954 38.7566 138.764 38.7159 138.554 38.7159C138.33 38.7159 138.135 38.7623 137.969 38.8551C137.804 38.946 137.676 39.0739 137.585 39.2386C137.496 39.4034 137.452 39.5966 137.452 39.8182H136.781C136.781 39.4773 136.86 39.178 137.017 38.9205C137.174 38.6629 137.388 38.4621 137.659 38.3182C137.932 38.1742 138.238 38.1023 138.577 38.1023C138.918 38.1023 139.22 38.1742 139.483 38.3182C139.746 38.4621 139.953 38.6562 140.102 38.9006C140.252 39.1449 140.327 39.4167 140.327 39.7159C140.327 39.9299 140.288 40.1392 140.21 40.3438C140.134 40.5464 140.002 40.7727 139.812 41.0227C139.625 41.2708 139.365 41.5739 139.031 41.9318L137.724 43.3295V43.375H140.429V44H136.759Z" fill="#2F2F2F"/>
<rect x="108.5" y="33.5" width="35" height="15" stroke="white"/>
<rect x="108.5" y="48.5" width="35" height="15" fill="#FF6B6B" fill-opacity="0.5"/>
<path d="M138.542 59.0795C138.303 59.0758 138.065 59.0303 137.826 58.9432C137.587 58.8561 137.37 58.7093 137.173 58.5028C136.976 58.2945 136.817 58.0133 136.698 57.6591C136.579 57.303 136.519 56.8561 136.519 56.3182C136.519 55.803 136.567 55.3466 136.664 54.9489C136.761 54.5492 136.901 54.2131 137.085 53.9403C137.268 53.6657 137.49 53.4574 137.749 53.3153C138.011 53.1733 138.305 53.1023 138.633 53.1023C138.959 53.1023 139.248 53.1676 139.502 53.2983C139.758 53.4271 139.966 53.607 140.127 53.8381C140.288 54.0691 140.392 54.3352 140.44 54.6364H139.746C139.682 54.375 139.557 54.1581 139.371 53.9858C139.186 53.8134 138.94 53.7273 138.633 53.7273C138.182 53.7273 137.827 53.9233 137.567 54.3153C137.31 54.7074 137.18 55.2576 137.178 55.9659H137.224C137.33 55.8049 137.456 55.6676 137.602 55.554C137.749 55.4384 137.912 55.3494 138.09 55.2869C138.268 55.2244 138.457 55.1932 138.656 55.1932C138.989 55.1932 139.294 55.2765 139.57 55.4432C139.847 55.608 140.068 55.8362 140.235 56.1278C140.402 56.4176 140.485 56.75 140.485 57.125C140.485 57.4848 140.405 57.8144 140.244 58.1136C140.083 58.411 139.856 58.6477 139.565 58.8239C139.275 58.9981 138.934 59.0833 138.542 59.0795ZM138.542 58.4545C138.781 58.4545 138.995 58.3949 139.184 58.2756C139.375 58.1562 139.526 57.9962 139.636 57.7955C139.747 57.5947 139.803 57.3712 139.803 57.125C139.803 56.8845 139.749 56.6657 139.641 56.4688C139.535 56.2699 139.388 56.1117 139.201 55.9943C139.015 55.8769 138.803 55.8182 138.565 55.8182C138.385 55.8182 138.217 55.8542 138.062 55.9261C137.906 55.9962 137.77 56.0928 137.653 56.2159C137.537 56.339 137.446 56.4801 137.38 56.6392C137.314 56.7964 137.281 56.9621 137.281 57.1364C137.281 57.3674 137.335 57.5833 137.442 57.7841C137.552 57.9848 137.702 58.1468 137.891 58.2699C138.083 58.393 138.299 58.4545 138.542 58.4545Z" fill="#2F2F2F"/>
<rect x="108.5" y="48.5" width="35" height="15" stroke="white"/>
<rect width="43" height="61" transform="translate(143 3)" fill="white"/>
<rect x="143.5" y="3.5" width="42" height="15" fill="#6BCB77"/>
<path d="M154.979 14.0881C154.703 14.0881 154.454 14.0388 154.232 13.9403C154.013 13.84 153.838 13.6922 153.71 13.4972C153.583 13.3021 153.519 13.0616 153.519 12.7756C153.519 12.5294 153.565 12.3258 153.656 12.1648C153.746 12.0038 153.871 11.875 154.028 11.7784C154.185 11.6818 154.362 11.6089 154.559 11.5597C154.758 11.5085 154.963 11.4716 155.175 11.4489C155.431 11.4223 155.638 11.3987 155.798 11.3778C155.957 11.3551 156.072 11.321 156.144 11.2756C156.218 11.2282 156.255 11.1553 156.255 11.0568V11.0398C156.255 10.8258 156.192 10.66 156.065 10.5426C155.938 10.4252 155.755 10.3665 155.516 10.3665C155.264 10.3665 155.065 10.4214 154.917 10.5312C154.771 10.6411 154.673 10.7708 154.621 10.9205L153.661 10.7841C153.737 10.5189 153.862 10.2973 154.036 10.1193C154.21 9.93939 154.424 9.80492 154.675 9.71591C154.927 9.625 155.206 9.57955 155.511 9.57955C155.721 9.57955 155.93 9.60417 156.138 9.65341C156.347 9.70265 156.537 9.78409 156.71 9.89773C156.882 10.0095 157.02 10.1619 157.124 10.3551C157.23 10.5483 157.283 10.7898 157.283 11.0795V14H156.295V13.4006H156.261C156.198 13.5218 156.11 13.6354 155.996 13.7415C155.885 13.8456 155.744 13.9299 155.573 13.9943C155.405 14.0568 155.207 14.0881 154.979 14.0881ZM155.246 13.3324C155.453 13.3324 155.632 13.2917 155.783 13.2102C155.935 13.1269 156.051 13.017 156.133 12.8807C156.216 12.7443 156.258 12.5956 156.258 12.4347V11.9205C156.226 11.947 156.171 11.9716 156.093 11.9943C156.017 12.017 155.932 12.0369 155.837 12.054C155.743 12.071 155.649 12.0862 155.556 12.0994C155.463 12.1127 155.383 12.1241 155.315 12.1335C155.161 12.1544 155.024 12.1884 154.903 12.2358C154.781 12.2831 154.686 12.3494 154.616 12.4347C154.546 12.518 154.511 12.6259 154.511 12.7585C154.511 12.9479 154.58 13.0909 154.718 13.1875C154.856 13.2841 155.032 13.3324 155.246 13.3324ZM159.346 11.4432V14H158.317V9.63636H159.3V10.3778H159.352C159.452 10.1335 159.612 9.93939 159.832 9.79545C160.053 9.65152 160.327 9.57955 160.653 9.57955C160.954 9.57955 161.216 9.64394 161.44 9.77273C161.665 9.90152 161.839 10.0881 161.962 10.3324C162.087 10.5767 162.149 10.8731 162.147 11.2216V14H161.119V11.3807C161.119 11.089 161.043 10.8608 160.891 10.696C160.742 10.5312 160.534 10.4489 160.269 10.4489C160.089 10.4489 159.929 10.4886 159.789 10.5682C159.651 10.6458 159.542 10.7585 159.462 10.9062C159.385 11.054 159.346 11.233 159.346 11.4432ZM163.192 14V9.63636H164.221V14H163.192ZM163.71 9.01705C163.547 9.01705 163.406 8.96307 163.289 8.85511C163.172 8.74526 163.113 8.61364 163.113 8.46023C163.113 8.30492 163.172 8.1733 163.289 8.06534C163.406 7.95549 163.547 7.90057 163.71 7.90057C163.874 7.90057 164.014 7.95549 164.13 8.06534C164.247 8.1733 164.306 8.30492 164.306 8.46023C164.306 8.61364 164.247 8.74526 164.13 8.85511C164.014 8.96307 163.874 9.01705 163.71 9.01705ZM165.278 14V9.63636H166.261V10.3778H166.312C166.403 10.1278 166.554 9.93277 166.764 9.79261C166.974 9.65057 167.225 9.57955 167.517 9.57955C167.812 9.57955 168.062 9.65152 168.264 9.79545C168.469 9.9375 168.613 10.1316 168.696 10.3778H168.741C168.838 10.1354 169.001 9.94223 169.23 9.7983C169.461 9.65246 169.735 9.57955 170.051 9.57955C170.453 9.57955 170.78 9.70644 171.034 9.96023C171.288 10.214 171.415 10.5843 171.415 11.071V14H170.384V11.2301C170.384 10.9593 170.312 10.7614 170.168 10.6364C170.024 10.5095 169.848 10.446 169.639 10.446C169.391 10.446 169.197 10.5237 169.057 10.679C168.919 10.8324 168.849 11.0322 168.849 11.2784V14H167.841V11.1875C167.841 10.9621 167.773 10.7822 167.636 10.6477C167.502 10.5133 167.326 10.446 167.108 10.446C166.96 10.446 166.826 10.4839 166.705 10.5597C166.583 10.6335 166.487 10.7386 166.415 10.875C166.343 11.0095 166.307 11.1667 166.307 11.3466V14H165.278ZM173.714 14.0881C173.437 14.0881 173.188 14.0388 172.967 13.9403C172.747 13.84 172.573 13.6922 172.444 13.4972C172.317 13.3021 172.254 13.0616 172.254 12.7756C172.254 12.5294 172.299 12.3258 172.39 12.1648C172.481 12.0038 172.605 11.875 172.762 11.7784C172.919 11.6818 173.096 11.6089 173.293 11.5597C173.492 11.5085 173.698 11.4716 173.91 11.4489C174.165 11.4223 174.373 11.3987 174.532 11.3778C174.691 11.3551 174.807 11.321 174.879 11.2756C174.952 11.2282 174.989 11.1553 174.989 11.0568V11.0398C174.989 10.8258 174.926 10.66 174.799 10.5426C174.672 10.4252 174.489 10.3665 174.251 10.3665C173.999 10.3665 173.799 10.4214 173.651 10.5312C173.505 10.6411 173.407 10.7708 173.356 10.9205L172.396 10.7841C172.471 10.5189 172.596 10.2973 172.771 10.1193C172.945 9.93939 173.158 9.80492 173.41 9.71591C173.662 9.625 173.94 9.57955 174.245 9.57955C174.455 9.57955 174.665 9.60417 174.873 9.65341C175.081 9.70265 175.272 9.78409 175.444 9.89773C175.616 10.0095 175.754 10.1619 175.859 10.3551C175.965 10.5483 176.018 10.7898 176.018 11.0795V14H175.029V13.4006H174.995C174.933 13.5218 174.844 13.6354 174.731 13.7415C174.619 13.8456 174.478 13.9299 174.308 13.9943C174.139 14.0568 173.941 14.0881 173.714 14.0881ZM173.981 13.3324C174.187 13.3324 174.366 13.2917 174.518 13.2102C174.669 13.1269 174.786 13.017 174.867 12.8807C174.951 12.7443 174.992 12.5956 174.992 12.4347V11.9205C174.96 11.947 174.905 11.9716 174.827 11.9943C174.752 12.017 174.666 12.0369 174.572 12.054C174.477 12.071 174.383 12.0862 174.29 12.0994C174.198 12.1127 174.117 12.1241 174.049 12.1335C173.896 12.1544 173.758 12.1884 173.637 12.2358C173.516 12.2831 173.42 12.3494 173.35 12.4347C173.28 12.518 173.245 12.6259 173.245 12.7585C173.245 12.9479 173.314 13.0909 173.452 13.1875C173.591 13.2841 173.767 13.3324 173.981 13.3324ZM178.08 8.18182V14H177.052V8.18182H178.08ZM182.587 10.7898L181.649 10.892C181.623 10.7973 181.576 10.7083 181.51 10.625C181.446 10.5417 181.358 10.4744 181.249 10.4233C181.139 10.3722 181.004 10.3466 180.845 10.3466C180.631 10.3466 180.451 10.393 180.305 10.4858C180.161 10.5786 180.09 10.6989 180.092 10.8466C180.09 10.9735 180.137 11.0767 180.232 11.1562C180.328 11.2358 180.487 11.3011 180.709 11.3523L181.453 11.5114C181.866 11.6004 182.173 11.7415 182.374 11.9347C182.576 12.1278 182.679 12.3807 182.68 12.6932C182.679 12.9678 182.598 13.2102 182.439 13.4205C182.282 13.6288 182.063 13.7917 181.783 13.9091C181.502 14.0265 181.18 14.0852 180.817 14.0852C180.283 14.0852 179.853 13.9735 179.527 13.75C179.201 13.5246 179.007 13.2112 178.945 12.8097L179.947 12.7131C179.993 12.91 180.089 13.0587 180.237 13.1591C180.385 13.2595 180.577 13.3097 180.814 13.3097C181.058 13.3097 181.254 13.2595 181.402 13.1591C181.552 13.0587 181.626 12.9347 181.626 12.7869C181.626 12.6619 181.578 12.5587 181.482 12.4773C181.387 12.3958 181.239 12.3333 181.038 12.2898L180.294 12.1335C179.875 12.0464 179.566 11.8996 179.365 11.6932C179.164 11.4848 179.065 11.2216 179.067 10.9034C179.065 10.6345 179.138 10.4015 179.286 10.2045C179.435 10.0057 179.643 9.85227 179.908 9.74432C180.175 9.63447 180.482 9.57955 180.831 9.57955C181.342 9.57955 181.745 9.68845 182.038 9.90625C182.334 10.1241 182.517 10.4186 182.587 10.7898Z" fill="#2F2F2F"/>
<rect x="143.5" y="3.5" width="42" height="15" stroke="white"/>
<rect x="143.5" y="18.5" width="42" height="15" fill="#6BCB77" fill-opacity="0.5"/>
<path d="M146.644 25V24.4886C146.644 24.3333 146.672 24.1686 146.727 23.9943C146.783 23.8182 146.865 23.6487 146.971 23.4858C147.079 23.321 147.209 23.178 147.36 23.0568L147.724 23.3523C147.604 23.5227 147.5 23.7008 147.411 23.8864C147.324 24.0701 147.281 24.267 147.281 24.4773V25H146.644ZM148.099 25V24.4886C148.099 24.3333 148.126 24.1686 148.181 23.9943C148.238 23.8182 148.319 23.6487 148.425 23.4858C148.533 23.321 148.663 23.178 148.815 23.0568L149.178 23.3523C149.059 23.5227 148.955 23.7008 148.866 23.8864C148.779 24.0701 148.735 24.267 148.735 24.4773V25H148.099ZM151.691 29.0909C151.282 29.0909 150.93 28.9943 150.634 28.8011C150.339 28.608 150.112 28.3419 149.952 28.0028C149.793 27.6638 149.714 27.2765 149.714 26.8409C149.714 26.3977 149.795 26.0066 149.958 25.6676C150.123 25.3267 150.352 25.0606 150.646 24.8693C150.941 24.6761 151.286 24.5795 151.68 24.5795C151.987 24.5795 152.263 24.6364 152.509 24.75C152.755 24.8636 152.957 25.0227 153.114 25.2273C153.272 25.4318 153.369 25.6705 153.407 25.9432H152.737C152.685 25.7443 152.572 25.5682 152.396 25.4148C152.221 25.2595 151.987 25.1818 151.691 25.1818C151.43 25.1818 151.201 25.25 151.004 25.3864C150.808 25.5208 150.656 25.7112 150.546 25.9574C150.438 26.2017 150.384 26.4886 150.384 26.8182C150.384 27.1553 150.437 27.4489 150.543 27.6989C150.651 27.9489 150.803 28.143 150.998 28.2812C151.195 28.4195 151.426 28.4886 151.691 28.4886C151.865 28.4886 152.023 28.4583 152.165 28.3977C152.308 28.3371 152.428 28.25 152.526 28.1364C152.625 28.0227 152.695 27.8864 152.737 27.7273H153.407C153.369 27.9848 153.275 28.2169 153.126 28.4233C152.978 28.6278 152.782 28.7907 152.538 28.9119C152.295 29.0312 152.013 29.0909 151.691 29.0909ZM155.058 26.375V29H154.387V23.1818H155.058V25.3182H155.114C155.217 25.0928 155.37 24.9138 155.575 24.7812C155.781 24.6468 156.056 24.5795 156.398 24.5795C156.696 24.5795 156.956 24.6392 157.18 24.7585C157.403 24.8759 157.576 25.0568 157.7 25.3011C157.825 25.5436 157.887 25.8523 157.887 26.2273V29H157.217V26.2727C157.217 25.9261 157.127 25.6581 156.947 25.4688C156.769 25.2775 156.522 25.1818 156.205 25.1818C155.986 25.1818 155.789 25.2282 155.614 25.321C155.442 25.4138 155.306 25.5492 155.205 25.7273C155.107 25.9053 155.058 26.1212 155.058 26.375ZM160.943 29.0909C160.523 29.0909 160.16 28.9981 159.855 28.8125C159.552 28.625 159.318 28.3636 159.153 28.0284C158.991 27.6913 158.909 27.2992 158.909 26.8523C158.909 26.4053 158.991 26.0114 159.153 25.6705C159.318 25.3277 159.547 25.0606 159.841 24.8693C160.136 24.6761 160.481 24.5795 160.875 24.5795C161.102 24.5795 161.327 24.6174 161.548 24.6932C161.77 24.7689 161.972 24.892 162.153 25.0625C162.335 25.2311 162.48 25.4545 162.588 25.733C162.696 26.0114 162.75 26.3542 162.75 26.7614V27.0455H159.386V26.4659H162.068C162.068 26.2197 162.019 26 161.92 25.8068C161.824 25.6136 161.686 25.4612 161.506 25.3494C161.328 25.2377 161.117 25.1818 160.875 25.1818C160.608 25.1818 160.377 25.2481 160.182 25.3807C159.989 25.5114 159.84 25.6818 159.736 25.892C159.632 26.1023 159.58 26.3277 159.58 26.5682V26.9545C159.58 27.2841 159.636 27.5634 159.75 27.7926C159.866 28.0199 160.026 28.1932 160.23 28.3125C160.435 28.4299 160.672 28.4886 160.943 28.4886C161.119 28.4886 161.278 28.464 161.42 28.4148C161.564 28.3636 161.688 28.2879 161.793 28.1875C161.897 28.0852 161.977 27.9583 162.034 27.8068L162.682 27.9886C162.614 28.2083 162.499 28.4015 162.338 28.5682C162.177 28.733 161.978 28.8617 161.741 28.9545C161.505 29.0455 161.239 29.0909 160.943 29.0909ZM165.599 29.0909C165.179 29.0909 164.816 28.9981 164.511 28.8125C164.208 28.625 163.974 28.3636 163.81 28.0284C163.647 27.6913 163.565 27.2992 163.565 26.8523C163.565 26.4053 163.647 26.0114 163.81 25.6705C163.974 25.3277 164.204 25.0606 164.497 24.8693C164.793 24.6761 165.137 24.5795 165.531 24.5795C165.759 24.5795 165.983 24.6174 166.205 24.6932C166.426 24.7689 166.628 24.892 166.81 25.0625C166.991 25.2311 167.136 25.4545 167.244 25.733C167.352 26.0114 167.406 26.3542 167.406 26.7614V27.0455H164.043V26.4659H166.724C166.724 26.2197 166.675 26 166.577 25.8068C166.48 25.6136 166.342 25.4612 166.162 25.3494C165.984 25.2377 165.774 25.1818 165.531 25.1818C165.264 25.1818 165.033 25.2481 164.838 25.3807C164.645 25.5114 164.496 25.6818 164.392 25.892C164.288 26.1023 164.236 26.3277 164.236 26.5682V26.9545C164.236 27.2841 164.293 27.5634 164.406 27.7926C164.522 28.0199 164.682 28.1932 164.886 28.3125C165.091 28.4299 165.329 28.4886 165.599 28.4886C165.776 28.4886 165.935 28.464 166.077 28.4148C166.221 28.3636 166.345 28.2879 166.449 28.1875C166.553 28.0852 166.634 27.9583 166.69 27.8068L167.338 27.9886C167.27 28.2083 167.155 28.4015 166.994 28.5682C166.833 28.733 166.634 28.8617 166.398 28.9545C166.161 29.0455 165.895 29.0909 165.599 29.0909ZM170.324 24.6364V25.2045H168.062V24.6364H170.324ZM168.722 23.5909H169.392V27.75C169.392 27.9394 169.42 28.0814 169.474 28.1761C169.531 28.2689 169.603 28.3314 169.69 28.3636C169.779 28.3939 169.873 28.4091 169.972 28.4091C170.045 28.4091 170.106 28.4053 170.153 28.3977C170.201 28.3883 170.239 28.3807 170.267 28.375L170.403 28.9773C170.358 28.9943 170.295 29.0114 170.213 29.0284C170.132 29.0473 170.028 29.0568 169.903 29.0568C169.714 29.0568 169.528 29.0161 169.347 28.9347C169.167 28.8532 169.017 28.7292 168.898 28.5625C168.78 28.3958 168.722 28.1856 168.722 27.9318V23.5909ZM172.616 29.1023C172.34 29.1023 172.089 29.0502 171.864 28.946C171.638 28.84 171.459 28.6875 171.327 28.4886C171.194 28.2879 171.128 28.0455 171.128 27.7614C171.128 27.5114 171.177 27.3087 171.276 27.1534C171.374 26.9962 171.506 26.8731 171.67 26.7841C171.835 26.6951 172.017 26.6288 172.216 26.5852C172.417 26.5398 172.618 26.5038 172.821 26.4773C173.086 26.4432 173.301 26.4176 173.466 26.4006C173.633 26.3816 173.754 26.3504 173.83 26.3068C173.907 26.2633 173.946 26.1875 173.946 26.0795V26.0568C173.946 25.7765 173.869 25.5587 173.716 25.4034C173.564 25.2481 173.334 25.1705 173.026 25.1705C172.705 25.1705 172.455 25.2405 172.273 25.3807C172.091 25.5208 171.963 25.6705 171.889 25.8295L171.253 25.6023C171.366 25.3371 171.518 25.1307 171.707 24.983C171.899 24.8333 172.107 24.7292 172.332 24.6705C172.56 24.6098 172.783 24.5795 173.003 24.5795C173.143 24.5795 173.304 24.5966 173.486 24.6307C173.67 24.6629 173.847 24.7301 174.017 24.8324C174.189 24.9347 174.332 25.089 174.446 25.2955C174.56 25.5019 174.616 25.7784 174.616 26.125V29H173.946V28.4091H173.912C173.866 28.5038 173.791 28.6051 173.685 28.7131C173.579 28.821 173.438 28.9129 173.261 28.9886C173.085 29.0644 172.87 29.1023 172.616 29.1023ZM172.719 28.5C172.984 28.5 173.207 28.4479 173.389 28.3438C173.573 28.2396 173.711 28.1051 173.804 27.9403C173.899 27.7756 173.946 27.6023 173.946 27.4205V26.8068C173.918 26.8409 173.855 26.8722 173.759 26.9006C173.664 26.9271 173.554 26.9508 173.429 26.9716C173.306 26.9905 173.186 27.0076 173.068 27.0227C172.953 27.036 172.859 27.0473 172.787 27.0568C172.613 27.0795 172.45 27.1165 172.298 27.1676C172.149 27.2169 172.027 27.2917 171.935 27.392C171.844 27.4905 171.798 27.625 171.798 27.7955C171.798 28.0284 171.884 28.2045 172.057 28.3239C172.231 28.4413 172.452 28.5 172.719 28.5ZM176.511 26.375V29H175.84V23.1818H176.511V25.3182H176.567C176.67 25.0928 176.823 24.9138 177.028 24.7812C177.234 24.6468 177.509 24.5795 177.852 24.5795C178.149 24.5795 178.409 24.6392 178.633 24.7585C178.856 24.8759 179.03 25.0568 179.153 25.3011C179.278 25.5436 179.34 25.8523 179.34 26.2273V29H178.67V26.2727C178.67 25.9261 178.58 25.6581 178.4 25.4688C178.222 25.2775 177.975 25.1818 177.658 25.1818C177.439 25.1818 177.242 25.2282 177.067 25.321C176.895 25.4138 176.759 25.5492 176.658 25.7273C176.56 25.9053 176.511 26.1212 176.511 26.375ZM181.158 23.1818V23.6932C181.158 23.8485 181.129 24.0142 181.072 24.1903C181.018 24.3646 180.936 24.5341 180.828 24.6989C180.722 24.8617 180.593 25.0038 180.442 25.125L180.078 24.8295C180.197 24.6591 180.301 24.482 180.388 24.2983C180.477 24.1127 180.521 23.9148 180.521 23.7045V23.1818H181.158ZM182.612 23.1818V23.6932C182.612 23.8485 182.584 24.0142 182.527 24.1903C182.472 24.3646 182.391 24.5341 182.283 24.6989C182.177 24.8617 182.048 25.0038 181.896 25.125L181.533 24.8295C181.652 24.6591 181.755 24.482 181.842 24.2983C181.931 24.1127 181.976 23.9148 181.976 23.7045V23.1818H182.612Z" fill="#2F2F2F"/>
<rect x="143.5" y="18.5" width="42" height="15" stroke="white"/>
<rect x="143.5" y="33.5" width="42" height="15" fill="#6BCB77" fill-opacity="0.5"/>
<path d="M164.043 40V39.4886C164.043 39.3333 164.07 39.1686 164.125 38.9943C164.182 38.8182 164.263 38.6487 164.369 38.4858C164.477 38.321 164.607 38.178 164.759 38.0568L165.122 38.3523C165.003 38.5227 164.899 38.7008 164.81 38.8864C164.723 39.0701 164.679 39.267 164.679 39.4773V40H164.043ZM165.497 40V39.4886C165.497 39.3333 165.525 39.1686 165.58 38.9943C165.636 38.8182 165.718 38.6487 165.824 38.4858C165.932 38.321 166.062 38.178 166.213 38.0568L166.577 38.3523C166.457 38.5227 166.353 38.7008 166.264 38.8864C166.177 39.0701 166.134 39.267 166.134 39.4773V40H165.497ZM167.987 38.1818V44H167.317V38.1818H167.987ZM169.215 44V39.6364H169.886V44H169.215ZM169.556 38.9091C169.425 38.9091 169.313 38.8646 169.218 38.7756C169.125 38.6866 169.079 38.5795 169.079 38.4545C169.079 38.3295 169.125 38.2225 169.218 38.1335C169.313 38.0445 169.425 38 169.556 38C169.687 38 169.799 38.0445 169.891 38.1335C169.986 38.2225 170.033 38.3295 170.033 38.4545C170.033 38.5795 169.986 38.6866 169.891 38.7756C169.799 38.8646 169.687 38.9091 169.556 38.9091ZM172.886 44.0909C172.492 44.0909 172.147 43.9972 171.849 43.8097C171.554 43.6222 171.323 43.3598 171.156 43.0227C170.991 42.6856 170.909 42.2917 170.909 41.8409C170.909 41.3864 170.991 40.9896 171.156 40.6506C171.323 40.3116 171.554 40.0483 171.849 39.8608C172.147 39.6733 172.492 39.5795 172.886 39.5795C173.28 39.5795 173.625 39.6733 173.92 39.8608C174.218 40.0483 174.449 40.3116 174.614 40.6506C174.78 40.9896 174.864 41.3864 174.864 41.8409C174.864 42.2917 174.78 42.6856 174.614 43.0227C174.449 43.3598 174.218 43.6222 173.92 43.8097C173.625 43.9972 173.28 44.0909 172.886 44.0909ZM172.886 43.4886C173.186 43.4886 173.432 43.4119 173.625 43.2585C173.818 43.1051 173.961 42.9034 174.054 42.6534C174.147 42.4034 174.193 42.1326 174.193 41.8409C174.193 41.5492 174.147 41.2775 174.054 41.0256C173.961 40.7737 173.818 40.5701 173.625 40.4148C173.432 40.2595 173.186 40.1818 172.886 40.1818C172.587 40.1818 172.341 40.2595 172.148 40.4148C171.955 40.5701 171.812 40.7737 171.719 41.0256C171.626 41.2775 171.58 41.5492 171.58 41.8409C171.58 42.1326 171.626 42.4034 171.719 42.6534C171.812 42.9034 171.955 43.1051 172.148 43.2585C172.341 43.4119 172.587 43.4886 172.886 43.4886ZM176.558 41.375V44H175.887V39.6364H176.535V40.3182H176.592C176.694 40.0966 176.849 39.9186 177.058 39.7841C177.266 39.6477 177.535 39.5795 177.864 39.5795C178.16 39.5795 178.418 39.6402 178.64 39.7614C178.862 39.8807 179.034 40.0625 179.157 40.3068C179.28 40.5492 179.342 40.8561 179.342 41.2273V44H178.671V41.2727C178.671 40.9299 178.582 40.6629 178.404 40.4716C178.226 40.2784 177.982 40.1818 177.671 40.1818C177.457 40.1818 177.266 40.2282 177.097 40.321C176.931 40.4138 176.799 40.5492 176.702 40.7273C176.606 40.9053 176.558 41.1212 176.558 41.375ZM181.158 38.1818V38.6932C181.158 38.8485 181.129 39.0142 181.072 39.1903C181.018 39.3646 180.936 39.5341 180.828 39.6989C180.722 39.8617 180.593 40.0038 180.442 40.125L180.078 39.8295C180.197 39.6591 180.301 39.482 180.388 39.2983C180.477 39.1127 180.521 38.9148 180.521 38.7045V38.1818H181.158ZM182.612 38.1818V38.6932C182.612 38.8485 182.584 39.0142 182.527 39.1903C182.472 39.3646 182.391 39.5341 182.283 39.6989C182.177 39.8617 182.048 40.0038 181.896 40.125L181.533 39.8295C181.652 39.6591 181.755 39.482 181.842 39.2983C181.931 39.1127 181.976 38.9148 181.976 38.7045V38.1818H182.612Z" fill="#2F2F2F"/>
<rect x="143.5" y="33.5" width="42" height="15" stroke="white"/>
<rect x="143.5" y="48.5" width="42" height="15" fill="#6BCB77" fill-opacity="0.5"/>
<path d="M159.847 55V54.4886C159.847 54.3333 159.875 54.1686 159.93 53.9943C159.987 53.8182 160.068 53.6487 160.174 53.4858C160.282 53.321 160.412 53.178 160.563 53.0568L160.927 53.3523C160.808 53.5227 160.703 53.7008 160.614 53.8864C160.527 54.0701 160.484 54.267 160.484 54.4773V55H159.847ZM161.302 55V54.4886C161.302 54.3333 161.329 54.1686 161.384 53.9943C161.441 53.8182 161.522 53.6487 161.629 53.4858C161.737 53.321 161.866 53.178 162.018 53.0568L162.381 53.3523C162.262 53.5227 162.158 53.7008 162.069 53.8864C161.982 54.0701 161.938 54.267 161.938 54.4773V55H161.302ZM165.019 54.6364V55.2045H162.758V54.6364H165.019ZM163.417 53.5909H164.087V57.75C164.087 57.9394 164.115 58.0814 164.17 58.1761C164.227 58.2689 164.299 58.3314 164.386 58.3636C164.475 58.3939 164.568 58.4091 164.667 58.4091C164.741 58.4091 164.801 58.4053 164.849 58.3977C164.896 58.3883 164.934 58.3807 164.962 58.375L165.099 58.9773C165.053 58.9943 164.99 59.0114 164.908 59.0284C164.827 59.0473 164.724 59.0568 164.599 59.0568C164.409 59.0568 164.224 59.0161 164.042 58.9347C163.862 58.8532 163.712 58.7292 163.593 58.5625C163.476 58.3958 163.417 58.1856 163.417 57.9318V53.5909ZM166.028 59V54.6364H166.698V59H166.028ZM166.369 53.9091C166.238 53.9091 166.125 53.8646 166.031 53.7756C165.938 53.6866 165.891 53.5795 165.891 53.4545C165.891 53.3295 165.938 53.2225 166.031 53.1335C166.125 53.0445 166.238 53 166.369 53C166.499 53 166.611 53.0445 166.704 53.1335C166.799 53.2225 166.846 53.3295 166.846 53.4545C166.846 53.5795 166.799 53.6866 166.704 53.7756C166.611 53.8646 166.499 53.9091 166.369 53.9091ZM169.688 60.7273C169.364 60.7273 169.085 60.6856 168.852 60.6023C168.619 60.5208 168.425 60.4129 168.27 60.2784C168.116 60.1458 167.994 60.0038 167.903 59.8523L168.438 59.4773C168.498 59.5568 168.575 59.6477 168.668 59.75C168.76 59.8542 168.887 59.9441 169.048 60.0199C169.211 60.0975 169.424 60.1364 169.688 60.1364C170.04 60.1364 170.33 60.0511 170.56 59.8807C170.789 59.7102 170.903 59.4432 170.903 59.0795V58.1932H170.847C170.797 58.2727 170.727 58.3712 170.636 58.4886C170.547 58.6042 170.419 58.7074 170.25 58.7983C170.083 58.8873 169.858 58.9318 169.574 58.9318C169.222 58.9318 168.905 58.8485 168.625 58.6818C168.347 58.5152 168.126 58.2727 167.963 57.9545C167.802 57.6364 167.722 57.25 167.722 56.7955C167.722 56.3485 167.8 55.9593 167.957 55.6278C168.115 55.2945 168.333 55.0369 168.614 54.8551C168.894 54.6714 169.218 54.5795 169.585 54.5795C169.869 54.5795 170.095 54.6269 170.261 54.7216C170.43 54.8144 170.559 54.9205 170.648 55.0398C170.739 55.1572 170.809 55.2538 170.858 55.3295H170.926V54.6364H171.574V59.125C171.574 59.5 171.489 59.8049 171.318 60.0398C171.15 60.2765 170.922 60.4498 170.636 60.5597C170.352 60.6714 170.036 60.7273 169.688 60.7273ZM169.665 58.3295C169.934 58.3295 170.161 58.268 170.347 58.1449C170.532 58.0218 170.673 57.8447 170.77 57.6136C170.866 57.3826 170.915 57.1061 170.915 56.7841C170.915 56.4697 170.867 56.1922 170.773 55.9517C170.678 55.7112 170.538 55.5227 170.352 55.3864C170.167 55.25 169.938 55.1818 169.665 55.1818C169.381 55.1818 169.144 55.2538 168.955 55.3977C168.767 55.5417 168.626 55.7348 168.531 55.9773C168.438 56.2197 168.392 56.4886 168.392 56.7841C168.392 57.0871 168.439 57.3551 168.534 57.5881C168.631 57.8191 168.773 58.0009 168.96 58.1335C169.15 58.2642 169.384 58.3295 169.665 58.3295ZM174.631 59.0909C174.21 59.0909 173.848 58.9981 173.543 58.8125C173.24 58.625 173.006 58.3636 172.841 58.0284C172.678 57.6913 172.597 57.2992 172.597 56.8523C172.597 56.4053 172.678 56.0114 172.841 55.6705C173.006 55.3277 173.235 55.0606 173.528 54.8693C173.824 54.6761 174.169 54.5795 174.562 54.5795C174.79 54.5795 175.014 54.6174 175.236 54.6932C175.457 54.7689 175.659 54.892 175.841 55.0625C176.023 55.2311 176.168 55.4545 176.276 55.733C176.384 56.0114 176.438 56.3542 176.438 56.7614V57.0455H173.074V56.4659H175.756C175.756 56.2197 175.706 56 175.608 55.8068C175.511 55.6136 175.373 55.4612 175.193 55.3494C175.015 55.2377 174.805 55.1818 174.562 55.1818C174.295 55.1818 174.064 55.2481 173.869 55.3807C173.676 55.5114 173.527 55.6818 173.423 55.892C173.319 56.1023 173.267 56.3277 173.267 56.5682V56.9545C173.267 57.2841 173.324 57.5634 173.438 57.7926C173.553 58.0199 173.713 58.1932 173.918 58.3125C174.122 58.4299 174.36 58.4886 174.631 58.4886C174.807 58.4886 174.966 58.464 175.108 58.4148C175.252 58.3636 175.376 58.2879 175.48 58.1875C175.584 58.0852 175.665 57.9583 175.722 57.8068L176.369 57.9886C176.301 58.2083 176.187 58.4015 176.026 58.5682C175.865 58.733 175.666 58.8617 175.429 58.9545C175.192 59.0455 174.926 59.0909 174.631 59.0909ZM177.457 59V54.6364H178.105V55.2955H178.151C178.23 55.0795 178.374 54.9044 178.582 54.7699C178.791 54.6354 179.026 54.5682 179.287 54.5682C179.336 54.5682 179.398 54.5691 179.472 54.571C179.545 54.5729 179.601 54.5758 179.639 54.5795V55.2614C179.616 55.2557 179.564 55.2472 179.483 55.2358C179.403 55.2225 179.319 55.2159 179.23 55.2159C179.018 55.2159 178.829 55.2604 178.662 55.3494C178.497 55.4366 178.366 55.5578 178.27 55.7131C178.175 55.8665 178.128 56.0417 178.128 56.2386V59H177.457ZM181.158 53.1818V53.6932C181.158 53.8485 181.129 54.0142 181.072 54.1903C181.018 54.3646 180.936 54.5341 180.828 54.6989C180.722 54.8617 180.593 55.0038 180.442 55.125L180.078 54.8295C180.197 54.6591 180.301 54.482 180.388 54.2983C180.477 54.1127 180.521 53.9148 180.521 53.7045V53.1818H181.158ZM182.612 53.1818V53.6932C182.612 53.8485 182.584 54.0142 182.527 54.1903C182.472 54.3646 182.391 54.5341 182.283 54.6989C182.177 54.8617 182.048 55.0038 181.896 55.125L181.533 54.8295C181.652 54.6591 181.755 54.482 181.842 54.2983C181.931 54.1127 181.976 53.9148 181.976 53.7045V53.1818H182.612Z" fill="#2F2F2F"/>
<rect x="143.5" y="48.5" width="42" height="15" stroke="white"/>
<rect width="36" height="61" transform="translate(4 3)" fill="white"/>
<rect x="4.5" y="3.5" width="35" height="15" fill="#FF6B6B"/>
<path d="M26.1193 11.4432V14H25.0909V9.63636H26.0739V10.3778H26.125C26.2254 10.1335 26.3854 9.93939 26.6051 9.79545C26.8267 9.65152 27.1004 9.57955 27.4261 9.57955C27.7273 9.57955 27.9896 9.64394 28.2131 9.77273C28.4384 9.90152 28.6127 10.0881 28.7358 10.3324C28.8608 10.5767 28.9223 10.8731 28.9205 11.2216V14H27.892V11.3807C27.892 11.089 27.8163 10.8608 27.6648 10.696C27.5152 10.5312 27.3078 10.4489 27.0426 10.4489C26.8627 10.4489 26.7027 10.4886 26.5625 10.5682C26.4242 10.6458 26.3153 10.7585 26.2358 10.9062C26.1581 11.054 26.1193 11.233 26.1193 11.4432ZM29.9659 14V9.63636H30.9631V10.3636H31.0085C31.0881 10.1117 31.2244 9.91761 31.4176 9.78125C31.6127 9.64299 31.8352 9.57386 32.0852 9.57386C32.142 9.57386 32.2055 9.5767 32.2756 9.58239C32.3475 9.58617 32.4072 9.5928 32.4545 9.60227V10.5483C32.411 10.5331 32.3419 10.5199 32.2472 10.5085C32.1544 10.4953 32.0644 10.4886 31.9773 10.4886C31.7898 10.4886 31.6212 10.5294 31.4716 10.6108C31.3239 10.6903 31.2074 10.8011 31.1222 10.9432C31.0369 11.0852 30.9943 11.2491 30.9943 11.4347V14H29.9659ZM36.5866 10.7898L35.6491 10.892C35.6226 10.7973 35.5762 10.7083 35.5099 10.625C35.4455 10.5417 35.3584 10.4744 35.2486 10.4233C35.1387 10.3722 35.0043 10.3466 34.8452 10.3466C34.6312 10.3466 34.4512 10.393 34.3054 10.4858C34.1615 10.5786 34.0904 10.6989 34.0923 10.8466C34.0904 10.9735 34.1368 11.0767 34.2315 11.1562C34.3281 11.2358 34.4872 11.3011 34.7088 11.3523L35.4531 11.5114C35.866 11.6004 36.1728 11.7415 36.3736 11.9347C36.5762 12.1278 36.6785 12.3807 36.6804 12.6932C36.6785 12.9678 36.598 13.2102 36.4389 13.4205C36.2817 13.6288 36.063 13.7917 35.7827 13.9091C35.5024 14.0265 35.1804 14.0852 34.8168 14.0852C34.2827 14.0852 33.8527 13.9735 33.527 13.75C33.2012 13.5246 33.0071 13.2112 32.9446 12.8097L33.9474 12.7131C33.9929 12.91 34.0895 13.0587 34.2372 13.1591C34.3849 13.2595 34.5772 13.3097 34.8139 13.3097C35.0582 13.3097 35.2543 13.2595 35.402 13.1591C35.5516 13.0587 35.6264 12.9347 35.6264 12.7869C35.6264 12.6619 35.5781 12.5587 35.4815 12.4773C35.3868 12.3958 35.2391 12.3333 35.0384 12.2898L34.294 12.1335C33.8755 12.0464 33.5658 11.8996 33.3651 11.6932C33.1643 11.4848 33.0649 11.2216 33.0668 10.9034C33.0649 10.6345 33.1378 10.4015 33.2855 10.2045C33.4351 10.0057 33.6425 9.85227 33.9077 9.74432C34.1747 9.63447 34.4825 9.57955 34.831 9.57955C35.3423 9.57955 35.7448 9.68845 36.0384 9.90625C36.3338 10.1241 36.5166 10.4186 36.5866 10.7898Z" fill="#2F2F2F"/>
<rect x="4.5" y="3.5" width="35" height="15" stroke="white"/>
<rect x="4.5" y="18.5" width="35" height="15" fill="#FF6B6B" fill-opacity="0.5"/>
<path d="M35.929 23.1818V29H35.2244V23.9205H35.1903L33.7699 24.8636V24.1477L35.2244 23.1818H35.929Z" fill="#2F2F2F"/>
<rect x="4.5" y="18.5" width="35" height="15" stroke="white"/>
<rect x="4.5" y="33.5" width="35" height="15" fill="#FF6B6B" fill-opacity="0.5"/>
<path d="M32.7585 44V43.4886L34.679 41.3864C34.9044 41.1402 35.09 40.9261 35.2358 40.7443C35.3816 40.5606 35.4896 40.3883 35.5597 40.2273C35.6316 40.0644 35.6676 39.8939 35.6676 39.7159C35.6676 39.5114 35.6184 39.3343 35.5199 39.1847C35.4233 39.035 35.2907 38.9195 35.1222 38.8381C34.9536 38.7566 34.7642 38.7159 34.554 38.7159C34.3305 38.7159 34.1354 38.7623 33.9688 38.8551C33.804 38.946 33.6761 39.0739 33.5852 39.2386C33.4962 39.4034 33.4517 39.5966 33.4517 39.8182H32.7812C32.7812 39.4773 32.8598 39.178 33.017 38.9205C33.1742 38.6629 33.3883 38.4621 33.6591 38.3182C33.9318 38.1742 34.2377 38.1023 34.5767 38.1023C34.9176 38.1023 35.2197 38.1742 35.483 38.3182C35.7462 38.4621 35.9527 38.6562 36.1023 38.9006C36.2519 39.1449 36.3267 39.4167 36.3267 39.7159C36.3267 39.9299 36.2879 40.1392 36.2102 40.3438C36.1345 40.5464 36.0019 40.7727 35.8125 41.0227C35.625 41.2708 35.3646 41.5739 35.0312 41.9318L33.7244 43.3295V43.375H36.429V44H32.7585Z" fill="#2F2F2F"/>
<rect x="4.5" y="33.5" width="35" height="15" stroke="white"/>
<rect x="4.5" y="48.5" width="35" height="15" fill="#FF6B6B" fill-opacity="0.5"/>
<path d="M34.4744 59.0795C34.0994 59.0795 33.7652 59.0152 33.4716 58.8864C33.1799 58.7576 32.9479 58.5786 32.7756 58.3494C32.6051 58.1184 32.5123 57.8504 32.4972 57.5455H33.2131C33.2282 57.733 33.2926 57.8949 33.4062 58.0312C33.5199 58.1657 33.6686 58.2699 33.8523 58.3438C34.036 58.4176 34.2396 58.4545 34.4631 58.4545C34.7131 58.4545 34.9347 58.411 35.1278 58.3239C35.321 58.2367 35.4725 58.1155 35.5824 57.9602C35.6922 57.8049 35.7472 57.625 35.7472 57.4205C35.7472 57.2064 35.6941 57.018 35.5881 56.8551C35.482 56.6903 35.3267 56.5616 35.1222 56.4688C34.9176 56.3759 34.6676 56.3295 34.3722 56.3295H33.9062V55.7045H34.3722C34.6032 55.7045 34.8059 55.6629 34.9801 55.5795C35.1563 55.4962 35.2936 55.3788 35.392 55.2273C35.4924 55.0758 35.5426 54.8977 35.5426 54.6932C35.5426 54.4962 35.4991 54.3248 35.4119 54.179C35.3248 54.0331 35.2017 53.9195 35.0426 53.8381C34.8854 53.7566 34.6998 53.7159 34.4858 53.7159C34.285 53.7159 34.0956 53.7528 33.9176 53.8267C33.7415 53.8987 33.5975 54.0038 33.4858 54.142C33.3741 54.2784 33.3134 54.4432 33.304 54.6364H32.6222C32.6335 54.3314 32.7254 54.0644 32.8977 53.8352C33.0701 53.6042 33.2955 53.4242 33.5739 53.2955C33.8542 53.1667 34.1619 53.1023 34.4972 53.1023C34.857 53.1023 35.1657 53.1752 35.4233 53.321C35.6809 53.465 35.8788 53.6553 36.017 53.892C36.1553 54.1288 36.2244 54.3845 36.2244 54.6591C36.2244 54.9867 36.1383 55.2661 35.9659 55.4972C35.7955 55.7282 35.5634 55.8883 35.2699 55.9773V56.0227C35.6373 56.0833 35.9242 56.2396 36.1307 56.4915C36.3371 56.7415 36.4403 57.0511 36.4403 57.4205C36.4403 57.7367 36.3542 58.0208 36.1818 58.2727C36.0114 58.5227 35.7784 58.7197 35.483 58.8636C35.1875 59.0076 34.8513 59.0795 34.4744 59.0795Z" fill="#2F2F2F"/>
<rect x="4.5" y="48.5" width="35" height="15" stroke="white"/>
<rect width="36" height="61" transform="translate(39 3)" fill="white"/>
<rect x="39.5" y="3.5" width="35" height="15" fill="#FFD93D"/>
<path d="M47.7756 11.4432V14H46.7472V9.63636H47.7301V10.3778H47.7812C47.8816 10.1335 48.0417 9.93939 48.2614 9.79545C48.483 9.65152 48.7566 9.57955 49.0824 9.57955C49.3835 9.57955 49.6458 9.64394 49.8693 9.77273C50.0947 9.90152 50.2689 10.0881 50.392 10.3324C50.517 10.5767 50.5786 10.8731 50.5767 11.2216V14H49.5483V11.3807C49.5483 11.089 49.4725 10.8608 49.321 10.696C49.1714 10.5312 48.964 10.4489 48.6989 10.4489C48.5189 10.4489 48.3589 10.4886 48.2188 10.5682C48.0805 10.6458 47.9716 10.7585 47.892 10.9062C47.8144 11.054 47.7756 11.233 47.7756 11.4432ZM52.8778 14.0881C52.6013 14.0881 52.3523 14.0388 52.1307 13.9403C51.911 13.84 51.7367 13.6922 51.608 13.4972C51.4811 13.3021 51.4176 13.0616 51.4176 12.7756C51.4176 12.5294 51.4631 12.3258 51.554 12.1648C51.6449 12.0038 51.7689 11.875 51.9261 11.7784C52.0833 11.6818 52.2604 11.6089 52.4574 11.5597C52.6563 11.5085 52.8617 11.4716 53.0739 11.4489C53.3295 11.4223 53.5369 11.3987 53.696 11.3778C53.8551 11.3551 53.9706 11.321 54.0426 11.2756C54.1165 11.2282 54.1534 11.1553 54.1534 11.0568V11.0398C54.1534 10.8258 54.09 10.66 53.9631 10.5426C53.8362 10.4252 53.6534 10.3665 53.4148 10.3665C53.1629 10.3665 52.9631 10.4214 52.8153 10.5312C52.6695 10.6411 52.571 10.7708 52.5199 10.9205L51.5597 10.7841C51.6354 10.5189 51.7604 10.2973 51.9347 10.1193C52.1089 9.93939 52.322 9.80492 52.5739 9.71591C52.8258 9.625 53.1042 9.57955 53.4091 9.57955C53.6193 9.57955 53.8286 9.60417 54.0369 9.65341C54.2453 9.70265 54.4356 9.78409 54.608 9.89773C54.7803 10.0095 54.9186 10.1619 55.0227 10.3551C55.1288 10.5483 55.1818 10.7898 55.1818 11.0795V14H54.1932V13.4006H54.1591C54.0966 13.5218 54.0085 13.6354 53.8949 13.7415C53.7831 13.8456 53.642 13.9299 53.4716 13.9943C53.303 14.0568 53.1051 14.0881 52.8778 14.0881ZM53.1449 13.3324C53.3513 13.3324 53.5303 13.2917 53.6818 13.2102C53.8333 13.1269 53.9498 13.017 54.0312 12.8807C54.1146 12.7443 54.1562 12.5956 54.1562 12.4347V11.9205C54.1241 11.947 54.0691 11.9716 53.9915 11.9943C53.9157 12.017 53.8305 12.0369 53.7358 12.054C53.6411 12.071 53.5473 12.0862 53.4545 12.0994C53.3617 12.1127 53.2813 12.1241 53.2131 12.1335C53.0597 12.1544 52.9223 12.1884 52.8011 12.2358C52.6799 12.2831 52.5843 12.3494 52.5142 12.4347C52.4441 12.518 52.4091 12.6259 52.4091 12.7585C52.4091 12.9479 52.4782 13.0909 52.6165 13.1875C52.7547 13.2841 52.9309 13.3324 53.1449 13.3324ZM56.2159 14V9.63636H57.1989V10.3778H57.25C57.3409 10.1278 57.4915 9.93277 57.7017 9.79261C57.9119 9.65057 58.1629 9.57955 58.4545 9.57955C58.75 9.57955 58.9991 9.65152 59.2017 9.79545C59.4063 9.9375 59.5502 10.1316 59.6335 10.3778H59.679C59.7756 10.1354 59.9384 9.94223 60.1676 9.7983C60.3987 9.65246 60.6723 9.57955 60.9886 9.57955C61.3902 9.57955 61.7178 9.70644 61.9716 9.96023C62.2254 10.214 62.3523 10.5843 62.3523 11.071V14H61.321V11.2301C61.321 10.9593 61.2491 10.7614 61.1051 10.6364C60.9612 10.5095 60.785 10.446 60.5767 10.446C60.3286 10.446 60.1345 10.5237 59.9943 10.679C59.8561 10.8324 59.7869 11.0322 59.7869 11.2784V14H58.7784V11.1875C58.7784 10.9621 58.7102 10.7822 58.5739 10.6477C58.4394 10.5133 58.2633 10.446 58.0455 10.446C57.8977 10.446 57.7633 10.4839 57.642 10.5597C57.5208 10.6335 57.4242 10.7386 57.3523 10.875C57.2803 11.0095 57.2443 11.1667 57.2443 11.3466V14H56.2159ZM65.3274 14.0852C64.8899 14.0852 64.5121 13.9943 64.1939 13.8125C63.8776 13.6288 63.6342 13.3693 63.4638 13.0341C63.2933 12.697 63.2081 12.3002 63.2081 11.8438C63.2081 11.3949 63.2933 11.0009 63.4638 10.6619C63.6361 10.321 63.8767 10.0559 64.1854 9.86648C64.4941 9.67519 64.8568 9.57955 65.2734 9.57955C65.5424 9.57955 65.7962 9.62311 66.0348 9.71023C66.2753 9.79545 66.4875 9.92803 66.6712 10.108C66.8568 10.2879 67.0026 10.517 67.1087 10.7955C67.2147 11.072 67.2678 11.4015 67.2678 11.7841V12.0994H63.6911V11.4062H66.282C66.2801 11.2093 66.2375 11.0341 66.1541 10.8807C66.0708 10.7254 65.9543 10.6032 65.8047 10.5142C65.657 10.4252 65.4846 10.3807 65.2876 10.3807C65.0774 10.3807 64.8928 10.4318 64.7337 10.5341C64.5746 10.6345 64.4505 10.767 64.3615 10.9318C64.2744 11.0947 64.2299 11.2737 64.228 11.4688V12.0739C64.228 12.3277 64.2744 12.5455 64.3672 12.7273C64.46 12.9072 64.5897 13.0455 64.7564 13.142C64.9231 13.2367 65.1181 13.2841 65.3416 13.2841C65.4912 13.2841 65.6267 13.2633 65.7479 13.2216C65.8691 13.178 65.9742 13.1146 66.0632 13.0312C66.1522 12.9479 66.2195 12.8447 66.2649 12.7216L67.2251 12.8295C67.1645 13.0833 67.049 13.3049 66.8786 13.4943C66.71 13.6818 66.4941 13.8277 66.2308 13.9318C65.9676 14.0341 65.6664 14.0852 65.3274 14.0852ZM71.5866 10.7898L70.6491 10.892C70.6226 10.7973 70.5762 10.7083 70.5099 10.625C70.4455 10.5417 70.3584 10.4744 70.2486 10.4233C70.1387 10.3722 70.0043 10.3466 69.8452 10.3466C69.6312 10.3466 69.4512 10.393 69.3054 10.4858C69.1615 10.5786 69.0904 10.6989 69.0923 10.8466C69.0904 10.9735 69.1368 11.0767 69.2315 11.1562C69.3281 11.2358 69.4872 11.3011 69.7088 11.3523L70.4531 11.5114C70.866 11.6004 71.1728 11.7415 71.3736 11.9347C71.5762 12.1278 71.6785 12.3807 71.6804 12.6932C71.6785 12.9678 71.598 13.2102 71.4389 13.4205C71.2817 13.6288 71.063 13.7917 70.7827 13.9091C70.5024 14.0265 70.1804 14.0852 69.8168 14.0852C69.2827 14.0852 68.8527 13.9735 68.527 13.75C68.2012 13.5246 68.0071 13.2112 67.9446 12.8097L68.9474 12.7131C68.9929 12.91 69.0895 13.0587 69.2372 13.1591C69.3849 13.2595 69.5772 13.3097 69.8139 13.3097C70.0582 13.3097 70.2543 13.2595 70.402 13.1591C70.5516 13.0587 70.6264 12.9347 70.6264 12.7869C70.6264 12.6619 70.5781 12.5587 70.4815 12.4773C70.3868 12.3958 70.2391 12.3333 70.0384 12.2898L69.294 12.1335C68.8755 12.0464 68.5658 11.8996 68.3651 11.6932C68.1643 11.4848 68.0649 11.2216 68.0668 10.9034C68.0649 10.6345 68.1378 10.4015 68.2855 10.2045C68.4351 10.0057 68.6425 9.85227 68.9077 9.74432C69.1747 9.63447 69.4825 9.57955 69.831 9.57955C70.3423 9.57955 70.7448 9.68845 71.0384 9.90625C71.3338 10.1241 71.5166 10.4186 71.5866 10.7898Z" fill="#2F2F2F"/>
<rect x="39.5" y="3.5" width="35" height="15" stroke="white"/>
<rect x="39.5" y="18.5" width="35" height="15" fill="#FFD93D" fill-opacity="0.5"/>
<path d="M54.0426 25V24.4886C54.0426 24.3333 54.0701 24.1686 54.125 23.9943C54.1818 23.8182 54.2633 23.6487 54.3693 23.4858C54.4773 23.321 54.607 23.178 54.7585 23.0568L55.1222 23.3523C55.0028 23.5227 54.8987 23.7008 54.8097 23.8864C54.7225 24.0701 54.679 24.267 54.679 24.4773V25H54.0426ZM55.4972 25V24.4886C55.4972 24.3333 55.5246 24.1686 55.5795 23.9943C55.6364 23.8182 55.7178 23.6487 55.8239 23.4858C55.9318 23.321 56.0616 23.178 56.2131 23.0568L56.5767 23.3523C56.4574 23.5227 56.3532 23.7008 56.2642 23.8864C56.1771 24.0701 56.1335 24.267 56.1335 24.4773V25H55.4972ZM59.2599 24.6364V25.2045H56.9077V24.6364H59.2599ZM57.6122 29V24.0341C57.6122 23.7841 57.6709 23.5758 57.7884 23.4091C57.9058 23.2424 58.0582 23.1174 58.2457 23.0341C58.4332 22.9508 58.6312 22.9091 58.8395 22.9091C59.0043 22.9091 59.1387 22.9223 59.2429 22.9489C59.3471 22.9754 59.4247 23 59.4759 23.0227L59.2827 23.6023C59.2486 23.5909 59.2012 23.5767 59.1406 23.5597C59.0819 23.5426 59.0043 23.5341 58.9077 23.5341C58.6861 23.5341 58.526 23.59 58.4276 23.7017C58.331 23.8134 58.2827 23.9773 58.2827 24.1932V29H57.6122ZM61.7926 29.0909C61.3987 29.0909 61.053 28.9972 60.7557 28.8097C60.4602 28.6222 60.2292 28.3598 60.0625 28.0227C59.8977 27.6856 59.8153 27.2917 59.8153 26.8409C59.8153 26.3864 59.8977 25.9896 60.0625 25.6506C60.2292 25.3116 60.4602 25.0483 60.7557 24.8608C61.053 24.6733 61.3987 24.5795 61.7926 24.5795C62.1866 24.5795 62.5313 24.6733 62.8267 24.8608C63.1241 25.0483 63.3551 25.3116 63.5199 25.6506C63.6866 25.9896 63.7699 26.3864 63.7699 26.8409C63.7699 27.2917 63.6866 27.6856 63.5199 28.0227C63.3551 28.3598 63.1241 28.6222 62.8267 28.8097C62.5313 28.9972 62.1866 29.0909 61.7926 29.0909ZM61.7926 28.4886C62.0919 28.4886 62.3381 28.4119 62.5312 28.2585C62.7244 28.1051 62.8674 27.9034 62.9602 27.6534C63.053 27.4034 63.0994 27.1326 63.0994 26.8409C63.0994 26.5492 63.053 26.2775 62.9602 26.0256C62.8674 25.7737 62.7244 25.5701 62.5312 25.4148C62.3381 25.2595 62.0919 25.1818 61.7926 25.1818C61.4934 25.1818 61.2472 25.2595 61.054 25.4148C60.8608 25.5701 60.7178 25.7737 60.625 26.0256C60.5322 26.2775 60.4858 26.5492 60.4858 26.8409C60.4858 27.1326 60.5322 27.4034 60.625 27.6534C60.7178 27.9034 60.8608 28.1051 61.054 28.2585C61.2472 28.4119 61.4934 28.4886 61.7926 28.4886ZM66.5661 29.0909C66.1721 29.0909 65.8265 28.9972 65.5291 28.8097C65.2337 28.6222 65.0026 28.3598 64.8359 28.0227C64.6712 27.6856 64.5888 27.2917 64.5888 26.8409C64.5888 26.3864 64.6712 25.9896 64.8359 25.6506C65.0026 25.3116 65.2337 25.0483 65.5291 24.8608C65.8265 24.6733 66.1721 24.5795 66.5661 24.5795C66.96 24.5795 67.3047 24.6733 67.6001 24.8608C67.8975 25.0483 68.1286 25.3116 68.2933 25.6506C68.46 25.9896 68.5433 26.3864 68.5433 26.8409C68.5433 27.2917 68.46 27.6856 68.2933 28.0227C68.1286 28.3598 67.8975 28.6222 67.6001 28.8097C67.3047 28.9972 66.96 29.0909 66.5661 29.0909ZM66.5661 28.4886C66.8653 28.4886 67.1115 28.4119 67.3047 28.2585C67.4979 28.1051 67.6409 27.9034 67.7337 27.6534C67.8265 27.4034 67.8729 27.1326 67.8729 26.8409C67.8729 26.5492 67.8265 26.2775 67.7337 26.0256C67.6409 25.7737 67.4979 25.5701 67.3047 25.4148C67.1115 25.2595 66.8653 25.1818 66.5661 25.1818C66.2668 25.1818 66.0206 25.2595 65.8274 25.4148C65.6342 25.5701 65.4912 25.7737 65.3984 26.0256C65.3056 26.2775 65.2592 26.5492 65.2592 26.8409C65.2592 27.1326 65.3056 27.4034 65.3984 27.6534C65.4912 27.9034 65.6342 28.1051 65.8274 28.2585C66.0206 28.4119 66.2668 28.4886 66.5661 28.4886ZM70.1577 23.1818V23.6932C70.1577 23.8485 70.1293 24.0142 70.0724 24.1903C70.0175 24.3646 69.9361 24.5341 69.8281 24.6989C69.7221 24.8617 69.5933 25.0038 69.4418 25.125L69.0781 24.8295C69.1974 24.6591 69.3007 24.482 69.3878 24.2983C69.4768 24.1127 69.5213 23.9148 69.5213 23.7045V23.1818H70.1577ZM71.6122 23.1818V23.6932C71.6122 23.8485 71.5838 24.0142 71.527 24.1903C71.4721 24.3646 71.3906 24.5341 71.2827 24.6989C71.1766 24.8617 71.0478 25.0038 70.8963 25.125L70.5327 24.8295C70.652 24.6591 70.7552 24.482 70.8423 24.2983C70.9313 24.1127 70.9759 23.9148 70.9759 23.7045V23.1818H71.6122Z" fill="#2F2F2F"/>
<rect x="39.5" y="18.5" width="35" height="15" stroke="white"/>
<rect x="39.5" y="33.5" width="35" height="15" fill="#FFD93D" fill-opacity="0.5"/>
<path d="M50.1051 40V39.4886C50.1051 39.3333 50.1326 39.1686 50.1875 38.9943C50.2443 38.8182 50.3258 38.6487 50.4318 38.4858C50.5398 38.321 50.6695 38.178 50.821 38.0568L51.1847 38.3523C51.0653 38.5227 50.9612 38.7008 50.8722 38.8864C50.785 39.0701 50.7415 39.267 50.7415 39.4773V40H50.1051ZM51.5597 40V39.4886C51.5597 39.3333 51.5871 39.1686 51.642 38.9943C51.6989 38.8182 51.7803 38.6487 51.8864 38.4858C51.9943 38.321 52.1241 38.178 52.2756 38.0568L52.6392 38.3523C52.5199 38.5227 52.4157 38.7008 52.3267 38.8864C52.2396 39.0701 52.196 39.267 52.196 39.4773V40H51.5597ZM54.0497 41.375V44H53.3793V38.1818H54.0497V40.3182H54.1065C54.2088 40.0928 54.3622 39.9138 54.5668 39.7812C54.7732 39.6468 55.0478 39.5795 55.3906 39.5795C55.688 39.5795 55.9484 39.6392 56.1719 39.7585C56.3954 39.8759 56.5687 40.0568 56.6918 40.3011C56.8168 40.5436 56.8793 40.8523 56.8793 41.2273V44H56.2088V41.2727C56.2088 40.9261 56.1188 40.6581 55.9389 40.4688C55.7609 40.2775 55.5137 40.1818 55.1974 40.1818C54.9777 40.1818 54.7808 40.2282 54.6065 40.321C54.4342 40.4138 54.2978 40.5492 54.1974 40.7273C54.099 40.9053 54.0497 41.1212 54.0497 41.375ZM59.3899 44.1023C59.1134 44.1023 58.8625 44.0502 58.6371 43.946C58.4117 43.84 58.2327 43.6875 58.1001 43.4886C57.9676 43.2879 57.9013 43.0455 57.9013 42.7614C57.9013 42.5114 57.9505 42.3087 58.049 42.1534C58.1475 41.9962 58.2791 41.8731 58.4439 41.7841C58.6087 41.6951 58.7905 41.6288 58.9893 41.5852C59.1901 41.5398 59.3918 41.5038 59.5945 41.4773C59.8596 41.4432 60.0746 41.4176 60.2393 41.4006C60.406 41.3816 60.5272 41.3504 60.603 41.3068C60.6806 41.2633 60.7195 41.1875 60.7195 41.0795V41.0568C60.7195 40.7765 60.6428 40.5587 60.4893 40.4034C60.3378 40.2481 60.1077 40.1705 59.799 40.1705C59.4789 40.1705 59.228 40.2405 59.0462 40.3807C58.8643 40.5208 58.7365 40.6705 58.6626 40.8295L58.0263 40.6023C58.1399 40.3371 58.2914 40.1307 58.4808 39.983C58.6721 39.8333 58.8804 39.7292 59.1058 39.6705C59.3331 39.6098 59.5566 39.5795 59.7763 39.5795C59.9164 39.5795 60.0774 39.5966 60.2592 39.6307C60.4429 39.6629 60.62 39.7301 60.7905 39.8324C60.9628 39.9347 61.1058 40.089 61.2195 40.2955C61.3331 40.5019 61.3899 40.7784 61.3899 41.125V44H60.7195V43.4091H60.6854C60.6399 43.5038 60.5642 43.6051 60.4581 43.7131C60.352 43.821 60.2109 43.9129 60.0348 43.9886C59.8587 44.0644 59.6437 44.1023 59.3899 44.1023ZM59.4922 43.5C59.7573 43.5 59.9808 43.4479 60.1626 43.3438C60.3464 43.2396 60.4846 43.1051 60.5774 42.9403C60.6721 42.7756 60.7195 42.6023 60.7195 42.4205V41.8068C60.6911 41.8409 60.6286 41.8722 60.532 41.9006C60.4373 41.9271 60.3274 41.9508 60.2024 41.9716C60.0793 41.9905 59.959 42.0076 59.8416 42.0227C59.7261 42.036 59.6323 42.0473 59.5604 42.0568C59.3861 42.0795 59.2232 42.1165 59.0717 42.1676C58.9221 42.2169 58.8009 42.2917 58.7081 42.392C58.6172 42.4905 58.5717 42.625 58.5717 42.7955C58.5717 43.0284 58.6579 43.2045 58.8303 43.3239C59.0045 43.4413 59.2251 43.5 59.4922 43.5ZM62.6136 44V39.6364H63.2614V40.3182H63.3182C63.4091 40.0852 63.5559 39.9044 63.7585 39.7756C63.9612 39.6449 64.2045 39.5795 64.4886 39.5795C64.7765 39.5795 65.0161 39.6449 65.2074 39.7756C65.4006 39.9044 65.5511 40.0852 65.6591 40.3182H65.7045C65.8163 40.0928 65.9839 39.9138 66.2074 39.7812C66.4309 39.6468 66.6989 39.5795 67.0114 39.5795C67.4015 39.5795 67.7206 39.7017 67.9688 39.946C68.2169 40.1884 68.3409 40.5663 68.3409 41.0795V44H67.6705V41.0795C67.6705 40.7576 67.5824 40.5275 67.4062 40.3892C67.2301 40.2509 67.0227 40.1818 66.7841 40.1818C66.4773 40.1818 66.2396 40.2746 66.071 40.4602C65.9025 40.6439 65.8182 40.8769 65.8182 41.1591V44H65.1364V41.0114C65.1364 40.7633 65.0559 40.5634 64.8949 40.4119C64.7339 40.2585 64.5265 40.1818 64.2727 40.1818C64.0985 40.1818 63.9356 40.2282 63.7841 40.321C63.6345 40.4138 63.5133 40.5426 63.4205 40.7074C63.3295 40.8703 63.2841 41.0587 63.2841 41.2727V44H62.6136ZM70.1577 38.1818V38.6932C70.1577 38.8485 70.1293 39.0142 70.0724 39.1903C70.0175 39.3646 69.9361 39.5341 69.8281 39.6989C69.7221 39.8617 69.5933 40.0038 69.4418 40.125L69.0781 39.8295C69.1974 39.6591 69.3007 39.482 69.3878 39.2983C69.4768 39.1127 69.5213 38.9148 69.5213 38.7045V38.1818H70.1577ZM71.6122 38.1818V38.6932C71.6122 38.8485 71.5838 39.0142 71.527 39.1903C71.4721 39.3646 71.3906 39.5341 71.2827 39.6989C71.1766 39.8617 71.0478 40.0038 70.8963 40.125L70.5327 39.8295C70.652 39.6591 70.7552 39.482 70.8423 39.2983C70.9313 39.1127 70.9759 38.9148 70.9759 38.7045V38.1818H71.6122Z" fill="#2F2F2F"/>
<rect x="39.5" y="33.5" width="35" height="15" stroke="white"/>
<rect x="39.5" y="48.5" width="35" height="15" fill="#FFD93D" fill-opacity="0.5"/>
<path d="M45.777 55V54.4886C45.777 54.3333 45.8045 54.1686 45.8594 53.9943C45.9162 53.8182 45.9976 53.6487 46.1037 53.4858C46.2116 53.321 46.3414 53.178 46.4929 53.0568L46.8565 53.3523C46.7372 53.5227 46.633 53.7008 46.544 53.8864C46.4569 54.0701 46.4134 54.267 46.4134 54.4773V55H45.777ZM47.2315 55V54.4886C47.2315 54.3333 47.259 54.1686 47.3139 53.9943C47.3707 53.8182 47.4522 53.6487 47.5582 53.4858C47.6662 53.321 47.7959 53.178 47.9474 53.0568L48.3111 53.3523C48.1918 53.5227 48.0876 53.7008 47.9986 53.8864C47.9115 54.0701 47.8679 54.267 47.8679 54.4773V55H47.2315ZM52.142 55.6136L51.5398 55.7841C51.5019 55.6837 51.446 55.5862 51.3722 55.4915C51.3002 55.3949 51.2017 55.3153 51.0767 55.2528C50.9517 55.1903 50.7917 55.1591 50.5966 55.1591C50.3295 55.1591 50.107 55.2206 49.929 55.3438C49.7528 55.465 49.6648 55.6193 49.6648 55.8068C49.6648 55.9735 49.7254 56.1051 49.8466 56.2017C49.9678 56.2983 50.1572 56.3788 50.4148 56.4432L51.0625 56.6023C51.4527 56.697 51.7434 56.8419 51.9347 57.0369C52.1259 57.2301 52.2216 57.4792 52.2216 57.7841C52.2216 58.0341 52.1496 58.2576 52.0057 58.4545C51.8636 58.6515 51.6648 58.8068 51.4091 58.9205C51.1534 59.0341 50.8561 59.0909 50.517 59.0909C50.072 59.0909 49.7036 58.9943 49.4119 58.8011C49.1203 58.608 48.9356 58.3258 48.858 57.9545L49.4943 57.7955C49.5549 58.0303 49.6695 58.2064 49.8381 58.3239C50.0085 58.4413 50.2311 58.5 50.5057 58.5C50.8182 58.5 51.0663 58.4337 51.25 58.3011C51.4356 58.1667 51.5284 58.0057 51.5284 57.8182C51.5284 57.6667 51.4754 57.5398 51.3693 57.4375C51.2633 57.3333 51.1004 57.2557 50.8807 57.2045L50.1534 57.0341C49.7538 56.9394 49.4602 56.7926 49.2727 56.5938C49.0871 56.393 48.9943 56.142 48.9943 55.8409C48.9943 55.5947 49.0634 55.3769 49.2017 55.1875C49.3419 54.9981 49.5322 54.8494 49.7727 54.7415C50.0152 54.6335 50.2898 54.5795 50.5966 54.5795C51.0284 54.5795 51.3674 54.6742 51.6136 54.8636C51.8617 55.053 52.0379 55.303 52.142 55.6136ZM53.2308 60.6364V54.6364H53.8786V55.3295H53.9581C54.0073 55.2538 54.0755 55.1572 54.1626 55.0398C54.2517 54.9205 54.3786 54.8144 54.5433 54.7216C54.71 54.6269 54.9354 54.5795 55.2195 54.5795C55.5869 54.5795 55.9107 54.6714 56.1911 54.8551C56.4714 55.0388 56.6901 55.2992 56.8473 55.6364C57.0045 55.9735 57.0831 56.3712 57.0831 56.8295C57.0831 57.2917 57.0045 57.6922 56.8473 58.0312C56.6901 58.3684 56.4723 58.6297 56.1939 58.8153C55.9155 58.9991 55.5945 59.0909 55.2308 59.0909C54.9505 59.0909 54.7261 59.0445 54.5575 58.9517C54.389 58.857 54.2592 58.75 54.1683 58.6307C54.0774 58.5095 54.0073 58.4091 53.9581 58.3295H53.9013V60.6364H53.2308ZM53.8899 56.8182C53.8899 57.1477 53.9382 57.4384 54.0348 57.6903C54.1314 57.9403 54.2725 58.1364 54.4581 58.2784C54.6437 58.4186 54.871 58.4886 55.1399 58.4886C55.4202 58.4886 55.6541 58.4148 55.8416 58.267C56.031 58.1174 56.1731 57.9167 56.2678 57.6648C56.3643 57.411 56.4126 57.1288 56.4126 56.8182C56.4126 56.5114 56.3653 56.2348 56.2706 55.9886C56.1778 55.7405 56.0367 55.5445 55.8473 55.4006C55.6598 55.2547 55.424 55.1818 55.1399 55.1818C54.8672 55.1818 54.638 55.2509 54.4524 55.3892C54.2668 55.5256 54.1267 55.7169 54.032 55.9631C53.9373 56.2074 53.8899 56.4924 53.8899 56.8182ZM59.3899 59.1023C59.1134 59.1023 58.8625 59.0502 58.6371 58.946C58.4117 58.84 58.2327 58.6875 58.1001 58.4886C57.9676 58.2879 57.9013 58.0455 57.9013 57.7614C57.9013 57.5114 57.9505 57.3087 58.049 57.1534C58.1475 56.9962 58.2791 56.8731 58.4439 56.7841C58.6087 56.6951 58.7905 56.6288 58.9893 56.5852C59.1901 56.5398 59.3918 56.5038 59.5945 56.4773C59.8596 56.4432 60.0746 56.4176 60.2393 56.4006C60.406 56.3816 60.5272 56.3504 60.603 56.3068C60.6806 56.2633 60.7195 56.1875 60.7195 56.0795V56.0568C60.7195 55.7765 60.6428 55.5587 60.4893 55.4034C60.3378 55.2481 60.1077 55.1705 59.799 55.1705C59.4789 55.1705 59.228 55.2405 59.0462 55.3807C58.8643 55.5208 58.7365 55.6705 58.6626 55.8295L58.0263 55.6023C58.1399 55.3371 58.2914 55.1307 58.4808 54.983C58.6721 54.8333 58.8804 54.7292 59.1058 54.6705C59.3331 54.6098 59.5566 54.5795 59.7763 54.5795C59.9164 54.5795 60.0774 54.5966 60.2592 54.6307C60.4429 54.6629 60.62 54.7301 60.7905 54.8324C60.9628 54.9347 61.1058 55.089 61.2195 55.2955C61.3331 55.5019 61.3899 55.7784 61.3899 56.125V59H60.7195V58.4091H60.6854C60.6399 58.5038 60.5642 58.6051 60.4581 58.7131C60.352 58.821 60.2109 58.9129 60.0348 58.9886C59.8587 59.0644 59.6437 59.1023 59.3899 59.1023ZM59.4922 58.5C59.7573 58.5 59.9808 58.4479 60.1626 58.3438C60.3464 58.2396 60.4846 58.1051 60.5774 57.9403C60.6721 57.7756 60.7195 57.6023 60.7195 57.4205V56.8068C60.6911 56.8409 60.6286 56.8722 60.532 56.9006C60.4373 56.9271 60.3274 56.9508 60.2024 56.9716C60.0793 56.9905 59.959 57.0076 59.8416 57.0227C59.7261 57.036 59.6323 57.0473 59.5604 57.0568C59.3861 57.0795 59.2232 57.1165 59.0717 57.1676C58.9221 57.2169 58.8009 57.2917 58.7081 57.392C58.6172 57.4905 58.5717 57.625 58.5717 57.7955C58.5717 58.0284 58.6579 58.2045 58.8303 58.3239C59.0045 58.4413 59.2251 58.5 59.4922 58.5ZM62.6136 59V54.6364H63.2614V55.3182H63.3182C63.4091 55.0852 63.5559 54.9044 63.7585 54.7756C63.9612 54.6449 64.2045 54.5795 64.4886 54.5795C64.7765 54.5795 65.0161 54.6449 65.2074 54.7756C65.4006 54.9044 65.5511 55.0852 65.6591 55.3182H65.7045C65.8163 55.0928 65.9839 54.9138 66.2074 54.7812C66.4309 54.6468 66.6989 54.5795 67.0114 54.5795C67.4015 54.5795 67.7206 54.7017 67.9688 54.946C68.2169 55.1884 68.3409 55.5663 68.3409 56.0795V59H67.6705V56.0795C67.6705 55.7576 67.5824 55.5275 67.4062 55.3892C67.2301 55.2509 67.0227 55.1818 66.7841 55.1818C66.4773 55.1818 66.2396 55.2746 66.071 55.4602C65.9025 55.6439 65.8182 55.8769 65.8182 56.1591V59H65.1364V56.0114C65.1364 55.7633 65.0559 55.5634 64.8949 55.4119C64.7339 55.2585 64.5265 55.1818 64.2727 55.1818C64.0985 55.1818 63.9356 55.2282 63.7841 55.321C63.6345 55.4138 63.5133 55.5426 63.4205 55.7074C63.3295 55.8703 63.2841 56.0587 63.2841 56.2727V59H62.6136ZM70.1577 53.1818V53.6932C70.1577 53.8485 70.1293 54.0142 70.0724 54.1903C70.0175 54.3646 69.9361 54.5341 69.8281 54.6989C69.7221 54.8617 69.5933 55.0038 69.4418 55.125L69.0781 54.8295C69.1974 54.6591 69.3007 54.482 69.3878 54.2983C69.4768 54.1127 69.5213 53.9148 69.5213 53.7045V53.1818H70.1577ZM71.6122 53.1818V53.6932C71.6122 53.8485 71.5838 54.0142 71.527 54.1903C71.4721 54.3646 71.3906 54.5341 71.2827 54.6989C71.1766 54.8617 71.0478 55.0038 70.8963 55.125L70.5327 54.8295C70.652 54.6591 70.7552 54.482 70.8423 54.2983C70.9313 54.1127 70.9759 53.9148 70.9759 53.7045V53.1818H71.6122Z" fill="#2F2F2F"/>
<rect x="39.5" y="48.5" width="35" height="15" stroke="white"/>
<path fill-rule="evenodd" clip-rule="evenodd" d="M97.948 27.5H97.0956V27.5125L97.0835 27.5L91.4992 33.2586L91.4989 33.2583L85.915 27.5L85.9029 27.5125V27.5H85.052V41.5H85.9029V41.4875L85.915 41.5L91.4993 35.7414L91.4995 35.7417L97.0835 41.5L97.0956 41.4875V41.5H97.948V39.7444H97.9468V29.2556H97.948V27.5ZM92.7033 34.5003L92.703 34.5L96.2443 30.8481V38.1519L92.7033 34.5003ZM90.2954 34.5L90.2951 34.4997L86.7541 30.8481V38.1519L90.2954 34.5Z" fill="black"/>
</svg>
