<svg width="249" height="128" viewBox="0 0 249 128" fill="none" xmlns="http://www.w3.org/2000/svg">
<g clip-path="url(#clip0_69_379)">
<rect x="153" y="6" width="30" height="115" fill="#6BCB77"/>
<rect x="153.5" y="82.5" width="29" height="19" fill="white" fill-opacity="0.5" stroke="white"/>
<rect x="153.5" y="101.5" width="29" height="19" fill="white" fill-opacity="0.5" stroke="white"/>
<rect x="153.5" y="63.5" width="29" height="19" fill="white" fill-opacity="0.5" stroke="white"/>
<rect x="153.5" y="44.5" width="29" height="19" fill="white" fill-opacity="0.5" stroke="white"/>
<rect x="153.5" y="25.5" width="29" height="19" fill="white" fill-opacity="0.5" stroke="white"/>
<rect x="153.5" y="6.5" width="29" height="19" stroke="white"/>
<rect x="182" y="6" width="30" height="115" fill="#A5A5A5"/>
<rect x="182.5" y="82.5" width="29" height="19" fill="white" fill-opacity="0.5" stroke="white"/>
<rect x="182.5" y="101.5" width="29" height="19" fill="white" fill-opacity="0.5" stroke="white"/>
<rect x="182.5" y="63.5" width="29" height="19" fill="white" fill-opacity="0.5" stroke="white"/>
<rect x="182.5" y="44.5" width="29" height="19" fill="white" fill-opacity="0.5" stroke="white"/>
<rect x="182.5" y="25.5" width="29" height="19" fill="white" fill-opacity="0.5" stroke="white"/>
<rect x="182.5" y="6.5" width="29" height="19" stroke="white"/>
<rect x="211" y="6" width="30" height="115" fill="#A5A5A5"/>
<rect x="211.5" y="82.5" width="29" height="19" fill="white" fill-opacity="0.5" stroke="white"/>
<rect x="211.5" y="101.5" width="29" height="19" fill="white" fill-opacity="0.5" stroke="white"/>
<rect x="211.5" y="63.5" width="29" height="19" fill="white" fill-opacity="0.5" stroke="white"/>
<rect x="211.5" y="44.5" width="29" height="19" fill="white" fill-opacity="0.5" stroke="white"/>
<rect x="211.5" y="25.5" width="29" height="19" fill="white" fill-opacity="0.5" stroke="white"/>
<rect x="211.5" y="6.5" width="29" height="19" stroke="white"/>
<g clip-path="url(#clip1_69_379)">
<rect x="182" y="25" width="30" height="115" fill="#FFD93D"/>
<rect x="182.5" y="44.5" width="29" height="19" fill="white" fill-opacity="0.5" stroke="white"/>
<rect x="182.5" y="25.5" width="29" height="19" stroke="white"/>
</g>
<g clip-path="url(#clip2_69_379)">
<rect x="182" y="44" width="30" height="115" fill="#FFD93D"/>
<rect x="182.5" y="63.5" width="29" height="19" fill="white" fill-opacity="0.5" stroke="white"/>
<rect x="182.5" y="44.5" width="29" height="19" stroke="white"/>
</g>
<g clip-path="url(#clip3_69_379)">
<rect x="182" y="63" width="30" height="115" fill="#FF6B6B"/>
<rect x="182.5" y="82.5" width="29" height="19" fill="white" fill-opacity="0.5" stroke="white"/>
<rect x="182.5" y="63.5" width="29" height="19" stroke="white"/>
</g>
<g clip-path="url(#clip4_69_379)">
<rect x="182" y="82" width="30" height="115" fill="#FF6B6B"/>
<rect x="182.5" y="101.5" width="29" height="19" fill="white" fill-opacity="0.5" stroke="white"/>
<rect x="182.5" y="82.5" width="29" height="19" stroke="white"/>
</g>
<g clip-path="url(#clip5_69_379)">
<rect x="211" y="-32" width="30" height="115" fill="#FFD93D"/>
<rect x="211.5" y="44.5" width="29" height="19" fill="white" fill-opacity="0.5" stroke="white"/>
<rect x="211.5" y="63.5" width="29" height="19" fill="white" fill-opacity="0.5" stroke="white"/>
<rect x="211.5" y="25.5" width="29" height="19" fill="white" fill-opacity="0.5" stroke="white"/>
<rect x="211.5" y="6.5" width="29" height="19" fill="white" fill-opacity="0.5" stroke="white"/>
</g>
<g clip-path="url(#clip6_69_379)">
<rect x="211" y="6" width="30" height="115" fill="#FF6B6B"/>
<rect x="211.5" y="82.5" width="29" height="19" fill="white" fill-opacity="0.5" stroke="white"/>
<rect x="211.5" y="101.5" width="29" height="19" fill="white" fill-opacity="0.5" stroke="white"/>
<rect x="211.5" y="63.5" width="29" height="19" fill="white" fill-opacity="0.5" stroke="white"/>
<rect x="211.5" y="44.5" width="29" height="19" fill="white" fill-opacity="0.5" stroke="white"/>
</g>
</g>
<path d="M110 62.5C109.172 62.5 108.5 63.1716 108.5 64C108.5 64.8284 109.172 65.5 110 65.5V62.5ZM140.061 65.0607C140.646 64.4749 140.646 63.5251 140.061 62.9393L130.515 53.3934C129.929 52.8076 128.979 52.8076 128.393 53.3934C127.808 53.9792 127.808 54.9289 128.393 55.5147L136.879 64L128.393 72.4853C127.808 73.0711 127.808 74.0208 128.393 74.6066C128.979 75.1924 129.929 75.1924 130.515 74.6066L140.061 65.0607ZM110 65.5H139V62.5H110V65.5Z" fill="black"/>
<g clip-path="url(#clip7_69_379)">
<rect x="8" y="35" width="30" height="115" fill="#FF6B6B"/>
<rect x="8.5" y="92.5" width="29" height="19" fill="white" fill-opacity="0.5" stroke="white"/>
<rect x="8.5" y="73.5" width="29" height="19" fill="white" fill-opacity="0.5" stroke="white"/>
<rect x="8.5" y="54.5" width="29" height="19" fill="white" fill-opacity="0.5" stroke="white"/>
<rect x="8.5" y="35.5" width="29" height="19" stroke="white"/>
<rect x="37" y="35" width="30" height="115" fill="#FFD93D"/>
<rect x="37.5" y="92.5" width="29" height="19" fill="white" fill-opacity="0.5" stroke="white"/>
<rect x="37.5" y="73.5" width="29" height="19" fill="white" fill-opacity="0.5" stroke="white"/>
<rect x="37.5" y="54.5" width="29" height="19" fill="white" fill-opacity="0.5" stroke="white"/>
<rect x="37.5" y="35.5" width="29" height="19" stroke="white"/>
<rect x="66" y="35" width="30" height="115" fill="#6BCB77"/>
<rect x="66.5" y="92.5" width="29" height="19" fill="white" fill-opacity="0.5" stroke="white"/>
<rect x="66.5" y="73.5" width="29" height="19" fill="white" fill-opacity="0.5" stroke="white"/>
<rect x="66.5" y="54.5" width="29" height="19" fill="white" fill-opacity="0.5" stroke="white"/>
<rect x="66.5" y="35.5" width="29" height="19" stroke="white"/>
<rect x="95" y="35" width="30" height="115" fill="#4D96FF"/>
<rect x="95.5" y="92.5" width="29" height="19" fill="white" fill-opacity="0.5" stroke="white"/>
<rect x="95.5" y="73.5" width="29" height="19" fill="white" fill-opacity="0.5" stroke="white"/>
<rect x="95.5" y="54.5" width="29" height="19" fill="white" fill-opacity="0.5" stroke="white"/>
<rect x="95.5" y="35.5" width="29" height="19" stroke="white"/>
</g>
<defs>
<clipPath id="clip0_69_379">
<rect width="88" height="96" fill="white" transform="translate(153 6)"/>
</clipPath>
<clipPath id="clip1_69_379">
<rect width="30" height="20" fill="white" transform="translate(182 25)"/>
</clipPath>
<clipPath id="clip2_69_379">
<rect width="30" height="20" fill="white" transform="translate(182 44)"/>
</clipPath>
<clipPath id="clip3_69_379">
<rect width="30" height="20" fill="white" transform="translate(182 63)"/>
</clipPath>
<clipPath id="clip4_69_379">
<rect width="30" height="20" fill="white" transform="translate(182 82)"/>
</clipPath>
<clipPath id="clip5_69_379">
<rect width="30" height="39" fill="white" transform="translate(211 25)"/>
</clipPath>
<clipPath id="clip6_69_379">
<rect width="30" height="39" fill="white" transform="translate(211 63)"/>
</clipPath>
<clipPath id="clip7_69_379">
<rect width="88" height="58" fill="white" transform="translate(8 35)"/>
</clipPath>
</defs>
</svg>
