<svg width="266" height="108" viewBox="0 0 266 108" fill="none" xmlns="http://www.w3.org/2000/svg">
<g clip-path="url(#clip0_87_1012)">
<rect x="143" y="6" width="30" height="115" fill="#A5A5A5"/>
<rect x="143.5" y="82.5" width="29" height="19" fill="white" fill-opacity="0.5" stroke="white"/>
<rect x="143.5" y="101.5" width="29" height="19" fill="white" fill-opacity="0.5" stroke="white"/>
<rect x="143.5" y="63.5" width="29" height="19" fill="white" fill-opacity="0.5" stroke="white"/>
<rect x="143.5" y="44.5" width="29" height="19" fill="white" fill-opacity="0.5" stroke="white"/>
<rect x="143.5" y="25.5" width="29" height="19" fill="white" fill-opacity="0.5" stroke="white"/>
<rect x="143.5" y="6.5" width="29" height="19" stroke="white"/>
<rect x="172" y="6" width="30" height="115" fill="#A5A5A5"/>
<rect x="172.5" y="82.5" width="29" height="19" fill="white" fill-opacity="0.5" stroke="white"/>
<rect x="172.5" y="101.5" width="29" height="19" fill="white" fill-opacity="0.5" stroke="white"/>
<rect x="172.5" y="63.5" width="29" height="19" fill="white" fill-opacity="0.5" stroke="white"/>
<rect x="172.5" y="44.5" width="29" height="19" fill="white" fill-opacity="0.5" stroke="white"/>
<rect x="172.5" y="25.5" width="29" height="19" fill="white" fill-opacity="0.5" stroke="white"/>
<rect x="172.5" y="6.5" width="29" height="19" stroke="white"/>
<rect x="201" y="6" width="30" height="115" fill="#A5A5A5"/>
<rect x="201.5" y="82.5" width="29" height="19" fill="white" fill-opacity="0.5" stroke="white"/>
<rect x="201.5" y="101.5" width="29" height="19" fill="white" fill-opacity="0.5" stroke="white"/>
<rect x="201.5" y="63.5" width="29" height="19" fill="white" fill-opacity="0.5" stroke="white"/>
<rect x="201.5" y="44.5" width="29" height="19" fill="white" fill-opacity="0.5" stroke="white"/>
<rect x="201.5" y="25.5" width="29" height="19" fill="white" fill-opacity="0.5" stroke="white"/>
<rect x="201.5" y="6.5" width="29" height="19" stroke="white"/>
<rect x="230" y="6" width="30" height="115" fill="#6BCB77"/>
<rect x="230.5" y="82.5" width="29" height="19" fill="white" fill-opacity="0.5" stroke="white"/>
<rect x="230.5" y="101.5" width="29" height="19" fill="white" fill-opacity="0.5" stroke="white"/>
<rect x="230.5" y="63.5" width="29" height="19" fill="white" fill-opacity="0.5" stroke="white"/>
<rect x="230.5" y="44.5" width="29" height="19" fill="white" fill-opacity="0.5" stroke="white"/>
<rect x="230.5" y="25.5" width="29" height="19" fill="white" fill-opacity="0.5" stroke="white"/>
<rect x="230.5" y="6.5" width="29" height="19" stroke="white"/>
</g>
<path d="M103 52.5C102.172 52.5 101.5 53.1716 101.5 54C101.5 54.8284 102.172 55.5 103 55.5V52.5ZM133.061 55.0607C133.646 54.4749 133.646 53.5251 133.061 52.9393L123.515 43.3934C122.929 42.8076 121.979 42.8076 121.393 43.3934C120.808 43.9792 120.808 44.9289 121.393 45.5147L129.879 54L121.393 62.4853C120.808 63.0711 120.808 64.0208 121.393 64.6066C121.979 65.1924 122.929 65.1924 123.515 64.6066L133.061 55.0607ZM103 55.5H132V52.5H103V55.5Z" fill="black"/>
<g clip-path="url(#clip1_87_1012)">
<rect x="4" y="6" width="30" height="115" fill="#A5A5A5"/>
<rect x="4.5" y="82.5" width="29" height="19" fill="white" fill-opacity="0.5" stroke="white"/>
<rect x="4.5" y="101.5" width="29" height="19" fill="white" fill-opacity="0.5" stroke="white"/>
<rect x="4.5" y="63.5" width="29" height="19" fill="white" fill-opacity="0.5" stroke="white"/>
<rect x="4.5" y="44.5" width="29" height="19" fill="white" fill-opacity="0.5" stroke="white"/>
<rect x="4.5" y="25.5" width="29" height="19" fill="white" fill-opacity="0.5" stroke="white"/>
<rect x="4.5" y="6.5" width="29" height="19" stroke="white"/>
<rect x="33" y="6" width="30" height="115" fill="#A5A5A5"/>
<rect x="33.5" y="82.5" width="29" height="19" fill="white" fill-opacity="0.5" stroke="white"/>
<rect x="33.5" y="101.5" width="29" height="19" fill="white" fill-opacity="0.5" stroke="white"/>
<rect x="33.5" y="63.5" width="29" height="19" fill="white" fill-opacity="0.5" stroke="white"/>
<rect x="33.5" y="44.5" width="29" height="19" fill="white" fill-opacity="0.5" stroke="white"/>
<rect x="33.5" y="25.5" width="29" height="19" fill="white" fill-opacity="0.5" stroke="white"/>
<rect x="33.5" y="6.5" width="29" height="19" stroke="white"/>
<rect x="62" y="6" width="30" height="115" fill="#A5A5A5"/>
<rect x="62.5" y="82.5" width="29" height="19" fill="white" fill-opacity="0.5" stroke="white"/>
<rect x="62.5" y="101.5" width="29" height="19" fill="white" fill-opacity="0.5" stroke="white"/>
<rect x="62.5" y="63.5" width="29" height="19" fill="white" fill-opacity="0.5" stroke="white"/>
<rect x="62.5" y="44.5" width="29" height="19" fill="white" fill-opacity="0.5" stroke="white"/>
<rect x="62.5" y="25.5" width="29" height="19" fill="white" fill-opacity="0.5" stroke="white"/>
<rect x="62.5" y="6.5" width="29" height="19" stroke="white"/>
</g>
<defs>
<clipPath id="clip0_87_1012">
<rect width="118" height="96" fill="white" transform="translate(143 6)"/>
</clipPath>
<clipPath id="clip1_87_1012">
<rect width="88" height="96" fill="white" transform="translate(4 6)"/>
</clipPath>
</defs>
</svg>
