<svg width="293" height="108" viewBox="0 0 293 108" fill="none" xmlns="http://www.w3.org/2000/svg">
<g clip-path="url(#clip0_69_379)">
<rect x="170" y="16" width="30" height="115" fill="#6BCB77"/>
<rect x="170.5" y="92.5" width="29" height="19" fill="white" fill-opacity="0.5" stroke="white"/>
<rect x="170.5" y="73.5" width="29" height="19" fill="white" fill-opacity="0.5" stroke="white"/>
<rect x="170.5" y="54.5" width="29" height="19" fill="white" fill-opacity="0.5" stroke="white"/>
<rect x="170.5" y="35.5" width="29" height="19" fill="white" fill-opacity="0.5" stroke="white"/>
<rect x="170.5" y="16.5" width="29" height="19" stroke="white"/>
<rect x="199" y="16" width="30" height="115" fill="#FF6B6B"/>
<rect x="199.5" y="92.5" width="29" height="19" fill="white" fill-opacity="0.5" stroke="white"/>
<rect x="199.5" y="73.5" width="29" height="19" fill="white" fill-opacity="0.5" stroke="white"/>
<rect x="199.5" y="54.5" width="29" height="19" fill="white" fill-opacity="0.5" stroke="white"/>
<rect x="199.5" y="35.5" width="29" height="19" fill="white" fill-opacity="0.5" stroke="white"/>
<rect x="199.5" y="16.5" width="29" height="19" stroke="white"/>
<rect x="228" y="16" width="30" height="115" fill="#FF6B6B"/>
<rect x="228.5" y="92.5" width="29" height="19" fill="white" fill-opacity="0.5" stroke="white"/>
<rect x="228.5" y="73.5" width="29" height="19" fill="white" fill-opacity="0.5" stroke="white"/>
<rect x="228.5" y="54.5" width="29" height="19" fill="white" fill-opacity="0.5" stroke="white"/>
<rect x="228.5" y="35.5" width="29" height="19" fill="white" fill-opacity="0.5" stroke="white"/>
<rect x="228.5" y="16.5" width="29" height="19" stroke="white"/>
<rect x="257" y="16" width="30" height="115" fill="#FF6B6B"/>
<rect x="257.5" y="92.5" width="29" height="19" fill="white" fill-opacity="0.5" stroke="white"/>
<rect x="257.5" y="73.5" width="29" height="19" fill="white" fill-opacity="0.5" stroke="white"/>
<rect x="257.5" y="54.5" width="29" height="19" fill="white" fill-opacity="0.5" stroke="white"/>
<rect x="257.5" y="35.5" width="29" height="19" fill="white" fill-opacity="0.5" stroke="white"/>
<rect x="257.5" y="16.5" width="29" height="19" stroke="white"/>
<g clip-path="url(#clip1_69_379)">
<g clip-path="url(#clip2_69_379)">
<rect x="199" y="16" width="30" height="115" fill="#FFD93D"/>
<rect x="199.5" y="92.5" width="29" height="19" fill="white" fill-opacity="0.5" stroke="white"/>
<rect x="199.5" y="73.5" width="29" height="19" fill="white" fill-opacity="0.5" stroke="white"/>
<rect x="199.5" y="54.5" width="29" height="19" fill="white" fill-opacity="0.5" stroke="white"/>
<rect x="199.5" y="35.5" width="29" height="19" fill="white" fill-opacity="0.5" stroke="white"/>
<rect x="199.5" y="16.5" width="29" height="19" stroke="white"/>
</g>
</g>
<g clip-path="url(#clip3_69_379)">
<g clip-path="url(#clip4_69_379)">
<rect x="257" y="16" width="30" height="115" fill="#FFD93D"/>
<rect x="257.5" y="92.5" width="29" height="19" fill="white" fill-opacity="0.5" stroke="white"/>
<rect x="257.5" y="73.5" width="29" height="19" fill="white" fill-opacity="0.5" stroke="white"/>
<rect x="257.5" y="54.5" width="29" height="19" fill="white" fill-opacity="0.5" stroke="white"/>
<rect x="257.5" y="35.5" width="29" height="19" fill="white" fill-opacity="0.5" stroke="white"/>
<rect x="257.5" y="16.5" width="29" height="19" stroke="white"/>
</g>
</g>
<g clip-path="url(#clip5_69_379)">
<g clip-path="url(#clip6_69_379)">
<rect x="228" y="16" width="30" height="115" fill="#FFD93D"/>
<rect x="228.5" y="92.5" width="29" height="19" fill="white" fill-opacity="0.5" stroke="white"/>
<rect x="228.5" y="73.5" width="29" height="19" fill="white" fill-opacity="0.5" stroke="white"/>
<rect x="228.5" y="54.5" width="29" height="19" fill="white" fill-opacity="0.5" stroke="white"/>
<rect x="228.5" y="35.5" width="29" height="19" fill="white" fill-opacity="0.5" stroke="white"/>
<rect x="228.5" y="16.5" width="29" height="19" stroke="white"/>
</g>
</g>
</g>
<g clip-path="url(#clip7_69_379)">
<rect x="5" y="6" width="30" height="115" fill="#FF6B6B"/>
<rect x="5.5" y="82.5" width="29" height="19" fill="white" fill-opacity="0.5" stroke="white"/>
<rect x="5.5" y="101.5" width="29" height="19" fill="white" fill-opacity="0.5" stroke="white"/>
<rect x="5.5" y="63.5" width="29" height="19" fill="white" fill-opacity="0.5" stroke="white"/>
<rect x="5.5" y="44.5" width="29" height="19" fill="white" fill-opacity="0.5" stroke="white"/>
<rect x="5.5" y="25.5" width="29" height="19" fill="white" fill-opacity="0.5" stroke="white"/>
<rect x="5.5" y="6.5" width="29" height="19" stroke="white"/>
<rect x="34" y="6" width="30" height="115" fill="#FFD93D"/>
<rect x="34.5" y="82.5" width="29" height="19" fill="white" fill-opacity="0.5" stroke="white"/>
<rect x="34.5" y="101.5" width="29" height="19" fill="white" fill-opacity="0.5" stroke="white"/>
<rect x="34.5" y="63.5" width="29" height="19" fill="white" fill-opacity="0.5" stroke="white"/>
<rect x="34.5" y="44.5" width="29" height="19" fill="white" fill-opacity="0.5" stroke="white"/>
<rect x="34.5" y="25.5" width="29" height="19" fill="white" fill-opacity="0.5" stroke="white"/>
<rect x="34.5" y="6.5" width="29" height="19" stroke="white"/>
<rect x="63" y="6" width="30" height="115" fill="#6BCB77"/>
<rect x="63.5" y="82.5" width="29" height="19" fill="white" fill-opacity="0.5" stroke="white"/>
<rect x="63.5" y="101.5" width="29" height="19" fill="white" fill-opacity="0.5" stroke="white"/>
<rect x="63.5" y="63.5" width="29" height="19" fill="white" fill-opacity="0.5" stroke="white"/>
<rect x="63.5" y="44.5" width="29" height="19" fill="white" fill-opacity="0.5" stroke="white"/>
<rect x="63.5" y="25.5" width="29" height="19" fill="white" fill-opacity="0.5" stroke="white"/>
<rect x="63.5" y="6.5" width="29" height="19" stroke="white"/>
<rect x="92" y="6" width="30" height="115" fill="#4D96FF"/>
<rect x="92.5" y="82.5" width="29" height="19" fill="white" fill-opacity="0.5" stroke="white"/>
<rect x="92.5" y="101.5" width="29" height="19" fill="white" fill-opacity="0.5" stroke="white"/>
<rect x="92.5" y="63.5" width="29" height="19" fill="white" fill-opacity="0.5" stroke="white"/>
<rect x="92.5" y="44.5" width="29" height="19" fill="white" fill-opacity="0.5" stroke="white"/>
<rect x="92.5" y="25.5" width="29" height="19" fill="white" fill-opacity="0.5" stroke="white"/>
<rect x="92.5" y="6.5" width="29" height="19" stroke="white"/>
</g>
<path d="M132 52.5C131.172 52.5 130.5 53.1716 130.5 54C130.5 54.8284 131.172 55.5 132 55.5V52.5ZM162.061 55.0607C162.646 54.4749 162.646 53.5251 162.061 52.9393L152.515 43.3934C151.929 42.8076 150.979 42.8076 150.393 43.3934C149.808 43.9792 149.808 44.9289 150.393 45.5147L158.879 54L150.393 62.4853C149.808 63.0711 149.808 64.0208 150.393 64.6066C150.979 65.1924 151.929 65.1924 152.515 64.6066L162.061 55.0607ZM132 55.5H161V52.5H132V55.5Z" fill="black"/>
<defs>
<clipPath id="clip0_69_379">
<rect width="118" height="77" fill="white" transform="translate(170 16)"/>
</clipPath>
<clipPath id="clip1_69_379">
<rect width="30" height="58" fill="white" transform="translate(199 35)"/>
</clipPath>
<clipPath id="clip2_69_379">
<rect width="30" height="115" fill="white" transform="translate(199 16)"/>
</clipPath>
<clipPath id="clip3_69_379">
<rect width="30" height="58" fill="white" transform="translate(257 35)"/>
</clipPath>
<clipPath id="clip4_69_379">
<rect width="30" height="115" fill="white" transform="translate(257 16)"/>
</clipPath>
<clipPath id="clip5_69_379">
<rect width="30" height="58" fill="white" transform="translate(228 35)"/>
</clipPath>
<clipPath id="clip6_69_379">
<rect width="30" height="115" fill="white" transform="translate(228 16)"/>
</clipPath>
<clipPath id="clip7_69_379">
<rect width="118" height="96" fill="white" transform="translate(5 6)"/>
</clipPath>
</defs>
</svg>
