<svg width="224" height="108" viewBox="0 0 224 108" fill="none" xmlns="http://www.w3.org/2000/svg">
<g clip-path="url(#clip0_107_4461)">
<rect x="159" y="16" width="30" height="115" fill="#4D96FF"/>
<rect x="159.5" y="92.5" width="29" height="19" fill="white" fill-opacity="0.5" stroke="white"/>
<rect x="159.5" y="73.5" width="29" height="19" fill="white" fill-opacity="0.5" stroke="white"/>
<rect x="159.5" y="54.5" width="29" height="19" fill="white" fill-opacity="0.5" stroke="white"/>
<rect x="159.5" y="35.5" width="29" height="19" fill="white" fill-opacity="0.5" stroke="white"/>
<rect x="159.5" y="16.5" width="29" height="19" stroke="white"/>
<rect x="188" y="16" width="30" height="115" fill="#FFD93D"/>
<rect x="188.5" y="92.5" width="29" height="19" fill="white" fill-opacity="0.5" stroke="white"/>
<rect x="188.5" y="73.5" width="29" height="19" fill="white" fill-opacity="0.5" stroke="white"/>
<rect x="188.5" y="54.5" width="29" height="19" fill="white" fill-opacity="0.5" stroke="white"/>
<rect x="188.5" y="35.5" width="29" height="19" fill="white" fill-opacity="0.5" stroke="white"/>
<rect x="188.5" y="16.5" width="29" height="19" stroke="white"/>
<rect x="217" y="16" width="30" height="115" fill="#6BCB77"/>
<rect x="217.5" y="92.5" width="29" height="19" fill="white" fill-opacity="0.5" stroke="white"/>
<rect x="217.5" y="73.5" width="29" height="19" fill="white" fill-opacity="0.5" stroke="white"/>
<rect x="217.5" y="54.5" width="29" height="19" fill="white" fill-opacity="0.5" stroke="white"/>
<rect x="217.5" y="35.5" width="29" height="19" fill="white" fill-opacity="0.5" stroke="white"/>
<rect x="217.5" y="16.5" width="29" height="19" stroke="white"/>
<rect x="159.75" y="35.75" width="28.5" height="18.5" stroke="#858585" stroke-width="1.5"/>
<path d="M175 55C175 54.4477 174.552 54 174 54C173.448 54 173 54.4477 173 55L175 55ZM173.293 74.7071C173.683 75.0976 174.317 75.0976 174.707 74.7071L181.071 68.3431C181.462 67.9526 181.462 67.3195 181.071 66.9289C180.681 66.5384 180.047 66.5384 179.657 66.9289L174 72.5858L168.343 66.9289C167.953 66.5384 167.319 66.5384 166.929 66.9289C166.538 67.3195 166.538 67.9526 166.929 68.3431L173.293 74.7071ZM173 55L173 74L175 74L175 55L173 55Z" fill="#858585"/>
</g>
<path d="M125 44C124.448 44 124 44.4477 124 45C124 45.5523 124.448 46 125 46L125 44ZM157.707 45.7071C158.098 45.3166 158.098 44.6834 157.707 44.2929L151.343 37.9289C150.953 37.5384 150.319 37.5384 149.929 37.9289C149.538 38.3195 149.538 38.9526 149.929 39.3431L155.586 45L149.929 50.6569C149.538 51.0474 149.538 51.6805 149.929 52.0711C150.319 52.4616 150.953 52.4616 151.343 52.0711L157.707 45.7071ZM125 46L157 46L157 44L125 44L125 46Z" fill="#858585"/>
<g clip-path="url(#clip1_107_4461)">
<rect x="6" y="6" width="30" height="115" fill="#FF6B6B"/>
<rect x="6.5" y="82.5" width="29" height="19" fill="white" fill-opacity="0.5" stroke="white"/>
<rect x="6.5" y="101.5" width="29" height="19" fill="white" fill-opacity="0.5" stroke="white"/>
<rect x="6.5" y="63.5" width="29" height="19" fill="white" fill-opacity="0.5" stroke="white"/>
<rect x="6.5" y="44.5" width="29" height="19" fill="white" fill-opacity="0.5" stroke="white"/>
<rect x="6.5" y="25.5" width="29" height="19" fill="white" fill-opacity="0.5" stroke="white"/>
<rect x="6.5" y="6.5" width="29" height="19" stroke="white"/>
<rect x="35" y="6" width="30" height="115" fill="#FFD93D"/>
<rect x="35.5" y="82.5" width="29" height="19" fill="white" fill-opacity="0.5" stroke="white"/>
<rect x="35.5" y="101.5" width="29" height="19" fill="white" fill-opacity="0.5" stroke="white"/>
<rect x="35.5" y="63.5" width="29" height="19" fill="white" fill-opacity="0.5" stroke="white"/>
<rect x="35.5" y="44.5" width="29" height="19" fill="white" fill-opacity="0.5" stroke="white"/>
<rect x="35.5" y="25.5" width="29" height="19" fill="white" fill-opacity="0.5" stroke="white"/>
<rect x="35.5" y="6.5" width="29" height="19" stroke="white"/>
<rect x="64" y="6" width="30" height="115" fill="#6BCB77"/>
<rect x="64.5" y="82.5" width="29" height="19" fill="white" fill-opacity="0.5" stroke="white"/>
<rect x="64.5" y="101.5" width="29" height="19" fill="white" fill-opacity="0.5" stroke="white"/>
<rect x="64.5" y="63.5" width="29" height="19" fill="white" fill-opacity="0.5" stroke="white"/>
<rect x="64.5" y="44.5" width="29" height="19" fill="white" fill-opacity="0.5" stroke="white"/>
<rect x="64.5" y="25.5" width="29" height="19" fill="white" fill-opacity="0.5" stroke="white"/>
<rect x="64.5" y="6.5" width="29" height="19" stroke="white"/>
<rect x="93" y="6" width="30" height="115" fill="#4D96FF"/>
<rect x="93.5" y="82.5" width="29" height="19" fill="white" fill-opacity="0.5" stroke="white"/>
<rect x="93.5" y="101.5" width="29" height="19" fill="white" fill-opacity="0.5" stroke="white"/>
<rect x="93.5" y="63.5" width="29" height="19" fill="white" fill-opacity="0.5" stroke="white"/>
<rect x="93.5" y="44.5" width="29" height="19" fill="white" fill-opacity="0.5" stroke="white"/>
<rect x="93.5" y="25.5" width="29" height="19" fill="white" fill-opacity="0.5" stroke="white"/>
<rect x="93.5" y="6.5" width="29" height="19" stroke="white"/>
<rect x="93.75" y="25.75" width="28.5" height="37.5" stroke="#858585" stroke-width="1.5"/>
<path d="M109 64C109 63.4477 108.552 63 108 63C107.448 63 107 63.4477 107 64L109 64ZM107.293 83.7071C107.683 84.0976 108.317 84.0976 108.707 83.7071L115.071 77.3431C115.462 76.9526 115.462 76.3195 115.071 75.9289C114.681 75.5384 114.047 75.5384 113.657 75.9289L108 81.5858L102.343 75.9289C101.953 75.5384 101.319 75.5384 100.929 75.9289C100.538 76.3195 100.538 76.9526 100.929 77.3431L107.293 83.7071ZM107 64L107 83L109 83L109 64L107 64Z" fill="#858585"/>
</g>
<defs>
<clipPath id="clip0_107_4461">
<rect width="59" height="77" fill="white" transform="translate(159 16)"/>
</clipPath>
<clipPath id="clip1_107_4461">
<rect width="117" height="96" fill="white" transform="translate(6 6)"/>
</clipPath>
</defs>
</svg>
