<svg width="239" height="90" viewBox="0 0 239 90" fill="none" xmlns="http://www.w3.org/2000/svg">
<g clip-path="url(#clip0_39_850)">
<rect x="174" y="6" width="30" height="115" fill="#6BCB77"/>
<rect x="174.5" y="82.5" width="29" height="19" fill="white" fill-opacity="0.5" stroke="white"/>
<rect x="174.5" y="63.5" width="29" height="19" fill="white" fill-opacity="0.5" stroke="white"/>
<rect x="174.5" y="44.5" width="29" height="19" fill="white" fill-opacity="0.5" stroke="white"/>
<rect x="174.5" y="25.5" width="29" height="19" fill="white" fill-opacity="0.5" stroke="white"/>
<rect x="174.5" y="6.5" width="29" height="19" stroke="white"/>
<rect x="203" y="6" width="30" height="115" fill="#6BCB77"/>
<rect x="203.5" y="82.5" width="29" height="19" fill="white" fill-opacity="0.5" stroke="white"/>
<rect x="203.5" y="63.5" width="29" height="19" fill="white" fill-opacity="0.5" stroke="white"/>
<rect x="203.5" y="44.5" width="29" height="19" fill="white" fill-opacity="0.5" stroke="white"/>
<rect x="203.5" y="25.5" width="29" height="19" fill="white" fill-opacity="0.5" stroke="white"/>
<rect x="203.5" y="6.5" width="29" height="19" stroke="white"/>
</g>
<path d="M134 42.5C133.172 42.5 132.5 43.1716 132.5 44C132.5 44.8284 133.172 45.5 134 45.5V42.5ZM163.061 45.0607C163.646 44.4749 163.646 43.5251 163.061 42.9393L153.515 33.3934C152.929 32.8076 151.979 32.8076 151.393 33.3934C150.808 33.9792 150.808 34.9289 151.393 35.5147L159.879 44L151.393 52.4853C150.808 53.0711 150.808 54.0208 151.393 54.6066C151.979 55.1924 152.929 55.1924 153.515 54.6066L163.061 45.0607ZM134 45.5H162V42.5H134V45.5Z" fill="black"/>
<g clip-path="url(#clip1_39_850)">
<rect x="5" y="6" width="30" height="115" fill="#6BCB77"/>
<rect x="5.5" y="82.5" width="29" height="19" fill="white" fill-opacity="0.5" stroke="white"/>
<rect x="5.5" y="63.5" width="29" height="19" fill="white" fill-opacity="0.5" stroke="white"/>
<rect x="5.5" y="44.5" width="29" height="19" fill="white" fill-opacity="0.5" stroke="white"/>
<rect x="5.5" y="25.5" width="29" height="19" fill="white" fill-opacity="0.5" stroke="white"/>
<rect x="5.5" y="6.5" width="29" height="19" stroke="white"/>
<rect x="92" y="6" width="30" height="115" fill="#A5A5A5"/>
<rect x="92.5" y="82.5" width="29" height="19" fill="white" fill-opacity="0.5" stroke="white"/>
<rect x="92.5" y="63.5" width="29" height="19" fill="white" fill-opacity="0.5" stroke="white"/>
<rect x="92.5" y="44.5" width="29" height="19" fill="white" fill-opacity="0.5" stroke="white"/>
<rect x="92.5" y="25.5" width="29" height="19" fill="white" fill-opacity="0.5" stroke="white"/>
<rect x="92.5" y="6.5" width="29" height="19" stroke="white"/>
<rect x="34" y="6" width="30" height="115" fill="#A5A5A5"/>
<rect x="34.5" y="82.5" width="29" height="19" fill="white" fill-opacity="0.5" stroke="white"/>
<rect x="34.5" y="63.5" width="29" height="19" fill="white" fill-opacity="0.5" stroke="white"/>
<rect x="34.5" y="44.5" width="29" height="19" fill="white" fill-opacity="0.5" stroke="white"/>
<rect x="34.5" y="25.5" width="29" height="19" fill="white" fill-opacity="0.5" stroke="white"/>
<rect x="34.5" y="6.5" width="29" height="19" stroke="white"/>
<rect x="63" y="6" width="30" height="115" fill="#6BCB77"/>
<rect x="63.5" y="82.5" width="29" height="19" fill="white" fill-opacity="0.5" stroke="white"/>
<rect x="63.5" y="63.5" width="29" height="19" fill="white" fill-opacity="0.5" stroke="white"/>
<rect x="63.5" y="44.5" width="29" height="19" fill="white" fill-opacity="0.5" stroke="white"/>
<rect x="63.5" y="25.5" width="29" height="19" fill="white" fill-opacity="0.5" stroke="white"/>
<rect x="63.5" y="6.5" width="29" height="19" stroke="white"/>
</g>
<defs>
<clipPath id="clip0_39_850">
<rect width="59" height="77" fill="white" transform="translate(174 6)"/>
</clipPath>
<clipPath id="clip1_39_850">
<rect width="117" height="77" fill="white" transform="translate(5 6)"/>
</clipPath>
</defs>
</svg>
